<svg xmlns="http://www.w3.org/2000/svg" xmlns:xlink="http://www.w3.org/1999/xlink" id="svg292" width="418.56" height="233.28" version="1.1" viewBox="0 0 313.92 174.96"><defs id="defs1"><style id="style1" type="text/css">*{stroke-linejoin:round;stroke-linecap:butt}</style></defs><g id="figure_1"><g id="patch_1"><path id="path1" d="M0 174.96h313.92V0H0z" style="fill:none"/></g><g id="axes_1"><g id="patch_2"><path id="path2" d="M32.392 149.602h121.82V38.319H32.392z" style="fill:none"/></g><g id="matplotlib.axis_1"><g id="xtick_1"><g id="line2d_1"><defs id="defs2"><path id="m2194477a3b" d="M0 0v-3" style="stroke:#000;stroke-width:.5"/></defs><g id="g2"><use xlink:href="#m2194477a3b" id="use2" x="37.924" y="149.602" style="stroke:#000;stroke-width:.5"/></g></g><g id="line2d_2"><defs id="defs3"><path id="m1012892ce6" d="M0 0v3" style="stroke:#000;stroke-width:.5"/></defs><g id="g3"><use xlink:href="#m1012892ce6" id="use3" x="37.924" y="38.319" style="stroke:#000;stroke-width:.5"/></g></g><g id="text_1"><g id="g4" transform="matrix(.08 0 0 -.08 35.931 158.505)"><defs id="defs4"><path id="NimbusRomNo9L-Regu-30" d="M1626 4352c-352 0-621-108-858-332-371-359-614-1095-614-1844 0-697 211-1446 512-1804C902 90 1229-64 1600-64c326 0 602 109 832 333 371 352 614 1095 614 1869 0 1312-582 2214-1420 2214m-20-166c538 0 826-723 826-2061 0-1337-282-2022-832-2022S768 788 768 2119c0 1357 288 2067 838 2067" transform="scale(.01563)"/></defs><use xlink:href="#NimbusRomNo9L-Regu-30" id="use4" transform="scale(.99626)"/></g></g></g><g id="xtick_2"><g id="line2d_3"><g id="g5"><use xlink:href="#m2194477a3b" id="use5" x="74.841" y="149.602" style="stroke:#000;stroke-width:.5"/></g></g><g id="line2d_4"><g id="g6"><use xlink:href="#m1012892ce6" id="use6" x="74.841" y="38.319" style="stroke:#000;stroke-width:.5"/></g></g><g id="text_2"><g id="g7" transform="matrix(.08 0 0 -.08 72.848 158.505)"><defs id="defs6"><path id="NimbusRomNo9L-Regu-32" d="m3040 875-83 32c-237-363-320-421-608-421H819l1075 1123c570 593 820 1078 820 1576 0 638-519 1128-1184 1128-352 0-685-140-922-395-205-218-301-422-410-875l135-32c256 625 486 829 928 829 537 0 902-364 902-900 0-497-294-1090-832-1658L192 77V0h2496z" transform="scale(.01563)"/></defs><use xlink:href="#NimbusRomNo9L-Regu-32" id="use7" transform="scale(.99626)"/></g></g></g><g id="xtick_3"><g id="line2d_5"><g id="g8"><use xlink:href="#m2194477a3b" id="use8" x="111.758" y="149.602" style="stroke:#000;stroke-width:.5"/></g></g><g id="line2d_6"><g id="g9"><use xlink:href="#m1012892ce6" id="use9" x="111.758" y="38.319" style="stroke:#000;stroke-width:.5"/></g></g><g id="text_3"><g id="g10" transform="matrix(.08 0 0 -.08 109.765 158.505)"><defs id="defs9"><path id="NimbusRomNo9L-Regu-34" d="M3021 1497h-653v2855h-282L77 1497v-409h1798V32h493v1056h653zm-1152 0H333l1536 2201z" transform="scale(.01563)"/></defs><use xlink:href="#NimbusRomNo9L-Regu-34" id="use10" transform="scale(.99626)"/></g></g></g><g id="xtick_4"><g id="line2d_7"><g id="g11"><use xlink:href="#m2194477a3b" id="use11" x="148.675" y="149.602" style="stroke:#000;stroke-width:.5"/></g></g><g id="line2d_8"><g id="g12"><use xlink:href="#m1012892ce6" id="use12" x="148.675" y="38.319" style="stroke:#000;stroke-width:.5"/></g></g><g id="text_4"><g id="g13" transform="matrix(.08 0 0 -.08 146.682 158.505)"><defs id="defs12"><path id="NimbusRomNo9L-Regu-36" d="M2854 4391c-729-64-1100-186-1568-512C595 3386 218 2656 218 1802c0-554 172-1114 448-1432C909 89 1254-64 1651-64c794 0 1344 605 1344 1485 0 815-467 1331-1203 1331-282 0-416-45-819-288 173 967 889 1658 1894 1824zM1549 2458c550 0 870-458 870-1254 0-700-249-1088-697-1088-564 0-909 598-909 1584 0 325 51 503 179 599 134 101 333 159 557 159" transform="scale(.01563)"/></defs><use xlink:href="#NimbusRomNo9L-Regu-36" id="use13" transform="scale(.99626)"/></g></g></g><g id="xtick_5"><g id="line2d_9"><defs id="defs13"><path id="mce91412ccf" d="M0 0v-1.5" style="stroke:#000;stroke-width:.5"/></defs><g id="g14"><use xlink:href="#mce91412ccf" id="use14" x="47.153" y="149.602" style="stroke:#000;stroke-width:.5"/></g></g><g id="line2d_10"><defs id="defs14"><path id="m6889470ebd" d="M0 0v1.5" style="stroke:#000;stroke-width:.5"/></defs><g id="g15"><use xlink:href="#m6889470ebd" id="use15" x="47.153" y="38.319" style="stroke:#000;stroke-width:.5"/></g></g></g><g id="xtick_6"><g id="line2d_11"><g id="g16"><use xlink:href="#mce91412ccf" id="use16" x="56.382" y="149.602" style="stroke:#000;stroke-width:.5"/></g></g><g id="line2d_12"><g id="g17"><use xlink:href="#m6889470ebd" id="use17" x="56.382" y="38.319" style="stroke:#000;stroke-width:.5"/></g></g></g><g id="xtick_7"><g id="line2d_13"><g id="g18"><use xlink:href="#mce91412ccf" id="use18" x="65.611" y="149.602" style="stroke:#000;stroke-width:.5"/></g></g><g id="line2d_14"><g id="g19"><use xlink:href="#m6889470ebd" id="use19" x="65.611" y="38.319" style="stroke:#000;stroke-width:.5"/></g></g></g><g id="xtick_8"><g id="line2d_15"><g id="g20"><use xlink:href="#mce91412ccf" id="use20" x="84.07" y="149.602" style="stroke:#000;stroke-width:.5"/></g></g><g id="line2d_16"><g id="g21"><use xlink:href="#m6889470ebd" id="use21" x="84.07" y="38.319" style="stroke:#000;stroke-width:.5"/></g></g></g><g id="xtick_9"><g id="line2d_17"><g id="g22"><use xlink:href="#mce91412ccf" id="use22" x="93.299" y="149.602" style="stroke:#000;stroke-width:.5"/></g></g><g id="line2d_18"><g id="g23"><use xlink:href="#m6889470ebd" id="use23" x="93.299" y="38.319" style="stroke:#000;stroke-width:.5"/></g></g></g><g id="xtick_10"><g id="line2d_19"><g id="g24"><use xlink:href="#mce91412ccf" id="use24" x="102.528" y="149.602" style="stroke:#000;stroke-width:.5"/></g></g><g id="line2d_20"><g id="g25"><use xlink:href="#m6889470ebd" id="use25" x="102.528" y="38.319" style="stroke:#000;stroke-width:.5"/></g></g></g><g id="xtick_11"><g id="line2d_21"><g id="g26"><use xlink:href="#mce91412ccf" id="use26" x="120.987" y="149.602" style="stroke:#000;stroke-width:.5"/></g></g><g id="line2d_22"><g id="g27"><use xlink:href="#m6889470ebd" id="use27" x="120.987" y="38.319" style="stroke:#000;stroke-width:.5"/></g></g></g><g id="xtick_12"><g id="line2d_23"><g id="g28"><use xlink:href="#mce91412ccf" id="use28" x="130.216" y="149.602" style="stroke:#000;stroke-width:.5"/></g></g><g id="line2d_24"><g id="g29"><use xlink:href="#m6889470ebd" id="use29" x="130.216" y="38.319" style="stroke:#000;stroke-width:.5"/></g></g></g><g id="xtick_13"><g id="line2d_25"><g id="g30"><use xlink:href="#mce91412ccf" id="use30" x="139.445" y="149.602" style="stroke:#000;stroke-width:.5"/></g></g><g id="line2d_26"><g id="g31"><use xlink:href="#m6889470ebd" id="use31" x="139.445" y="38.319" style="stroke:#000;stroke-width:.5"/></g></g></g><g id="text_5"><g id="g45" transform="matrix(.08 0 0 -.08 65.367 169.635)"><defs id="defs31"><path id="NimbusRomNo9L-Regu-46" d="M3066 1472v1485h-148c-76-496-192-589-704-589h-928v1398c0 177 32 215 205 215h871c723 0 864-95 972-667h160l-19 910H77v-122c473-38 557-128 557-577V749c0-532-71-615-557-615V0h1792v134c-493 0-583 91-583 558v1414h928c519 0 628-99 704-634z" transform="scale(.01563)"/><path id="NimbusRomNo9L-Regu-72" d="M45 2496c89 19 147 26 224 26 160 0 217-103 217-384V538c0-320-44-365-454-442V0h1536v102c-435 0-544 97-544 463v1448c0 206 275 528 448 528 38 0 96-32 166-96 103-90 173-128 256-128 154 0 250 109 250 288 0 211-134 339-352 339-269 0-454-147-768-601v588l-32 13c-339-141-570-223-947-345z" transform="scale(.01563)"/><path id="NimbusRomNo9L-Regu-65" d="M2611 1053c-307-489-582-675-992-675-365 0-640 186-825 552-116 244-160 456-173 849h1971c-51 414-115 598-275 802-192 230-487 363-819 363-320 0-621-115-864-333-301-262-474-717-474-1241C160 486 621-64 1357-64c608 0 1088 379 1357 1072zM634 1984c70 495 288 730 678 730s544-179 627-730z" transform="scale(.01563)"/><path id="NimbusRomNo9L-Regu-71" d="M2304 2701c-294 173-486 230-736 230-800 0-1414-713-1414-1631C154 498 576-70 1178-70c371 0 723 166 1004 473V-824c0-364-115-462-569-462v-122h1510v90c-352 77-403 128-403 397v3827h-70zM2182 804c0-153-25-235-89-286-141-121-352-198-551-198-198 0-371 64-499 191-205 185-339 599-339 1019 0 752 339 1222 883 1222 397 0 595-210 595-637z" transform="scale(.01563)"/><path id="NimbusRomNo9L-Regu-75" d="M3066 320h-32c-295 0-365 70-365 365v2195H1658v-122c396 0 473-64 473-383V875c0-178-32-268-121-338-173-140-372-217-564-217-249 0-454 217-454 485v2075H58v-102c307 0 396-96 396-391V770c0-507 308-834 775-834 237 0 486 102 659 275l275 275V-45l26-13c320 128 550 199 877 288z" transform="scale(.01563)"/><path id="NimbusRomNo9L-Regu-6e" d="M102 2579c39 19 103 26 173 26 179 0 237-96 237-410V608c0-365-70-454-397-480V32h1357v96c-326 26-422 102-422 333v1798c307 288 448 365 659 365 313 0 467-198 467-621V666c0-404-83-512-403-538V32h1331v96c-314 32-390 109-390 422v1466c0 602-282 960-756 960-294 0-492-109-928-518v505l-44 13c-314-115-532-186-884-288z" transform="scale(.01563)"/><path id="NimbusRomNo9L-Regu-63" d="M2547 998c-307-448-537-601-902-601-583 0-992 512-992 1248 0 659 352 1113 870 1113 231 0 314-70 378-307l38-141c51-179 167-294 301-294 166 0 307 122 307 269 0 358-448 659-985 659-314 0-640-128-903-358-320-282-499-717-499-1223C160 531 666-64 1376-64c288 0 544 102 774 301 173 153 295 326 487 704z" transform="scale(.01563)"/><path id="NimbusRomNo9L-Regu-79" d="M3040 2880h-864v-96c205 0 307-58 307-161 0-26-6-64-25-109L1837 742l-736 1635c-39 91-64 175-64 245 0 117 96 162 371 162v96H90v-90c166-25 275-96 326-205l730-1580 19-52 96-192c179-321 281-552 281-649 0-96-147-501-256-694-89-167-230-289-320-289-38 0-96 13-160 45-121 45-230 71-339 71-147 0-275-128-275-282 0-211 205-371 474-371 428 0 736 359 1081 1284l986 2619c83 206 153 270 307 289z" transform="scale(.01563)"/><path id="NimbusRomNo9L-Regu-5b" d="M1914-864h-551c-211 0-313 108-313 333v4312c0 200 83 283 288 283h576v160H563v-5248h1351z" transform="scale(.01563)"/><path id="NimbusRomNo9L-Regu-47" d="M4538 2304H2906v-128c275 0 352-19 428-71 96-58 135-207 135-484V574c0-207-391-382-851-382-1044 0-1684 730-1684 1920 0 602 180 1184 461 1498 282 314 679 486 1114 486 358 0 672-121 921-352 192-179 295-352 455-742h147l-51 1350h-141c-38-121-154-211-288-211-64 0-166 19-282 64-288 96-582 147-870 147-1280 0-2195-940-2195-2246 0-627 173-1107 531-1485C1165 180 1779-64 2483-64c551 0 1351 224 1607 449v1309c0 379 76 463 448 495z" transform="scale(.01563)"/><path id="NimbusRomNo9L-Regu-48" d="M1338 2304v1229c0 457 70 526 563 571v120H122v-120c492-45 563-115 563-577V749c0-539-64-615-563-615V0h1779v121c-480 38-563 121-563 578v1323h1939V757c0-546-64-623-563-623V0h1779v121c-480 38-563 121-563 575v2833c0 460 70 530 563 575v120H2714v-120c492-45 563-114 563-571V2304z" transform="scale(.01563)"/><path id="NimbusRomNo9L-Regu-7a" d="m2675 864-115 26c-64-320-102-423-186-532-89-108-307-166-633-166H858l1721 2592v96H358l-19-755h115c58 467 154 563 538 563h883L173 96V0h2413z" transform="scale(.01563)"/><path id="NimbusRomNo9L-Regu-5d" d="M218-864v-160h1350v5248H218v-160h550c211 0 314-109 314-334V-582c0-199-90-282-288-282z" transform="scale(.01563)"/></defs><use xlink:href="#NimbusRomNo9L-Regu-46" id="use32" transform="scale(.99626)"/><use xlink:href="#NimbusRomNo9L-Regu-72" id="use33" transform="translate(55.392)scale(.99626)"/><use xlink:href="#NimbusRomNo9L-Regu-65" id="use34" transform="translate(88.567)scale(.99626)"/><use xlink:href="#NimbusRomNo9L-Regu-71" id="use35" transform="translate(132.8)scale(.99626)"/><use xlink:href="#NimbusRomNo9L-Regu-75" id="use36" transform="translate(182.614)scale(.99626)"/><use xlink:href="#NimbusRomNo9L-Regu-65" id="use37" transform="translate(232.427)scale(.99626)"/><use xlink:href="#NimbusRomNo9L-Regu-6e" id="use38" transform="translate(276.66)scale(.99626)"/><use xlink:href="#NimbusRomNo9L-Regu-63" id="use39" transform="translate(326.474)scale(.99626)"/><use xlink:href="#NimbusRomNo9L-Regu-79" id="use40" transform="translate(369.214)scale(.99626)"/><use xlink:href="#NimbusRomNo9L-Regu-5b" id="use41" transform="translate(443.934)scale(.99626)"/><use xlink:href="#NimbusRomNo9L-Regu-47" id="use42" transform="translate(477.109)scale(.99626)"/><use xlink:href="#NimbusRomNo9L-Regu-48" id="use43" transform="translate(549.039)scale(.99626)"/><use xlink:href="#NimbusRomNo9L-Regu-7a" id="use44" transform="translate(620.969)scale(.99626)"/><use xlink:href="#NimbusRomNo9L-Regu-5d" id="use45" transform="translate(665.202)scale(.99626)"/></g></g></g><g id="matplotlib.axis_2"><g id="ytick_1"><g id="line2d_27"><defs id="defs45"><path id="m6d64ce265e" d="M0 0h3" style="stroke:#000;stroke-width:.5"/></defs><g id="g46"><use xlink:href="#m6d64ce265e" id="use46" x="32.392" y="136.508" style="stroke:#000;stroke-width:.5"/></g></g><g id="line2d_28"><defs id="defs46"><path id="me04b729615" d="M0 0h-3" style="stroke:#000;stroke-width:.5"/></defs><g id="g47"><use xlink:href="#me04b729615" id="use47" x="154.212" y="136.508" style="stroke:#000;stroke-width:.5"/></g></g><g id="text_6"><g id="g50" transform="matrix(.08 0 0 -.08 14.73 139.21)"><defs id="defs47"><path id="CMSY10-0" d="M4218 1472c108 0 224 0 224 128s-116 128-224 128H755c-109 0-224 0-224-128s115-128 224-128z" transform="scale(.01563)"/></defs><use xlink:href="#CMSY10-0" id="use48" transform="scale(.99626)"/><use xlink:href="#NimbusRomNo9L-Regu-34" id="use49" transform="translate(77.409)scale(.99626)"/><use xlink:href="#NimbusRomNo9L-Regu-30" id="use50" transform="translate(127.222)scale(.99626)"/></g></g></g><g id="ytick_2"><g id="line2d_29"><g id="g51"><use xlink:href="#m6d64ce265e" id="use51" x="32.392" y="100.546" style="stroke:#000;stroke-width:.5"/></g></g><g id="line2d_30"><g id="g52"><use xlink:href="#me04b729615" id="use52" x="154.212" y="100.546" style="stroke:#000;stroke-width:.5"/></g></g><g id="text_7"><g id="g55" transform="matrix(.08 0 0 -.08 14.73 103.248)"><defs id="defs52"><path id="NimbusRomNo9L-Regu-33" d="M979 2138c378 0 525-13 679-70 396-141 646-506 646-948 0-537-365-953-838-953-173 0-301 45-538 198-192 115-301 160-410 160-147 0-243-89-243-224C275 77 550-64 998-64c493 0 999 167 1300 429 300 263 467 634 467 1063 0 326-103 627-288 825-128 141-250 218-531 339 441 301 601 538 601 884 0 518-409 876-998 876-320 0-602-108-832-313-192-173-288-340-429-724l96-25c262 467 550 678 954 678 416 0 704-281 704-684 0-231-96-461-256-621-192-192-372-288-807-442z" transform="scale(.01563)"/></defs><use xlink:href="#CMSY10-0" id="use53" transform="scale(.99626)"/><use xlink:href="#NimbusRomNo9L-Regu-33" id="use54" transform="translate(77.409)scale(.99626)"/><use xlink:href="#NimbusRomNo9L-Regu-30" id="use55" transform="translate(127.222)scale(.99626)"/></g></g></g><g id="ytick_3"><g id="line2d_31"><g id="g56"><use xlink:href="#m6d64ce265e" id="use56" x="32.392" y="64.584" style="stroke:#000;stroke-width:.5"/></g></g><g id="line2d_32"><g id="g57"><use xlink:href="#me04b729615" id="use57" x="154.212" y="64.584" style="stroke:#000;stroke-width:.5"/></g></g><g id="text_8"><g id="g60" transform="matrix(.08 0 0 -.08 14.73 67.286)"><use xlink:href="#CMSY10-0" id="use58" transform="scale(.99626)"/><use xlink:href="#NimbusRomNo9L-Regu-32" id="use59" transform="translate(77.409)scale(.99626)"/><use xlink:href="#NimbusRomNo9L-Regu-30" id="use60" transform="translate(127.222)scale(.99626)"/></g></g></g><g id="ytick_4"><g id="line2d_33"><defs id="defs60"><path id="m3160a6cfa3" d="M0 0h1.5" style="stroke:#000;stroke-width:.5"/></defs><g id="g61"><use xlink:href="#m3160a6cfa3" id="use61" x="32.392" y="143.7" style="stroke:#000;stroke-width:.5"/></g></g><g id="line2d_34"><defs id="defs61"><path id="ma2d05b3ac6" d="M0 0h-1.5" style="stroke:#000;stroke-width:.5"/></defs><g id="g62"><use xlink:href="#ma2d05b3ac6" id="use62" x="154.212" y="143.7" style="stroke:#000;stroke-width:.5"/></g></g></g><g id="ytick_5"><g id="line2d_35"><g id="g63"><use xlink:href="#m3160a6cfa3" id="use63" x="32.392" y="129.316" style="stroke:#000;stroke-width:.5"/></g></g><g id="line2d_36"><g id="g64"><use xlink:href="#ma2d05b3ac6" id="use64" x="154.212" y="129.316" style="stroke:#000;stroke-width:.5"/></g></g></g><g id="ytick_6"><g id="line2d_37"><g id="g65"><use xlink:href="#m3160a6cfa3" id="use65" x="32.392" y="122.123" style="stroke:#000;stroke-width:.5"/></g></g><g id="line2d_38"><g id="g66"><use xlink:href="#ma2d05b3ac6" id="use66" x="154.212" y="122.123" style="stroke:#000;stroke-width:.5"/></g></g></g><g id="ytick_7"><g id="line2d_39"><g id="g67"><use xlink:href="#m3160a6cfa3" id="use67" x="32.392" y="114.931" style="stroke:#000;stroke-width:.5"/></g></g><g id="line2d_40"><g id="g68"><use xlink:href="#ma2d05b3ac6" id="use68" x="154.212" y="114.931" style="stroke:#000;stroke-width:.5"/></g></g></g><g id="ytick_8"><g id="line2d_41"><g id="g69"><use xlink:href="#m3160a6cfa3" id="use69" x="32.392" y="107.739" style="stroke:#000;stroke-width:.5"/></g></g><g id="line2d_42"><g id="g70"><use xlink:href="#ma2d05b3ac6" id="use70" x="154.212" y="107.739" style="stroke:#000;stroke-width:.5"/></g></g></g><g id="ytick_9"><g id="line2d_43"><g id="g71"><use xlink:href="#m3160a6cfa3" id="use71" x="32.392" y="93.354" style="stroke:#000;stroke-width:.5"/></g></g><g id="line2d_44"><g id="g72"><use xlink:href="#ma2d05b3ac6" id="use72" x="154.212" y="93.354" style="stroke:#000;stroke-width:.5"/></g></g></g><g id="ytick_10"><g id="line2d_45"><g id="g73"><use xlink:href="#m3160a6cfa3" id="use73" x="32.392" y="86.162" style="stroke:#000;stroke-width:.5"/></g></g><g id="line2d_46"><g id="g74"><use xlink:href="#ma2d05b3ac6" id="use74" x="154.212" y="86.162" style="stroke:#000;stroke-width:.5"/></g></g></g><g id="ytick_11"><g id="line2d_47"><g id="g75"><use xlink:href="#m3160a6cfa3" id="use75" x="32.392" y="78.969" style="stroke:#000;stroke-width:.5"/></g></g><g id="line2d_48"><g id="g76"><use xlink:href="#ma2d05b3ac6" id="use76" x="154.212" y="78.969" style="stroke:#000;stroke-width:.5"/></g></g></g><g id="ytick_12"><g id="line2d_49"><g id="g77"><use xlink:href="#m3160a6cfa3" id="use77" x="32.392" y="71.777" style="stroke:#000;stroke-width:.5"/></g></g><g id="line2d_50"><g id="g78"><use xlink:href="#ma2d05b3ac6" id="use78" x="154.212" y="71.777" style="stroke:#000;stroke-width:.5"/></g></g></g><g id="ytick_13"><g id="line2d_51"><g id="g79"><use xlink:href="#m3160a6cfa3" id="use79" x="32.392" y="57.392" style="stroke:#000;stroke-width:.5"/></g></g><g id="line2d_52"><g id="g80"><use xlink:href="#ma2d05b3ac6" id="use80" x="154.212" y="57.392" style="stroke:#000;stroke-width:.5"/></g></g></g><g id="ytick_14"><g id="line2d_53"><g id="g81"><use xlink:href="#m3160a6cfa3" id="use81" x="32.392" y="50.2" style="stroke:#000;stroke-width:.5"/></g></g><g id="line2d_54"><g id="g82"><use xlink:href="#ma2d05b3ac6" id="use82" x="154.212" y="50.2" style="stroke:#000;stroke-width:.5"/></g></g></g><g id="ytick_15"><g id="line2d_55"><g id="g83"><use xlink:href="#m3160a6cfa3" id="use83" x="32.392" y="43.007" style="stroke:#000;stroke-width:.5"/></g></g><g id="line2d_56"><g id="g84"><use xlink:href="#ma2d05b3ac6" id="use84" x="154.212" y="43.007" style="stroke:#000;stroke-width:.5"/></g></g></g><g id="text_9"><g id="g91" transform="matrix(0 -.08 -.08 0 9.004 108.462)"><defs id="defs84"><path id="NimbusRomNo9L-Regu-53" d="M2861 4352h-135c-25-147-96-217-204-217-64 0-173 25-282 77-237 89-474 140-678 140-276 0-557-108-768-294-224-199-340-468-340-802 0-513 282-871 999-1250 461-243 793-507 953-750 58-83 90-218 90-372 0-430-320-724-787-724-570 0-973 353-1293 1136H269L461-64h141c6 121 83 211 179 211 70 0 179-25 301-68 243-93 499-143 755-143 736 0 1305 506 1305 1165 0 525-352 941-1196 1395-672 372-941 653-941 999 0 352 269 595 665 595 288 0 557-122 781-352 199-205 288-371 391-749h160z" transform="scale(.01563)"/><path id="NimbusRomNo9L-Regu-31" d="M1862 4339 710 3757v-90c77 32 148 58 173 71 115 45 224 70 288 70 135 0 192-97 192-303V592c0-213-51-360-153-419-96-57-186-77-455-77V0h1767v96c-506 0-608 64-608 374v3857z" transform="scale(.01563)"/><path id="NimbusRomNo9L-Regu-64" d="m2202-64 940 333v96h-147c-230 0-281 70-281 366v3633l-32 13c-308-109-532-173-941-281v-102c51 6 89 6 141 6 236 0 294-64 294-328V2669c-243 205-416 275-672 275-736 0-1331-723-1331-1632C173 493 653-64 1357-64c358 0 601 128 819 429V-45zm-26 717c0-45-45-122-109-192-115-128-275-192-461-192-531 0-883 512-883 1299 0 723 314 1197 800 1197 339 0 653-301 653-640z" transform="scale(.01563)"/><path id="NimbusRomNo9L-Regu-42" d="M109 4237v-141c537 0 614-70 614-548V689c0-477-83-561-614-561V0h2137c500 0 954 136 1191 356 230 208 358 499 358 809 0 286-115 545-313 732-192 175-365 253-781 356 333 82 467 145 621 278 160 140 256 372 256 632 0 708-570 1074-1677 1074zm1267-2125c621 0 915-32 1146-130 364-155 537-414 537-823 0-350-134-604-390-753-205-116-467-168-890-168-313 0-403 58-403 266zm0 256v1444c0 132 45 189 141 189h281c736 0 1127-302 1127-864 0-491-339-769-941-769z" transform="scale(.01563)"/></defs><use xlink:href="#NimbusRomNo9L-Regu-53" id="use85" transform="scale(.99626)"/><use xlink:href="#NimbusRomNo9L-Regu-31" id="use86" transform="translate(55.392)scale(.99626)"/><use xlink:href="#NimbusRomNo9L-Regu-31" id="use87" transform="translate(105.205)scale(.99626)"/><use xlink:href="#NimbusRomNo9L-Regu-5b" id="use88" transform="translate(179.925)scale(.99626)"/><use xlink:href="#NimbusRomNo9L-Regu-64" id="use89" transform="translate(213.1)scale(.99626)"/><use xlink:href="#NimbusRomNo9L-Regu-42" id="use90" transform="translate(262.913)scale(.99626)"/><use xlink:href="#NimbusRomNo9L-Regu-5d" id="use91" transform="translate(329.363)scale(.99626)"/></g></g></g><g id="line2d_57"><path id="path91" d="m37.93 127.3.553 1.1 1.107 3.744 2.769 9.666.554 1.282.553.896.554.219.554-.849 1.107-4.626 2.769-16.556 1.661-7.499 2.769-10.184 1.107-3.484 1.108-2.814 1.107-2.288 2.769-3.937 1.107-1.42 1.108-1.055.553-.396.554-.224 1.108-.034 1.107.372 2.215 1.038 1.107.799.554.487 1.108 1.469 2.215 3.27.553.529.554.294.554.021.554-.227 1.107-.876.554-.481 2.215-3.098 1.107-2.323 2.215-5.065 1.107-2.184 1.108-1.852 4.983-7.21 1.108-1.074 1.107-.715 1.108-.533 2.768-.901.554-.035 1.108.27 1.107.695 2.215 2.223 2.769 3.533 1.107 1.817 1.661 3.578 4.43 10.098 4.43 8.618.554.962.553.654.554.43.554.097.554-.577.553-1.087.554-1.488.554-2.115.553-3.135 1.108-8.49.554-4.117.553-1.84.554 1.497 1.108 6.174.553 1.916.554.74.554-.241.553-.99 1.108-3.135 3.876-13.613 2.215-6.326 2.769-7.242 1.66-3.628 1.662-2.923 1.661-2.493 1.661-2.209 1.661-1.833 1.662-1.314 1.107-.649 1.661-.734 1.108-.291h0" clip-path="url(#p192a1a5740)" style="fill:none;stroke:#000;stroke-linecap:square"/></g><g id="line2d_58"><path id="path92" d="m37.93 127.024.553 1.088 1.661 5.647 2.215 8.39.554 1.39.553 1.004.554-.214.554-.958.554-1.77.553-2.35 1.662-9.678 2.214-11.977 1.108-5.166 1.661-6.391 1.661-5.052 1.108-2.733 1.107-2.381 1.661-2.675 1.108-1.38 1.107-1.067 1.108-.72 1.107-.396 1.108-.077 1.107.19.554.166 1.107.606 1.661 1.332 2.215 2.314 1.108 1.23 1.107.949 1.108.64 1.107.01.554-.147.554-.348 1.107-1.163 1.108-1.779.553-.94 3.876-8.033 2.77-4.979 1.66-2.335 1.661-1.857 1.662-1.295 1.66-.812 1.662-.282 1.107.098 1.108.35 1.107.57 1.108.842 1.107.976 1.108 1.206 1.66 2.21 2.216 3.59 2.768 5.438 5.538 11.545 1.66 2.527 1.108 1.115 1.108.351.554-.144.553-.517.554-1.145.554-1.656.553-2.589.554-3.404 1.108-8.394.553-1.556.554 1.569 1.108 6.172.553 1.723.554.675.554-.179.553-.93.554-1.303 1.108-3.523 4.43-15.02 2.214-6.567 1.662-4.133 1.66-3.605 1.662-3.029 1.107-1.585 1.108-1.32 1.107-1.073 1.108-.795 1.107-.549 1.108-.312 1.107-.083 1.108.086 1.107.303.554.228" clip-path="url(#p192a1a5740)" style="fill:none;stroke-dasharray:3.7,1.6;stroke-dashoffset:0;stroke:red"/></g><g id="patch_3"><path id="path93" d="M32.392 149.602V38.319" style="fill:none;stroke:#000;stroke-width:.5;stroke-linejoin:miter;stroke-linecap:square"/></g><g id="patch_4"><path id="path94" d="M154.212 149.602V38.319" style="fill:none;stroke:#000;stroke-width:.5;stroke-linejoin:miter;stroke-linecap:square"/></g><g id="patch_5"><path id="path95" d="M32.392 149.602h121.82" style="fill:none;stroke:#000;stroke-width:.5;stroke-linejoin:miter;stroke-linecap:square"/></g><g id="patch_6"><path id="path96" d="M32.392 38.32h121.82" style="fill:none;stroke:#000;stroke-width:.5;stroke-linejoin:miter;stroke-linecap:square"/></g><g id="text_10"><g id="g105" transform="matrix(.096 0 0 -.096 69.923 32.32)"><defs id="defs96"><path id="NimbusRomNo9L-Regu-43" d="m3968 2906-58 1446h-134c-38-134-141-211-269-211-57 0-153 19-249 58-314 102-634 153-935 153-525 0-1056-198-1453-550-448-397-691-992-691-1696 0-595 192-1146 519-1510 384-416 972-660 1606-660 723 0 1357 295 1747 813l-115 115c-474-454-896-646-1427-646-403 0-762 128-1037 371-352 314-550 890-550 1600 0 1159 595 1907 1523 1907 365 0 697-134 953-390 205-205 301-384 423-800z" transform="scale(.01563)"/><path id="NimbusRomNo9L-Regu-6f" d="M1600 2944c-832 0-1414-614-1414-1498C186 582 781-64 1587-64c807 0 1421 678 1421 1562 0 838-589 1446-1408 1446m-83-179c537 0 915-615 915-1491 0-724-288-1159-768-1159-250 0-486 154-621 410-179 333-281 781-281 1235 0 608 300 1005 755 1005" transform="scale(.01563)"/><path id="NimbusRomNo9L-Regu-6d" d="M122 2547c83 19 134 26 204 26 167 0 224-103 224-411V539c0-347-89-443-448-443V0h1421v96c-339 0-435 70-435 322v1816c0 12 51 76 96 121 160 147 435 256 659 256 282 0 423-226 423-679V528c0-361-71-432-436-432V0h1434v96c-365 0-461 109-461 507v1618c192 275 403 390 698 390 365 0 480-173 480-704V557c0-365-51-416-423-461V0h1402v96l-166 19c-192 0-276 115-276 365v1322c0 757-249 1142-742 1142-371 0-698-166-1043-537-115 364-333 537-679 537-281 0-460-90-992-493v480l-44 13c-327-122-544-192-896-288z" transform="scale(.01563)"/><path id="NimbusRomNo9L-Regu-70" d="M58 2516c57 6 102 6 160 6 217 0 262-64 262-367V-855c0-334-70-406-448-444v-109h1549v115c-480 0-563 71-563 477V199c224-212 377-276 646-276 755 0 1344 720 1344 1652 0 797-448 1369-1069 1369-358 0-640-160-921-506v493l-39 13c-345-134-569-218-921-326zm960-380c0 193 358 424 652 424 474 0 788-489 788-1236 0-713-314-1196-775-1196-301 0-665 231-665 424z" transform="scale(.01563)"/><path id="NimbusRomNo9L-Regu-61" d="M2829 423c-109-90-186-122-282-122-147 0-192 89-192 371v1248c0 333-32 518-128 672-141 230-416 352-793 352-602 0-1076-314-1076-717 0-147 128-275 276-275 153 0 288 128 288 269 0 25-7 57-13 102-13 58-19 109-19 154 0 173 204 313 460 313 314 0 487-185 487-531v-390c-986-397-1095-448-1370-691-141-128-230-346-230-557 0-403 281-685 672-685 281 0 544 134 934 467 32-333 147-467 410-467 217 0 352 77 576 320zm-992 360c0-199-32-257-167-334-153-90-332-148-467-148-224 0-403 219-403 495v26c0 379 262 611 1037 893z" transform="scale(.01563)"/><path id="NimbusRomNo9L-Regu-69" d="m1120 2929-992-350v-95l51 6c77 12 160 19 218 19 153 0 211-103 211-384V640c0-461-64-531-506-531V0h1517v96c-422 32-473 95-473 554v2260zM819 4352c-173 0-320-147-320-326s141-327 320-327c186 0 333 141 333 327 0 179-147 326-333 326" transform="scale(.01563)"/><path id="NimbusRomNo9L-Regu-73" d="m2016 2010-26 870h-70l-13-13c-57-45-64-51-89-51-39 0-103 13-173 45-141 54-282 83-448 83-506 0-871-328-871-790 0-358 205-615 749-923l371-211c224-128 333-283 333-481 0-283-205-462-531-462-218 0-416 82-538 221-134 157-192 302-275 662H333V-39h83c45 72 70 87 147 87 58 0 147-13 295-50 179-37 352-62 467-62 493 0 902 372 902 821 0 320-153 532-537 763l-692 410c-179 103-275 264-275 437 0 257 199 436 493 436 365 0 557-220 704-793z" transform="scale(.01563)"/></defs><use xlink:href="#NimbusRomNo9L-Regu-43" id="use96" transform="scale(.99626)"/><use xlink:href="#NimbusRomNo9L-Regu-6f" id="use97" transform="translate(66.45)scale(.99626)"/><use xlink:href="#NimbusRomNo9L-Regu-6d" id="use98" transform="translate(116.263)scale(.99626)"/><use xlink:href="#NimbusRomNo9L-Regu-70" id="use99" transform="translate(193.772)scale(.99626)"/><use xlink:href="#NimbusRomNo9L-Regu-61" id="use100" transform="translate(243.585)scale(.99626)"/><use xlink:href="#NimbusRomNo9L-Regu-72" id="use101" transform="translate(287.818)scale(.99626)"/><use xlink:href="#NimbusRomNo9L-Regu-69" id="use102" transform="translate(320.994)scale(.99626)"/><use xlink:href="#NimbusRomNo9L-Regu-73" id="use103" transform="translate(348.689)scale(.99626)"/><use xlink:href="#NimbusRomNo9L-Regu-6f" id="use104" transform="translate(387.442)scale(.99626)"/><use xlink:href="#NimbusRomNo9L-Regu-6e" id="use105" transform="translate(437.256)scale(.99626)"/></g></g><g id="legend_1"><g id="line2d_59"><path id="path105" d="M39.592 48.32h16" style="fill:none;stroke:#000;stroke-linecap:square"/></g><g id="text_11"><g id="g118" transform="matrix(.08 0 0 -.08 61.992 51.12)"><defs id="defs105"><path id="NimbusRomNo9L-Regu-52" d="M4218 121c-244 19-372 84-557 303L2342 2061c429 82 621 158 832 327 205 165 327 430 327 725 0 272-83 505-250 688-243 258-774 423-1376 423H109v-122c480-51 544-121 544-574V765c0-529-64-606-544-644V0h1773v134c-493 0-576 85-576 558v1292h358L3187 0h1031zM1306 3762c0 175 70 225 326 225 800 0 1171-271 1171-864 0-316-134-581-365-700-294-165-518-202-1132-202z" transform="scale(.01563)"/><path id="NimbusRomNo9L-Regu-66" d="M1978 2880h-788v731c0 367 122 562 365 562 135 0 224-63 339-246 103-164 180-227 288-227 148 0 269 114 269 259 0 229-281 393-665 393-397 0-736-171-903-461-166-278-217-506-224-1011H134v-205h525V656c0-471-70-547-531-547V0h1664v109c-525 0-595 71-595 552v2014h781z" transform="scale(.01563)"/><path id="NimbusRomNo9L-Regu-74" d="M1632 2880H986v742c0 64-7 84-45 84-45-58-83-116-128-180-243-352-519-659-621-685-70-47-109-93-109-126 0-20 7-33 26-33h339V751c0-539 192-815 570-815 313 0 556 154 768 487l-84 70c-134-160-243-224-384-224-236 0-332 174-332 578v1835h646z" transform="scale(.01563)"/></defs><use xlink:href="#NimbusRomNo9L-Regu-52" id="use106" transform="scale(.99626)"/><use xlink:href="#NimbusRomNo9L-Regu-65" id="use107" transform="translate(66.45)scale(.99626)"/><use xlink:href="#NimbusRomNo9L-Regu-66" id="use108" transform="translate(110.684)scale(.99626)"/><use xlink:href="#NimbusRomNo9L-Regu-65" id="use109" transform="translate(143.859)scale(.99626)"/><use xlink:href="#NimbusRomNo9L-Regu-72" id="use110" transform="translate(188.092)scale(.99626)"/><use xlink:href="#NimbusRomNo9L-Regu-65" id="use111" transform="translate(221.268)scale(.99626)"/><use xlink:href="#NimbusRomNo9L-Regu-6e" id="use112" transform="translate(265.501)scale(.99626)"/><use xlink:href="#NimbusRomNo9L-Regu-63" id="use113" transform="translate(315.314)scale(.99626)"/><use xlink:href="#NimbusRomNo9L-Regu-65" id="use114" transform="translate(359.548)scale(.99626)"/><use xlink:href="#NimbusRomNo9L-Regu-64" id="use115" transform="translate(428.688)scale(.99626)"/><use xlink:href="#NimbusRomNo9L-Regu-61" id="use116" transform="translate(478.501)scale(.99626)"/><use xlink:href="#NimbusRomNo9L-Regu-74" id="use117" transform="translate(522.735)scale(.99626)"/><use xlink:href="#NimbusRomNo9L-Regu-61" id="use118" transform="translate(550.43)scale(.99626)"/></g></g><g id="line2d_60"><path id="path118" d="M39.592 59.645h16" style="fill:none;stroke-dasharray:3.7,1.6;stroke-dashoffset:0;stroke:red"/></g><g id="text_12"><g id="g133" transform="matrix(.08 0 0 -.08 61.992 62.445)"><defs id="defs118"><path id="NimbusRomNo9L-Regu-4f" d="M2310 4352c-1222 0-2092-921-2092-2208 0-601 204-1184 550-1555 371-403 941-653 1504-653 1261 0 2131 896 2131 2183 0 633-185 1177-537 1561-404 442-941 672-1556 672m0-230c295 0 589-115 820-320 345-314 544-915 544-1677 0-377-84-819-212-1152-57-160-166-320-313-467-224-224-512-339-851-339-295 0-583 115-807 313-333 295-544 941-544 1652 0 652 179 1273 448 1574 250 275 563 416 915 416" transform="scale(.01563)"/><path id="NimbusRomNo9L-Regu-3" d="M205 2675h441V637c0-293-38-456-128-515-64-45-128-58-313-58V-38h1433v96c-364 39-454 117-454 416v2201h1203V507c0-319-96-423-429-449v-96h1376v96c-345 26-409 90-409 424v3857l-32 13c-51-6-122-32-199-70-121-58-211-90-268-90-32 0-96 19-192 51-180 71-365 109-519 109-301 0-595-151-774-398-192-271-256-518-282-1074H205zm2182 205H1184v328c0 656 134 971 416 971 141 0 218-50 333-221 121-176 205-232 352-232 45 0 70 12 102 44z" transform="scale(.01563)"/></defs><use xlink:href="#NimbusRomNo9L-Regu-4f" id="use119" transform="scale(.99626)"/><use xlink:href="#NimbusRomNo9L-Regu-66" id="use120" transform="translate(71.93)scale(.99626)"/><use xlink:href="#NimbusRomNo9L-Regu-3" id="use121" transform="translate(102.615)scale(.99626)"/><use xlink:href="#NimbusRomNo9L-Regu-69" id="use122" transform="translate(158.006)scale(.99626)"/><use xlink:href="#NimbusRomNo9L-Regu-6e" id="use123" transform="translate(185.701)scale(.99626)"/><use xlink:href="#NimbusRomNo9L-Regu-65" id="use124" transform="translate(235.515)scale(.99626)"/><use xlink:href="#NimbusRomNo9L-Regu-63" id="use125" transform="translate(304.655)scale(.99626)"/><use xlink:href="#NimbusRomNo9L-Regu-6f" id="use126" transform="translate(348.888)scale(.99626)"/><use xlink:href="#NimbusRomNo9L-Regu-72" id="use127" transform="translate(398.701)scale(.99626)"/><use xlink:href="#NimbusRomNo9L-Regu-72" id="use128" transform="translate(431.877)scale(.99626)"/><use xlink:href="#NimbusRomNo9L-Regu-65" id="use129" transform="translate(465.052)scale(.99626)"/><use xlink:href="#NimbusRomNo9L-Regu-63" id="use130" transform="translate(509.286)scale(.99626)"/><use xlink:href="#NimbusRomNo9L-Regu-74" id="use131" transform="translate(553.52)scale(.99626)"/><use xlink:href="#NimbusRomNo9L-Regu-65" id="use132" transform="translate(581.214)scale(.99626)"/><use xlink:href="#NimbusRomNo9L-Regu-64" id="use133" transform="translate(625.448)scale(.99626)"/></g></g></g></g><g id="axes_2"><g id="patch_7"><path id="path133" d="M188.5 149.602h121.82V38.319H188.5z" style="fill:none"/></g><g id="matplotlib.axis_3"><g id="xtick_14"><g id="line2d_61"><g id="g134"><use xlink:href="#m2194477a3b" id="use134" x="194.032" y="149.602" style="stroke:#000;stroke-width:.5"/></g></g><g id="line2d_62"><g id="g135"><use xlink:href="#m1012892ce6" id="use135" x="194.032" y="38.319" style="stroke:#000;stroke-width:.5"/></g></g><g id="text_13"><g id="g136" transform="matrix(.08 0 0 -.08 192.04 158.505)"><use xlink:href="#NimbusRomNo9L-Regu-30" id="use136" transform="scale(.99626)"/></g></g></g><g id="xtick_15"><g id="line2d_63"><g id="g137"><use xlink:href="#m2194477a3b" id="use137" x="230.949" y="149.602" style="stroke:#000;stroke-width:.5"/></g></g><g id="line2d_64"><g id="g138"><use xlink:href="#m1012892ce6" id="use138" x="230.949" y="38.319" style="stroke:#000;stroke-width:.5"/></g></g><g id="text_14"><g id="g139" transform="matrix(.08 0 0 -.08 228.956 158.505)"><use xlink:href="#NimbusRomNo9L-Regu-32" id="use139" transform="scale(.99626)"/></g></g></g><g id="xtick_16"><g id="line2d_65"><g id="g140"><use xlink:href="#m2194477a3b" id="use140" x="267.866" y="149.602" style="stroke:#000;stroke-width:.5"/></g></g><g id="line2d_66"><g id="g141"><use xlink:href="#m1012892ce6" id="use141" x="267.866" y="38.319" style="stroke:#000;stroke-width:.5"/></g></g><g id="text_15"><g id="g142" transform="matrix(.08 0 0 -.08 265.873 158.505)"><use xlink:href="#NimbusRomNo9L-Regu-34" id="use142" transform="scale(.99626)"/></g></g></g><g id="xtick_17"><g id="line2d_67"><g id="g143"><use xlink:href="#m2194477a3b" id="use143" x="304.783" y="149.602" style="stroke:#000;stroke-width:.5"/></g></g><g id="line2d_68"><g id="g144"><use xlink:href="#m1012892ce6" id="use144" x="304.783" y="38.319" style="stroke:#000;stroke-width:.5"/></g></g><g id="text_16"><g id="g145" transform="matrix(.08 0 0 -.08 302.79 158.505)"><use xlink:href="#NimbusRomNo9L-Regu-36" id="use145" transform="scale(.99626)"/></g></g></g><g id="xtick_18"><g id="line2d_69"><g id="g146"><use xlink:href="#mce91412ccf" id="use146" x="203.261" y="149.602" style="stroke:#000;stroke-width:.5"/></g></g><g id="line2d_70"><g id="g147"><use xlink:href="#m6889470ebd" id="use147" x="203.261" y="38.319" style="stroke:#000;stroke-width:.5"/></g></g></g><g id="xtick_19"><g id="line2d_71"><g id="g148"><use xlink:href="#mce91412ccf" id="use148" x="212.49" y="149.602" style="stroke:#000;stroke-width:.5"/></g></g><g id="line2d_72"><g id="g149"><use xlink:href="#m6889470ebd" id="use149" x="212.49" y="38.319" style="stroke:#000;stroke-width:.5"/></g></g></g><g id="xtick_20"><g id="line2d_73"><g id="g150"><use xlink:href="#mce91412ccf" id="use150" x="221.719" y="149.602" style="stroke:#000;stroke-width:.5"/></g></g><g id="line2d_74"><g id="g151"><use xlink:href="#m6889470ebd" id="use151" x="221.719" y="38.319" style="stroke:#000;stroke-width:.5"/></g></g></g><g id="xtick_21"><g id="line2d_75"><g id="g152"><use xlink:href="#mce91412ccf" id="use152" x="240.178" y="149.602" style="stroke:#000;stroke-width:.5"/></g></g><g id="line2d_76"><g id="g153"><use xlink:href="#m6889470ebd" id="use153" x="240.178" y="38.319" style="stroke:#000;stroke-width:.5"/></g></g></g><g id="xtick_22"><g id="line2d_77"><g id="g154"><use xlink:href="#mce91412ccf" id="use154" x="249.407" y="149.602" style="stroke:#000;stroke-width:.5"/></g></g><g id="line2d_78"><g id="g155"><use xlink:href="#m6889470ebd" id="use155" x="249.407" y="38.319" style="stroke:#000;stroke-width:.5"/></g></g></g><g id="xtick_23"><g id="line2d_79"><g id="g156"><use xlink:href="#mce91412ccf" id="use156" x="258.636" y="149.602" style="stroke:#000;stroke-width:.5"/></g></g><g id="line2d_80"><g id="g157"><use xlink:href="#m6889470ebd" id="use157" x="258.636" y="38.319" style="stroke:#000;stroke-width:.5"/></g></g></g><g id="xtick_24"><g id="line2d_81"><g id="g158"><use xlink:href="#mce91412ccf" id="use158" x="277.095" y="149.602" style="stroke:#000;stroke-width:.5"/></g></g><g id="line2d_82"><g id="g159"><use xlink:href="#m6889470ebd" id="use159" x="277.095" y="38.319" style="stroke:#000;stroke-width:.5"/></g></g></g><g id="xtick_25"><g id="line2d_83"><g id="g160"><use xlink:href="#mce91412ccf" id="use160" x="286.324" y="149.602" style="stroke:#000;stroke-width:.5"/></g></g><g id="line2d_84"><g id="g161"><use xlink:href="#m6889470ebd" id="use161" x="286.324" y="38.319" style="stroke:#000;stroke-width:.5"/></g></g></g><g id="xtick_26"><g id="line2d_85"><g id="g162"><use xlink:href="#mce91412ccf" id="use162" x="295.553" y="149.602" style="stroke:#000;stroke-width:.5"/></g></g><g id="line2d_86"><g id="g163"><use xlink:href="#m6889470ebd" id="use163" x="295.553" y="38.319" style="stroke:#000;stroke-width:.5"/></g></g></g><g id="text_17"><g id="g177" transform="matrix(.08 0 0 -.08 221.475 169.635)"><use xlink:href="#NimbusRomNo9L-Regu-46" id="use164" transform="scale(.99626)"/><use xlink:href="#NimbusRomNo9L-Regu-72" id="use165" transform="translate(55.392)scale(.99626)"/><use xlink:href="#NimbusRomNo9L-Regu-65" id="use166" transform="translate(88.567)scale(.99626)"/><use xlink:href="#NimbusRomNo9L-Regu-71" id="use167" transform="translate(132.8)scale(.99626)"/><use xlink:href="#NimbusRomNo9L-Regu-75" id="use168" transform="translate(182.614)scale(.99626)"/><use xlink:href="#NimbusRomNo9L-Regu-65" id="use169" transform="translate(232.427)scale(.99626)"/><use xlink:href="#NimbusRomNo9L-Regu-6e" id="use170" transform="translate(276.66)scale(.99626)"/><use xlink:href="#NimbusRomNo9L-Regu-63" id="use171" transform="translate(326.474)scale(.99626)"/><use xlink:href="#NimbusRomNo9L-Regu-79" id="use172" transform="translate(369.214)scale(.99626)"/><use xlink:href="#NimbusRomNo9L-Regu-5b" id="use173" transform="translate(443.934)scale(.99626)"/><use xlink:href="#NimbusRomNo9L-Regu-47" id="use174" transform="translate(477.109)scale(.99626)"/><use xlink:href="#NimbusRomNo9L-Regu-48" id="use175" transform="translate(549.039)scale(.99626)"/><use xlink:href="#NimbusRomNo9L-Regu-7a" id="use176" transform="translate(620.969)scale(.99626)"/><use xlink:href="#NimbusRomNo9L-Regu-5d" id="use177" transform="translate(665.202)scale(.99626)"/></g></g></g><g id="matplotlib.axis_4"><g id="ytick_16"><g id="line2d_87"><g id="g178"><use xlink:href="#m6d64ce265e" id="use178" x="188.5" y="144.712" style="stroke:#000;stroke-width:.5"/></g></g><g id="line2d_88"><g id="g179"><use xlink:href="#me04b729615" id="use179" x="310.32" y="144.712" style="stroke:#000;stroke-width:.5"/></g></g><g id="text_18"><g id="g182" transform="matrix(.08 0 0 -.08 174.822 147.414)"><defs id="defs179"><path id="CMMI10-3a" d="M1229 338c0 184-154 337-339 337-186 0-340-153-340-337C550 153 704 0 890 0c185 0 339 153 339 338" transform="scale(.01563)"/></defs><use xlink:href="#NimbusRomNo9L-Regu-30" id="use180" transform="scale(.99626)"/><use xlink:href="#CMMI10-3a" id="use181" transform="translate(49.813)scale(.99626)"/><use xlink:href="#NimbusRomNo9L-Regu-30" id="use182" transform="translate(77.409)scale(.99626)"/></g></g></g><g id="ytick_17"><g id="line2d_89"><g id="g183"><use xlink:href="#m6d64ce265e" id="use183" x="188.5" y="121.381" style="stroke:#000;stroke-width:.5"/></g></g><g id="line2d_90"><g id="g184"><use xlink:href="#me04b729615" id="use184" x="310.32" y="121.381" style="stroke:#000;stroke-width:.5"/></g></g><g id="text_19"><g id="g187" transform="matrix(.08 0 0 -.08 174.822 124.083)"><defs id="defs184"><path id="NimbusRomNo9L-Regu-35" d="M1158 3776h1255c102 0 128 13 147 58l243 569-57 45c-96-134-160-166-295-166H1114L416 2759c-6-13-6-19-6-32 0-32 25-51 76-51 205 0 461-45 724-129 736-238 1075-637 1075-1273 0-618-391-1101-890-1101-128 0-237 45-429 187-204 148-352 212-486 212-186 0-275-77-275-238C205 90 506-64 986-64c537 0 998 174 1318 502 294 290 429 656 429 1145 0 463-122 759-442 1080-281 284-646 431-1401 566z" transform="scale(.01563)"/></defs><use xlink:href="#NimbusRomNo9L-Regu-30" id="use185" transform="scale(.99626)"/><use xlink:href="#CMMI10-3a" id="use186" transform="translate(49.813)scale(.99626)"/><use xlink:href="#NimbusRomNo9L-Regu-35" id="use187" transform="translate(77.409)scale(.99626)"/></g></g></g><g id="ytick_18"><g id="line2d_91"><g id="g188"><use xlink:href="#m6d64ce265e" id="use188" x="188.5" y="98.051" style="stroke:#000;stroke-width:.5"/></g></g><g id="line2d_92"><g id="g189"><use xlink:href="#me04b729615" id="use189" x="310.32" y="98.051" style="stroke:#000;stroke-width:.5"/></g></g><g id="text_20"><g id="g192" transform="matrix(.08 0 0 -.08 174.822 100.753)"><use xlink:href="#NimbusRomNo9L-Regu-31" id="use190" transform="scale(.99626)"/><use xlink:href="#CMMI10-3a" id="use191" transform="translate(49.813)scale(.99626)"/><use xlink:href="#NimbusRomNo9L-Regu-30" id="use192" transform="translate(77.409)scale(.99626)"/></g></g></g><g id="ytick_19"><g id="line2d_93"><g id="g193"><use xlink:href="#m6d64ce265e" id="use193" x="188.5" y="74.721" style="stroke:#000;stroke-width:.5"/></g></g><g id="line2d_94"><g id="g194"><use xlink:href="#me04b729615" id="use194" x="310.32" y="74.721" style="stroke:#000;stroke-width:.5"/></g></g><g id="text_21"><g id="g197" transform="matrix(.08 0 0 -.08 174.822 77.422)"><use xlink:href="#NimbusRomNo9L-Regu-31" id="use195" transform="scale(.99626)"/><use xlink:href="#CMMI10-3a" id="use196" transform="translate(49.813)scale(.99626)"/><use xlink:href="#NimbusRomNo9L-Regu-35" id="use197" transform="translate(77.409)scale(.99626)"/></g></g></g><g id="ytick_20"><g id="line2d_95"><g id="g198"><use xlink:href="#m6d64ce265e" id="use198" x="188.5" y="51.39" style="stroke:#000;stroke-width:.5"/></g></g><g id="line2d_96"><g id="g199"><use xlink:href="#me04b729615" id="use199" x="310.32" y="51.39" style="stroke:#000;stroke-width:.5"/></g></g><g id="text_22"><g id="g202" transform="matrix(.08 0 0 -.08 174.822 54.092)"><use xlink:href="#NimbusRomNo9L-Regu-32" id="use200" transform="scale(.99626)"/><use xlink:href="#CMMI10-3a" id="use201" transform="translate(49.813)scale(.99626)"/><use xlink:href="#NimbusRomNo9L-Regu-30" id="use202" transform="translate(77.409)scale(.99626)"/></g></g></g><g id="ytick_21"><g id="line2d_97"><g id="g203"><use xlink:href="#m3160a6cfa3" id="use203" x="188.5" y="149.378" style="stroke:#000;stroke-width:.5"/></g></g><g id="line2d_98"><g id="g204"><use xlink:href="#ma2d05b3ac6" id="use204" x="310.32" y="149.378" style="stroke:#000;stroke-width:.5"/></g></g></g><g id="ytick_22"><g id="line2d_99"><g id="g205"><use xlink:href="#m3160a6cfa3" id="use205" x="188.5" y="140.046" style="stroke:#000;stroke-width:.5"/></g></g><g id="line2d_100"><g id="g206"><use xlink:href="#ma2d05b3ac6" id="use206" x="310.32" y="140.046" style="stroke:#000;stroke-width:.5"/></g></g></g><g id="ytick_23"><g id="line2d_101"><g id="g207"><use xlink:href="#m3160a6cfa3" id="use207" x="188.5" y="135.38" style="stroke:#000;stroke-width:.5"/></g></g><g id="line2d_102"><g id="g208"><use xlink:href="#ma2d05b3ac6" id="use208" x="310.32" y="135.38" style="stroke:#000;stroke-width:.5"/></g></g></g><g id="ytick_24"><g id="line2d_103"><g id="g209"><use xlink:href="#m3160a6cfa3" id="use209" x="188.5" y="130.714" style="stroke:#000;stroke-width:.5"/></g></g><g id="line2d_104"><g id="g210"><use xlink:href="#ma2d05b3ac6" id="use210" x="310.32" y="130.714" style="stroke:#000;stroke-width:.5"/></g></g></g><g id="ytick_25"><g id="line2d_105"><g id="g211"><use xlink:href="#m3160a6cfa3" id="use211" x="188.5" y="126.047" style="stroke:#000;stroke-width:.5"/></g></g><g id="line2d_106"><g id="g212"><use xlink:href="#ma2d05b3ac6" id="use212" x="310.32" y="126.047" style="stroke:#000;stroke-width:.5"/></g></g></g><g id="ytick_26"><g id="line2d_107"><g id="g213"><use xlink:href="#m3160a6cfa3" id="use213" x="188.5" y="116.715" style="stroke:#000;stroke-width:.5"/></g></g><g id="line2d_108"><g id="g214"><use xlink:href="#ma2d05b3ac6" id="use214" x="310.32" y="116.715" style="stroke:#000;stroke-width:.5"/></g></g></g><g id="ytick_27"><g id="line2d_109"><g id="g215"><use xlink:href="#m3160a6cfa3" id="use215" x="188.5" y="112.049" style="stroke:#000;stroke-width:.5"/></g></g><g id="line2d_110"><g id="g216"><use xlink:href="#ma2d05b3ac6" id="use216" x="310.32" y="112.049" style="stroke:#000;stroke-width:.5"/></g></g></g><g id="ytick_28"><g id="line2d_111"><g id="g217"><use xlink:href="#m3160a6cfa3" id="use217" x="188.5" y="107.383" style="stroke:#000;stroke-width:.5"/></g></g><g id="line2d_112"><g id="g218"><use xlink:href="#ma2d05b3ac6" id="use218" x="310.32" y="107.383" style="stroke:#000;stroke-width:.5"/></g></g></g><g id="ytick_29"><g id="line2d_113"><g id="g219"><use xlink:href="#m3160a6cfa3" id="use219" x="188.5" y="102.717" style="stroke:#000;stroke-width:.5"/></g></g><g id="line2d_114"><g id="g220"><use xlink:href="#ma2d05b3ac6" id="use220" x="310.32" y="102.717" style="stroke:#000;stroke-width:.5"/></g></g></g><g id="ytick_30"><g id="line2d_115"><g id="g221"><use xlink:href="#m3160a6cfa3" id="use221" x="188.5" y="93.385" style="stroke:#000;stroke-width:.5"/></g></g><g id="line2d_116"><g id="g222"><use xlink:href="#ma2d05b3ac6" id="use222" x="310.32" y="93.385" style="stroke:#000;stroke-width:.5"/></g></g></g><g id="ytick_31"><g id="line2d_117"><g id="g223"><use xlink:href="#m3160a6cfa3" id="use223" x="188.5" y="88.719" style="stroke:#000;stroke-width:.5"/></g></g><g id="line2d_118"><g id="g224"><use xlink:href="#ma2d05b3ac6" id="use224" x="310.32" y="88.719" style="stroke:#000;stroke-width:.5"/></g></g></g><g id="ytick_32"><g id="line2d_119"><g id="g225"><use xlink:href="#m3160a6cfa3" id="use225" x="188.5" y="84.053" style="stroke:#000;stroke-width:.5"/></g></g><g id="line2d_120"><g id="g226"><use xlink:href="#ma2d05b3ac6" id="use226" x="310.32" y="84.053" style="stroke:#000;stroke-width:.5"/></g></g></g><g id="ytick_33"><g id="line2d_121"><g id="g227"><use xlink:href="#m3160a6cfa3" id="use227" x="188.5" y="79.387" style="stroke:#000;stroke-width:.5"/></g></g><g id="line2d_122"><g id="g228"><use xlink:href="#ma2d05b3ac6" id="use228" x="310.32" y="79.387" style="stroke:#000;stroke-width:.5"/></g></g></g><g id="ytick_34"><g id="line2d_123"><g id="g229"><use xlink:href="#m3160a6cfa3" id="use229" x="188.5" y="70.055" style="stroke:#000;stroke-width:.5"/></g></g><g id="line2d_124"><g id="g230"><use xlink:href="#ma2d05b3ac6" id="use230" x="310.32" y="70.055" style="stroke:#000;stroke-width:.5"/></g></g></g><g id="ytick_35"><g id="line2d_125"><g id="g231"><use xlink:href="#m3160a6cfa3" id="use231" x="188.5" y="65.388" style="stroke:#000;stroke-width:.5"/></g></g><g id="line2d_126"><g id="g232"><use xlink:href="#ma2d05b3ac6" id="use232" x="310.32" y="65.388" style="stroke:#000;stroke-width:.5"/></g></g></g><g id="ytick_36"><g id="line2d_127"><g id="g233"><use xlink:href="#m3160a6cfa3" id="use233" x="188.5" y="60.722" style="stroke:#000;stroke-width:.5"/></g></g><g id="line2d_128"><g id="g234"><use xlink:href="#ma2d05b3ac6" id="use234" x="310.32" y="60.722" style="stroke:#000;stroke-width:.5"/></g></g></g><g id="ytick_37"><g id="line2d_129"><g id="g235"><use xlink:href="#m3160a6cfa3" id="use235" x="188.5" y="56.056" style="stroke:#000;stroke-width:.5"/></g></g><g id="line2d_130"><g id="g236"><use xlink:href="#ma2d05b3ac6" id="use236" x="310.32" y="56.056" style="stroke:#000;stroke-width:.5"/></g></g></g><g id="ytick_38"><g id="line2d_131"><g id="g237"><use xlink:href="#m3160a6cfa3" id="use237" x="188.5" y="46.724" style="stroke:#000;stroke-width:.5"/></g></g><g id="line2d_132"><g id="g238"><use xlink:href="#ma2d05b3ac6" id="use238" x="310.32" y="46.724" style="stroke:#000;stroke-width:.5"/></g></g></g><g id="ytick_39"><g id="line2d_133"><g id="g239"><use xlink:href="#m3160a6cfa3" id="use239" x="188.5" y="42.058" style="stroke:#000;stroke-width:.5"/></g></g><g id="line2d_134"><g id="g240"><use xlink:href="#ma2d05b3ac6" id="use240" x="310.32" y="42.058" style="stroke:#000;stroke-width:.5"/></g></g></g><g id="text_23"><g id="g256" transform="matrix(0 -.08 -.08 0 168.83 122.62)"><defs id="defs240"><path id="CMSY10-6a" d="M1018 4570c0 115 0 230-128 230s-128-115-128-230v-5940c0-115 0-230 128-230s128 115 128 230z" transform="scale(.01563)"/><path id="NimbusRomNo9L-Regu-2d" d="M250 1619v-403h1574v403z" transform="scale(.01563)"/></defs><use xlink:href="#CMSY10-6a" id="use241" transform="scale(.99626)"/><use xlink:href="#NimbusRomNo9L-Regu-53" id="use242" transform="translate(27.596)scale(.99626)"/><use xlink:href="#NimbusRomNo9L-Regu-31" id="use243" transform="translate(82.987)scale(.99626)"/><use xlink:href="#NimbusRomNo9L-Regu-31" id="use244" transform="translate(132.8)scale(.99626)"/><use xlink:href="#NimbusRomNo9L-Regu-2d" id="use245" transform="translate(182.614)scale(.99626)"/><use xlink:href="#NimbusRomNo9L-Regu-53" id="use246" transform="translate(215.789)scale(.99626)"/><use xlink:href="#NimbusRomNo9L-Regu-31" id="use247" transform="translate(271.18)scale(.99626)"/><use xlink:href="#NimbusRomNo9L-Regu-31" id="use248" transform="translate(320.994)scale(.99626)"/><use xlink:href="#NimbusRomNo9L-Regu-72" id="use249" transform="translate(370.807)scale(.99626)"/><use xlink:href="#NimbusRomNo9L-Regu-65" id="use250" transform="translate(403.982)scale(.99626)"/><use xlink:href="#NimbusRomNo9L-Regu-66" id="use251" transform="translate(448.216)scale(.99626)"/><use xlink:href="#CMSY10-6a" id="use252" transform="translate(481.39)scale(.99626)"/><use xlink:href="#NimbusRomNo9L-Regu-5b" id="use253" transform="translate(533.893)scale(.99626)"/><use xlink:href="#NimbusRomNo9L-Regu-64" id="use254" transform="translate(567.068)scale(.99626)"/><use xlink:href="#NimbusRomNo9L-Regu-42" id="use255" transform="translate(616.881)scale(.99626)"/><use xlink:href="#NimbusRomNo9L-Regu-5d" id="use256" transform="translate(683.331)scale(.99626)"/></g></g></g><g id="line2d_135"><path id="path256" d="m194.037 141.14.554-.164.554.676.553-3.935.554 2.012.554-3.373.554 5.882.553.465.554-2.379 1.107-2.823.554 5.628.554 1.414.554-4.574.553-1.999.554-5.34.554-.65.554-3.948.553-.717 1.661 9.818.554 4.427.554 1.119.554-2.143.553.358.554-.043.554 1.53.554 1.86.553.187 1.108-.473.553-.417.554.73 1.108-2.361.553-.305.554-.609 1.108 3.46 1.66-6.713.554-2.104.554-.787.554-.019.554.587.553 1.019 1.108 2.508 1.107-1.052.554-2.19.554-.533 1.107-1.769.554.422 1.107 6.778.554 2.725.554-.915.554-2.745.553-.926.554.602.554 3.618.553.078 1.108-9.105.554-1.724.553-2.828 1.108.3.554.495.553-2.203.554-.418.554-3.206 1.107-3.063.554-.648.554-.36.553 2.136.554.726.554 2.896.554 2.054.553.993.554 1.616.554.205 1.107-3.119 2.215-5.677.554-.688 1.107.035.554-.501.554.072.553-.946 2.77-10.7.553-1.489.554-1.033.553-.233.554.384.554.68.553 1.436.554.71.554-.234.554.604.553-.485.554-.017 1.108-2.494.553.33.554.014.554 2.757.554 1.898 1.107 5.16.554 4.435.553 2.202.554 1.506 1.108 3.937 1.107-2.723.554-.877.554-.615.553-3.462.554 2.38.554-1.25.553 2.982.554 2.182.554 3.684.554 4.908.553 1.596.554 2.57.554-.287.554-5.612.553-7.393.554-4.459 1.107-13.046.554-6.174.554-2.725.554-1.598.553-3.677.554-.938.554-.37.554.398.553 2.507.554.855 1.107-1.608.554-2.02.554.16.554-2.104.553-1.152.554-1.882.554-.769.554-.012.553.169.554 1.508 1.107 4.11 1.662 5.937.553.779.554-.09 1.108-1.634.553.046.554-.082.554-.267.553.53.554.204.554.64 1.107-1.443.554-1.296 1.108-3.95 1.107-5.95 1.661-9.312 3.323-21.77 1.66-13.667h0" clip-path="url(#p1362ee2820)" style="fill:none;stroke:#000;stroke-linecap:square"/></g><g id="patch_8"><path id="path257" d="M188.5 149.602V38.319" style="fill:none;stroke:#000;stroke-width:.5;stroke-linejoin:miter;stroke-linecap:square"/></g><g id="patch_9"><path id="path258" d="M310.32 149.602V38.319" style="fill:none;stroke:#000;stroke-width:.5;stroke-linejoin:miter;stroke-linecap:square"/></g><g id="patch_10"><path id="path259" d="M188.5 149.602h121.82" style="fill:none;stroke:#000;stroke-width:.5;stroke-linejoin:miter;stroke-linecap:square"/></g><g id="patch_11"><path id="path260" d="M188.5 38.32h121.82" style="fill:none;stroke:#000;stroke-width:.5;stroke-linejoin:miter;stroke-linecap:square"/></g><g id="text_24"><g id="g269" transform="matrix(.096 0 0 -.096 229.086 32.32)"><defs id="defs260"><path id="NimbusRomNo9L-Regu-44" d="M666 679c0-462-77-545-564-545V0h1818c742 0 1414 210 1811 568 416 376 653 944 653 1563 0 575-192 1072-544 1423-435 440-1133 670-2010 670H102v-122c506-45 564-102 564-577zm652 3059c0 198 71 249 333 249 551 0 967-102 1274-319 499-345 761-893 761-1581 0-753-262-1289-780-1589-327-184-698-261-1255-261-256 0-333 57-333 261z" transform="scale(.01563)"/></defs><use xlink:href="#NimbusRomNo9L-Regu-44" id="use260" transform="scale(.99626)"/><use xlink:href="#NimbusRomNo9L-Regu-69" id="use261" transform="translate(71.93)scale(.99626)"/><use xlink:href="#NimbusRomNo9L-Regu-66" id="use262" transform="translate(99.625)scale(.99626)"/><use xlink:href="#NimbusRomNo9L-Regu-66" id="use263" transform="translate(130.31)scale(.99626)"/><use xlink:href="#NimbusRomNo9L-Regu-65" id="use264" transform="translate(163.485)scale(.99626)"/><use xlink:href="#NimbusRomNo9L-Regu-72" id="use265" transform="translate(207.718)scale(.99626)"/><use xlink:href="#NimbusRomNo9L-Regu-65" id="use266" transform="translate(240.894)scale(.99626)"/><use xlink:href="#NimbusRomNo9L-Regu-6e" id="use267" transform="translate(285.127)scale(.99626)"/><use xlink:href="#NimbusRomNo9L-Regu-63" id="use268" transform="translate(334.94)scale(.99626)"/><use xlink:href="#NimbusRomNo9L-Regu-65" id="use269" transform="translate(379.174)scale(.99626)"/></g></g></g><g id="text_25" transform="translate(0 12.104)"><g id="g291" transform="matrix(.096 0 0 -.096 110.077 10.084)"><defs id="defs269"><path id="NimbusRomNo9L-Regu-56" d="M4461 4231H3149v-135c352 0 467-70 467-250 0-102-45-274-122-466l-940-2347-967 2166c-211 468-262 615-262 711 0 122 89 186 294 186 26 0 96 0 186 13v122H102v-135c314 0 404-89 679-657L2355-64h96l1421 3585c211 505 282 575 589 575z" transform="scale(.01563)"/><path id="NimbusRomNo9L-Regu-2" d="M198 2669h436V566c0-418-71-502-429-502V-38h1408v96c-359 26-442 117-442 474v2137h551c614 0 646-19 646-364V591c0-442-45-501-442-533v-96h1408v96c-358 32-428 117-428 532v1699c0 142 0 292 12 635l-25 19c-282-44-467-63-723-63H1165v271c0 278 19 473 51 581 90 271 339 460 627 460 179 0 301-82 455-297 121-169 204-232 313-232 135 0 231 107 231 246 0 266-320 443-813 443-487 0-858-164-1088-474-192-259-263-493-301-998H198Z" transform="scale(.01563)"/><path id="NimbusRomNo9L-Regu-28" d="M1888 4326c-474-307-666-473-902-768-455-556-679-1196-679-1945 0-813 237-1440 800-2093 263-307 429-448 762-653l77 103c-512 403-692 627-864 1107-154 429-224 915-224 1555 0 672 83 1197 256 1594 179 396 371 627 832 998z" transform="scale(.01563)"/><path id="NimbusRomNo9L-Regu-67" d="M3008 2496v250h-493c-128 0-224 17-352 56l-141 45c-172 56-345 84-512 84-595 0-1068-464-1068-1050 0-405 172-651 595-863-122-112-237-219-275-250-212-180-295-305-295-430 0-132 77-207 339-332-454-335-627-549-627-787 0-343 499-627 1107-627 480 0 980 170 1312 446 244 203 352 414 352 663 0 407-300 683-774 683h-826c-339 0-499 59-499 164 0 130 211 360 384 412 58-7 103-13 122-13 121-13 205-19 243-19 237 0 493 98 691 275 211 184 307 414 307 742 0 190-32 341-121 551zM941-13c211-45 723-83 1037-83 582 0 793-84 793-318 0-377-486-629-1209-629-564 0-935 188-935 473 0 150 45 234 314 557m32 2158c0 381 179 607 473 607 199 0 365-110 468-303 115-226 192-522 192-774 0-361-186-587-480-587-384 0-653 419-653 1038z" transform="scale(.01563)"/><path id="NimbusRomNo9L-Regu-29" d="M243-1133c474 307 666 474 903 768 454 557 678 1197 678 1946 0 819-237 1440-800 2093-262 307-429 448-762 652l-76-102c512-403 684-627 864-1107 153-429 224-915 224-1555 0-666-84-1197-256-1588-180-403-372-633-832-1004Z" transform="scale(.01563)"/></defs><use xlink:href="#NimbusRomNo9L-Regu-56" id="use270" transform="scale(.99626)"/><use xlink:href="#NimbusRomNo9L-Regu-65" id="use271" transform="translate(60.872)scale(.99626)"/><use xlink:href="#NimbusRomNo9L-Regu-72" id="use272" transform="translate(105.105)scale(.99626)"/><use xlink:href="#NimbusRomNo9L-Regu-69" id="use273" transform="translate(138.28)scale(.99626)"/><use xlink:href="#NimbusRomNo9L-Regu-2" id="use274" transform="translate(165.976)scale(.99626)"/><use xlink:href="#NimbusRomNo9L-Regu-63" id="use275" transform="translate(221.367)scale(.99626)"/><use xlink:href="#NimbusRomNo9L-Regu-61" id="use276" transform="translate(265.6)scale(.99626)"/><use xlink:href="#NimbusRomNo9L-Regu-74" id="use277" transform="translate(309.834)scale(.99626)"/><use xlink:href="#NimbusRomNo9L-Regu-69" id="use278" transform="translate(337.53)scale(.99626)"/><use xlink:href="#NimbusRomNo9L-Regu-6f" id="use279" transform="translate(365.225)scale(.99626)"/><use xlink:href="#NimbusRomNo9L-Regu-6e" id="use280" transform="translate(415.038)scale(.99626)"/><use xlink:href="#NimbusRomNo9L-Regu-28" id="use281" transform="translate(489.758)scale(.99626)"/><use xlink:href="#NimbusRomNo9L-Regu-6d" id="use282" transform="translate(522.933)scale(.99626)"/><use xlink:href="#NimbusRomNo9L-Regu-61" id="use283" transform="translate(600.441)scale(.99626)"/><use xlink:href="#NimbusRomNo9L-Regu-67" id="use284" transform="translate(644.675)scale(.99626)"/><use xlink:href="#NimbusRomNo9L-Regu-6e" id="use285" transform="translate(694.488)scale(.99626)"/><use xlink:href="#NimbusRomNo9L-Regu-69" id="use286" transform="translate(744.301)scale(.99626)"/><use xlink:href="#NimbusRomNo9L-Regu-74" id="use287" transform="translate(771.996)scale(.99626)"/><use xlink:href="#NimbusRomNo9L-Regu-75" id="use288" transform="translate(799.692)scale(.99626)"/><use xlink:href="#NimbusRomNo9L-Regu-64" id="use289" transform="translate(849.505)scale(.99626)"/><use xlink:href="#NimbusRomNo9L-Regu-65" id="use290" transform="translate(899.318)scale(.99626)"/><use xlink:href="#NimbusRomNo9L-Regu-29" id="use291" transform="translate(943.552)scale(.99626)"/></g></g></g><defs id="defs292"><clipPath id="p192a1a5740"><path id="rect291" d="M32.392 38.319h121.82v111.282H32.392z"/></clipPath><clipPath id="p1362ee2820"><path id="rect292" d="M188.5 38.319h121.82v111.282H188.5z"/></clipPath></defs></svg>