<svg xmlns="http://www.w3.org/2000/svg" xmlns:xlink="http://www.w3.org/1999/xlink" width="658.56" height="280.32" viewBox="0 0 493.92 210.24"><defs><style>*{stroke-linejoin:round;stroke-linecap:butt}</style></defs><g id="figure_1"><path id="patch_1" d="M0 210.24h493.92V0H0z" style="fill:none"/><g id="axes_1"><path id="patch_2" d="M32.392 184.882h208.255V37.599H32.392z" style="fill:none"/><g id="matplotlib.axis_1"><g id="xtick_1"><g id="line2d_1"><defs><path id="m60724ae2e3" d="M0 0v-3" style="stroke:#000;stroke-width:.5"/></defs><use xlink:href="#m60724ae2e3" x="41.849" y="184.882" style="stroke:#000;stroke-width:.5"/></g><g id="line2d_2"><defs><path id="m867d0dfb40" d="M0 0v3" style="stroke:#000;stroke-width:.5"/></defs><use xlink:href="#m867d0dfb40" x="41.849" y="37.599" style="stroke:#000;stroke-width:.5"/></g><g id="text_1" transform="matrix(.08 0 0 -.08 39.856 193.785)"><defs><path id="NimbusRomNo9L-Regu-30" d="M1626 4352c-352 0-621-108-858-332-371-359-614-1095-614-1844 0-697 211-1446 512-1804C902 90 1229-64 1600-64c326 0 602 109 832 333 371 352 614 1095 614 1869 0 1312-582 2214-1420 2214m-20-166c538 0 826-723 826-2061 0-1337-282-2022-832-2022S768 788 768 2119c0 1357 288 2067 838 2067" transform="scale(.01563)"/></defs><use xlink:href="#NimbusRomNo9L-Regu-30" transform="scale(.99626)"/></g></g><g id="xtick_2"><use xlink:href="#m60724ae2e3" id="line2d_3" x="73.563" y="184.882" style="stroke:#000;stroke-width:.5"/><use xlink:href="#m867d0dfb40" id="line2d_4" x="73.563" y="37.599" style="stroke:#000;stroke-width:.5"/><g id="text_2" transform="matrix(.08 0 0 -.08 71.57 193.785)"><defs><path id="NimbusRomNo9L-Regu-31" d="M1862 4339 710 3757v-90c77 32 148 58 173 71 115 45 224 70 288 70 135 0 192-97 192-303V592c0-213-51-360-153-419-96-57-186-77-455-77V0h1767v96c-506 0-608 64-608 374v3857z" transform="scale(.01563)"/></defs><use xlink:href="#NimbusRomNo9L-Regu-31" transform="scale(.99626)"/></g></g><g id="xtick_3"><use xlink:href="#m60724ae2e3" id="line2d_5" x="105.277" y="184.882" style="stroke:#000;stroke-width:.5"/><use xlink:href="#m867d0dfb40" id="line2d_6" x="105.277" y="37.599" style="stroke:#000;stroke-width:.5"/><g id="text_3" transform="matrix(.08 0 0 -.08 103.284 193.785)"><defs><path id="NimbusRomNo9L-Regu-32" d="m3040 875-83 32c-237-363-320-421-608-421H819l1075 1123c570 593 820 1078 820 1576 0 638-519 1128-1184 1128-352 0-685-140-922-395-205-218-301-422-410-875l135-32c256 625 486 829 928 829 537 0 902-364 902-900 0-497-294-1090-832-1658L192 77V0h2496z" transform="scale(.01563)"/></defs><use xlink:href="#NimbusRomNo9L-Regu-32" transform="scale(.99626)"/></g></g><g id="xtick_4"><use xlink:href="#m60724ae2e3" id="line2d_7" x="136.991" y="184.882" style="stroke:#000;stroke-width:.5"/><use xlink:href="#m867d0dfb40" id="line2d_8" x="136.991" y="37.599" style="stroke:#000;stroke-width:.5"/><g id="text_4" transform="matrix(.08 0 0 -.08 134.998 193.785)"><defs><path id="NimbusRomNo9L-Regu-33" d="M979 2138c378 0 525-13 679-70 396-141 646-506 646-948 0-537-365-953-838-953-173 0-301 45-538 198-192 115-301 160-410 160-147 0-243-89-243-224C275 77 550-64 998-64c493 0 999 167 1300 429 300 263 467 634 467 1063 0 326-103 627-288 825-128 141-250 218-531 339 441 301 601 538 601 884 0 518-409 876-998 876-320 0-602-108-832-313-192-173-288-340-429-724l96-25c262 467 550 678 954 678 416 0 704-281 704-684 0-231-96-461-256-621-192-192-372-288-807-442z" transform="scale(.01563)"/></defs><use xlink:href="#NimbusRomNo9L-Regu-33" transform="scale(.99626)"/></g></g><g id="xtick_5"><use xlink:href="#m60724ae2e3" id="line2d_9" x="168.705" y="184.882" style="stroke:#000;stroke-width:.5"/><use xlink:href="#m867d0dfb40" id="line2d_10" x="168.705" y="37.599" style="stroke:#000;stroke-width:.5"/><g id="text_5" transform="matrix(.08 0 0 -.08 166.712 193.785)"><defs><path id="NimbusRomNo9L-Regu-34" d="M3021 1497h-653v2855h-282L77 1497v-409h1798V32h493v1056h653zm-1152 0H333l1536 2201z" transform="scale(.01563)"/></defs><use xlink:href="#NimbusRomNo9L-Regu-34" transform="scale(.99626)"/></g></g><g id="xtick_6"><use xlink:href="#m60724ae2e3" id="line2d_11" x="200.419" y="184.882" style="stroke:#000;stroke-width:.5"/><use xlink:href="#m867d0dfb40" id="line2d_12" x="200.419" y="37.599" style="stroke:#000;stroke-width:.5"/><g id="text_6" transform="matrix(.08 0 0 -.08 198.426 193.785)"><defs><path id="NimbusRomNo9L-Regu-35" d="M1158 3776h1255c102 0 128 13 147 58l243 569-57 45c-96-134-160-166-295-166H1114L416 2759c-6-13-6-19-6-32 0-32 25-51 76-51 205 0 461-45 724-129 736-238 1075-637 1075-1273 0-618-391-1101-890-1101-128 0-237 45-429 187-204 148-352 212-486 212-186 0-275-77-275-238C205 90 506-64 986-64c537 0 998 174 1318 502 294 290 429 656 429 1145 0 463-122 759-442 1080-281 284-646 431-1401 566z" transform="scale(.01563)"/></defs><use xlink:href="#NimbusRomNo9L-Regu-35" transform="scale(.99626)"/></g></g><g id="xtick_7"><use xlink:href="#m60724ae2e3" id="line2d_13" x="232.133" y="184.882" style="stroke:#000;stroke-width:.5"/><use xlink:href="#m867d0dfb40" id="line2d_14" x="232.133" y="37.599" style="stroke:#000;stroke-width:.5"/><g id="text_7" transform="matrix(.08 0 0 -.08 230.14 193.785)"><defs><path id="NimbusRomNo9L-Regu-36" d="M2854 4391c-729-64-1100-186-1568-512C595 3386 218 2656 218 1802c0-554 172-1114 448-1432C909 89 1254-64 1651-64c794 0 1344 605 1344 1485 0 815-467 1331-1203 1331-282 0-416-45-819-288 173 967 889 1658 1894 1824zM1549 2458c550 0 870-458 870-1254 0-700-249-1088-697-1088-564 0-909 598-909 1584 0 325 51 503 179 599 134 101 333 159 557 159" transform="scale(.01563)"/></defs><use xlink:href="#NimbusRomNo9L-Regu-36" transform="scale(.99626)"/></g></g><g id="xtick_8"><g id="line2d_15"><defs><path id="mecf5b1f1fa" d="M0 0v-1.5" style="stroke:#000;stroke-width:.5"/></defs><use xlink:href="#mecf5b1f1fa" x="35.506" y="184.882" style="stroke:#000;stroke-width:.5"/></g><g id="line2d_16"><defs><path id="ma63620ce61" d="M0 0v1.5" style="stroke:#000;stroke-width:.5"/></defs><use xlink:href="#ma63620ce61" x="35.506" y="37.599" style="stroke:#000;stroke-width:.5"/></g></g><g id="xtick_9"><use xlink:href="#mecf5b1f1fa" id="line2d_17" x="48.191" y="184.882" style="stroke:#000;stroke-width:.5"/><use xlink:href="#ma63620ce61" id="line2d_18" x="48.191" y="37.599" style="stroke:#000;stroke-width:.5"/></g><g id="xtick_10"><use xlink:href="#mecf5b1f1fa" id="line2d_19" x="54.534" y="184.882" style="stroke:#000;stroke-width:.5"/><use xlink:href="#ma63620ce61" id="line2d_20" x="54.534" y="37.599" style="stroke:#000;stroke-width:.5"/></g><g id="xtick_11"><use xlink:href="#mecf5b1f1fa" id="line2d_21" x="60.877" y="184.882" style="stroke:#000;stroke-width:.5"/><use xlink:href="#ma63620ce61" id="line2d_22" x="60.877" y="37.599" style="stroke:#000;stroke-width:.5"/></g><g id="xtick_12"><use xlink:href="#mecf5b1f1fa" id="line2d_23" x="67.22" y="184.882" style="stroke:#000;stroke-width:.5"/><use xlink:href="#ma63620ce61" id="line2d_24" x="67.22" y="37.599" style="stroke:#000;stroke-width:.5"/></g><g id="xtick_13"><use xlink:href="#mecf5b1f1fa" id="line2d_25" x="79.905" y="184.882" style="stroke:#000;stroke-width:.5"/><use xlink:href="#ma63620ce61" id="line2d_26" x="79.905" y="37.599" style="stroke:#000;stroke-width:.5"/></g><g id="xtick_14"><use xlink:href="#mecf5b1f1fa" id="line2d_27" x="86.248" y="184.882" style="stroke:#000;stroke-width:.5"/><use xlink:href="#ma63620ce61" id="line2d_28" x="86.248" y="37.599" style="stroke:#000;stroke-width:.5"/></g><g id="xtick_15"><use xlink:href="#mecf5b1f1fa" id="line2d_29" x="92.591" y="184.882" style="stroke:#000;stroke-width:.5"/><use xlink:href="#ma63620ce61" id="line2d_30" x="92.591" y="37.599" style="stroke:#000;stroke-width:.5"/></g><g id="xtick_16"><use xlink:href="#mecf5b1f1fa" id="line2d_31" x="98.934" y="184.882" style="stroke:#000;stroke-width:.5"/><use xlink:href="#ma63620ce61" id="line2d_32" x="98.934" y="37.599" style="stroke:#000;stroke-width:.5"/></g><g id="xtick_17"><use xlink:href="#mecf5b1f1fa" id="line2d_33" x="111.619" y="184.882" style="stroke:#000;stroke-width:.5"/><use xlink:href="#ma63620ce61" id="line2d_34" x="111.619" y="37.599" style="stroke:#000;stroke-width:.5"/></g><g id="xtick_18"><use xlink:href="#mecf5b1f1fa" id="line2d_35" x="117.962" y="184.882" style="stroke:#000;stroke-width:.5"/><use xlink:href="#ma63620ce61" id="line2d_36" x="117.962" y="37.599" style="stroke:#000;stroke-width:.5"/></g><g id="xtick_19"><use xlink:href="#mecf5b1f1fa" id="line2d_37" x="124.305" y="184.882" style="stroke:#000;stroke-width:.5"/><use xlink:href="#ma63620ce61" id="line2d_38" x="124.305" y="37.599" style="stroke:#000;stroke-width:.5"/></g><g id="xtick_20"><use xlink:href="#mecf5b1f1fa" id="line2d_39" x="130.648" y="184.882" style="stroke:#000;stroke-width:.5"/><use xlink:href="#ma63620ce61" id="line2d_40" x="130.648" y="37.599" style="stroke:#000;stroke-width:.5"/></g><g id="xtick_21"><use xlink:href="#mecf5b1f1fa" id="line2d_41" x="143.333" y="184.882" style="stroke:#000;stroke-width:.5"/><use xlink:href="#ma63620ce61" id="line2d_42" x="143.333" y="37.599" style="stroke:#000;stroke-width:.5"/></g><g id="xtick_22"><use xlink:href="#mecf5b1f1fa" id="line2d_43" x="149.676" y="184.882" style="stroke:#000;stroke-width:.5"/><use xlink:href="#ma63620ce61" id="line2d_44" x="149.676" y="37.599" style="stroke:#000;stroke-width:.5"/></g><g id="xtick_23"><use xlink:href="#mecf5b1f1fa" id="line2d_45" x="156.019" y="184.882" style="stroke:#000;stroke-width:.5"/><use xlink:href="#ma63620ce61" id="line2d_46" x="156.019" y="37.599" style="stroke:#000;stroke-width:.5"/></g><g id="xtick_24"><use xlink:href="#mecf5b1f1fa" id="line2d_47" x="162.362" y="184.882" style="stroke:#000;stroke-width:.5"/><use xlink:href="#ma63620ce61" id="line2d_48" x="162.362" y="37.599" style="stroke:#000;stroke-width:.5"/></g><g id="xtick_25"><use xlink:href="#mecf5b1f1fa" id="line2d_49" x="175.047" y="184.882" style="stroke:#000;stroke-width:.5"/><use xlink:href="#ma63620ce61" id="line2d_50" x="175.047" y="37.599" style="stroke:#000;stroke-width:.5"/></g><g id="xtick_26"><use xlink:href="#mecf5b1f1fa" id="line2d_51" x="181.39" y="184.882" style="stroke:#000;stroke-width:.5"/><use xlink:href="#ma63620ce61" id="line2d_52" x="181.39" y="37.599" style="stroke:#000;stroke-width:.5"/></g><g id="xtick_27"><use xlink:href="#mecf5b1f1fa" id="line2d_53" x="187.733" y="184.882" style="stroke:#000;stroke-width:.5"/><use xlink:href="#ma63620ce61" id="line2d_54" x="187.733" y="37.599" style="stroke:#000;stroke-width:.5"/></g><g id="xtick_28"><use xlink:href="#mecf5b1f1fa" id="line2d_55" x="194.076" y="184.882" style="stroke:#000;stroke-width:.5"/><use xlink:href="#ma63620ce61" id="line2d_56" x="194.076" y="37.599" style="stroke:#000;stroke-width:.5"/></g><g id="xtick_29"><use xlink:href="#mecf5b1f1fa" id="line2d_57" x="206.761" y="184.882" style="stroke:#000;stroke-width:.5"/><use xlink:href="#ma63620ce61" id="line2d_58" x="206.761" y="37.599" style="stroke:#000;stroke-width:.5"/></g><g id="xtick_30"><use xlink:href="#mecf5b1f1fa" id="line2d_59" x="213.104" y="184.882" style="stroke:#000;stroke-width:.5"/><use xlink:href="#ma63620ce61" id="line2d_60" x="213.104" y="37.599" style="stroke:#000;stroke-width:.5"/></g><g id="xtick_31"><use xlink:href="#mecf5b1f1fa" id="line2d_61" x="219.447" y="184.882" style="stroke:#000;stroke-width:.5"/><use xlink:href="#ma63620ce61" id="line2d_62" x="219.447" y="37.599" style="stroke:#000;stroke-width:.5"/></g><g id="xtick_32"><use xlink:href="#mecf5b1f1fa" id="line2d_63" x="225.79" y="184.882" style="stroke:#000;stroke-width:.5"/><use xlink:href="#ma63620ce61" id="line2d_64" x="225.79" y="37.599" style="stroke:#000;stroke-width:.5"/></g><g id="xtick_33"><use xlink:href="#mecf5b1f1fa" id="line2d_65" x="238.475" y="184.882" style="stroke:#000;stroke-width:.5"/><use xlink:href="#ma63620ce61" id="line2d_66" x="238.475" y="37.599" style="stroke:#000;stroke-width:.5"/></g><g id="text_8" transform="matrix(.08 0 0 -.08 108.585 204.915)"><defs><path id="NimbusRomNo9L-Regu-46" d="M3066 1472v1485h-148c-76-496-192-589-704-589h-928v1398c0 177 32 215 205 215h871c723 0 864-95 972-667h160l-19 910H77v-122c473-38 557-128 557-577V749c0-532-71-615-557-615V0h1792v134c-493 0-583 91-583 558v1414h928c519 0 628-99 704-634z" transform="scale(.01563)"/><path id="NimbusRomNo9L-Regu-72" d="M45 2496c89 19 147 26 224 26 160 0 217-103 217-384V538c0-320-44-365-454-442V0h1536v102c-435 0-544 97-544 463v1448c0 206 275 528 448 528 38 0 96-32 166-96 103-90 173-128 256-128 154 0 250 109 250 288 0 211-134 339-352 339-269 0-454-147-768-601v588l-32 13c-339-141-570-223-947-345z" transform="scale(.01563)"/><path id="NimbusRomNo9L-Regu-65" d="M2611 1053c-307-489-582-675-992-675-365 0-640 186-825 552-116 244-160 456-173 849h1971c-51 414-115 598-275 802-192 230-487 363-819 363-320 0-621-115-864-333-301-262-474-717-474-1241C160 486 621-64 1357-64c608 0 1088 379 1357 1072zM634 1984c70 495 288 730 678 730s544-179 627-730z" transform="scale(.01563)"/><path id="NimbusRomNo9L-Regu-71" d="M2304 2701c-294 173-486 230-736 230-800 0-1414-713-1414-1631C154 498 576-70 1178-70c371 0 723 166 1004 473V-824c0-364-115-462-569-462v-122h1510v90c-352 77-403 128-403 397v3827h-70zM2182 804c0-153-25-235-89-286-141-121-352-198-551-198-198 0-371 64-499 191-205 185-339 599-339 1019 0 752 339 1222 883 1222 397 0 595-210 595-637z" transform="scale(.01563)"/><path id="NimbusRomNo9L-Regu-75" d="M3066 320h-32c-295 0-365 70-365 365v2195H1658v-122c396 0 473-64 473-383V875c0-178-32-268-121-338-173-140-372-217-564-217-249 0-454 217-454 485v2075H58v-102c307 0 396-96 396-391V770c0-507 308-834 775-834 237 0 486 102 659 275l275 275V-45l26-13c320 128 550 199 877 288z" transform="scale(.01563)"/><path id="NimbusRomNo9L-Regu-6e" d="M102 2579c39 19 103 26 173 26 179 0 237-96 237-410V608c0-365-70-454-397-480V32h1357v96c-326 26-422 102-422 333v1798c307 288 448 365 659 365 313 0 467-198 467-621V666c0-404-83-512-403-538V32h1331v96c-314 32-390 109-390 422v1466c0 602-282 960-756 960-294 0-492-109-928-518v505l-44 13c-314-115-532-186-884-288z" transform="scale(.01563)"/><path id="NimbusRomNo9L-Regu-63" d="M2547 998c-307-448-537-601-902-601-583 0-992 512-992 1248 0 659 352 1113 870 1113 231 0 314-70 378-307l38-141c51-179 167-294 301-294 166 0 307 122 307 269 0 358-448 659-985 659-314 0-640-128-903-358-320-282-499-717-499-1223C160 531 666-64 1376-64c288 0 544 102 774 301 173 153 295 326 487 704z" transform="scale(.01563)"/><path id="NimbusRomNo9L-Regu-79" d="M3040 2880h-864v-96c205 0 307-58 307-161 0-26-6-64-25-109L1837 742l-736 1635c-39 91-64 175-64 245 0 117 96 162 371 162v96H90v-90c166-25 275-96 326-205l730-1580 19-52 96-192c179-321 281-552 281-649 0-96-147-501-256-694-89-167-230-289-320-289-38 0-96 13-160 45-121 45-230 71-339 71-147 0-275-128-275-282 0-211 205-371 474-371 428 0 736 359 1081 1284l986 2619c83 206 153 270 307 289z" transform="scale(.01563)"/><path id="NimbusRomNo9L-Regu-5b" d="M1914-864h-551c-211 0-313 108-313 333v4312c0 200 83 283 288 283h576v160H563v-5248h1351z" transform="scale(.01563)"/><path id="NimbusRomNo9L-Regu-47" d="M4538 2304H2906v-128c275 0 352-19 428-71 96-58 135-207 135-484V574c0-207-391-382-851-382-1044 0-1684 730-1684 1920 0 602 180 1184 461 1498 282 314 679 486 1114 486 358 0 672-121 921-352 192-179 295-352 455-742h147l-51 1350h-141c-38-121-154-211-288-211-64 0-166 19-282 64-288 96-582 147-870 147-1280 0-2195-940-2195-2246 0-627 173-1107 531-1485C1165 180 1779-64 2483-64c551 0 1351 224 1607 449v1309c0 379 76 463 448 495z" transform="scale(.01563)"/><path id="NimbusRomNo9L-Regu-48" d="M1338 2304v1229c0 457 70 526 563 571v120H122v-120c492-45 563-115 563-577V749c0-539-64-615-563-615V0h1779v121c-480 38-563 121-563 578v1323h1939V757c0-546-64-623-563-623V0h1779v121c-480 38-563 121-563 575v2833c0 460 70 530 563 575v120H2714v-120c492-45 563-114 563-571V2304z" transform="scale(.01563)"/><path id="NimbusRomNo9L-Regu-7a" d="m2675 864-115 26c-64-320-102-423-186-532-89-108-307-166-633-166H858l1721 2592v96H358l-19-755h115c58 467 154 563 538 563h883L173 96V0h2413z" transform="scale(.01563)"/><path id="NimbusRomNo9L-Regu-5d" d="M218-864v-160h1350v5248H218v-160h550c211 0 314-109 314-334V-582c0-199-90-282-288-282z" transform="scale(.01563)"/></defs><use xlink:href="#NimbusRomNo9L-Regu-46" transform="scale(.99626)"/><use xlink:href="#NimbusRomNo9L-Regu-72" transform="translate(55.392)scale(.99626)"/><use xlink:href="#NimbusRomNo9L-Regu-65" transform="translate(88.567)scale(.99626)"/><use xlink:href="#NimbusRomNo9L-Regu-71" transform="translate(132.8)scale(.99626)"/><use xlink:href="#NimbusRomNo9L-Regu-75" transform="translate(182.614)scale(.99626)"/><use xlink:href="#NimbusRomNo9L-Regu-65" transform="translate(232.427)scale(.99626)"/><use xlink:href="#NimbusRomNo9L-Regu-6e" transform="translate(276.66)scale(.99626)"/><use xlink:href="#NimbusRomNo9L-Regu-63" transform="translate(326.474)scale(.99626)"/><use xlink:href="#NimbusRomNo9L-Regu-79" transform="translate(369.214)scale(.99626)"/><use xlink:href="#NimbusRomNo9L-Regu-5b" transform="translate(443.934)scale(.99626)"/><use xlink:href="#NimbusRomNo9L-Regu-47" transform="translate(477.109)scale(.99626)"/><use xlink:href="#NimbusRomNo9L-Regu-48" transform="translate(549.039)scale(.99626)"/><use xlink:href="#NimbusRomNo9L-Regu-7a" transform="translate(620.969)scale(.99626)"/><use xlink:href="#NimbusRomNo9L-Regu-5d" transform="translate(665.202)scale(.99626)"/></g></g><g id="matplotlib.axis_2"><g id="ytick_1"><g id="line2d_67"><defs><path id="ma1d0f40c1e" d="M0 0h3" style="stroke:#000;stroke-width:.5"/></defs><use xlink:href="#ma1d0f40c1e" x="32.392" y="168.794" style="stroke:#000;stroke-width:.5"/></g><g id="line2d_68"><defs><path id="mb045f6b1e5" d="M0 0h-3" style="stroke:#000;stroke-width:.5"/></defs><use xlink:href="#mb045f6b1e5" x="240.647" y="168.794" style="stroke:#000;stroke-width:.5"/></g><g id="text_9" transform="matrix(.08 0 0 -.08 14.73 171.496)"><defs><path id="CMSY10-0" d="M4218 1472c108 0 224 0 224 128s-116 128-224 128H755c-109 0-224 0-224-128s115-128 224-128z" transform="scale(.01563)"/></defs><use xlink:href="#CMSY10-0" transform="scale(.99626)"/><use xlink:href="#NimbusRomNo9L-Regu-33" transform="translate(77.409)scale(.99626)"/><use xlink:href="#NimbusRomNo9L-Regu-35" transform="translate(127.222)scale(.99626)"/></g></g><g id="ytick_2"><use xlink:href="#ma1d0f40c1e" id="line2d_69" x="32.392" y="151.005" style="stroke:#000;stroke-width:.5"/><use xlink:href="#mb045f6b1e5" id="line2d_70" x="240.647" y="151.005" style="stroke:#000;stroke-width:.5"/><g id="text_10" transform="matrix(.08 0 0 -.08 14.73 153.707)"><use xlink:href="#CMSY10-0" transform="scale(.99626)"/><use xlink:href="#NimbusRomNo9L-Regu-33" transform="translate(77.409)scale(.99626)"/><use xlink:href="#NimbusRomNo9L-Regu-30" transform="translate(127.222)scale(.99626)"/></g></g><g id="ytick_3"><use xlink:href="#ma1d0f40c1e" id="line2d_71" x="32.392" y="133.217" style="stroke:#000;stroke-width:.5"/><use xlink:href="#mb045f6b1e5" id="line2d_72" x="240.647" y="133.217" style="stroke:#000;stroke-width:.5"/><g id="text_11" transform="matrix(.08 0 0 -.08 14.73 135.919)"><use xlink:href="#CMSY10-0" transform="scale(.99626)"/><use xlink:href="#NimbusRomNo9L-Regu-32" transform="translate(77.409)scale(.99626)"/><use xlink:href="#NimbusRomNo9L-Regu-35" transform="translate(127.222)scale(.99626)"/></g></g><g id="ytick_4"><use xlink:href="#ma1d0f40c1e" id="line2d_73" x="32.392" y="115.428" style="stroke:#000;stroke-width:.5"/><use xlink:href="#mb045f6b1e5" id="line2d_74" x="240.647" y="115.428" style="stroke:#000;stroke-width:.5"/><g id="text_12" transform="matrix(.08 0 0 -.08 14.73 118.13)"><use xlink:href="#CMSY10-0" transform="scale(.99626)"/><use xlink:href="#NimbusRomNo9L-Regu-32" transform="translate(77.409)scale(.99626)"/><use xlink:href="#NimbusRomNo9L-Regu-30" transform="translate(127.222)scale(.99626)"/></g></g><g id="ytick_5"><use xlink:href="#ma1d0f40c1e" id="line2d_75" x="32.392" y="97.64" style="stroke:#000;stroke-width:.5"/><use xlink:href="#mb045f6b1e5" id="line2d_76" x="240.647" y="97.64" style="stroke:#000;stroke-width:.5"/><g id="text_13" transform="matrix(.08 0 0 -.08 14.73 100.342)"><use xlink:href="#CMSY10-0" transform="scale(.99626)"/><use xlink:href="#NimbusRomNo9L-Regu-31" transform="translate(77.409)scale(.99626)"/><use xlink:href="#NimbusRomNo9L-Regu-35" transform="translate(127.222)scale(.99626)"/></g></g><g id="ytick_6"><use xlink:href="#ma1d0f40c1e" id="line2d_77" x="32.392" y="79.852" style="stroke:#000;stroke-width:.5"/><use xlink:href="#mb045f6b1e5" id="line2d_78" x="240.647" y="79.852" style="stroke:#000;stroke-width:.5"/><g id="text_14" transform="matrix(.08 0 0 -.08 14.73 82.553)"><use xlink:href="#CMSY10-0" transform="scale(.99626)"/><use xlink:href="#NimbusRomNo9L-Regu-31" transform="translate(77.409)scale(.99626)"/><use xlink:href="#NimbusRomNo9L-Regu-30" transform="translate(127.222)scale(.99626)"/></g></g><g id="ytick_7"><use xlink:href="#ma1d0f40c1e" id="line2d_79" x="32.392" y="62.063" style="stroke:#000;stroke-width:.5"/><use xlink:href="#mb045f6b1e5" id="line2d_80" x="240.647" y="62.063" style="stroke:#000;stroke-width:.5"/><g id="text_15" transform="matrix(.08 0 0 -.08 18.714 64.765)"><use xlink:href="#CMSY10-0" transform="scale(.99626)"/><use xlink:href="#NimbusRomNo9L-Regu-35" transform="translate(77.409)scale(.99626)"/></g></g><g id="ytick_8"><use xlink:href="#ma1d0f40c1e" id="line2d_81" x="32.392" y="44.275" style="stroke:#000;stroke-width:.5"/><use xlink:href="#mb045f6b1e5" id="line2d_82" x="240.647" y="44.275" style="stroke:#000;stroke-width:.5"/><use xlink:href="#NimbusRomNo9L-Regu-30" id="text_16" transform="matrix(.0797 0 0 -.0797 24.907 46.976)"/></g><g id="ytick_9"><g id="line2d_83"><defs><path id="m01b34d7e31" d="M0 0h1.5" style="stroke:#000;stroke-width:.5"/></defs><use xlink:href="#m01b34d7e31" x="32.392" y="183.025" style="stroke:#000;stroke-width:.5"/></g><g id="line2d_84"><defs><path id="m9a5a1c09b6" d="M0 0h-1.5" style="stroke:#000;stroke-width:.5"/></defs><use xlink:href="#m9a5a1c09b6" x="240.647" y="183.025" style="stroke:#000;stroke-width:.5"/></g></g><g id="ytick_10"><use xlink:href="#m01b34d7e31" id="line2d_85" x="32.392" y="179.467" style="stroke:#000;stroke-width:.5"/><use xlink:href="#m9a5a1c09b6" id="line2d_86" x="240.647" y="179.467" style="stroke:#000;stroke-width:.5"/></g><g id="ytick_11"><use xlink:href="#m01b34d7e31" id="line2d_87" x="32.392" y="175.909" style="stroke:#000;stroke-width:.5"/><use xlink:href="#m9a5a1c09b6" id="line2d_88" x="240.647" y="175.909" style="stroke:#000;stroke-width:.5"/></g><g id="ytick_12"><use xlink:href="#m01b34d7e31" id="line2d_89" x="32.392" y="172.352" style="stroke:#000;stroke-width:.5"/><use xlink:href="#m9a5a1c09b6" id="line2d_90" x="240.647" y="172.352" style="stroke:#000;stroke-width:.5"/></g><g id="ytick_13"><use xlink:href="#m01b34d7e31" id="line2d_91" x="32.392" y="165.236" style="stroke:#000;stroke-width:.5"/><use xlink:href="#m9a5a1c09b6" id="line2d_92" x="240.647" y="165.236" style="stroke:#000;stroke-width:.5"/></g><g id="ytick_14"><use xlink:href="#m01b34d7e31" id="line2d_93" x="32.392" y="161.678" style="stroke:#000;stroke-width:.5"/><use xlink:href="#m9a5a1c09b6" id="line2d_94" x="240.647" y="161.678" style="stroke:#000;stroke-width:.5"/></g><g id="ytick_15"><use xlink:href="#m01b34d7e31" id="line2d_95" x="32.392" y="158.121" style="stroke:#000;stroke-width:.5"/><use xlink:href="#m9a5a1c09b6" id="line2d_96" x="240.647" y="158.121" style="stroke:#000;stroke-width:.5"/></g><g id="ytick_16"><use xlink:href="#m01b34d7e31" id="line2d_97" x="32.392" y="154.563" style="stroke:#000;stroke-width:.5"/><use xlink:href="#m9a5a1c09b6" id="line2d_98" x="240.647" y="154.563" style="stroke:#000;stroke-width:.5"/></g><g id="ytick_17"><use xlink:href="#m01b34d7e31" id="line2d_99" x="32.392" y="147.448" style="stroke:#000;stroke-width:.5"/><use xlink:href="#m9a5a1c09b6" id="line2d_100" x="240.647" y="147.448" style="stroke:#000;stroke-width:.5"/></g><g id="ytick_18"><use xlink:href="#m01b34d7e31" id="line2d_101" x="32.392" y="143.89" style="stroke:#000;stroke-width:.5"/><use xlink:href="#m9a5a1c09b6" id="line2d_102" x="240.647" y="143.89" style="stroke:#000;stroke-width:.5"/></g><g id="ytick_19"><use xlink:href="#m01b34d7e31" id="line2d_103" x="32.392" y="140.332" style="stroke:#000;stroke-width:.5"/><use xlink:href="#m9a5a1c09b6" id="line2d_104" x="240.647" y="140.332" style="stroke:#000;stroke-width:.5"/></g><g id="ytick_20"><use xlink:href="#m01b34d7e31" id="line2d_105" x="32.392" y="136.775" style="stroke:#000;stroke-width:.5"/><use xlink:href="#m9a5a1c09b6" id="line2d_106" x="240.647" y="136.775" style="stroke:#000;stroke-width:.5"/></g><g id="ytick_21"><use xlink:href="#m01b34d7e31" id="line2d_107" x="32.392" y="129.659" style="stroke:#000;stroke-width:.5"/><use xlink:href="#m9a5a1c09b6" id="line2d_108" x="240.647" y="129.659" style="stroke:#000;stroke-width:.5"/></g><g id="ytick_22"><use xlink:href="#m01b34d7e31" id="line2d_109" x="32.392" y="126.102" style="stroke:#000;stroke-width:.5"/><use xlink:href="#m9a5a1c09b6" id="line2d_110" x="240.647" y="126.102" style="stroke:#000;stroke-width:.5"/></g><g id="ytick_23"><use xlink:href="#m01b34d7e31" id="line2d_111" x="32.392" y="122.544" style="stroke:#000;stroke-width:.5"/><use xlink:href="#m9a5a1c09b6" id="line2d_112" x="240.647" y="122.544" style="stroke:#000;stroke-width:.5"/></g><g id="ytick_24"><use xlink:href="#m01b34d7e31" id="line2d_113" x="32.392" y="118.986" style="stroke:#000;stroke-width:.5"/><use xlink:href="#m9a5a1c09b6" id="line2d_114" x="240.647" y="118.986" style="stroke:#000;stroke-width:.5"/></g><g id="ytick_25"><use xlink:href="#m01b34d7e31" id="line2d_115" x="32.392" y="111.871" style="stroke:#000;stroke-width:.5"/><use xlink:href="#m9a5a1c09b6" id="line2d_116" x="240.647" y="111.871" style="stroke:#000;stroke-width:.5"/></g><g id="ytick_26"><use xlink:href="#m01b34d7e31" id="line2d_117" x="32.392" y="108.313" style="stroke:#000;stroke-width:.5"/><use xlink:href="#m9a5a1c09b6" id="line2d_118" x="240.647" y="108.313" style="stroke:#000;stroke-width:.5"/></g><g id="ytick_27"><use xlink:href="#m01b34d7e31" id="line2d_119" x="32.392" y="104.755" style="stroke:#000;stroke-width:.5"/><use xlink:href="#m9a5a1c09b6" id="line2d_120" x="240.647" y="104.755" style="stroke:#000;stroke-width:.5"/></g><g id="ytick_28"><use xlink:href="#m01b34d7e31" id="line2d_121" x="32.392" y="101.198" style="stroke:#000;stroke-width:.5"/><use xlink:href="#m9a5a1c09b6" id="line2d_122" x="240.647" y="101.198" style="stroke:#000;stroke-width:.5"/></g><g id="ytick_29"><use xlink:href="#m01b34d7e31" id="line2d_123" x="32.392" y="94.082" style="stroke:#000;stroke-width:.5"/><use xlink:href="#m9a5a1c09b6" id="line2d_124" x="240.647" y="94.082" style="stroke:#000;stroke-width:.5"/></g><g id="ytick_30"><use xlink:href="#m01b34d7e31" id="line2d_125" x="32.392" y="90.525" style="stroke:#000;stroke-width:.5"/><use xlink:href="#m9a5a1c09b6" id="line2d_126" x="240.647" y="90.525" style="stroke:#000;stroke-width:.5"/></g><g id="ytick_31"><use xlink:href="#m01b34d7e31" id="line2d_127" x="32.392" y="86.967" style="stroke:#000;stroke-width:.5"/><use xlink:href="#m9a5a1c09b6" id="line2d_128" x="240.647" y="86.967" style="stroke:#000;stroke-width:.5"/></g><g id="ytick_32"><use xlink:href="#m01b34d7e31" id="line2d_129" x="32.392" y="83.409" style="stroke:#000;stroke-width:.5"/><use xlink:href="#m9a5a1c09b6" id="line2d_130" x="240.647" y="83.409" style="stroke:#000;stroke-width:.5"/></g><g id="ytick_33"><use xlink:href="#m01b34d7e31" id="line2d_131" x="32.392" y="76.294" style="stroke:#000;stroke-width:.5"/><use xlink:href="#m9a5a1c09b6" id="line2d_132" x="240.647" y="76.294" style="stroke:#000;stroke-width:.5"/></g><g id="ytick_34"><use xlink:href="#m01b34d7e31" id="line2d_133" x="32.392" y="72.736" style="stroke:#000;stroke-width:.5"/><use xlink:href="#m9a5a1c09b6" id="line2d_134" x="240.647" y="72.736" style="stroke:#000;stroke-width:.5"/></g><g id="ytick_35"><use xlink:href="#m01b34d7e31" id="line2d_135" x="32.392" y="69.178" style="stroke:#000;stroke-width:.5"/><use xlink:href="#m9a5a1c09b6" id="line2d_136" x="240.647" y="69.178" style="stroke:#000;stroke-width:.5"/></g><g id="ytick_36"><use xlink:href="#m01b34d7e31" id="line2d_137" x="32.392" y="65.621" style="stroke:#000;stroke-width:.5"/><use xlink:href="#m9a5a1c09b6" id="line2d_138" x="240.647" y="65.621" style="stroke:#000;stroke-width:.5"/></g><g id="ytick_37"><use xlink:href="#m01b34d7e31" id="line2d_139" x="32.392" y="58.505" style="stroke:#000;stroke-width:.5"/><use xlink:href="#m9a5a1c09b6" id="line2d_140" x="240.647" y="58.505" style="stroke:#000;stroke-width:.5"/></g><g id="ytick_38"><use xlink:href="#m01b34d7e31" id="line2d_141" x="32.392" y="54.948" style="stroke:#000;stroke-width:.5"/><use xlink:href="#m9a5a1c09b6" id="line2d_142" x="240.647" y="54.948" style="stroke:#000;stroke-width:.5"/></g><g id="ytick_39"><use xlink:href="#m01b34d7e31" id="line2d_143" x="32.392" y="51.39" style="stroke:#000;stroke-width:.5"/><use xlink:href="#m9a5a1c09b6" id="line2d_144" x="240.647" y="51.39" style="stroke:#000;stroke-width:.5"/></g><g id="ytick_40"><use xlink:href="#m01b34d7e31" id="line2d_145" x="32.392" y="47.832" style="stroke:#000;stroke-width:.5"/><use xlink:href="#m9a5a1c09b6" id="line2d_146" x="240.647" y="47.832" style="stroke:#000;stroke-width:.5"/></g><g id="ytick_41"><use xlink:href="#m01b34d7e31" id="line2d_147" x="32.392" y="40.717" style="stroke:#000;stroke-width:.5"/><use xlink:href="#m9a5a1c09b6" id="line2d_148" x="240.647" y="40.717" style="stroke:#000;stroke-width:.5"/></g><g id="text_17" transform="matrix(0 -.08 -.08 0 9.004 136.808)"><defs><path id="NimbusRomNo9L-Regu-4d" d="M4314 3667V751c0-534-77-617-583-617V0h1792v134c-467 0-557 89-557 547v2855c0 457 84 541 557 579v122H4250L2835 1004 1357 4237H90v-141c524 0 608-77 608-546V943c0-661-90-784-621-822V0h1504v134c-493 0-602 148-602 797v2589L2586 0h89z" transform="scale(.01563)"/><path id="NimbusRomNo9L-Regu-61" d="M2829 423c-109-90-186-122-282-122-147 0-192 89-192 371v1248c0 333-32 518-128 672-141 230-416 352-793 352-602 0-1076-314-1076-717 0-147 128-275 276-275 153 0 288 128 288 269 0 25-7 57-13 102-13 58-19 109-19 154 0 173 204 313 460 313 314 0 487-185 487-531v-390c-986-397-1095-448-1370-691-141-128-230-346-230-557 0-403 281-685 672-685 281 0 544 134 934 467 32-333 147-467 410-467 217 0 352 77 576 320zm-992 360c0-199-32-257-167-334-153-90-332-148-467-148-224 0-403 219-403 495v26c0 379 262 611 1037 893z" transform="scale(.01563)"/><path id="NimbusRomNo9L-Regu-67" d="M3008 2496v250h-493c-128 0-224 17-352 56l-141 45c-172 56-345 84-512 84-595 0-1068-464-1068-1050 0-405 172-651 595-863-122-112-237-219-275-250-212-180-295-305-295-430 0-132 77-207 339-332-454-335-627-549-627-787 0-343 499-627 1107-627 480 0 980 170 1312 446 244 203 352 414 352 663 0 407-300 683-774 683h-826c-339 0-499 59-499 164 0 130 211 360 384 412 58-7 103-13 122-13 121-13 205-19 243-19 237 0 493 98 691 275 211 184 307 414 307 742 0 190-32 341-121 551zM941-13c211-45 723-83 1037-83 582 0 793-84 793-318 0-377-486-629-1209-629-564 0-935 188-935 473 0 150 45 234 314 557m32 2158c0 381 179 607 473 607 199 0 365-110 468-303 115-226 192-522 192-774 0-361-186-587-480-587-384 0-653 419-653 1038z" transform="scale(.01563)"/><path id="NimbusRomNo9L-Regu-69" d="m1120 2929-992-350v-95l51 6c77 12 160 19 218 19 153 0 211-103 211-384V640c0-461-64-531-506-531V0h1517v96c-422 32-473 95-473 554v2260zM819 4352c-173 0-320-147-320-326s141-327 320-327c186 0 333 141 333 327 0 179-147 326-333 326" transform="scale(.01563)"/><path id="NimbusRomNo9L-Regu-74" d="M1632 2880H986v742c0 64-7 84-45 84-45-58-83-116-128-180-243-352-519-659-621-685-70-47-109-93-109-126 0-20 7-33 26-33h339V751c0-539 192-815 570-815 313 0 556 154 768 487l-84 70c-134-160-243-224-384-224-236 0-332 174-332 578v1835h646z" transform="scale(.01563)"/><path id="NimbusRomNo9L-Regu-64" d="m2202-64 940 333v96h-147c-230 0-281 70-281 366v3633l-32 13c-308-109-532-173-941-281v-102c51 6 89 6 141 6 236 0 294-64 294-328V2669c-243 205-416 275-672 275-736 0-1331-723-1331-1632C173 493 653-64 1357-64c358 0 601 128 819 429V-45zm-26 717c0-45-45-122-109-192-115-128-275-192-461-192-531 0-883 512-883 1299 0 723 314 1197 800 1197 339 0 653-301 653-640z" transform="scale(.01563)"/><path id="NimbusRomNo9L-Regu-42" d="M109 4237v-141c537 0 614-70 614-548V689c0-477-83-561-614-561V0h2137c500 0 954 136 1191 356 230 208 358 499 358 809 0 286-115 545-313 732-192 175-365 253-781 356 333 82 467 145 621 278 160 140 256 372 256 632 0 708-570 1074-1677 1074zm1267-2125c621 0 915-32 1146-130 364-155 537-414 537-823 0-350-134-604-390-753-205-116-467-168-890-168-313 0-403 58-403 266zm0 256v1444c0 132 45 189 141 189h281c736 0 1127-302 1127-864 0-491-339-769-941-769z" transform="scale(.01563)"/></defs><use xlink:href="#NimbusRomNo9L-Regu-4d" transform="scale(.99626)"/><use xlink:href="#NimbusRomNo9L-Regu-61" transform="translate(88.567)scale(.99626)"/><use xlink:href="#NimbusRomNo9L-Regu-67" transform="translate(132.8)scale(.99626)"/><use xlink:href="#NimbusRomNo9L-Regu-6e" transform="translate(182.614)scale(.99626)"/><use xlink:href="#NimbusRomNo9L-Regu-69" transform="translate(232.427)scale(.99626)"/><use xlink:href="#NimbusRomNo9L-Regu-74" transform="translate(260.122)scale(.99626)"/><use xlink:href="#NimbusRomNo9L-Regu-75" transform="translate(287.817)scale(.99626)"/><use xlink:href="#NimbusRomNo9L-Regu-64" transform="translate(337.63)scale(.99626)"/><use xlink:href="#NimbusRomNo9L-Regu-65" transform="translate(387.444)scale(.99626)"/><use xlink:href="#NimbusRomNo9L-Regu-5b" transform="translate(456.584)scale(.99626)"/><use xlink:href="#NimbusRomNo9L-Regu-64" transform="translate(489.759)scale(.99626)"/><use xlink:href="#NimbusRomNo9L-Regu-42" transform="translate(539.572)scale(.99626)"/><use xlink:href="#NimbusRomNo9L-Regu-5d" transform="translate(606.022)scale(.99626)"/></g></g><path id="line2d_149" d="m41.858 78.233.951-.758.952-1.977 1.903-4.802.95-1.59.952-.66.952-.49.951-.057 2.854 1.443.952-.306.95-1.371L56.13 64l.951-1.22.951-.81 1.903-1.02.952-.484.95-.614.952-.904.952-1.426.951-2.011.951-2.287.952-1.798.951-.602.952.584.95 1.268.952.153.952-1.5.951-.766.951-.19.952.069.951.688.952 1.123.95 1.453.952 1.82.952 2.201.951 2.631.951 3.068 1.903 7.375 2.854 12.958 3.806 18.292.951 5.21.951 5.957.952 7.104.951 8.785.952 11.198 1.902 27.132.952-4.324.951-10.826.951-8.078.952-5.542.951-3.855.952-2.694.951-1.767.951-1.132.952-.517.951-.036.951.465.952.805.951.994.952.767.95-.001.952-1.28.952-2.72 1.902-8.182 1.903-8.509 1.903-7.36 1.903-6.344 5.708-18.134 2.854-9.4 1.903-5.599 1.903-4.72 1.902-3.753 1.903-2.88 1.903-2.178 1.903-1.635 1.902-1.193 1.903-.84 1.903-.578 1.902-.373 1.903-.117.952.108.951.339.951.767.952 1.657.951 3.39.951 6.813.952 14.09.951 35.18.952 2.507.951-25.652.951-12.767.952-4.178.951-1.693.951-.443.952.893.951 2.508.952 4.942.95 9.774.952-6.329.952-11.563.951-5.242 1.903-11.656.951-3.609.952 1.24.95 8.36 1.904 29.7.951-2.548.951-8.59.952-6.336.951-4.28.952-2.95.95-2.087.952-1.504.952-1.089.951-.817.951-.477 1.903-.542 1.903-.12 3.805-.776 2.855-.03 3.805.271 2.854.554 4.757 1.24 1.903.7 1.902.99.952.615.951.805.952 1.123.951 1.547.951 2.206.952 3.2.951 4.847.951 7.494.952 10.23.951 2.09 1.903-24.931.951-7.345.952-4.44.951-2.8.951-1.827.952-1.25.951-.939 1.903-1.276.951-.426h0" clip-path="url(#p66a78abf91)" style="fill:none;stroke:#000;stroke-linecap:square"/><path id="line2d_150" d="m41.858 56.662.951.075 1.903.463 1.903.547 3.805 1.833.952.748.951 1.131.952 1.543.95 2.215.952 2.85 1.903 6.763 1.903 7.72 1.903 9.128.95 5.391 1.904 11.977.951 2.574.951-4.978.952-8.283.951-6.428.952-5.218.95-2.394.952 4.837.952 2.5.951-4.148 1.903-4.33.951-1.681.952-1.182.95-.875.952-.57.952-.26.951.1.951.514.952.961.951 1.436.951 1.925.952 2.425.951 2.917.952 3.447.951 4.016.951 4.665.952 5.433.951 6.43.951 7.8.952 9.8.951 13.1.952 18.889.951 15.72.951-17.002.952-14.68.951-9.443.951-6.45.952-4.692.951-3.381.952-2.402.951-1.704.951-1.028.952-.503.951.026.951.52.952.98.951 1.44.952 1.823 2.854 6.152.951.551.951-1.391.952-3.313 1.903-9.64 1.902-9.855 1.903-8.417 1.903-6.792 1.903-5.339.95-2.174.952-1.829.952-1.496.951-1.176.951-.875.952-.581.951-.31.952-.061.95.16.952.348.952.486 1.902 1.333 2.855 2.482 4.756 4.7 3.806 3.831.951.843.952.634.951.06.951-1.284.952-3.685 1.902-11.804.952-3.904.951-2.035.952-.44.951 2.827.951-2.96.952.527.951.339 1.903.474.951.556.952.74.95-2.703.952-12.289.952-1.765.951 3.633.951 5.927.952 11.627.951 34.87.952-15.472.95-26.943.952-8.57.952-2.346.951.108.951 1.105 1.903 3.07 1.903 3.064 1.903 2.705 2.854 3.396 3.805 3.661 7.611 5.498 4.757 3.89 1.903 1.18.951.422.952.285.951.136.951-.033.952-.21.951-.43.951-.704 1.903-1.898.952-1.222.951-1.464.951-1.705 1.903-4.124 1.903-4.283.951-1.404.952-.176.951 1.462.951 2.935 1.903 7.954 1.903 8 .951 3.526.952 3.05.95 2.556.952 2.069" clip-path="url(#p66a78abf91)" style="fill:none;stroke-dasharray:3.7,1.6;stroke-dashoffset:0;stroke:red"/><path id="line2d_151" d="m41.858 56.675.951.13.952.371.951.626.952.89.95 1.294 1.904 3.798.951 2.507 2.854 9.134.952 2.323.95.658.952-1.068.952-1.53.951-1.188.951-.678.952-.219.951.108.952.305.95.432.952.614.952.98.951 1.728.951 2.444.952 1.989.951-.236.952-1.785.95-.898.952-2.807.952.292.951-1.997.951-2.977 1.903-6.472 1.903-5.19 1.903-4.534 1.902-3.757.952-1.517.951-1.272.951-1.042.952-.834 1.903-1.2 1.902-.765 1.903-.495 1.903-.31 2.854-.21 4.757.014 15.222.224 2.854.385 2.854.683 1.903.706 1.903.96 1.902 1.32 1.903 1.768 1.903 2.28 1.903 2.767 2.854 4.819 8.562 15.38 1.903 3.788.951 2.139.951 2.462.952 3.036.951 4.024.952 6.027.951 10.426.951 22.511.952-6.822.951-29.748.951-14.109.952-6.24.951-3.62.952-2.768.951-1.35.951-3.839.952-.97.951-1.288 1.903-3.27 1.903-3.959.95-.051.952 19.39.952 29.46.951-23.068.951-2.722.952 7.356.951 30.24.952-17.897.95-26.349.952-9.235.952-3.014.951-.49.951.574 1.903 2.14 1.903 2.226 1.903 1.874 1.902 1.446.952.605 2.854 1.393.951.265 2.854-.005 1.903-.17 8.562-1.458 1.903-.538 1.903-.707 1.903-.984.951-.642 1.903-1.826.951-1.079.952-1.262 1.902-3.112 2.854-5.238.952-.9.951.57.952 2.945.951 5.884.951 8.436 1.903 18.612.951 7.143.952 5.038.951 3.367.952 2.334.95 1.697.952 1.326" clip-path="url(#p66a78abf91)" style="fill:none;stroke-dasharray:1,1.65;stroke-dashoffset:0;stroke:#00f"/><path id="line2d_152" d="m41.858 78.219.951-.726.952-1.945 1.903-4.728.95-1.52 1.904-1.258.951-.159 2.854 1.235.952-.314.95-1.32 1.904-3.466.951-1.14.951-.743 3.806-2.1.951-.992.952-1.538 1.902-4.34.952-1.586.951-.35.952.855.95 1.407.952-.2.952-1.414.951-.581.951-.137.952.19.951.77.952 1.087.95 1.382.952 1.733.952 2.162.951 2.638.951 3.144.952 3.657 1.902 8.623 2.855 14.818 2.854 15.708.951 5.874.951 6.692.952 8.008.951 9.997 1.903 26.276.951.706.952-10.024.951-8.692.951-5.995.952-4.133.951-2.791.952-1.926.951-1.31.951-.96.952-.628.951-.321.951-.004.952.26 2.854 1.74.951-.062.952-1.216.951-2.546.951-3.586 5.709-24.944 2.854-10.288 3.805-12.992 1.903-5.997 1.903-5.258 1.903-4.335.95-1.8 1.904-2.897 1.902-2.103 1.903-1.534 1.903-1.126 1.903-.817 1.902-.523 1.903-.222 1.903.146.951.274.952.531.951 1.036.951 2.19.952 4.985.951 11.97.951 32.345.952 6.241.951-27.822.952-9.818 1.902-6.2.952-1.215.951-.019.951.754.952 1.456.951 2.295.952 3.714.95 8.04.952 12.064.952-13.788 1.902-16.864.952-7.335.951-4.883.952-.055.95 6.657 1.904 24.198.951 1.454 1.903-10.727.951-3.98.952-2.942.95-2.224.952-1.726.952-1.332.951-1.007.951-.754.952-.496.951-.285 3.806-.425 2.854-.431 1.903-.262 1.902-.087 7.611.066 1.903.366 1.903.724 1.902 1.12 1.903 1.455.952 1.035.951 1.442.951 2.114.952 3.244.951 5.221.951 9.078.952 19.03.951 72.106.952-79.633.951-19.652.951-9.844.952-5.405.951-3.128.951-1.947.952-1.254.951-.843.952-.597.95-.416.952-.293" clip-path="url(#p66a78abf91)" style="fill:none;stroke-dasharray:6.4,1.6,1,1.6;stroke-dashoffset:0;stroke:green"/><path id="patch_3" d="M32.392 184.882V37.599" style="fill:none;stroke:#000;stroke-width:.5;stroke-linejoin:miter;stroke-linecap:square"/><path id="patch_4" d="M240.647 184.882V37.599" style="fill:none;stroke:#000;stroke-width:.5;stroke-linejoin:miter;stroke-linecap:square"/><path id="patch_5" d="M32.392 184.882h208.255" style="fill:none;stroke:#000;stroke-width:.5;stroke-linejoin:miter;stroke-linecap:square"/><path id="patch_6" d="M32.392 37.6h208.255" style="fill:none;stroke:#000;stroke-width:.5;stroke-linejoin:miter;stroke-linecap:square"/><g id="text_18" transform="matrix(.096 0 0 -.096 97.871 31.6)"><defs><path id="NimbusRomNo9L-Regu-73" d="m2016 2010-26 870h-70l-13-13c-57-45-64-51-89-51-39 0-103 13-173 45-141 54-282 83-448 83-506 0-871-328-871-790 0-358 205-615 749-923l371-211c224-128 333-283 333-481 0-283-205-462-531-462-218 0-416 82-538 221-134 157-192 302-275 662H333V-39h83c45 72 70 87 147 87 58 0 147-13 295-50 179-37 352-62 467-62 493 0 902 372 902 821 0 320-153 532-537 763l-692 410c-179 103-275 264-275 437 0 257 199 436 493 436 365 0 557-220 704-793z" transform="scale(.01563)"/><path id="NimbusRomNo9L-Regu-70" d="M58 2516c57 6 102 6 160 6 217 0 262-64 262-367V-855c0-334-70-406-448-444v-109h1549v115c-480 0-563 71-563 477V199c224-212 377-276 646-276 755 0 1344 720 1344 1652 0 797-448 1369-1069 1369-358 0-640-160-921-506v493l-39 13c-345-134-569-218-921-326zm960-380c0 193 358 424 652 424 474 0 788-489 788-1236 0-713-314-1196-775-1196-301 0-665 231-665 424z" transform="scale(.01563)"/><path id="NimbusRomNo9L-Regu-6f" d="M1600 2944c-832 0-1414-614-1414-1498C186 582 781-64 1587-64c807 0 1421 678 1421 1562 0 838-589 1446-1408 1446m-83-179c537 0 915-615 915-1491 0-724-288-1159-768-1159-250 0-486 154-621 410-179 333-281 781-281 1235 0 608 300 1005 755 1005" transform="scale(.01563)"/></defs><use xlink:href="#NimbusRomNo9L-Regu-4d" transform="scale(.99626)"/><use xlink:href="#NimbusRomNo9L-Regu-61" transform="translate(88.567)scale(.99626)"/><use xlink:href="#NimbusRomNo9L-Regu-67" transform="translate(132.8)scale(.99626)"/><use xlink:href="#NimbusRomNo9L-Regu-6e" transform="translate(182.614)scale(.99626)"/><use xlink:href="#NimbusRomNo9L-Regu-69" transform="translate(232.427)scale(.99626)"/><use xlink:href="#NimbusRomNo9L-Regu-74" transform="translate(260.122)scale(.99626)"/><use xlink:href="#NimbusRomNo9L-Regu-75" transform="translate(287.817)scale(.99626)"/><use xlink:href="#NimbusRomNo9L-Regu-64" transform="translate(337.63)scale(.99626)"/><use xlink:href="#NimbusRomNo9L-Regu-65" transform="translate(387.444)scale(.99626)"/><use xlink:href="#NimbusRomNo9L-Regu-72" transform="translate(456.584)scale(.99626)"/><use xlink:href="#NimbusRomNo9L-Regu-65" transform="translate(489.759)scale(.99626)"/><use xlink:href="#NimbusRomNo9L-Regu-73" transform="translate(533.993)scale(.99626)"/><use xlink:href="#NimbusRomNo9L-Regu-70" transform="translate(572.746)scale(.99626)"/><use xlink:href="#NimbusRomNo9L-Regu-6f" transform="translate(622.56)scale(.99626)"/><use xlink:href="#NimbusRomNo9L-Regu-6e" transform="translate(672.373)scale(.99626)"/><use xlink:href="#NimbusRomNo9L-Regu-73" transform="translate(722.186)scale(.99626)"/><use xlink:href="#NimbusRomNo9L-Regu-65" transform="translate(760.94)scale(.99626)"/></g><g id="legend_1"><path id="line2d_153" d="M39.592 139.18h16" style="fill:none;stroke:#000;stroke-linecap:square"/><g id="text_19" transform="matrix(.08 0 0 -.08 61.992 141.98)"><defs><path id="NimbusRomNo9L-Regu-53" d="M2861 4352h-135c-25-147-96-217-204-217-64 0-173 25-282 77-237 89-474 140-678 140-276 0-557-108-768-294-224-199-340-468-340-802 0-513 282-871 999-1250 461-243 793-507 953-750 58-83 90-218 90-372 0-430-320-724-787-724-570 0-973 353-1293 1136H269L461-64h141c6 121 83 211 179 211 70 0 179-25 301-68 243-93 499-143 755-143 736 0 1305 506 1305 1165 0 525-352 941-1196 1395-672 372-941 653-941 999 0 352 269 595 665 595 288 0 557-122 781-352 199-205 288-371 391-749h160z" transform="scale(.01563)"/></defs><use xlink:href="#NimbusRomNo9L-Regu-53" transform="scale(.99626)"/><use xlink:href="#NimbusRomNo9L-Regu-31" transform="translate(55.392)scale(.99626)"/><use xlink:href="#NimbusRomNo9L-Regu-31" transform="translate(105.205)scale(.99626)"/></g><path id="line2d_154" d="M39.592 150.505h16" style="fill:none;stroke-dasharray:3.7,1.6;stroke-dashoffset:0;stroke:red"/><g id="text_20" transform="matrix(.08 0 0 -.08 61.992 153.305)"><use xlink:href="#NimbusRomNo9L-Regu-53" transform="scale(.99626)"/><use xlink:href="#NimbusRomNo9L-Regu-31" transform="translate(55.392)scale(.99626)"/><use xlink:href="#NimbusRomNo9L-Regu-32" transform="translate(105.205)scale(.99626)"/></g><path id="line2d_155" d="M39.592 161.83h16" style="fill:none;stroke-dasharray:1,1.65;stroke-dashoffset:0;stroke:#00f"/><g id="text_21" transform="matrix(.08 0 0 -.08 61.992 164.63)"><use xlink:href="#NimbusRomNo9L-Regu-53" transform="scale(.99626)"/><use xlink:href="#NimbusRomNo9L-Regu-32" transform="translate(55.392)scale(.99626)"/><use xlink:href="#NimbusRomNo9L-Regu-31" transform="translate(105.205)scale(.99626)"/></g><path id="line2d_156" d="M39.592 173.156h16" style="fill:none;stroke-dasharray:6.4,1.6,1,1.6;stroke-dashoffset:0;stroke:green"/><g id="text_22" transform="matrix(.08 0 0 -.08 61.992 175.956)"><use xlink:href="#NimbusRomNo9L-Regu-53" transform="scale(.99626)"/><use xlink:href="#NimbusRomNo9L-Regu-32" transform="translate(55.392)scale(.99626)"/><use xlink:href="#NimbusRomNo9L-Regu-32" transform="translate(105.205)scale(.99626)"/></g></g></g><g id="axes_2"><path id="patch_7" d="M282.064 184.882H490.32V37.599H282.064z" style="fill:none"/><g id="matplotlib.axis_3"><g id="xtick_34"><use xlink:href="#m60724ae2e3" id="line2d_157" x="291.521" y="184.882" style="stroke:#000;stroke-width:.5"/><use xlink:href="#m867d0dfb40" id="line2d_158" x="291.521" y="37.599" style="stroke:#000;stroke-width:.5"/><use xlink:href="#NimbusRomNo9L-Regu-30" id="text_23" transform="matrix(.0797 0 0 -.0797 289.529 193.785)"/></g><g id="xtick_35"><use xlink:href="#m60724ae2e3" id="line2d_159" x="323.235" y="184.882" style="stroke:#000;stroke-width:.5"/><use xlink:href="#m867d0dfb40" id="line2d_160" x="323.235" y="37.599" style="stroke:#000;stroke-width:.5"/><use xlink:href="#NimbusRomNo9L-Regu-31" id="text_24" transform="matrix(.0797 0 0 -.0797 321.243 193.785)"/></g><g id="xtick_36"><use xlink:href="#m60724ae2e3" id="line2d_161" x="354.949" y="184.882" style="stroke:#000;stroke-width:.5"/><use xlink:href="#m867d0dfb40" id="line2d_162" x="354.949" y="37.599" style="stroke:#000;stroke-width:.5"/><use xlink:href="#NimbusRomNo9L-Regu-32" id="text_25" transform="matrix(.0797 0 0 -.0797 352.957 193.785)"/></g><g id="xtick_37"><use xlink:href="#m60724ae2e3" id="line2d_163" x="386.663" y="184.882" style="stroke:#000;stroke-width:.5"/><use xlink:href="#m867d0dfb40" id="line2d_164" x="386.663" y="37.599" style="stroke:#000;stroke-width:.5"/><use xlink:href="#NimbusRomNo9L-Regu-33" id="text_26" transform="matrix(.0797 0 0 -.0797 384.67 193.785)"/></g><g id="xtick_38"><use xlink:href="#m60724ae2e3" id="line2d_165" x="418.377" y="184.882" style="stroke:#000;stroke-width:.5"/><use xlink:href="#m867d0dfb40" id="line2d_166" x="418.377" y="37.599" style="stroke:#000;stroke-width:.5"/><use xlink:href="#NimbusRomNo9L-Regu-34" id="text_27" transform="matrix(.0797 0 0 -.0797 416.385 193.785)"/></g><g id="xtick_39"><use xlink:href="#m60724ae2e3" id="line2d_167" x="450.091" y="184.882" style="stroke:#000;stroke-width:.5"/><use xlink:href="#m867d0dfb40" id="line2d_168" x="450.091" y="37.599" style="stroke:#000;stroke-width:.5"/><use xlink:href="#NimbusRomNo9L-Regu-35" id="text_28" transform="matrix(.0797 0 0 -.0797 448.099 193.785)"/></g><g id="xtick_40"><use xlink:href="#m60724ae2e3" id="line2d_169" x="481.805" y="184.882" style="stroke:#000;stroke-width:.5"/><use xlink:href="#m867d0dfb40" id="line2d_170" x="481.805" y="37.599" style="stroke:#000;stroke-width:.5"/><use xlink:href="#NimbusRomNo9L-Regu-36" id="text_29" transform="matrix(.0797 0 0 -.0797 479.813 193.785)"/></g><g id="xtick_41"><use xlink:href="#mecf5b1f1fa" id="line2d_171" x="285.178" y="184.882" style="stroke:#000;stroke-width:.5"/><use xlink:href="#ma63620ce61" id="line2d_172" x="285.178" y="37.599" style="stroke:#000;stroke-width:.5"/></g><g id="xtick_42"><use xlink:href="#mecf5b1f1fa" id="line2d_173" x="297.864" y="184.882" style="stroke:#000;stroke-width:.5"/><use xlink:href="#ma63620ce61" id="line2d_174" x="297.864" y="37.599" style="stroke:#000;stroke-width:.5"/></g><g id="xtick_43"><use xlink:href="#mecf5b1f1fa" id="line2d_175" x="304.207" y="184.882" style="stroke:#000;stroke-width:.5"/><use xlink:href="#ma63620ce61" id="line2d_176" x="304.207" y="37.599" style="stroke:#000;stroke-width:.5"/></g><g id="xtick_44"><use xlink:href="#mecf5b1f1fa" id="line2d_177" x="310.55" y="184.882" style="stroke:#000;stroke-width:.5"/><use xlink:href="#ma63620ce61" id="line2d_178" x="310.55" y="37.599" style="stroke:#000;stroke-width:.5"/></g><g id="xtick_45"><use xlink:href="#mecf5b1f1fa" id="line2d_179" x="316.892" y="184.882" style="stroke:#000;stroke-width:.5"/><use xlink:href="#ma63620ce61" id="line2d_180" x="316.892" y="37.599" style="stroke:#000;stroke-width:.5"/></g><g id="xtick_46"><use xlink:href="#mecf5b1f1fa" id="line2d_181" x="329.578" y="184.882" style="stroke:#000;stroke-width:.5"/><use xlink:href="#ma63620ce61" id="line2d_182" x="329.578" y="37.599" style="stroke:#000;stroke-width:.5"/></g><g id="xtick_47"><use xlink:href="#mecf5b1f1fa" id="line2d_183" x="335.921" y="184.882" style="stroke:#000;stroke-width:.5"/><use xlink:href="#ma63620ce61" id="line2d_184" x="335.921" y="37.599" style="stroke:#000;stroke-width:.5"/></g><g id="xtick_48"><use xlink:href="#mecf5b1f1fa" id="line2d_185" x="342.264" y="184.882" style="stroke:#000;stroke-width:.5"/><use xlink:href="#ma63620ce61" id="line2d_186" x="342.264" y="37.599" style="stroke:#000;stroke-width:.5"/></g><g id="xtick_49"><use xlink:href="#mecf5b1f1fa" id="line2d_187" x="348.606" y="184.882" style="stroke:#000;stroke-width:.5"/><use xlink:href="#ma63620ce61" id="line2d_188" x="348.606" y="37.599" style="stroke:#000;stroke-width:.5"/></g><g id="xtick_50"><use xlink:href="#mecf5b1f1fa" id="line2d_189" x="361.292" y="184.882" style="stroke:#000;stroke-width:.5"/><use xlink:href="#ma63620ce61" id="line2d_190" x="361.292" y="37.599" style="stroke:#000;stroke-width:.5"/></g><g id="xtick_51"><use xlink:href="#mecf5b1f1fa" id="line2d_191" x="367.635" y="184.882" style="stroke:#000;stroke-width:.5"/><use xlink:href="#ma63620ce61" id="line2d_192" x="367.635" y="37.599" style="stroke:#000;stroke-width:.5"/></g><g id="xtick_52"><use xlink:href="#mecf5b1f1fa" id="line2d_193" x="373.978" y="184.882" style="stroke:#000;stroke-width:.5"/><use xlink:href="#ma63620ce61" id="line2d_194" x="373.978" y="37.599" style="stroke:#000;stroke-width:.5"/></g><g id="xtick_53"><use xlink:href="#mecf5b1f1fa" id="line2d_195" x="380.32" y="184.882" style="stroke:#000;stroke-width:.5"/><use xlink:href="#ma63620ce61" id="line2d_196" x="380.32" y="37.599" style="stroke:#000;stroke-width:.5"/></g><g id="xtick_54"><use xlink:href="#mecf5b1f1fa" id="line2d_197" x="393.006" y="184.882" style="stroke:#000;stroke-width:.5"/><use xlink:href="#ma63620ce61" id="line2d_198" x="393.006" y="37.599" style="stroke:#000;stroke-width:.5"/></g><g id="xtick_55"><use xlink:href="#mecf5b1f1fa" id="line2d_199" x="399.349" y="184.882" style="stroke:#000;stroke-width:.5"/><use xlink:href="#ma63620ce61" id="line2d_200" x="399.349" y="37.599" style="stroke:#000;stroke-width:.5"/></g><g id="xtick_56"><use xlink:href="#mecf5b1f1fa" id="line2d_201" x="405.692" y="184.882" style="stroke:#000;stroke-width:.5"/><use xlink:href="#ma63620ce61" id="line2d_202" x="405.692" y="37.599" style="stroke:#000;stroke-width:.5"/></g><g id="xtick_57"><use xlink:href="#mecf5b1f1fa" id="line2d_203" x="412.034" y="184.882" style="stroke:#000;stroke-width:.5"/><use xlink:href="#ma63620ce61" id="line2d_204" x="412.034" y="37.599" style="stroke:#000;stroke-width:.5"/></g><g id="xtick_58"><use xlink:href="#mecf5b1f1fa" id="line2d_205" x="424.72" y="184.882" style="stroke:#000;stroke-width:.5"/><use xlink:href="#ma63620ce61" id="line2d_206" x="424.72" y="37.599" style="stroke:#000;stroke-width:.5"/></g><g id="xtick_59"><use xlink:href="#mecf5b1f1fa" id="line2d_207" x="431.063" y="184.882" style="stroke:#000;stroke-width:.5"/><use xlink:href="#ma63620ce61" id="line2d_208" x="431.063" y="37.599" style="stroke:#000;stroke-width:.5"/></g><g id="xtick_60"><use xlink:href="#mecf5b1f1fa" id="line2d_209" x="437.406" y="184.882" style="stroke:#000;stroke-width:.5"/><use xlink:href="#ma63620ce61" id="line2d_210" x="437.406" y="37.599" style="stroke:#000;stroke-width:.5"/></g><g id="xtick_61"><use xlink:href="#mecf5b1f1fa" id="line2d_211" x="443.748" y="184.882" style="stroke:#000;stroke-width:.5"/><use xlink:href="#ma63620ce61" id="line2d_212" x="443.748" y="37.599" style="stroke:#000;stroke-width:.5"/></g><g id="xtick_62"><use xlink:href="#mecf5b1f1fa" id="line2d_213" x="456.434" y="184.882" style="stroke:#000;stroke-width:.5"/><use xlink:href="#ma63620ce61" id="line2d_214" x="456.434" y="37.599" style="stroke:#000;stroke-width:.5"/></g><g id="xtick_63"><use xlink:href="#mecf5b1f1fa" id="line2d_215" x="462.777" y="184.882" style="stroke:#000;stroke-width:.5"/><use xlink:href="#ma63620ce61" id="line2d_216" x="462.777" y="37.599" style="stroke:#000;stroke-width:.5"/></g><g id="xtick_64"><use xlink:href="#mecf5b1f1fa" id="line2d_217" x="469.12" y="184.882" style="stroke:#000;stroke-width:.5"/><use xlink:href="#ma63620ce61" id="line2d_218" x="469.12" y="37.599" style="stroke:#000;stroke-width:.5"/></g><g id="xtick_65"><use xlink:href="#mecf5b1f1fa" id="line2d_219" x="475.462" y="184.882" style="stroke:#000;stroke-width:.5"/><use xlink:href="#ma63620ce61" id="line2d_220" x="475.462" y="37.599" style="stroke:#000;stroke-width:.5"/></g><g id="xtick_66"><use xlink:href="#mecf5b1f1fa" id="line2d_221" x="488.148" y="184.882" style="stroke:#000;stroke-width:.5"/><use xlink:href="#ma63620ce61" id="line2d_222" x="488.148" y="37.599" style="stroke:#000;stroke-width:.5"/></g><g id="text_30" transform="matrix(.08 0 0 -.08 358.257 204.915)"><use xlink:href="#NimbusRomNo9L-Regu-46" transform="scale(.99626)"/><use xlink:href="#NimbusRomNo9L-Regu-72" transform="translate(55.392)scale(.99626)"/><use xlink:href="#NimbusRomNo9L-Regu-65" transform="translate(88.567)scale(.99626)"/><use xlink:href="#NimbusRomNo9L-Regu-71" transform="translate(132.8)scale(.99626)"/><use xlink:href="#NimbusRomNo9L-Regu-75" transform="translate(182.614)scale(.99626)"/><use xlink:href="#NimbusRomNo9L-Regu-65" transform="translate(232.427)scale(.99626)"/><use xlink:href="#NimbusRomNo9L-Regu-6e" transform="translate(276.66)scale(.99626)"/><use xlink:href="#NimbusRomNo9L-Regu-63" transform="translate(326.474)scale(.99626)"/><use xlink:href="#NimbusRomNo9L-Regu-79" transform="translate(369.214)scale(.99626)"/><use xlink:href="#NimbusRomNo9L-Regu-5b" transform="translate(443.934)scale(.99626)"/><use xlink:href="#NimbusRomNo9L-Regu-47" transform="translate(477.109)scale(.99626)"/><use xlink:href="#NimbusRomNo9L-Regu-48" transform="translate(549.039)scale(.99626)"/><use xlink:href="#NimbusRomNo9L-Regu-7a" transform="translate(620.969)scale(.99626)"/><use xlink:href="#NimbusRomNo9L-Regu-5d" transform="translate(665.202)scale(.99626)"/></g></g><g id="matplotlib.axis_4"><g id="ytick_42"><use xlink:href="#ma1d0f40c1e" id="line2d_223" x="282.064" y="169.181" style="stroke:#000;stroke-width:.5"/><use xlink:href="#mb045f6b1e5" id="line2d_224" x="490.32" y="169.181" style="stroke:#000;stroke-width:.5"/><g id="text_31" transform="matrix(.08 0 0 -.08 260.417 171.883)"><use xlink:href="#CMSY10-0" transform="scale(.99626)"/><use xlink:href="#NimbusRomNo9L-Regu-31" transform="translate(77.409)scale(.99626)"/><use xlink:href="#NimbusRomNo9L-Regu-35" transform="translate(127.222)scale(.99626)"/><use xlink:href="#NimbusRomNo9L-Regu-30" transform="translate(177.035)scale(.99626)"/></g></g><g id="ytick_43"><use xlink:href="#ma1d0f40c1e" id="line2d_225" x="282.064" y="149.198" style="stroke:#000;stroke-width:.5"/><use xlink:href="#mb045f6b1e5" id="line2d_226" x="490.32" y="149.198" style="stroke:#000;stroke-width:.5"/><g id="text_32" transform="matrix(.08 0 0 -.08 260.417 151.9)"><use xlink:href="#CMSY10-0" transform="scale(.99626)"/><use xlink:href="#NimbusRomNo9L-Regu-31" transform="translate(77.409)scale(.99626)"/><use xlink:href="#NimbusRomNo9L-Regu-32" transform="translate(127.222)scale(.99626)"/><use xlink:href="#NimbusRomNo9L-Regu-35" transform="translate(177.035)scale(.99626)"/></g></g><g id="ytick_44"><use xlink:href="#ma1d0f40c1e" id="line2d_227" x="282.064" y="129.215" style="stroke:#000;stroke-width:.5"/><use xlink:href="#mb045f6b1e5" id="line2d_228" x="490.32" y="129.215" style="stroke:#000;stroke-width:.5"/><g id="text_33" transform="matrix(.08 0 0 -.08 260.417 131.917)"><use xlink:href="#CMSY10-0" transform="scale(.99626)"/><use xlink:href="#NimbusRomNo9L-Regu-31" transform="translate(77.409)scale(.99626)"/><use xlink:href="#NimbusRomNo9L-Regu-30" transform="translate(127.222)scale(.99626)"/><use xlink:href="#NimbusRomNo9L-Regu-30" transform="translate(177.035)scale(.99626)"/></g></g><g id="ytick_45"><use xlink:href="#ma1d0f40c1e" id="line2d_229" x="282.064" y="109.232" style="stroke:#000;stroke-width:.5"/><use xlink:href="#mb045f6b1e5" id="line2d_230" x="490.32" y="109.232" style="stroke:#000;stroke-width:.5"/><g id="text_34" transform="matrix(.08 0 0 -.08 264.402 111.934)"><defs><path id="NimbusRomNo9L-Regu-37" d="M2874 4250H506l-378-940 109-52c275 435 390 518 742 518h1389L1101-32h416l1357 4180z" transform="scale(.01563)"/></defs><use xlink:href="#CMSY10-0" transform="scale(.99626)"/><use xlink:href="#NimbusRomNo9L-Regu-37" transform="translate(77.409)scale(.99626)"/><use xlink:href="#NimbusRomNo9L-Regu-35" transform="translate(127.222)scale(.99626)"/></g></g><g id="ytick_46"><use xlink:href="#ma1d0f40c1e" id="line2d_231" x="282.064" y="89.249" style="stroke:#000;stroke-width:.5"/><use xlink:href="#mb045f6b1e5" id="line2d_232" x="490.32" y="89.249" style="stroke:#000;stroke-width:.5"/><g id="text_35" transform="matrix(.08 0 0 -.08 264.402 91.951)"><use xlink:href="#CMSY10-0" transform="scale(.99626)"/><use xlink:href="#NimbusRomNo9L-Regu-35" transform="translate(77.409)scale(.99626)"/><use xlink:href="#NimbusRomNo9L-Regu-30" transform="translate(127.222)scale(.99626)"/></g></g><g id="ytick_47"><use xlink:href="#ma1d0f40c1e" id="line2d_233" x="282.064" y="69.266" style="stroke:#000;stroke-width:.5"/><use xlink:href="#mb045f6b1e5" id="line2d_234" x="490.32" y="69.266" style="stroke:#000;stroke-width:.5"/><g id="text_36" transform="matrix(.08 0 0 -.08 264.402 71.968)"><use xlink:href="#CMSY10-0" transform="scale(.99626)"/><use xlink:href="#NimbusRomNo9L-Regu-32" transform="translate(77.409)scale(.99626)"/><use xlink:href="#NimbusRomNo9L-Regu-35" transform="translate(127.222)scale(.99626)"/></g></g><g id="ytick_48"><use xlink:href="#ma1d0f40c1e" id="line2d_235" x="282.064" y="49.283" style="stroke:#000;stroke-width:.5"/><use xlink:href="#mb045f6b1e5" id="line2d_236" x="490.32" y="49.283" style="stroke:#000;stroke-width:.5"/><use xlink:href="#NimbusRomNo9L-Regu-30" id="text_37" transform="matrix(.0797 0 0 -.0797 274.58 51.985)"/></g><g id="ytick_49"><use xlink:href="#m01b34d7e31" id="line2d_237" x="282.064" y="181.171" style="stroke:#000;stroke-width:.5"/><use xlink:href="#m9a5a1c09b6" id="line2d_238" x="490.32" y="181.171" style="stroke:#000;stroke-width:.5"/></g><g id="ytick_50"><use xlink:href="#m01b34d7e31" id="line2d_239" x="282.064" y="177.174" style="stroke:#000;stroke-width:.5"/><use xlink:href="#m9a5a1c09b6" id="line2d_240" x="490.32" y="177.174" style="stroke:#000;stroke-width:.5"/></g><g id="ytick_51"><use xlink:href="#m01b34d7e31" id="line2d_241" x="282.064" y="173.178" style="stroke:#000;stroke-width:.5"/><use xlink:href="#m9a5a1c09b6" id="line2d_242" x="490.32" y="173.178" style="stroke:#000;stroke-width:.5"/></g><g id="ytick_52"><use xlink:href="#m01b34d7e31" id="line2d_243" x="282.064" y="165.184" style="stroke:#000;stroke-width:.5"/><use xlink:href="#m9a5a1c09b6" id="line2d_244" x="490.32" y="165.184" style="stroke:#000;stroke-width:.5"/></g><g id="ytick_53"><use xlink:href="#m01b34d7e31" id="line2d_245" x="282.064" y="161.188" style="stroke:#000;stroke-width:.5"/><use xlink:href="#m9a5a1c09b6" id="line2d_246" x="490.32" y="161.188" style="stroke:#000;stroke-width:.5"/></g><g id="ytick_54"><use xlink:href="#m01b34d7e31" id="line2d_247" x="282.064" y="157.191" style="stroke:#000;stroke-width:.5"/><use xlink:href="#m9a5a1c09b6" id="line2d_248" x="490.32" y="157.191" style="stroke:#000;stroke-width:.5"/></g><g id="ytick_55"><use xlink:href="#m01b34d7e31" id="line2d_249" x="282.064" y="153.195" style="stroke:#000;stroke-width:.5"/><use xlink:href="#m9a5a1c09b6" id="line2d_250" x="490.32" y="153.195" style="stroke:#000;stroke-width:.5"/></g><g id="ytick_56"><use xlink:href="#m01b34d7e31" id="line2d_251" x="282.064" y="145.201" style="stroke:#000;stroke-width:.5"/><use xlink:href="#m9a5a1c09b6" id="line2d_252" x="490.32" y="145.201" style="stroke:#000;stroke-width:.5"/></g><g id="ytick_57"><use xlink:href="#m01b34d7e31" id="line2d_253" x="282.064" y="141.205" style="stroke:#000;stroke-width:.5"/><use xlink:href="#m9a5a1c09b6" id="line2d_254" x="490.32" y="141.205" style="stroke:#000;stroke-width:.5"/></g><g id="ytick_58"><use xlink:href="#m01b34d7e31" id="line2d_255" x="282.064" y="137.208" style="stroke:#000;stroke-width:.5"/><use xlink:href="#m9a5a1c09b6" id="line2d_256" x="490.32" y="137.208" style="stroke:#000;stroke-width:.5"/></g><g id="ytick_59"><use xlink:href="#m01b34d7e31" id="line2d_257" x="282.064" y="133.212" style="stroke:#000;stroke-width:.5"/><use xlink:href="#m9a5a1c09b6" id="line2d_258" x="490.32" y="133.212" style="stroke:#000;stroke-width:.5"/></g><g id="ytick_60"><use xlink:href="#m01b34d7e31" id="line2d_259" x="282.064" y="125.218" style="stroke:#000;stroke-width:.5"/><use xlink:href="#m9a5a1c09b6" id="line2d_260" x="490.32" y="125.218" style="stroke:#000;stroke-width:.5"/></g><g id="ytick_61"><use xlink:href="#m01b34d7e31" id="line2d_261" x="282.064" y="121.222" style="stroke:#000;stroke-width:.5"/><use xlink:href="#m9a5a1c09b6" id="line2d_262" x="490.32" y="121.222" style="stroke:#000;stroke-width:.5"/></g><g id="ytick_62"><use xlink:href="#m01b34d7e31" id="line2d_263" x="282.064" y="117.225" style="stroke:#000;stroke-width:.5"/><use xlink:href="#m9a5a1c09b6" id="line2d_264" x="490.32" y="117.225" style="stroke:#000;stroke-width:.5"/></g><g id="ytick_63"><use xlink:href="#m01b34d7e31" id="line2d_265" x="282.064" y="113.229" style="stroke:#000;stroke-width:.5"/><use xlink:href="#m9a5a1c09b6" id="line2d_266" x="490.32" y="113.229" style="stroke:#000;stroke-width:.5"/></g><g id="ytick_64"><use xlink:href="#m01b34d7e31" id="line2d_267" x="282.064" y="105.236" style="stroke:#000;stroke-width:.5"/><use xlink:href="#m9a5a1c09b6" id="line2d_268" x="490.32" y="105.236" style="stroke:#000;stroke-width:.5"/></g><g id="ytick_65"><use xlink:href="#m01b34d7e31" id="line2d_269" x="282.064" y="101.239" style="stroke:#000;stroke-width:.5"/><use xlink:href="#m9a5a1c09b6" id="line2d_270" x="490.32" y="101.239" style="stroke:#000;stroke-width:.5"/></g><g id="ytick_66"><use xlink:href="#m01b34d7e31" id="line2d_271" x="282.064" y="97.242" style="stroke:#000;stroke-width:.5"/><use xlink:href="#m9a5a1c09b6" id="line2d_272" x="490.32" y="97.242" style="stroke:#000;stroke-width:.5"/></g><g id="ytick_67"><use xlink:href="#m01b34d7e31" id="line2d_273" x="282.064" y="93.246" style="stroke:#000;stroke-width:.5"/><use xlink:href="#m9a5a1c09b6" id="line2d_274" x="490.32" y="93.246" style="stroke:#000;stroke-width:.5"/></g><g id="ytick_68"><use xlink:href="#m01b34d7e31" id="line2d_275" x="282.064" y="85.253" style="stroke:#000;stroke-width:.5"/><use xlink:href="#m9a5a1c09b6" id="line2d_276" x="490.32" y="85.253" style="stroke:#000;stroke-width:.5"/></g><g id="ytick_69"><use xlink:href="#m01b34d7e31" id="line2d_277" x="282.064" y="81.256" style="stroke:#000;stroke-width:.5"/><use xlink:href="#m9a5a1c09b6" id="line2d_278" x="490.32" y="81.256" style="stroke:#000;stroke-width:.5"/></g><g id="ytick_70"><use xlink:href="#m01b34d7e31" id="line2d_279" x="282.064" y="77.259" style="stroke:#000;stroke-width:.5"/><use xlink:href="#m9a5a1c09b6" id="line2d_280" x="490.32" y="77.259" style="stroke:#000;stroke-width:.5"/></g><g id="ytick_71"><use xlink:href="#m01b34d7e31" id="line2d_281" x="282.064" y="73.263" style="stroke:#000;stroke-width:.5"/><use xlink:href="#m9a5a1c09b6" id="line2d_282" x="490.32" y="73.263" style="stroke:#000;stroke-width:.5"/></g><g id="ytick_72"><use xlink:href="#m01b34d7e31" id="line2d_283" x="282.064" y="65.27" style="stroke:#000;stroke-width:.5"/><use xlink:href="#m9a5a1c09b6" id="line2d_284" x="490.32" y="65.27" style="stroke:#000;stroke-width:.5"/></g><g id="ytick_73"><use xlink:href="#m01b34d7e31" id="line2d_285" x="282.064" y="61.273" style="stroke:#000;stroke-width:.5"/><use xlink:href="#m9a5a1c09b6" id="line2d_286" x="490.32" y="61.273" style="stroke:#000;stroke-width:.5"/></g><g id="ytick_74"><use xlink:href="#m01b34d7e31" id="line2d_287" x="282.064" y="57.276" style="stroke:#000;stroke-width:.5"/><use xlink:href="#m9a5a1c09b6" id="line2d_288" x="490.32" y="57.276" style="stroke:#000;stroke-width:.5"/></g><g id="ytick_75"><use xlink:href="#m01b34d7e31" id="line2d_289" x="282.064" y="53.28" style="stroke:#000;stroke-width:.5"/><use xlink:href="#m9a5a1c09b6" id="line2d_290" x="490.32" y="53.28" style="stroke:#000;stroke-width:.5"/></g><g id="ytick_76"><use xlink:href="#m01b34d7e31" id="line2d_291" x="282.064" y="45.287" style="stroke:#000;stroke-width:.5"/><use xlink:href="#m9a5a1c09b6" id="line2d_292" x="490.32" y="45.287" style="stroke:#000;stroke-width:.5"/></g><g id="ytick_77"><use xlink:href="#m01b34d7e31" id="line2d_293" x="282.064" y="41.29" style="stroke:#000;stroke-width:.5"/><use xlink:href="#m9a5a1c09b6" id="line2d_294" x="490.32" y="41.29" style="stroke:#000;stroke-width:.5"/></g><g id="text_38" transform="matrix(0 -.08 -.08 0 254.691 129.72)"><defs><path id="NimbusRomNo9L-Regu-41" d="M4518 128c-288 0-352 64-576 539L2349 4320h-128L890 1168C480 231 403 128 96 128V0h1267v128c-307 0-435 84-435 265 0 77 19 167 51 252l295 756h1676l263-623c77-176 121-344 121-436 0-162-108-214-448-214V0h1632zM1382 1664l736 1752 743-1752z" transform="scale(.01563)"/><path id="NimbusRomNo9L-Regu-6c" d="M122 4000h236c205 0 269-90 269-390V557c0-346-89-429-493-461V0h1511v109c-403 0-480 64-480 419v3843l-26 13c-333-109-576-173-1017-281z" transform="scale(.01563)"/></defs><use xlink:href="#NimbusRomNo9L-Regu-41" transform="scale(.99626)"/><use xlink:href="#NimbusRomNo9L-Regu-6e" transform="translate(71.93)scale(.99626)"/><use xlink:href="#NimbusRomNo9L-Regu-67" transform="translate(121.743)scale(.99626)"/><use xlink:href="#NimbusRomNo9L-Regu-6c" transform="translate(171.556)scale(.99626)"/><use xlink:href="#NimbusRomNo9L-Regu-65" transform="translate(199.252)scale(.99626)"/><use xlink:href="#NimbusRomNo9L-Regu-5b" transform="translate(268.392)scale(.99626)"/><use xlink:href="#NimbusRomNo9L-Regu-72" transform="translate(301.567)scale(.99626)"/><use xlink:href="#NimbusRomNo9L-Regu-61" transform="translate(334.742)scale(.99626)"/><use xlink:href="#NimbusRomNo9L-Regu-64" transform="translate(378.976)scale(.99626)"/><use xlink:href="#NimbusRomNo9L-Regu-5d" transform="translate(428.789)scale(.99626)"/></g></g><path id="line2d_295" d="m291.53 47.344.952 1.385.951-2.463.952-.69.951 1.048 1.903 4.711.951.596.952 2.25.951 1.682.951.668.952-.2.951-.951.951-.745.952.659.951 1.95.952 2.503.951-2.437 1.903 4.564.951 1.883.951 1.587 1.903 2.704.952 2.013.95-1.616.952.026.952.836.951.284.951-1.528.952 1.751.951-2.07.952.36.95.216.952.79.952.996 1.902 1.565 1.903 1.37.952.563.95.41.952.152.952-.241.951-.685.951-1.21.952-1.703 1.903-4.506 1.902-4.564.952-1.763.951-1.12.951-.06.952 1.497.951-.475.951 1.784.952-1.092.951-.394.952 1.906.951.994.951-.735.952-2.017.951 2.344 1.903 3.934 1.903 3.92.951 2.436.951-1.707.952-.537.951 1.007.951-2.452.952-1.445.951-1.72.952 2.215.951.602.951-.813.952-2.047.951 2.109.951 1.38.952.79.951.275.952-.242.95-.662.952-1.07 3.806-5.513.951-1.015.952-.722.95-.416.952-.142.952.098 1.902.624 1.903.675 1.903.336.951-.01.952-1.616 1.902-.532 4.757-1.65.952-.18.951-.045.951.193.952.506.951 1.003.952 1.786.95-2.085.952-.441.952 1.76.951-.598.951 2.153.952-.326.951-1.385.951 2.262.952-1.749.951.753.952-1.162.951-1.527.951-.793.952 1.243.951 2.028.951.922.952.437.951-1.597.952-2.147.951 1.359.951-2.038.952 1.801.951-.197 1.903-4.282.951 1.488.952-.95.951-.014.951-2.473.952-.006.951.858 1.903 2.532 4.757 6.894.951 1.207 2.854 2.789 5.708 6.95 2.855 3.012 2.854 2.917 8.562 9.403.951-.121.952 1.741.951 2.25.951-2.048.952-.973.951.621 1.903-3.224.951.75.952.582.951 1.777.951.476.952-2.054.951-1.439.952.639.951-1.31.951 2.495.952-.086.951.621.951.055.952-.318h0" clip-path="url(#p5d949d51b6)" style="fill:none;stroke:#000;stroke-linecap:square"/><path id="line2d_296" d="m291.53 49.25 1.903 4.19 5.709 11.81.951-2.469 1.903-3.827 1.902-3.167.952-2.074.951 2.196.952 1.531.951.942.951.367.952-.346.951-1.229.951 2.418.952-.12.951.233.952-.905.95-.44.952-.898.952.207 1.902-3.653.952-.848.951 1.697.952 2.463.95 1.511.952 1.132.952 2.477 1.902-4.122.952-1.627.951-1.278.952-.957.95-.702 1.904-.824 1.902-.736.952-.495.951-.662.952-.869.95-1.132.952-1.429.952-1.886.951 2.458.951 1.253.952-1.521.951-.479.951 1.12.952-.36.951 2.133.952-1.361.951.674.951 1.47 4.757 8.95.952 1.278.951.95.951.452.952-.27.951-1.152.951-2.364.952.922.951-1.147.952 1.99.951 1.262.951 2.03.952-1.083.951 1.009.951-2.243.952-.865.951.12.952.851.95 1.413.952 1.818 1.903 4.428 1.903-4.832 3.805-9.264 1.903 4.795.951.602.952 1.815.951 1.542.952 1.246.95.958.952.692.952.418.951.172.951-.058.952-.274.951-.474.952-.7.95-.936.952-1.174.952-1.474.951-1.845.951-2.297.952 2.07.951 1.166.952-.11 1.902-2.71 1.903 3.623.951-.516.952.085.951-.172.951-.562.952-.844.951 2.4.952 1.464 1.902 2.262.952.457.951-1.738.951-2.229.952-.373.951-1.787.952-2.092.951 1.956.951-1.54.952-2.01.951-1.452.951-1.111.952 2.464.951-1.676.952-.06.951-2.448.951.93.952-.205.951 2.506.951-1.61.952-2.042.951-2.354 1.903 4.765 4.757 10.992 2.854 6.59 3.805 8.819 1.903 3.938 1.903 3.358 1.903 2.537 1.902 1.862 1.903 1.37 2.854 1.45.952.432.951.599.951.872.952 1.093.951 1.294.951 1.667.952 2.142.951-2.235.952-1.313.951-.136 1.903 2.821.951-.802.951-.54.952-1.495.951 1.92.952.263.951-1.158.951-2.296.952 1.89.951 1.158.951.764.952.426" clip-path="url(#p5d949d51b6)" style="fill:none;stroke-dasharray:3.7,1.6;stroke-dashoffset:0;stroke:red"/><path id="line2d_297" d="m291.53 49.258 2.855 6.229 1.902 4.053.952 1.611.951 1.216.952.912.951-.167.951-1.693.952 2.003.951.285.951-.836.952.352.951 2.448.952-1.167.951-.51 1.903-.762 3.805-2.323.952-.878.95 2.495.952-.268.952-1.65.951.89.951 1.071.952 2.474.951-1.862.952-.134.95 1.856.952-1.781.952-.382.951.073.951.385.952.716.951-.417.952 1.411 1.902 3.562 5.709 11.865 1.902 3.359 2.854 4.43 2.854 3.858 2.855 3.397 2.854 3.05 3.805 3.645 5.708 5.225 3.806 3.844 3.805 4.234 2.855 3.483.95 1.229.952-.222 2.854 4.009 4.757 6.76 1.903 2.16.951.846.952.65.951.442.952.24.95.056.952-.097 1.903-.575 3.806-1.532.95-.214.952-.022.952.271.951.722.951 1.405.952 2.484.951-.631.952-1.42.95 1.105.952-1.118.952 1.058.951-1.417 1.903-4.666.951.758.951 2.11.952-1.843.951-1.06.952-1.343.951-1.075.951-.251.952 1.37.951-.192.951-1.244.952 2.12.951 1.555.952.054.951 1.828.951 2.378.952 1.973.951-.027.951-1.846.952.788.951 2.33.952-.925.951 1.724.951.057.952-1.159.951-2.022.951.872.952 1.846.951 1.483.952 1.228 1.902 1.987 2.854 2.493.952.53 1.903 1.585 2.854 2.945 3.805 4.345 6.66 7.713 3.805 4.58 1.903 2.512.951 1.612.952 1.87.951 2.184.951-2.344.952-1.668.951-.728.952.553.951 2.206.951-.854.952-.388.951 2.236.951 1.501.952-1.582.951-1.227.952-.846.951 1.048.951.032.952.46.951 1.301.951 2.261.952-2.072" clip-path="url(#p5d949d51b6)" style="fill:none;stroke-dasharray:1,1.65;stroke-dashoffset:0;stroke:#00f"/><path id="line2d_298" d="m291.53 47.34.952 1.462.951-2.438.952-.642.951 1.112 1.903 4.536.951.54.952 2.301.951 1.721.951.773.952-.11.951-.862.951-.661.952.673.951 1.867 2.854 7.198.952 2.05.951 1.787.951 1.526 1.903 2.663.952 2.174.95-1.37.952.176.952.777.951.062.951-2.075.952 1.581.951-1.548 1.903.648 1.903 1.673 2.854 1.871 1.903 1.146.95.47.952.3.952.057.951-.249.951-.6.952-.944.951-1.27 3.806-5.956.951-.536.951.693.952-1.941.951-1.289.951 1.86.952-.569.951.274.952-1.335 1.902-4.097 4.757 11.712 1.903-4.602.951-1.812.952-1.093.951-.065.951 1.158.952-2.504 1.903-3.253.951 2.332.951.8.952-.715.951-2.045.951 1.914.952 1.078.951.401.952-.16.95-.536 1.904-1.8 1.902-1.901 1.903-1.415 1.903-.859 4.757-1.64 1.903-.978.95-.586.952-2.127 1.903-1.422 2.854-2.47 1.903-1.681.951-.703.952-.512.951-.199.951.27.952.94.951 1.919.952-1.637.95.55.952-1.388.952 1.648.951 2.446 1.903 1.156.951-.223.951-2.162.952-.402.951-2.272 1.903 4.165.951-2.144.952-.367.951-.724.951.381.952-1.007.951-.474.952-.76.951.96.951 2.179.952.738.951-1.46.951 1.749 1.903-4.644.952-.132.951-1.521.951.705.952-1.279.951-.052.951.392 1.903 1.176 1.903 1.445.951.98.952 1.222.951 1.472.951 1.714.952 2.079 3.805 9.78 4.757 11.96 1.903 4.382.951 1.866.952 1.581.951 1.245.951.917.952.646.951.416 2.854.744.952-1.252 1.902.447.952.342.951.495.951.705.952 1.04.951 1.567.952 2.39.951-1.644.951-1.044.952-.433.951-1.19.951 2.361.952 2.025.951.47.952-1.16.951.983.951 1.364.952.52.951-.126.951-.593.952-.93" clip-path="url(#p5d949d51b6)" style="fill:none;stroke-dasharray:6.4,1.6,1,1.6;stroke-dashoffset:0;stroke:green"/><path id="patch_8" d="M282.064 184.882V37.599" style="fill:none;stroke:#000;stroke-width:.5;stroke-linejoin:miter;stroke-linecap:square"/><path id="patch_9" d="M490.32 184.882V37.599" style="fill:none;stroke:#000;stroke-width:.5;stroke-linejoin:miter;stroke-linecap:square"/><path id="patch_10" d="M282.064 184.882H490.32" style="fill:none;stroke:#000;stroke-width:.5;stroke-linejoin:miter;stroke-linecap:square"/><path id="patch_11" d="M282.064 37.6H490.32" style="fill:none;stroke:#000;stroke-width:.5;stroke-linejoin:miter;stroke-linecap:square"/><g id="text_39" transform="matrix(.096 0 0 -.096 357.108 31.6)"><defs><path id="NimbusRomNo9L-Regu-50" d="M1293 1875c166-19 275-19 441-19 500 0 845 63 1120 216 384 202 615 588 615 1006 0 266-90 506-263 690-256 279-812 456-1414 456H102v-122c474-51 538-115 538-574V766c0-536-51-600-538-644V0h1792v128c-505 0-601 90-601 565zm0 1897c0 171 45 215 217 215 864 0 1261-297 1261-947 0-612-377-928-1113-928-128 0-218 7-365 19z" transform="scale(.01563)"/><path id="NimbusRomNo9L-Regu-68" d="M1005 2222c269 294 461 402 710 402 320 0 480-229 480-676V684c0-434-64-518-435-556V32h1357v96c-346 64-384 115-384 556v1270c0 671-269 1016-787 1016-378 0-647-154-941-538v1958l-32 19c-218-77-378-128-736-230l-173-51v-102c26 6 45 6 77 6 275 0 326-52 326-327V686c0-449-38-507-409-558V32h1382v96c-371 38-435 115-435 556z" transform="scale(.01563)"/></defs><use xlink:href="#NimbusRomNo9L-Regu-50" transform="scale(.99626)"/><use xlink:href="#NimbusRomNo9L-Regu-68" transform="translate(55.392)scale(.99626)"/><use xlink:href="#NimbusRomNo9L-Regu-61" transform="translate(105.205)scale(.99626)"/><use xlink:href="#NimbusRomNo9L-Regu-73" transform="translate(149.438)scale(.99626)"/><use xlink:href="#NimbusRomNo9L-Regu-65" transform="translate(188.192)scale(.99626)"/><use xlink:href="#NimbusRomNo9L-Regu-72" transform="translate(257.332)scale(.99626)"/><use xlink:href="#NimbusRomNo9L-Regu-65" transform="translate(290.508)scale(.99626)"/><use xlink:href="#NimbusRomNo9L-Regu-73" transform="translate(334.741)scale(.99626)"/><use xlink:href="#NimbusRomNo9L-Regu-70" transform="translate(373.495)scale(.99626)"/><use xlink:href="#NimbusRomNo9L-Regu-6f" transform="translate(423.308)scale(.99626)"/><use xlink:href="#NimbusRomNo9L-Regu-6e" transform="translate(473.121)scale(.99626)"/><use xlink:href="#NimbusRomNo9L-Regu-73" transform="translate(522.934)scale(.99626)"/><use xlink:href="#NimbusRomNo9L-Regu-65" transform="translate(561.688)scale(.99626)"/></g><g id="legend_2"><path id="line2d_299" d="M289.264 139.18h16" style="fill:none;stroke:#000;stroke-linecap:square"/><g id="text_40" transform="matrix(.08 0 0 -.08 311.664 141.98)"><use xlink:href="#NimbusRomNo9L-Regu-53" transform="scale(.99626)"/><use xlink:href="#NimbusRomNo9L-Regu-31" transform="translate(55.392)scale(.99626)"/><use xlink:href="#NimbusRomNo9L-Regu-31" transform="translate(105.205)scale(.99626)"/></g><path id="line2d_300" d="M289.264 150.505h16" style="fill:none;stroke-dasharray:3.7,1.6;stroke-dashoffset:0;stroke:red"/><g id="text_41" transform="matrix(.08 0 0 -.08 311.664 153.305)"><use xlink:href="#NimbusRomNo9L-Regu-53" transform="scale(.99626)"/><use xlink:href="#NimbusRomNo9L-Regu-31" transform="translate(55.392)scale(.99626)"/><use xlink:href="#NimbusRomNo9L-Regu-32" transform="translate(105.205)scale(.99626)"/></g><path id="line2d_301" d="M289.264 161.83h16" style="fill:none;stroke-dasharray:1,1.65;stroke-dashoffset:0;stroke:#00f"/><g id="text_42" transform="matrix(.08 0 0 -.08 311.664 164.63)"><use xlink:href="#NimbusRomNo9L-Regu-53" transform="scale(.99626)"/><use xlink:href="#NimbusRomNo9L-Regu-32" transform="translate(55.392)scale(.99626)"/><use xlink:href="#NimbusRomNo9L-Regu-31" transform="translate(105.205)scale(.99626)"/></g><path id="line2d_302" d="M289.264 173.156h16" style="fill:none;stroke-dasharray:6.4,1.6,1,1.6;stroke-dashoffset:0;stroke:green"/><g id="text_43" transform="matrix(.08 0 0 -.08 311.664 175.956)"><use xlink:href="#NimbusRomNo9L-Regu-53" transform="scale(.99626)"/><use xlink:href="#NimbusRomNo9L-Regu-32" transform="translate(55.392)scale(.99626)"/><use xlink:href="#NimbusRomNo9L-Regu-32" transform="translate(105.205)scale(.99626)"/></g></g></g><g id="text_44" transform="matrix(.096 0 0 -.096 202.468 10.084)"><defs><path id="NimbusRomNo9L-Regu-52" d="M4218 121c-244 19-372 84-557 303L2342 2061c429 82 621 158 832 327 205 165 327 430 327 725 0 272-83 505-250 688-243 258-774 423-1376 423H109v-122c480-51 544-121 544-574V765c0-529-64-606-544-644V0h1773v134c-493 0-576 85-576 558v1292h358L3187 0h1031zM1306 3762c0 175 70 225 326 225 800 0 1171-271 1171-864 0-316-134-581-365-700-294-165-518-202-1132-202z" transform="scale(.01563)"/><path id="NimbusRomNo9L-Regu-66" d="M1978 2880h-788v731c0 367 122 562 365 562 135 0 224-63 339-246 103-164 180-227 288-227 148 0 269 114 269 259 0 229-281 393-665 393-397 0-736-171-903-461-166-278-217-506-224-1011H134v-205h525V656c0-471-70-547-531-547V0h1664v109c-525 0-595 71-595 552v2014h781z" transform="scale(.01563)"/><path id="NimbusRomNo9L-Regu-60" d="M1453 4307c-429-211-717-601-717-985 0-327 224-570 512-570 224 0 378 147 378 365 0 198-148 326-378 326-38 0-83-6-122-12-44-13-44-13-51-13-51 0-89 38-89 89 0 212 179 442 524 679z" transform="scale(.01563)"/><path id="NimbusRomNo9L-Regu-6b" d="M45 3987c83 7 141 13 205 13 211 0 275-83 275-390V525c0-333-19-352-480-429V0h1497v102h-128c-256 0-352 91-352 317v1187l896-1191 20-26c12-19 25-38 44-58 52-64 71-102 71-133 0-58-58-96-135-96h-121V0h1395v102c-282 0-480 123-749 451l-979 1252 186 173c454 422 851 716 1036 768 96 25 186 38 295 38h51v96H1766v-96c250 0 320-26 320-115 0-51-57-141-147-218l-877-781v2688l-25 13c-243-77-429-128-800-230l-192-51z" transform="scale(.01563)"/><path id="NimbusRomNo9L-Regu-27" d="M678 2758c429 211 717 602 717 986 0 320-224 569-512 569-224 0-377-147-377-364 0-205 147-327 377-327 39 0 83 7 122 13 45 13 45 13 51 13 51 0 90-39 90-90 0-211-180-441-525-678z" transform="scale(.01563)"/></defs><use xlink:href="#NimbusRomNo9L-Regu-52" transform="scale(.99626)"/><use xlink:href="#NimbusRomNo9L-Regu-65" transform="translate(66.45)scale(.99626)"/><use xlink:href="#NimbusRomNo9L-Regu-70" transform="translate(110.684)scale(.99626)"/><use xlink:href="#NimbusRomNo9L-Regu-6f" transform="translate(160.497)scale(.99626)"/><use xlink:href="#NimbusRomNo9L-Regu-6e" transform="translate(210.31)scale(.99626)"/><use xlink:href="#NimbusRomNo9L-Regu-73" transform="translate(260.123)scale(.99626)"/><use xlink:href="#NimbusRomNo9L-Regu-65" transform="translate(298.877)scale(.99626)"/><use xlink:href="#NimbusRomNo9L-Regu-6f" transform="translate(368.017)scale(.99626)"/><use xlink:href="#NimbusRomNo9L-Regu-66" transform="translate(417.83)scale(.99626)"/><use xlink:href="#NimbusRomNo9L-Regu-74" transform="translate(475.912)scale(.99626)"/><use xlink:href="#NimbusRomNo9L-Regu-68" transform="translate(503.607)scale(.99626)"/><use xlink:href="#NimbusRomNo9L-Regu-65" transform="translate(553.42)scale(.99626)"/><use xlink:href="#NimbusRomNo9L-Regu-60" transform="translate(622.56)scale(.99626)"/><use xlink:href="#NimbusRomNo9L-Regu-42" transform="translate(655.736)scale(.99626)"/><use xlink:href="#NimbusRomNo9L-Regu-6c" transform="translate(722.186)scale(.99626)"/><use xlink:href="#NimbusRomNo9L-Regu-6f" transform="translate(749.881)scale(.99626)"/><use xlink:href="#NimbusRomNo9L-Regu-63" transform="translate(799.694)scale(.99626)"/><use xlink:href="#NimbusRomNo9L-Regu-6b" transform="translate(843.928)scale(.99626)"/><use xlink:href="#NimbusRomNo9L-Regu-27" transform="translate(893.741)scale(.99626)"/></g></g><defs><clipPath id="p66a78abf91"><path d="M32.392 37.599h208.256v147.282H32.392z"/></clipPath><clipPath id="p5d949d51b6"><path d="M282.064 37.599H490.32v147.282H282.064z"/></clipPath></defs></svg>