<svg xmlns="http://www.w3.org/2000/svg" xmlns:xlink="http://www.w3.org/1999/xlink" width="658.56" height="280.32" viewBox="0 0 493.92 210.24"><defs><style>*{stroke-linejoin:round;stroke-linecap:butt}</style></defs><g id="figure_1"><path id="patch_1" d="M0 210.24h493.92V0H0z" style="fill:none"/><g id="axes_1"><path id="patch_2" d="M32.392 184.882h208.255V37.599H32.392z" style="fill:none"/><g id="matplotlib.axis_1"><g id="xtick_1"><g id="line2d_1"><defs><path id="m1ca42307a1" d="M0 0v-3" style="stroke:#000;stroke-width:.5"/></defs><use xlink:href="#m1ca42307a1" x="41.849" y="184.882" style="stroke:#000;stroke-width:.5"/></g><g id="line2d_2"><defs><path id="ma7e36acb37" d="M0 0v3" style="stroke:#000;stroke-width:.5"/></defs><use xlink:href="#ma7e36acb37" x="41.849" y="37.599" style="stroke:#000;stroke-width:.5"/></g><g id="text_1" transform="matrix(.08 0 0 -.08 39.856 193.785)"><defs><path id="NimbusRomNo9L-Regu-30" d="M1626 4352c-352 0-621-108-858-332-371-359-614-1095-614-1844 0-697 211-1446 512-1804C902 90 1229-64 1600-64c326 0 602 109 832 333 371 352 614 1095 614 1869 0 1312-582 2214-1420 2214m-20-166c538 0 826-723 826-2061 0-1337-282-2022-832-2022S768 788 768 2119c0 1357 288 2067 838 2067" transform="scale(.01563)"/></defs><use xlink:href="#NimbusRomNo9L-Regu-30" transform="scale(.99626)"/></g></g><g id="xtick_2"><use xlink:href="#m1ca42307a1" id="line2d_3" x="73.563" y="184.882" style="stroke:#000;stroke-width:.5"/><use xlink:href="#ma7e36acb37" id="line2d_4" x="73.563" y="37.599" style="stroke:#000;stroke-width:.5"/><g id="text_2" transform="matrix(.08 0 0 -.08 71.57 193.785)"><defs><path id="NimbusRomNo9L-Regu-31" d="M1862 4339 710 3757v-90c77 32 148 58 173 71 115 45 224 70 288 70 135 0 192-97 192-303V592c0-213-51-360-153-419-96-57-186-77-455-77V0h1767v96c-506 0-608 64-608 374v3857z" transform="scale(.01563)"/></defs><use xlink:href="#NimbusRomNo9L-Regu-31" transform="scale(.99626)"/></g></g><g id="xtick_3"><use xlink:href="#m1ca42307a1" id="line2d_5" x="105.277" y="184.882" style="stroke:#000;stroke-width:.5"/><use xlink:href="#ma7e36acb37" id="line2d_6" x="105.277" y="37.599" style="stroke:#000;stroke-width:.5"/><g id="text_3" transform="matrix(.08 0 0 -.08 103.284 193.785)"><defs><path id="NimbusRomNo9L-Regu-32" d="m3040 875-83 32c-237-363-320-421-608-421H819l1075 1123c570 593 820 1078 820 1576 0 638-519 1128-1184 1128-352 0-685-140-922-395-205-218-301-422-410-875l135-32c256 625 486 829 928 829 537 0 902-364 902-900 0-497-294-1090-832-1658L192 77V0h2496z" transform="scale(.01563)"/></defs><use xlink:href="#NimbusRomNo9L-Regu-32" transform="scale(.99626)"/></g></g><g id="xtick_4"><use xlink:href="#m1ca42307a1" id="line2d_7" x="136.991" y="184.882" style="stroke:#000;stroke-width:.5"/><use xlink:href="#ma7e36acb37" id="line2d_8" x="136.991" y="37.599" style="stroke:#000;stroke-width:.5"/><g id="text_4" transform="matrix(.08 0 0 -.08 134.998 193.785)"><defs><path id="NimbusRomNo9L-Regu-33" d="M979 2138c378 0 525-13 679-70 396-141 646-506 646-948 0-537-365-953-838-953-173 0-301 45-538 198-192 115-301 160-410 160-147 0-243-89-243-224C275 77 550-64 998-64c493 0 999 167 1300 429 300 263 467 634 467 1063 0 326-103 627-288 825-128 141-250 218-531 339 441 301 601 538 601 884 0 518-409 876-998 876-320 0-602-108-832-313-192-173-288-340-429-724l96-25c262 467 550 678 954 678 416 0 704-281 704-684 0-231-96-461-256-621-192-192-372-288-807-442z" transform="scale(.01563)"/></defs><use xlink:href="#NimbusRomNo9L-Regu-33" transform="scale(.99626)"/></g></g><g id="xtick_5"><use xlink:href="#m1ca42307a1" id="line2d_9" x="168.705" y="184.882" style="stroke:#000;stroke-width:.5"/><use xlink:href="#ma7e36acb37" id="line2d_10" x="168.705" y="37.599" style="stroke:#000;stroke-width:.5"/><g id="text_5" transform="matrix(.08 0 0 -.08 166.712 193.785)"><defs><path id="NimbusRomNo9L-Regu-34" d="M3021 1497h-653v2855h-282L77 1497v-409h1798V32h493v1056h653zm-1152 0H333l1536 2201z" transform="scale(.01563)"/></defs><use xlink:href="#NimbusRomNo9L-Regu-34" transform="scale(.99626)"/></g></g><g id="xtick_6"><use xlink:href="#m1ca42307a1" id="line2d_11" x="200.419" y="184.882" style="stroke:#000;stroke-width:.5"/><use xlink:href="#ma7e36acb37" id="line2d_12" x="200.419" y="37.599" style="stroke:#000;stroke-width:.5"/><g id="text_6" transform="matrix(.08 0 0 -.08 198.426 193.785)"><defs><path id="NimbusRomNo9L-Regu-35" d="M1158 3776h1255c102 0 128 13 147 58l243 569-57 45c-96-134-160-166-295-166H1114L416 2759c-6-13-6-19-6-32 0-32 25-51 76-51 205 0 461-45 724-129 736-238 1075-637 1075-1273 0-618-391-1101-890-1101-128 0-237 45-429 187-204 148-352 212-486 212-186 0-275-77-275-238C205 90 506-64 986-64c537 0 998 174 1318 502 294 290 429 656 429 1145 0 463-122 759-442 1080-281 284-646 431-1401 566z" transform="scale(.01563)"/></defs><use xlink:href="#NimbusRomNo9L-Regu-35" transform="scale(.99626)"/></g></g><g id="xtick_7"><use xlink:href="#m1ca42307a1" id="line2d_13" x="232.133" y="184.882" style="stroke:#000;stroke-width:.5"/><use xlink:href="#ma7e36acb37" id="line2d_14" x="232.133" y="37.599" style="stroke:#000;stroke-width:.5"/><g id="text_7" transform="matrix(.08 0 0 -.08 230.14 193.785)"><defs><path id="NimbusRomNo9L-Regu-36" d="M2854 4391c-729-64-1100-186-1568-512C595 3386 218 2656 218 1802c0-554 172-1114 448-1432C909 89 1254-64 1651-64c794 0 1344 605 1344 1485 0 815-467 1331-1203 1331-282 0-416-45-819-288 173 967 889 1658 1894 1824zM1549 2458c550 0 870-458 870-1254 0-700-249-1088-697-1088-564 0-909 598-909 1584 0 325 51 503 179 599 134 101 333 159 557 159" transform="scale(.01563)"/></defs><use xlink:href="#NimbusRomNo9L-Regu-36" transform="scale(.99626)"/></g></g><g id="xtick_8"><g id="line2d_15"><defs><path id="md27bef1932" d="M0 0v-1.5" style="stroke:#000;stroke-width:.5"/></defs><use xlink:href="#md27bef1932" x="35.506" y="184.882" style="stroke:#000;stroke-width:.5"/></g><g id="line2d_16"><defs><path id="m100e2e2dd0" d="M0 0v1.5" style="stroke:#000;stroke-width:.5"/></defs><use xlink:href="#m100e2e2dd0" x="35.506" y="37.599" style="stroke:#000;stroke-width:.5"/></g></g><g id="xtick_9"><use xlink:href="#md27bef1932" id="line2d_17" x="48.191" y="184.882" style="stroke:#000;stroke-width:.5"/><use xlink:href="#m100e2e2dd0" id="line2d_18" x="48.191" y="37.599" style="stroke:#000;stroke-width:.5"/></g><g id="xtick_10"><use xlink:href="#md27bef1932" id="line2d_19" x="54.534" y="184.882" style="stroke:#000;stroke-width:.5"/><use xlink:href="#m100e2e2dd0" id="line2d_20" x="54.534" y="37.599" style="stroke:#000;stroke-width:.5"/></g><g id="xtick_11"><use xlink:href="#md27bef1932" id="line2d_21" x="60.877" y="184.882" style="stroke:#000;stroke-width:.5"/><use xlink:href="#m100e2e2dd0" id="line2d_22" x="60.877" y="37.599" style="stroke:#000;stroke-width:.5"/></g><g id="xtick_12"><use xlink:href="#md27bef1932" id="line2d_23" x="67.22" y="184.882" style="stroke:#000;stroke-width:.5"/><use xlink:href="#m100e2e2dd0" id="line2d_24" x="67.22" y="37.599" style="stroke:#000;stroke-width:.5"/></g><g id="xtick_13"><use xlink:href="#md27bef1932" id="line2d_25" x="79.905" y="184.882" style="stroke:#000;stroke-width:.5"/><use xlink:href="#m100e2e2dd0" id="line2d_26" x="79.905" y="37.599" style="stroke:#000;stroke-width:.5"/></g><g id="xtick_14"><use xlink:href="#md27bef1932" id="line2d_27" x="86.248" y="184.882" style="stroke:#000;stroke-width:.5"/><use xlink:href="#m100e2e2dd0" id="line2d_28" x="86.248" y="37.599" style="stroke:#000;stroke-width:.5"/></g><g id="xtick_15"><use xlink:href="#md27bef1932" id="line2d_29" x="92.591" y="184.882" style="stroke:#000;stroke-width:.5"/><use xlink:href="#m100e2e2dd0" id="line2d_30" x="92.591" y="37.599" style="stroke:#000;stroke-width:.5"/></g><g id="xtick_16"><use xlink:href="#md27bef1932" id="line2d_31" x="98.934" y="184.882" style="stroke:#000;stroke-width:.5"/><use xlink:href="#m100e2e2dd0" id="line2d_32" x="98.934" y="37.599" style="stroke:#000;stroke-width:.5"/></g><g id="xtick_17"><use xlink:href="#md27bef1932" id="line2d_33" x="111.619" y="184.882" style="stroke:#000;stroke-width:.5"/><use xlink:href="#m100e2e2dd0" id="line2d_34" x="111.619" y="37.599" style="stroke:#000;stroke-width:.5"/></g><g id="xtick_18"><use xlink:href="#md27bef1932" id="line2d_35" x="117.962" y="184.882" style="stroke:#000;stroke-width:.5"/><use xlink:href="#m100e2e2dd0" id="line2d_36" x="117.962" y="37.599" style="stroke:#000;stroke-width:.5"/></g><g id="xtick_19"><use xlink:href="#md27bef1932" id="line2d_37" x="124.305" y="184.882" style="stroke:#000;stroke-width:.5"/><use xlink:href="#m100e2e2dd0" id="line2d_38" x="124.305" y="37.599" style="stroke:#000;stroke-width:.5"/></g><g id="xtick_20"><use xlink:href="#md27bef1932" id="line2d_39" x="130.648" y="184.882" style="stroke:#000;stroke-width:.5"/><use xlink:href="#m100e2e2dd0" id="line2d_40" x="130.648" y="37.599" style="stroke:#000;stroke-width:.5"/></g><g id="xtick_21"><use xlink:href="#md27bef1932" id="line2d_41" x="143.333" y="184.882" style="stroke:#000;stroke-width:.5"/><use xlink:href="#m100e2e2dd0" id="line2d_42" x="143.333" y="37.599" style="stroke:#000;stroke-width:.5"/></g><g id="xtick_22"><use xlink:href="#md27bef1932" id="line2d_43" x="149.676" y="184.882" style="stroke:#000;stroke-width:.5"/><use xlink:href="#m100e2e2dd0" id="line2d_44" x="149.676" y="37.599" style="stroke:#000;stroke-width:.5"/></g><g id="xtick_23"><use xlink:href="#md27bef1932" id="line2d_45" x="156.019" y="184.882" style="stroke:#000;stroke-width:.5"/><use xlink:href="#m100e2e2dd0" id="line2d_46" x="156.019" y="37.599" style="stroke:#000;stroke-width:.5"/></g><g id="xtick_24"><use xlink:href="#md27bef1932" id="line2d_47" x="162.362" y="184.882" style="stroke:#000;stroke-width:.5"/><use xlink:href="#m100e2e2dd0" id="line2d_48" x="162.362" y="37.599" style="stroke:#000;stroke-width:.5"/></g><g id="xtick_25"><use xlink:href="#md27bef1932" id="line2d_49" x="175.047" y="184.882" style="stroke:#000;stroke-width:.5"/><use xlink:href="#m100e2e2dd0" id="line2d_50" x="175.047" y="37.599" style="stroke:#000;stroke-width:.5"/></g><g id="xtick_26"><use xlink:href="#md27bef1932" id="line2d_51" x="181.39" y="184.882" style="stroke:#000;stroke-width:.5"/><use xlink:href="#m100e2e2dd0" id="line2d_52" x="181.39" y="37.599" style="stroke:#000;stroke-width:.5"/></g><g id="xtick_27"><use xlink:href="#md27bef1932" id="line2d_53" x="187.733" y="184.882" style="stroke:#000;stroke-width:.5"/><use xlink:href="#m100e2e2dd0" id="line2d_54" x="187.733" y="37.599" style="stroke:#000;stroke-width:.5"/></g><g id="xtick_28"><use xlink:href="#md27bef1932" id="line2d_55" x="194.076" y="184.882" style="stroke:#000;stroke-width:.5"/><use xlink:href="#m100e2e2dd0" id="line2d_56" x="194.076" y="37.599" style="stroke:#000;stroke-width:.5"/></g><g id="xtick_29"><use xlink:href="#md27bef1932" id="line2d_57" x="206.761" y="184.882" style="stroke:#000;stroke-width:.5"/><use xlink:href="#m100e2e2dd0" id="line2d_58" x="206.761" y="37.599" style="stroke:#000;stroke-width:.5"/></g><g id="xtick_30"><use xlink:href="#md27bef1932" id="line2d_59" x="213.104" y="184.882" style="stroke:#000;stroke-width:.5"/><use xlink:href="#m100e2e2dd0" id="line2d_60" x="213.104" y="37.599" style="stroke:#000;stroke-width:.5"/></g><g id="xtick_31"><use xlink:href="#md27bef1932" id="line2d_61" x="219.447" y="184.882" style="stroke:#000;stroke-width:.5"/><use xlink:href="#m100e2e2dd0" id="line2d_62" x="219.447" y="37.599" style="stroke:#000;stroke-width:.5"/></g><g id="xtick_32"><use xlink:href="#md27bef1932" id="line2d_63" x="225.79" y="184.882" style="stroke:#000;stroke-width:.5"/><use xlink:href="#m100e2e2dd0" id="line2d_64" x="225.79" y="37.599" style="stroke:#000;stroke-width:.5"/></g><g id="xtick_33"><use xlink:href="#md27bef1932" id="line2d_65" x="238.475" y="184.882" style="stroke:#000;stroke-width:.5"/><use xlink:href="#m100e2e2dd0" id="line2d_66" x="238.475" y="37.599" style="stroke:#000;stroke-width:.5"/></g><g id="text_8" transform="matrix(.08 0 0 -.08 108.585 204.915)"><defs><path id="NimbusRomNo9L-Regu-46" d="M3066 1472v1485h-148c-76-496-192-589-704-589h-928v1398c0 177 32 215 205 215h871c723 0 864-95 972-667h160l-19 910H77v-122c473-38 557-128 557-577V749c0-532-71-615-557-615V0h1792v134c-493 0-583 91-583 558v1414h928c519 0 628-99 704-634z" transform="scale(.01563)"/><path id="NimbusRomNo9L-Regu-72" d="M45 2496c89 19 147 26 224 26 160 0 217-103 217-384V538c0-320-44-365-454-442V0h1536v102c-435 0-544 97-544 463v1448c0 206 275 528 448 528 38 0 96-32 166-96 103-90 173-128 256-128 154 0 250 109 250 288 0 211-134 339-352 339-269 0-454-147-768-601v588l-32 13c-339-141-570-223-947-345z" transform="scale(.01563)"/><path id="NimbusRomNo9L-Regu-65" d="M2611 1053c-307-489-582-675-992-675-365 0-640 186-825 552-116 244-160 456-173 849h1971c-51 414-115 598-275 802-192 230-487 363-819 363-320 0-621-115-864-333-301-262-474-717-474-1241C160 486 621-64 1357-64c608 0 1088 379 1357 1072zM634 1984c70 495 288 730 678 730s544-179 627-730z" transform="scale(.01563)"/><path id="NimbusRomNo9L-Regu-71" d="M2304 2701c-294 173-486 230-736 230-800 0-1414-713-1414-1631C154 498 576-70 1178-70c371 0 723 166 1004 473V-824c0-364-115-462-569-462v-122h1510v90c-352 77-403 128-403 397v3827h-70zM2182 804c0-153-25-235-89-286-141-121-352-198-551-198-198 0-371 64-499 191-205 185-339 599-339 1019 0 752 339 1222 883 1222 397 0 595-210 595-637z" transform="scale(.01563)"/><path id="NimbusRomNo9L-Regu-75" d="M3066 320h-32c-295 0-365 70-365 365v2195H1658v-122c396 0 473-64 473-383V875c0-178-32-268-121-338-173-140-372-217-564-217-249 0-454 217-454 485v2075H58v-102c307 0 396-96 396-391V770c0-507 308-834 775-834 237 0 486 102 659 275l275 275V-45l26-13c320 128 550 199 877 288z" transform="scale(.01563)"/><path id="NimbusRomNo9L-Regu-6e" d="M102 2579c39 19 103 26 173 26 179 0 237-96 237-410V608c0-365-70-454-397-480V32h1357v96c-326 26-422 102-422 333v1798c307 288 448 365 659 365 313 0 467-198 467-621V666c0-404-83-512-403-538V32h1331v96c-314 32-390 109-390 422v1466c0 602-282 960-756 960-294 0-492-109-928-518v505l-44 13c-314-115-532-186-884-288z" transform="scale(.01563)"/><path id="NimbusRomNo9L-Regu-63" d="M2547 998c-307-448-537-601-902-601-583 0-992 512-992 1248 0 659 352 1113 870 1113 231 0 314-70 378-307l38-141c51-179 167-294 301-294 166 0 307 122 307 269 0 358-448 659-985 659-314 0-640-128-903-358-320-282-499-717-499-1223C160 531 666-64 1376-64c288 0 544 102 774 301 173 153 295 326 487 704z" transform="scale(.01563)"/><path id="NimbusRomNo9L-Regu-79" d="M3040 2880h-864v-96c205 0 307-58 307-161 0-26-6-64-25-109L1837 742l-736 1635c-39 91-64 175-64 245 0 117 96 162 371 162v96H90v-90c166-25 275-96 326-205l730-1580 19-52 96-192c179-321 281-552 281-649 0-96-147-501-256-694-89-167-230-289-320-289-38 0-96 13-160 45-121 45-230 71-339 71-147 0-275-128-275-282 0-211 205-371 474-371 428 0 736 359 1081 1284l986 2619c83 206 153 270 307 289z" transform="scale(.01563)"/><path id="NimbusRomNo9L-Regu-5b" d="M1914-864h-551c-211 0-313 108-313 333v4312c0 200 83 283 288 283h576v160H563v-5248h1351z" transform="scale(.01563)"/><path id="NimbusRomNo9L-Regu-47" d="M4538 2304H2906v-128c275 0 352-19 428-71 96-58 135-207 135-484V574c0-207-391-382-851-382-1044 0-1684 730-1684 1920 0 602 180 1184 461 1498 282 314 679 486 1114 486 358 0 672-121 921-352 192-179 295-352 455-742h147l-51 1350h-141c-38-121-154-211-288-211-64 0-166 19-282 64-288 96-582 147-870 147-1280 0-2195-940-2195-2246 0-627 173-1107 531-1485C1165 180 1779-64 2483-64c551 0 1351 224 1607 449v1309c0 379 76 463 448 495z" transform="scale(.01563)"/><path id="NimbusRomNo9L-Regu-48" d="M1338 2304v1229c0 457 70 526 563 571v120H122v-120c492-45 563-115 563-577V749c0-539-64-615-563-615V0h1779v121c-480 38-563 121-563 578v1323h1939V757c0-546-64-623-563-623V0h1779v121c-480 38-563 121-563 575v2833c0 460 70 530 563 575v120H2714v-120c492-45 563-114 563-571V2304z" transform="scale(.01563)"/><path id="NimbusRomNo9L-Regu-7a" d="m2675 864-115 26c-64-320-102-423-186-532-89-108-307-166-633-166H858l1721 2592v96H358l-19-755h115c58 467 154 563 538 563h883L173 96V0h2413z" transform="scale(.01563)"/><path id="NimbusRomNo9L-Regu-5d" d="M218-864v-160h1350v5248H218v-160h550c211 0 314-109 314-334V-582c0-199-90-282-288-282z" transform="scale(.01563)"/></defs><use xlink:href="#NimbusRomNo9L-Regu-46" transform="scale(.99626)"/><use xlink:href="#NimbusRomNo9L-Regu-72" transform="translate(55.392)scale(.99626)"/><use xlink:href="#NimbusRomNo9L-Regu-65" transform="translate(88.567)scale(.99626)"/><use xlink:href="#NimbusRomNo9L-Regu-71" transform="translate(132.8)scale(.99626)"/><use xlink:href="#NimbusRomNo9L-Regu-75" transform="translate(182.614)scale(.99626)"/><use xlink:href="#NimbusRomNo9L-Regu-65" transform="translate(232.427)scale(.99626)"/><use xlink:href="#NimbusRomNo9L-Regu-6e" transform="translate(276.66)scale(.99626)"/><use xlink:href="#NimbusRomNo9L-Regu-63" transform="translate(326.474)scale(.99626)"/><use xlink:href="#NimbusRomNo9L-Regu-79" transform="translate(369.214)scale(.99626)"/><use xlink:href="#NimbusRomNo9L-Regu-5b" transform="translate(443.934)scale(.99626)"/><use xlink:href="#NimbusRomNo9L-Regu-47" transform="translate(477.109)scale(.99626)"/><use xlink:href="#NimbusRomNo9L-Regu-48" transform="translate(549.039)scale(.99626)"/><use xlink:href="#NimbusRomNo9L-Regu-7a" transform="translate(620.969)scale(.99626)"/><use xlink:href="#NimbusRomNo9L-Regu-5d" transform="translate(665.202)scale(.99626)"/></g></g><g id="matplotlib.axis_2"><g id="ytick_1"><g id="line2d_67"><defs><path id="m7d23e10eab" d="M0 0h3" style="stroke:#000;stroke-width:.5"/></defs><use xlink:href="#m7d23e10eab" x="32.392" y="184.039" style="stroke:#000;stroke-width:.5"/></g><g id="line2d_68"><defs><path id="m5c54a4e6e3" d="M0 0h-3" style="stroke:#000;stroke-width:.5"/></defs><use xlink:href="#m5c54a4e6e3" x="240.647" y="184.039" style="stroke:#000;stroke-width:.5"/></g><g id="text_9" transform="matrix(.08 0 0 -.08 14.73 186.74)"><defs><path id="CMSY10-0" d="M4218 1472c108 0 224 0 224 128s-116 128-224 128H755c-109 0-224 0-224-128s115-128 224-128z" transform="scale(.01563)"/><path id="NimbusRomNo9L-Regu-37" d="M2874 4250H506l-378-940 109-52c275 435 390 518 742 518h1389L1101-32h416l1357 4180z" transform="scale(.01563)"/></defs><use xlink:href="#CMSY10-0" transform="scale(.99626)"/><use xlink:href="#NimbusRomNo9L-Regu-37" transform="translate(77.409)scale(.99626)"/><use xlink:href="#NimbusRomNo9L-Regu-30" transform="translate(127.222)scale(.99626)"/></g></g><g id="ytick_2"><use xlink:href="#m7d23e10eab" id="line2d_69" x="32.392" y="164.198" style="stroke:#000;stroke-width:.5"/><use xlink:href="#m5c54a4e6e3" id="line2d_70" x="240.647" y="164.198" style="stroke:#000;stroke-width:.5"/><g id="text_10" transform="matrix(.08 0 0 -.08 14.73 166.9)"><use xlink:href="#CMSY10-0" transform="scale(.99626)"/><use xlink:href="#NimbusRomNo9L-Regu-36" transform="translate(77.409)scale(.99626)"/><use xlink:href="#NimbusRomNo9L-Regu-30" transform="translate(127.222)scale(.99626)"/></g></g><g id="ytick_3"><use xlink:href="#m7d23e10eab" id="line2d_71" x="32.392" y="144.358" style="stroke:#000;stroke-width:.5"/><use xlink:href="#m5c54a4e6e3" id="line2d_72" x="240.647" y="144.358" style="stroke:#000;stroke-width:.5"/><g id="text_11" transform="matrix(.08 0 0 -.08 14.73 147.06)"><use xlink:href="#CMSY10-0" transform="scale(.99626)"/><use xlink:href="#NimbusRomNo9L-Regu-35" transform="translate(77.409)scale(.99626)"/><use xlink:href="#NimbusRomNo9L-Regu-30" transform="translate(127.222)scale(.99626)"/></g></g><g id="ytick_4"><use xlink:href="#m7d23e10eab" id="line2d_73" x="32.392" y="124.517" style="stroke:#000;stroke-width:.5"/><use xlink:href="#m5c54a4e6e3" id="line2d_74" x="240.647" y="124.517" style="stroke:#000;stroke-width:.5"/><g id="text_12" transform="matrix(.08 0 0 -.08 14.73 127.22)"><use xlink:href="#CMSY10-0" transform="scale(.99626)"/><use xlink:href="#NimbusRomNo9L-Regu-34" transform="translate(77.409)scale(.99626)"/><use xlink:href="#NimbusRomNo9L-Regu-30" transform="translate(127.222)scale(.99626)"/></g></g><g id="ytick_5"><use xlink:href="#m7d23e10eab" id="line2d_75" x="32.392" y="104.677" style="stroke:#000;stroke-width:.5"/><use xlink:href="#m5c54a4e6e3" id="line2d_76" x="240.647" y="104.677" style="stroke:#000;stroke-width:.5"/><g id="text_13" transform="matrix(.08 0 0 -.08 14.73 107.379)"><use xlink:href="#CMSY10-0" transform="scale(.99626)"/><use xlink:href="#NimbusRomNo9L-Regu-33" transform="translate(77.409)scale(.99626)"/><use xlink:href="#NimbusRomNo9L-Regu-30" transform="translate(127.222)scale(.99626)"/></g></g><g id="ytick_6"><use xlink:href="#m7d23e10eab" id="line2d_77" x="32.392" y="84.837" style="stroke:#000;stroke-width:.5"/><use xlink:href="#m5c54a4e6e3" id="line2d_78" x="240.647" y="84.837" style="stroke:#000;stroke-width:.5"/><g id="text_14" transform="matrix(.08 0 0 -.08 14.73 87.538)"><use xlink:href="#CMSY10-0" transform="scale(.99626)"/><use xlink:href="#NimbusRomNo9L-Regu-32" transform="translate(77.409)scale(.99626)"/><use xlink:href="#NimbusRomNo9L-Regu-30" transform="translate(127.222)scale(.99626)"/></g></g><g id="ytick_7"><use xlink:href="#m7d23e10eab" id="line2d_79" x="32.392" y="64.996" style="stroke:#000;stroke-width:.5"/><use xlink:href="#m5c54a4e6e3" id="line2d_80" x="240.647" y="64.996" style="stroke:#000;stroke-width:.5"/><g id="text_15" transform="matrix(.08 0 0 -.08 14.73 67.698)"><use xlink:href="#CMSY10-0" transform="scale(.99626)"/><use xlink:href="#NimbusRomNo9L-Regu-31" transform="translate(77.409)scale(.99626)"/><use xlink:href="#NimbusRomNo9L-Regu-30" transform="translate(127.222)scale(.99626)"/></g></g><g id="ytick_8"><use xlink:href="#m7d23e10eab" id="line2d_81" x="32.392" y="45.156" style="stroke:#000;stroke-width:.5"/><use xlink:href="#m5c54a4e6e3" id="line2d_82" x="240.647" y="45.156" style="stroke:#000;stroke-width:.5"/><use xlink:href="#NimbusRomNo9L-Regu-30" id="text_16" transform="matrix(.0797 0 0 -.0797 24.907 47.858)"/></g><g id="ytick_9"><g id="line2d_83"><defs><path id="m34ddb76b8f" d="M0 0h1.5" style="stroke:#000;stroke-width:.5"/></defs><use xlink:href="#m34ddb76b8f" x="32.392" y="180.071" style="stroke:#000;stroke-width:.5"/></g><g id="line2d_84"><defs><path id="ma4b0dfa9bd" d="M0 0h-1.5" style="stroke:#000;stroke-width:.5"/></defs><use xlink:href="#ma4b0dfa9bd" x="240.647" y="180.071" style="stroke:#000;stroke-width:.5"/></g></g><g id="ytick_10"><use xlink:href="#m34ddb76b8f" id="line2d_85" x="32.392" y="176.102" style="stroke:#000;stroke-width:.5"/><use xlink:href="#ma4b0dfa9bd" id="line2d_86" x="240.647" y="176.102" style="stroke:#000;stroke-width:.5"/></g><g id="ytick_11"><use xlink:href="#m34ddb76b8f" id="line2d_87" x="32.392" y="172.134" style="stroke:#000;stroke-width:.5"/><use xlink:href="#ma4b0dfa9bd" id="line2d_88" x="240.647" y="172.134" style="stroke:#000;stroke-width:.5"/></g><g id="ytick_12"><use xlink:href="#m34ddb76b8f" id="line2d_89" x="32.392" y="168.166" style="stroke:#000;stroke-width:.5"/><use xlink:href="#ma4b0dfa9bd" id="line2d_90" x="240.647" y="168.166" style="stroke:#000;stroke-width:.5"/></g><g id="ytick_13"><use xlink:href="#m34ddb76b8f" id="line2d_91" x="32.392" y="160.23" style="stroke:#000;stroke-width:.5"/><use xlink:href="#ma4b0dfa9bd" id="line2d_92" x="240.647" y="160.23" style="stroke:#000;stroke-width:.5"/></g><g id="ytick_14"><use xlink:href="#m34ddb76b8f" id="line2d_93" x="32.392" y="156.262" style="stroke:#000;stroke-width:.5"/><use xlink:href="#ma4b0dfa9bd" id="line2d_94" x="240.647" y="156.262" style="stroke:#000;stroke-width:.5"/></g><g id="ytick_15"><use xlink:href="#m34ddb76b8f" id="line2d_95" x="32.392" y="152.294" style="stroke:#000;stroke-width:.5"/><use xlink:href="#ma4b0dfa9bd" id="line2d_96" x="240.647" y="152.294" style="stroke:#000;stroke-width:.5"/></g><g id="ytick_16"><use xlink:href="#m34ddb76b8f" id="line2d_97" x="32.392" y="148.326" style="stroke:#000;stroke-width:.5"/><use xlink:href="#ma4b0dfa9bd" id="line2d_98" x="240.647" y="148.326" style="stroke:#000;stroke-width:.5"/></g><g id="ytick_17"><use xlink:href="#m34ddb76b8f" id="line2d_99" x="32.392" y="140.39" style="stroke:#000;stroke-width:.5"/><use xlink:href="#ma4b0dfa9bd" id="line2d_100" x="240.647" y="140.39" style="stroke:#000;stroke-width:.5"/></g><g id="ytick_18"><use xlink:href="#m34ddb76b8f" id="line2d_101" x="32.392" y="136.422" style="stroke:#000;stroke-width:.5"/><use xlink:href="#ma4b0dfa9bd" id="line2d_102" x="240.647" y="136.422" style="stroke:#000;stroke-width:.5"/></g><g id="ytick_19"><use xlink:href="#m34ddb76b8f" id="line2d_103" x="32.392" y="132.454" style="stroke:#000;stroke-width:.5"/><use xlink:href="#ma4b0dfa9bd" id="line2d_104" x="240.647" y="132.454" style="stroke:#000;stroke-width:.5"/></g><g id="ytick_20"><use xlink:href="#m34ddb76b8f" id="line2d_105" x="32.392" y="128.486" style="stroke:#000;stroke-width:.5"/><use xlink:href="#ma4b0dfa9bd" id="line2d_106" x="240.647" y="128.486" style="stroke:#000;stroke-width:.5"/></g><g id="ytick_21"><use xlink:href="#m34ddb76b8f" id="line2d_107" x="32.392" y="120.549" style="stroke:#000;stroke-width:.5"/><use xlink:href="#ma4b0dfa9bd" id="line2d_108" x="240.647" y="120.549" style="stroke:#000;stroke-width:.5"/></g><g id="ytick_22"><use xlink:href="#m34ddb76b8f" id="line2d_109" x="32.392" y="116.581" style="stroke:#000;stroke-width:.5"/><use xlink:href="#ma4b0dfa9bd" id="line2d_110" x="240.647" y="116.581" style="stroke:#000;stroke-width:.5"/></g><g id="ytick_23"><use xlink:href="#m34ddb76b8f" id="line2d_111" x="32.392" y="112.613" style="stroke:#000;stroke-width:.5"/><use xlink:href="#ma4b0dfa9bd" id="line2d_112" x="240.647" y="112.613" style="stroke:#000;stroke-width:.5"/></g><g id="ytick_24"><use xlink:href="#m34ddb76b8f" id="line2d_113" x="32.392" y="108.645" style="stroke:#000;stroke-width:.5"/><use xlink:href="#ma4b0dfa9bd" id="line2d_114" x="240.647" y="108.645" style="stroke:#000;stroke-width:.5"/></g><g id="ytick_25"><use xlink:href="#m34ddb76b8f" id="line2d_115" x="32.392" y="100.709" style="stroke:#000;stroke-width:.5"/><use xlink:href="#ma4b0dfa9bd" id="line2d_116" x="240.647" y="100.709" style="stroke:#000;stroke-width:.5"/></g><g id="ytick_26"><use xlink:href="#m34ddb76b8f" id="line2d_117" x="32.392" y="96.741" style="stroke:#000;stroke-width:.5"/><use xlink:href="#ma4b0dfa9bd" id="line2d_118" x="240.647" y="96.741" style="stroke:#000;stroke-width:.5"/></g><g id="ytick_27"><use xlink:href="#m34ddb76b8f" id="line2d_119" x="32.392" y="92.773" style="stroke:#000;stroke-width:.5"/><use xlink:href="#ma4b0dfa9bd" id="line2d_120" x="240.647" y="92.773" style="stroke:#000;stroke-width:.5"/></g><g id="ytick_28"><use xlink:href="#m34ddb76b8f" id="line2d_121" x="32.392" y="88.805" style="stroke:#000;stroke-width:.5"/><use xlink:href="#ma4b0dfa9bd" id="line2d_122" x="240.647" y="88.805" style="stroke:#000;stroke-width:.5"/></g><g id="ytick_29"><use xlink:href="#m34ddb76b8f" id="line2d_123" x="32.392" y="80.869" style="stroke:#000;stroke-width:.5"/><use xlink:href="#ma4b0dfa9bd" id="line2d_124" x="240.647" y="80.869" style="stroke:#000;stroke-width:.5"/></g><g id="ytick_30"><use xlink:href="#m34ddb76b8f" id="line2d_125" x="32.392" y="76.9" style="stroke:#000;stroke-width:.5"/><use xlink:href="#ma4b0dfa9bd" id="line2d_126" x="240.647" y="76.9" style="stroke:#000;stroke-width:.5"/></g><g id="ytick_31"><use xlink:href="#m34ddb76b8f" id="line2d_127" x="32.392" y="72.932" style="stroke:#000;stroke-width:.5"/><use xlink:href="#ma4b0dfa9bd" id="line2d_128" x="240.647" y="72.932" style="stroke:#000;stroke-width:.5"/></g><g id="ytick_32"><use xlink:href="#m34ddb76b8f" id="line2d_129" x="32.392" y="68.964" style="stroke:#000;stroke-width:.5"/><use xlink:href="#ma4b0dfa9bd" id="line2d_130" x="240.647" y="68.964" style="stroke:#000;stroke-width:.5"/></g><g id="ytick_33"><use xlink:href="#m34ddb76b8f" id="line2d_131" x="32.392" y="61.028" style="stroke:#000;stroke-width:.5"/><use xlink:href="#ma4b0dfa9bd" id="line2d_132" x="240.647" y="61.028" style="stroke:#000;stroke-width:.5"/></g><g id="ytick_34"><use xlink:href="#m34ddb76b8f" id="line2d_133" x="32.392" y="57.06" style="stroke:#000;stroke-width:.5"/><use xlink:href="#ma4b0dfa9bd" id="line2d_134" x="240.647" y="57.06" style="stroke:#000;stroke-width:.5"/></g><g id="ytick_35"><use xlink:href="#m34ddb76b8f" id="line2d_135" x="32.392" y="53.092" style="stroke:#000;stroke-width:.5"/><use xlink:href="#ma4b0dfa9bd" id="line2d_136" x="240.647" y="53.092" style="stroke:#000;stroke-width:.5"/></g><g id="ytick_36"><use xlink:href="#m34ddb76b8f" id="line2d_137" x="32.392" y="49.124" style="stroke:#000;stroke-width:.5"/><use xlink:href="#ma4b0dfa9bd" id="line2d_138" x="240.647" y="49.124" style="stroke:#000;stroke-width:.5"/></g><g id="ytick_37"><use xlink:href="#m34ddb76b8f" id="line2d_139" x="32.392" y="41.188" style="stroke:#000;stroke-width:.5"/><use xlink:href="#ma4b0dfa9bd" id="line2d_140" x="240.647" y="41.188" style="stroke:#000;stroke-width:.5"/></g><g id="text_17" transform="matrix(0 -.08 -.08 0 9.004 136.808)"><defs><path id="NimbusRomNo9L-Regu-4d" d="M4314 3667V751c0-534-77-617-583-617V0h1792v134c-467 0-557 89-557 547v2855c0 457 84 541 557 579v122H4250L2835 1004 1357 4237H90v-141c524 0 608-77 608-546V943c0-661-90-784-621-822V0h1504v134c-493 0-602 148-602 797v2589L2586 0h89z" transform="scale(.01563)"/><path id="NimbusRomNo9L-Regu-61" d="M2829 423c-109-90-186-122-282-122-147 0-192 89-192 371v1248c0 333-32 518-128 672-141 230-416 352-793 352-602 0-1076-314-1076-717 0-147 128-275 276-275 153 0 288 128 288 269 0 25-7 57-13 102-13 58-19 109-19 154 0 173 204 313 460 313 314 0 487-185 487-531v-390c-986-397-1095-448-1370-691-141-128-230-346-230-557 0-403 281-685 672-685 281 0 544 134 934 467 32-333 147-467 410-467 217 0 352 77 576 320zm-992 360c0-199-32-257-167-334-153-90-332-148-467-148-224 0-403 219-403 495v26c0 379 262 611 1037 893z" transform="scale(.01563)"/><path id="NimbusRomNo9L-Regu-67" d="M3008 2496v250h-493c-128 0-224 17-352 56l-141 45c-172 56-345 84-512 84-595 0-1068-464-1068-1050 0-405 172-651 595-863-122-112-237-219-275-250-212-180-295-305-295-430 0-132 77-207 339-332-454-335-627-549-627-787 0-343 499-627 1107-627 480 0 980 170 1312 446 244 203 352 414 352 663 0 407-300 683-774 683h-826c-339 0-499 59-499 164 0 130 211 360 384 412 58-7 103-13 122-13 121-13 205-19 243-19 237 0 493 98 691 275 211 184 307 414 307 742 0 190-32 341-121 551zM941-13c211-45 723-83 1037-83 582 0 793-84 793-318 0-377-486-629-1209-629-564 0-935 188-935 473 0 150 45 234 314 557m32 2158c0 381 179 607 473 607 199 0 365-110 468-303 115-226 192-522 192-774 0-361-186-587-480-587-384 0-653 419-653 1038z" transform="scale(.01563)"/><path id="NimbusRomNo9L-Regu-69" d="m1120 2929-992-350v-95l51 6c77 12 160 19 218 19 153 0 211-103 211-384V640c0-461-64-531-506-531V0h1517v96c-422 32-473 95-473 554v2260zM819 4352c-173 0-320-147-320-326s141-327 320-327c186 0 333 141 333 327 0 179-147 326-333 326" transform="scale(.01563)"/><path id="NimbusRomNo9L-Regu-74" d="M1632 2880H986v742c0 64-7 84-45 84-45-58-83-116-128-180-243-352-519-659-621-685-70-47-109-93-109-126 0-20 7-33 26-33h339V751c0-539 192-815 570-815 313 0 556 154 768 487l-84 70c-134-160-243-224-384-224-236 0-332 174-332 578v1835h646z" transform="scale(.01563)"/><path id="NimbusRomNo9L-Regu-64" d="m2202-64 940 333v96h-147c-230 0-281 70-281 366v3633l-32 13c-308-109-532-173-941-281v-102c51 6 89 6 141 6 236 0 294-64 294-328V2669c-243 205-416 275-672 275-736 0-1331-723-1331-1632C173 493 653-64 1357-64c358 0 601 128 819 429V-45zm-26 717c0-45-45-122-109-192-115-128-275-192-461-192-531 0-883 512-883 1299 0 723 314 1197 800 1197 339 0 653-301 653-640z" transform="scale(.01563)"/><path id="NimbusRomNo9L-Regu-42" d="M109 4237v-141c537 0 614-70 614-548V689c0-477-83-561-614-561V0h2137c500 0 954 136 1191 356 230 208 358 499 358 809 0 286-115 545-313 732-192 175-365 253-781 356 333 82 467 145 621 278 160 140 256 372 256 632 0 708-570 1074-1677 1074zm1267-2125c621 0 915-32 1146-130 364-155 537-414 537-823 0-350-134-604-390-753-205-116-467-168-890-168-313 0-403 58-403 266zm0 256v1444c0 132 45 189 141 189h281c736 0 1127-302 1127-864 0-491-339-769-941-769z" transform="scale(.01563)"/></defs><use xlink:href="#NimbusRomNo9L-Regu-4d" transform="scale(.99626)"/><use xlink:href="#NimbusRomNo9L-Regu-61" transform="translate(88.567)scale(.99626)"/><use xlink:href="#NimbusRomNo9L-Regu-67" transform="translate(132.8)scale(.99626)"/><use xlink:href="#NimbusRomNo9L-Regu-6e" transform="translate(182.614)scale(.99626)"/><use xlink:href="#NimbusRomNo9L-Regu-69" transform="translate(232.427)scale(.99626)"/><use xlink:href="#NimbusRomNo9L-Regu-74" transform="translate(260.122)scale(.99626)"/><use xlink:href="#NimbusRomNo9L-Regu-75" transform="translate(287.817)scale(.99626)"/><use xlink:href="#NimbusRomNo9L-Regu-64" transform="translate(337.63)scale(.99626)"/><use xlink:href="#NimbusRomNo9L-Regu-65" transform="translate(387.444)scale(.99626)"/><use xlink:href="#NimbusRomNo9L-Regu-5b" transform="translate(456.584)scale(.99626)"/><use xlink:href="#NimbusRomNo9L-Regu-64" transform="translate(489.759)scale(.99626)"/><use xlink:href="#NimbusRomNo9L-Regu-42" transform="translate(539.572)scale(.99626)"/><use xlink:href="#NimbusRomNo9L-Regu-5d" transform="translate(606.022)scale(.99626)"/></g></g><path id="line2d_141" d="m41.858 158.84.951-30.15.952-11.63.951-7.27.952-5.096.95-3.973.952-2.998.952-2.37.951-1.805.951-1.402.952-1.199 3.805-3.688 1.903-1.536.951-.52.952-.29.951.022.952.329.95.635.952.951 1.903 2.549 2.854 4.382 4.757 6.45 1.903 3.159.951 1.316.952.797.95.122.952-.387 1.903-1.507 1.903-1.823 1.902-2.356 2.855-3.697.951-.956.951-.701.952-.474.951-.226.951.06.952.187.951.325 4.757 2.263.951.658.952.978.951 1.256.952 1.635 1.902 3.626.952 1.32.951.325.951-.789.952-1.408 2.854-4.995 1.903-2.718.951-1.04.951-.791.952-.446.951-.024.952.433.95 1.116.952 2.023.952 3.038.951 3.44.951.595.952-5.27 1.903-13.82.95-5.639.952-4.908 1.903-8.112 1.903-6.41.951-2.665.952-2.32.95-1.99.952-1.661.952-1.381.951-1.12.951-.896.952-.702.951-.548 1.903-.734 1.903-.426 2.854-.327 3.805-.196 6.66-.031 15.222-.112 28.541-.512 9.514.01 16.173-.172 5.708-.216h0" clip-path="url(#pa5761dbcd9)" style="fill:none;stroke:#000;stroke-linecap:square"/><path id="line2d_142" d="m41.858 45.131 9.514.102 15.222-.003 45.666.09 12.368.214 1.902.211 1.903.476.951.392.952.53.951.695.952.87.95 1.052 1.904 2.65 1.902 3.215 2.855 5.458 8.562 16.994 3.805 6.91 5.709 9.88 4.756 7.713 4.757 7.217 5.709 8.254 4.756 6.551 7.611 9.517.952.854.951 1.34.952.858 2.854 3.368 1.902 2.09.952.838 1.903 2.123 1.902 1.952 1.903 1.821.951.51.952.99.951 1.384.951.145 1.903 2.09.952.447.951.99.951 1.644.952.536.951.277.951 1.469.952.572.951 1.127.952.784.951.57.951 1.536.952-.159 1.902.82.952 1.887.951 1.216.952.537 1.902 1.886.952-1.179.951 1.448 1.903 1.762.951 1.43.952.429.95 1.112.952 2.564" clip-path="url(#pa5761dbcd9)" style="fill:none;stroke-dasharray:3.7,1.6;stroke-dashoffset:0;stroke:red"/><path id="line2d_143" d="m41.858 45.135 13.32.138 8.562-.02 18.076-.051 43.763.42 1.903.32 1.902.676.952.53.951.691.952.873.95 1.056 1.904 2.646 1.902 3.214 2.855 5.455 8.562 17 4.757 8.585 4.757 8.212 4.756 7.692 4.757 7.204 6.66 9.61 1.903 2.63 1.902 2.54 1.903 2.4.952 1.426.95 1.02.952 1.32 1.903 2.125.951 1.197 1.903 2.118 1.903 2.187 2.854 3.253 4.757 4.868.951 1.213.952.53 4.756 4.332.952 1.142 1.903 1.418.951 1.725 2.854 1.605.951 1.34.952.17.951.655.952 2.304.951-.651.951 1.745.952.094.951 1.377.951.144.952.564.951 1.601.952-.23 1.902 2.475.952 2.432.951-.876.951 1.268.952 1.522.951-1.213.952.175.95 4.468.952.055" clip-path="url(#pa5761dbcd9)" style="fill:none;stroke-dasharray:1,1.65;stroke-dashoffset:0;stroke:#00f"/><path id="line2d_144" d="m41.858 149.172.951-18.609.952-11.514.951-7.267.952-5.247.95-4.097.952-3.315.952-2.595.951-2.122.951-1.675 1.903-2.448 1.903-1.874 1.903-1.766 1.902-1.46.952-.527.951-.25.952-.029.95.258.952.539 1.903 1.632 2.854 2.791 2.854 2.32.952 1.011.951 1.312.951 1.846.952 2.214 1.903 5.356.95 2.022.952.96.952-.442.951-1.055 1.903-2.382 3.805-3.881 4.757-6.789.951-.796 1.903-1.108 3.806-1.565.951-.264.951-.08.952.14.951.505.952.853.951 1.276.951 1.708.952 2.078 1.902 5.25.952 2.788.951 2.286.952 1.233.95-.39.952-1.633 3.806-8.981.951-1.383.952-.776.95-.031.952.964.952 2.328.951 4.582.951 9.591.952 27.22.951-30.655.952-13.56.95-8.554.952-6.441.952-5.265.951-4.411.951-3.817.952-3.299.951-2.891.952-2.497.95-2.136.952-1.8.952-1.49.951-1.215.951-.97.952-.766.951-.6 1.903-.827 1.903-.524 2.854-.495 2.854-.257 2.854-.032 17.125.213 4.757-.182 2.854.126 2.854.104 2.854-.11 3.805-.182 2.855.133 3.805.218 2.854-.151 4.757-.363 8.562-.176 3.806-.29 4.757-.058 3.805-.146 4.757-.218 5.708-.003" clip-path="url(#pa5761dbcd9)" style="fill:none;stroke-dasharray:6.4,1.6,1,1.6;stroke-dashoffset:0;stroke:green"/><path id="patch_3" d="M32.392 184.882V37.599" style="fill:none;stroke:#000;stroke-width:.5;stroke-linejoin:miter;stroke-linecap:square"/><path id="patch_4" d="M240.647 184.882V37.599" style="fill:none;stroke:#000;stroke-width:.5;stroke-linejoin:miter;stroke-linecap:square"/><path id="patch_5" d="M32.392 184.882h208.255" style="fill:none;stroke:#000;stroke-width:.5;stroke-linejoin:miter;stroke-linecap:square"/><path id="patch_6" d="M32.392 37.6h208.255" style="fill:none;stroke:#000;stroke-width:.5;stroke-linejoin:miter;stroke-linecap:square"/><g id="text_18" transform="matrix(.096 0 0 -.096 97.871 31.6)"><defs><path id="NimbusRomNo9L-Regu-73" d="m2016 2010-26 870h-70l-13-13c-57-45-64-51-89-51-39 0-103 13-173 45-141 54-282 83-448 83-506 0-871-328-871-790 0-358 205-615 749-923l371-211c224-128 333-283 333-481 0-283-205-462-531-462-218 0-416 82-538 221-134 157-192 302-275 662H333V-39h83c45 72 70 87 147 87 58 0 147-13 295-50 179-37 352-62 467-62 493 0 902 372 902 821 0 320-153 532-537 763l-692 410c-179 103-275 264-275 437 0 257 199 436 493 436 365 0 557-220 704-793z" transform="scale(.01563)"/><path id="NimbusRomNo9L-Regu-70" d="M58 2516c57 6 102 6 160 6 217 0 262-64 262-367V-855c0-334-70-406-448-444v-109h1549v115c-480 0-563 71-563 477V199c224-212 377-276 646-276 755 0 1344 720 1344 1652 0 797-448 1369-1069 1369-358 0-640-160-921-506v493l-39 13c-345-134-569-218-921-326zm960-380c0 193 358 424 652 424 474 0 788-489 788-1236 0-713-314-1196-775-1196-301 0-665 231-665 424z" transform="scale(.01563)"/><path id="NimbusRomNo9L-Regu-6f" d="M1600 2944c-832 0-1414-614-1414-1498C186 582 781-64 1587-64c807 0 1421 678 1421 1562 0 838-589 1446-1408 1446m-83-179c537 0 915-615 915-1491 0-724-288-1159-768-1159-250 0-486 154-621 410-179 333-281 781-281 1235 0 608 300 1005 755 1005" transform="scale(.01563)"/></defs><use xlink:href="#NimbusRomNo9L-Regu-4d" transform="scale(.99626)"/><use xlink:href="#NimbusRomNo9L-Regu-61" transform="translate(88.567)scale(.99626)"/><use xlink:href="#NimbusRomNo9L-Regu-67" transform="translate(132.8)scale(.99626)"/><use xlink:href="#NimbusRomNo9L-Regu-6e" transform="translate(182.614)scale(.99626)"/><use xlink:href="#NimbusRomNo9L-Regu-69" transform="translate(232.427)scale(.99626)"/><use xlink:href="#NimbusRomNo9L-Regu-74" transform="translate(260.122)scale(.99626)"/><use xlink:href="#NimbusRomNo9L-Regu-75" transform="translate(287.817)scale(.99626)"/><use xlink:href="#NimbusRomNo9L-Regu-64" transform="translate(337.63)scale(.99626)"/><use xlink:href="#NimbusRomNo9L-Regu-65" transform="translate(387.444)scale(.99626)"/><use xlink:href="#NimbusRomNo9L-Regu-72" transform="translate(456.584)scale(.99626)"/><use xlink:href="#NimbusRomNo9L-Regu-65" transform="translate(489.759)scale(.99626)"/><use xlink:href="#NimbusRomNo9L-Regu-73" transform="translate(533.993)scale(.99626)"/><use xlink:href="#NimbusRomNo9L-Regu-70" transform="translate(572.746)scale(.99626)"/><use xlink:href="#NimbusRomNo9L-Regu-6f" transform="translate(622.56)scale(.99626)"/><use xlink:href="#NimbusRomNo9L-Regu-6e" transform="translate(672.373)scale(.99626)"/><use xlink:href="#NimbusRomNo9L-Regu-73" transform="translate(722.186)scale(.99626)"/><use xlink:href="#NimbusRomNo9L-Regu-65" transform="translate(760.94)scale(.99626)"/></g><g id="legend_1"><path id="line2d_145" d="M198.646 93.39h16" style="fill:none;stroke:#000;stroke-linecap:square"/><g id="text_19" transform="matrix(.08 0 0 -.08 221.046 96.19)"><defs><path id="NimbusRomNo9L-Regu-53" d="M2861 4352h-135c-25-147-96-217-204-217-64 0-173 25-282 77-237 89-474 140-678 140-276 0-557-108-768-294-224-199-340-468-340-802 0-513 282-871 999-1250 461-243 793-507 953-750 58-83 90-218 90-372 0-430-320-724-787-724-570 0-973 353-1293 1136H269L461-64h141c6 121 83 211 179 211 70 0 179-25 301-68 243-93 499-143 755-143 736 0 1305 506 1305 1165 0 525-352 941-1196 1395-672 372-941 653-941 999 0 352 269 595 665 595 288 0 557-122 781-352 199-205 288-371 391-749h160z" transform="scale(.01563)"/></defs><use xlink:href="#NimbusRomNo9L-Regu-53" transform="scale(.99626)"/><use xlink:href="#NimbusRomNo9L-Regu-31" transform="translate(55.392)scale(.99626)"/><use xlink:href="#NimbusRomNo9L-Regu-31" transform="translate(105.205)scale(.99626)"/></g><path id="line2d_146" d="M198.646 104.715h16" style="fill:none;stroke-dasharray:3.7,1.6;stroke-dashoffset:0;stroke:red"/><g id="text_20" transform="matrix(.08 0 0 -.08 221.046 107.515)"><use xlink:href="#NimbusRomNo9L-Regu-53" transform="scale(.99626)"/><use xlink:href="#NimbusRomNo9L-Regu-31" transform="translate(55.392)scale(.99626)"/><use xlink:href="#NimbusRomNo9L-Regu-32" transform="translate(105.205)scale(.99626)"/></g><path id="line2d_147" d="M198.646 116.04h16" style="fill:none;stroke-dasharray:1,1.65;stroke-dashoffset:0;stroke:#00f"/><g id="text_21" transform="matrix(.08 0 0 -.08 221.046 118.84)"><use xlink:href="#NimbusRomNo9L-Regu-53" transform="scale(.99626)"/><use xlink:href="#NimbusRomNo9L-Regu-32" transform="translate(55.392)scale(.99626)"/><use xlink:href="#NimbusRomNo9L-Regu-31" transform="translate(105.205)scale(.99626)"/></g><path id="line2d_148" d="M198.646 127.366h16" style="fill:none;stroke-dasharray:6.4,1.6,1,1.6;stroke-dashoffset:0;stroke:green"/><g id="text_22" transform="matrix(.08 0 0 -.08 221.046 130.166)"><use xlink:href="#NimbusRomNo9L-Regu-53" transform="scale(.99626)"/><use xlink:href="#NimbusRomNo9L-Regu-32" transform="translate(55.392)scale(.99626)"/><use xlink:href="#NimbusRomNo9L-Regu-32" transform="translate(105.205)scale(.99626)"/></g></g></g><g id="axes_2"><path id="patch_7" d="M282.064 184.882H490.32V37.599H282.064z" style="fill:none"/><g id="matplotlib.axis_3"><g id="xtick_34"><use xlink:href="#m1ca42307a1" id="line2d_149" x="291.521" y="184.882" style="stroke:#000;stroke-width:.5"/><use xlink:href="#ma7e36acb37" id="line2d_150" x="291.521" y="37.599" style="stroke:#000;stroke-width:.5"/><use xlink:href="#NimbusRomNo9L-Regu-30" id="text_23" transform="matrix(.0797 0 0 -.0797 289.529 193.785)"/></g><g id="xtick_35"><use xlink:href="#m1ca42307a1" id="line2d_151" x="323.235" y="184.882" style="stroke:#000;stroke-width:.5"/><use xlink:href="#ma7e36acb37" id="line2d_152" x="323.235" y="37.599" style="stroke:#000;stroke-width:.5"/><use xlink:href="#NimbusRomNo9L-Regu-31" id="text_24" transform="matrix(.0797 0 0 -.0797 321.243 193.785)"/></g><g id="xtick_36"><use xlink:href="#m1ca42307a1" id="line2d_153" x="354.949" y="184.882" style="stroke:#000;stroke-width:.5"/><use xlink:href="#ma7e36acb37" id="line2d_154" x="354.949" y="37.599" style="stroke:#000;stroke-width:.5"/><use xlink:href="#NimbusRomNo9L-Regu-32" id="text_25" transform="matrix(.0797 0 0 -.0797 352.957 193.785)"/></g><g id="xtick_37"><use xlink:href="#m1ca42307a1" id="line2d_155" x="386.663" y="184.882" style="stroke:#000;stroke-width:.5"/><use xlink:href="#ma7e36acb37" id="line2d_156" x="386.663" y="37.599" style="stroke:#000;stroke-width:.5"/><use xlink:href="#NimbusRomNo9L-Regu-33" id="text_26" transform="matrix(.0797 0 0 -.0797 384.67 193.785)"/></g><g id="xtick_38"><use xlink:href="#m1ca42307a1" id="line2d_157" x="418.377" y="184.882" style="stroke:#000;stroke-width:.5"/><use xlink:href="#ma7e36acb37" id="line2d_158" x="418.377" y="37.599" style="stroke:#000;stroke-width:.5"/><use xlink:href="#NimbusRomNo9L-Regu-34" id="text_27" transform="matrix(.0797 0 0 -.0797 416.385 193.785)"/></g><g id="xtick_39"><use xlink:href="#m1ca42307a1" id="line2d_159" x="450.091" y="184.882" style="stroke:#000;stroke-width:.5"/><use xlink:href="#ma7e36acb37" id="line2d_160" x="450.091" y="37.599" style="stroke:#000;stroke-width:.5"/><use xlink:href="#NimbusRomNo9L-Regu-35" id="text_28" transform="matrix(.0797 0 0 -.0797 448.099 193.785)"/></g><g id="xtick_40"><use xlink:href="#m1ca42307a1" id="line2d_161" x="481.805" y="184.882" style="stroke:#000;stroke-width:.5"/><use xlink:href="#ma7e36acb37" id="line2d_162" x="481.805" y="37.599" style="stroke:#000;stroke-width:.5"/><use xlink:href="#NimbusRomNo9L-Regu-36" id="text_29" transform="matrix(.0797 0 0 -.0797 479.813 193.785)"/></g><g id="xtick_41"><use xlink:href="#md27bef1932" id="line2d_163" x="285.178" y="184.882" style="stroke:#000;stroke-width:.5"/><use xlink:href="#m100e2e2dd0" id="line2d_164" x="285.178" y="37.599" style="stroke:#000;stroke-width:.5"/></g><g id="xtick_42"><use xlink:href="#md27bef1932" id="line2d_165" x="297.864" y="184.882" style="stroke:#000;stroke-width:.5"/><use xlink:href="#m100e2e2dd0" id="line2d_166" x="297.864" y="37.599" style="stroke:#000;stroke-width:.5"/></g><g id="xtick_43"><use xlink:href="#md27bef1932" id="line2d_167" x="304.207" y="184.882" style="stroke:#000;stroke-width:.5"/><use xlink:href="#m100e2e2dd0" id="line2d_168" x="304.207" y="37.599" style="stroke:#000;stroke-width:.5"/></g><g id="xtick_44"><use xlink:href="#md27bef1932" id="line2d_169" x="310.55" y="184.882" style="stroke:#000;stroke-width:.5"/><use xlink:href="#m100e2e2dd0" id="line2d_170" x="310.55" y="37.599" style="stroke:#000;stroke-width:.5"/></g><g id="xtick_45"><use xlink:href="#md27bef1932" id="line2d_171" x="316.892" y="184.882" style="stroke:#000;stroke-width:.5"/><use xlink:href="#m100e2e2dd0" id="line2d_172" x="316.892" y="37.599" style="stroke:#000;stroke-width:.5"/></g><g id="xtick_46"><use xlink:href="#md27bef1932" id="line2d_173" x="329.578" y="184.882" style="stroke:#000;stroke-width:.5"/><use xlink:href="#m100e2e2dd0" id="line2d_174" x="329.578" y="37.599" style="stroke:#000;stroke-width:.5"/></g><g id="xtick_47"><use xlink:href="#md27bef1932" id="line2d_175" x="335.921" y="184.882" style="stroke:#000;stroke-width:.5"/><use xlink:href="#m100e2e2dd0" id="line2d_176" x="335.921" y="37.599" style="stroke:#000;stroke-width:.5"/></g><g id="xtick_48"><use xlink:href="#md27bef1932" id="line2d_177" x="342.264" y="184.882" style="stroke:#000;stroke-width:.5"/><use xlink:href="#m100e2e2dd0" id="line2d_178" x="342.264" y="37.599" style="stroke:#000;stroke-width:.5"/></g><g id="xtick_49"><use xlink:href="#md27bef1932" id="line2d_179" x="348.606" y="184.882" style="stroke:#000;stroke-width:.5"/><use xlink:href="#m100e2e2dd0" id="line2d_180" x="348.606" y="37.599" style="stroke:#000;stroke-width:.5"/></g><g id="xtick_50"><use xlink:href="#md27bef1932" id="line2d_181" x="361.292" y="184.882" style="stroke:#000;stroke-width:.5"/><use xlink:href="#m100e2e2dd0" id="line2d_182" x="361.292" y="37.599" style="stroke:#000;stroke-width:.5"/></g><g id="xtick_51"><use xlink:href="#md27bef1932" id="line2d_183" x="367.635" y="184.882" style="stroke:#000;stroke-width:.5"/><use xlink:href="#m100e2e2dd0" id="line2d_184" x="367.635" y="37.599" style="stroke:#000;stroke-width:.5"/></g><g id="xtick_52"><use xlink:href="#md27bef1932" id="line2d_185" x="373.978" y="184.882" style="stroke:#000;stroke-width:.5"/><use xlink:href="#m100e2e2dd0" id="line2d_186" x="373.978" y="37.599" style="stroke:#000;stroke-width:.5"/></g><g id="xtick_53"><use xlink:href="#md27bef1932" id="line2d_187" x="380.32" y="184.882" style="stroke:#000;stroke-width:.5"/><use xlink:href="#m100e2e2dd0" id="line2d_188" x="380.32" y="37.599" style="stroke:#000;stroke-width:.5"/></g><g id="xtick_54"><use xlink:href="#md27bef1932" id="line2d_189" x="393.006" y="184.882" style="stroke:#000;stroke-width:.5"/><use xlink:href="#m100e2e2dd0" id="line2d_190" x="393.006" y="37.599" style="stroke:#000;stroke-width:.5"/></g><g id="xtick_55"><use xlink:href="#md27bef1932" id="line2d_191" x="399.349" y="184.882" style="stroke:#000;stroke-width:.5"/><use xlink:href="#m100e2e2dd0" id="line2d_192" x="399.349" y="37.599" style="stroke:#000;stroke-width:.5"/></g><g id="xtick_56"><use xlink:href="#md27bef1932" id="line2d_193" x="405.692" y="184.882" style="stroke:#000;stroke-width:.5"/><use xlink:href="#m100e2e2dd0" id="line2d_194" x="405.692" y="37.599" style="stroke:#000;stroke-width:.5"/></g><g id="xtick_57"><use xlink:href="#md27bef1932" id="line2d_195" x="412.034" y="184.882" style="stroke:#000;stroke-width:.5"/><use xlink:href="#m100e2e2dd0" id="line2d_196" x="412.034" y="37.599" style="stroke:#000;stroke-width:.5"/></g><g id="xtick_58"><use xlink:href="#md27bef1932" id="line2d_197" x="424.72" y="184.882" style="stroke:#000;stroke-width:.5"/><use xlink:href="#m100e2e2dd0" id="line2d_198" x="424.72" y="37.599" style="stroke:#000;stroke-width:.5"/></g><g id="xtick_59"><use xlink:href="#md27bef1932" id="line2d_199" x="431.063" y="184.882" style="stroke:#000;stroke-width:.5"/><use xlink:href="#m100e2e2dd0" id="line2d_200" x="431.063" y="37.599" style="stroke:#000;stroke-width:.5"/></g><g id="xtick_60"><use xlink:href="#md27bef1932" id="line2d_201" x="437.406" y="184.882" style="stroke:#000;stroke-width:.5"/><use xlink:href="#m100e2e2dd0" id="line2d_202" x="437.406" y="37.599" style="stroke:#000;stroke-width:.5"/></g><g id="xtick_61"><use xlink:href="#md27bef1932" id="line2d_203" x="443.748" y="184.882" style="stroke:#000;stroke-width:.5"/><use xlink:href="#m100e2e2dd0" id="line2d_204" x="443.748" y="37.599" style="stroke:#000;stroke-width:.5"/></g><g id="xtick_62"><use xlink:href="#md27bef1932" id="line2d_205" x="456.434" y="184.882" style="stroke:#000;stroke-width:.5"/><use xlink:href="#m100e2e2dd0" id="line2d_206" x="456.434" y="37.599" style="stroke:#000;stroke-width:.5"/></g><g id="xtick_63"><use xlink:href="#md27bef1932" id="line2d_207" x="462.777" y="184.882" style="stroke:#000;stroke-width:.5"/><use xlink:href="#m100e2e2dd0" id="line2d_208" x="462.777" y="37.599" style="stroke:#000;stroke-width:.5"/></g><g id="xtick_64"><use xlink:href="#md27bef1932" id="line2d_209" x="469.12" y="184.882" style="stroke:#000;stroke-width:.5"/><use xlink:href="#m100e2e2dd0" id="line2d_210" x="469.12" y="37.599" style="stroke:#000;stroke-width:.5"/></g><g id="xtick_65"><use xlink:href="#md27bef1932" id="line2d_211" x="475.462" y="184.882" style="stroke:#000;stroke-width:.5"/><use xlink:href="#m100e2e2dd0" id="line2d_212" x="475.462" y="37.599" style="stroke:#000;stroke-width:.5"/></g><g id="xtick_66"><use xlink:href="#md27bef1932" id="line2d_213" x="488.148" y="184.882" style="stroke:#000;stroke-width:.5"/><use xlink:href="#m100e2e2dd0" id="line2d_214" x="488.148" y="37.599" style="stroke:#000;stroke-width:.5"/></g><g id="text_30" transform="matrix(.08 0 0 -.08 358.257 204.915)"><use xlink:href="#NimbusRomNo9L-Regu-46" transform="scale(.99626)"/><use xlink:href="#NimbusRomNo9L-Regu-72" transform="translate(55.392)scale(.99626)"/><use xlink:href="#NimbusRomNo9L-Regu-65" transform="translate(88.567)scale(.99626)"/><use xlink:href="#NimbusRomNo9L-Regu-71" transform="translate(132.8)scale(.99626)"/><use xlink:href="#NimbusRomNo9L-Regu-75" transform="translate(182.614)scale(.99626)"/><use xlink:href="#NimbusRomNo9L-Regu-65" transform="translate(232.427)scale(.99626)"/><use xlink:href="#NimbusRomNo9L-Regu-6e" transform="translate(276.66)scale(.99626)"/><use xlink:href="#NimbusRomNo9L-Regu-63" transform="translate(326.474)scale(.99626)"/><use xlink:href="#NimbusRomNo9L-Regu-79" transform="translate(369.214)scale(.99626)"/><use xlink:href="#NimbusRomNo9L-Regu-5b" transform="translate(443.934)scale(.99626)"/><use xlink:href="#NimbusRomNo9L-Regu-47" transform="translate(477.109)scale(.99626)"/><use xlink:href="#NimbusRomNo9L-Regu-48" transform="translate(549.039)scale(.99626)"/><use xlink:href="#NimbusRomNo9L-Regu-7a" transform="translate(620.969)scale(.99626)"/><use xlink:href="#NimbusRomNo9L-Regu-5d" transform="translate(665.202)scale(.99626)"/></g></g><g id="matplotlib.axis_4"><g id="ytick_38"><use xlink:href="#m7d23e10eab" id="line2d_215" x="282.064" y="181.622" style="stroke:#000;stroke-width:.5"/><use xlink:href="#m5c54a4e6e3" id="line2d_216" x="490.32" y="181.622" style="stroke:#000;stroke-width:.5"/><g id="text_31" transform="matrix(.08 0 0 -.08 260.417 184.323)"><use xlink:href="#CMSY10-0" transform="scale(.99626)"/><use xlink:href="#NimbusRomNo9L-Regu-31" transform="translate(77.409)scale(.99626)"/><use xlink:href="#NimbusRomNo9L-Regu-30" transform="translate(127.222)scale(.99626)"/><use xlink:href="#NimbusRomNo9L-Regu-30" transform="translate(177.035)scale(.99626)"/></g></g><g id="ytick_39"><use xlink:href="#m7d23e10eab" id="line2d_217" x="282.064" y="163.49" style="stroke:#000;stroke-width:.5"/><use xlink:href="#m5c54a4e6e3" id="line2d_218" x="490.32" y="163.49" style="stroke:#000;stroke-width:.5"/><g id="text_32" transform="matrix(.08 0 0 -.08 264.402 166.192)"><use xlink:href="#CMSY10-0" transform="scale(.99626)"/><use xlink:href="#NimbusRomNo9L-Regu-37" transform="translate(77.409)scale(.99626)"/><use xlink:href="#NimbusRomNo9L-Regu-35" transform="translate(127.222)scale(.99626)"/></g></g><g id="ytick_40"><use xlink:href="#m7d23e10eab" id="line2d_219" x="282.064" y="145.359" style="stroke:#000;stroke-width:.5"/><use xlink:href="#m5c54a4e6e3" id="line2d_220" x="490.32" y="145.359" style="stroke:#000;stroke-width:.5"/><g id="text_33" transform="matrix(.08 0 0 -.08 264.402 148.06)"><use xlink:href="#CMSY10-0" transform="scale(.99626)"/><use xlink:href="#NimbusRomNo9L-Regu-35" transform="translate(77.409)scale(.99626)"/><use xlink:href="#NimbusRomNo9L-Regu-30" transform="translate(127.222)scale(.99626)"/></g></g><g id="ytick_41"><use xlink:href="#m7d23e10eab" id="line2d_221" x="282.064" y="127.227" style="stroke:#000;stroke-width:.5"/><use xlink:href="#m5c54a4e6e3" id="line2d_222" x="490.32" y="127.227" style="stroke:#000;stroke-width:.5"/><g id="text_34" transform="matrix(.08 0 0 -.08 264.402 129.929)"><use xlink:href="#CMSY10-0" transform="scale(.99626)"/><use xlink:href="#NimbusRomNo9L-Regu-32" transform="translate(77.409)scale(.99626)"/><use xlink:href="#NimbusRomNo9L-Regu-35" transform="translate(127.222)scale(.99626)"/></g></g><g id="ytick_42"><use xlink:href="#m7d23e10eab" id="line2d_223" x="282.064" y="109.096" style="stroke:#000;stroke-width:.5"/><use xlink:href="#m5c54a4e6e3" id="line2d_224" x="490.32" y="109.096" style="stroke:#000;stroke-width:.5"/><use xlink:href="#NimbusRomNo9L-Regu-30" id="text_35" transform="matrix(.0797 0 0 -.0797 274.58 111.797)"/></g><g id="ytick_43"><use xlink:href="#m7d23e10eab" id="line2d_225" x="282.064" y="90.964" style="stroke:#000;stroke-width:.5"/><use xlink:href="#m5c54a4e6e3" id="line2d_226" x="490.32" y="90.964" style="stroke:#000;stroke-width:.5"/><g id="text_36" transform="matrix(.08 0 0 -.08 270.594 93.666)"><use xlink:href="#NimbusRomNo9L-Regu-32" transform="scale(.99626)"/><use xlink:href="#NimbusRomNo9L-Regu-35" transform="translate(49.813)scale(.99626)"/></g></g><g id="ytick_44"><use xlink:href="#m7d23e10eab" id="line2d_227" x="282.064" y="72.833" style="stroke:#000;stroke-width:.5"/><use xlink:href="#m5c54a4e6e3" id="line2d_228" x="490.32" y="72.833" style="stroke:#000;stroke-width:.5"/><g id="text_37" transform="matrix(.08 0 0 -.08 270.594 75.534)"><use xlink:href="#NimbusRomNo9L-Regu-35" transform="scale(.99626)"/><use xlink:href="#NimbusRomNo9L-Regu-30" transform="translate(49.813)scale(.99626)"/></g></g><g id="ytick_45"><use xlink:href="#m7d23e10eab" id="line2d_229" x="282.064" y="54.701" style="stroke:#000;stroke-width:.5"/><use xlink:href="#m5c54a4e6e3" id="line2d_230" x="490.32" y="54.701" style="stroke:#000;stroke-width:.5"/><g id="text_38" transform="matrix(.08 0 0 -.08 270.594 57.403)"><use xlink:href="#NimbusRomNo9L-Regu-37" transform="scale(.99626)"/><use xlink:href="#NimbusRomNo9L-Regu-35" transform="translate(49.813)scale(.99626)"/></g></g><g id="ytick_46"><use xlink:href="#m34ddb76b8f" id="line2d_231" x="282.064" y="177.995" style="stroke:#000;stroke-width:.5"/><use xlink:href="#ma4b0dfa9bd" id="line2d_232" x="490.32" y="177.995" style="stroke:#000;stroke-width:.5"/></g><g id="ytick_47"><use xlink:href="#m34ddb76b8f" id="line2d_233" x="282.064" y="174.369" style="stroke:#000;stroke-width:.5"/><use xlink:href="#ma4b0dfa9bd" id="line2d_234" x="490.32" y="174.369" style="stroke:#000;stroke-width:.5"/></g><g id="ytick_48"><use xlink:href="#m34ddb76b8f" id="line2d_235" x="282.064" y="170.743" style="stroke:#000;stroke-width:.5"/><use xlink:href="#ma4b0dfa9bd" id="line2d_236" x="490.32" y="170.743" style="stroke:#000;stroke-width:.5"/></g><g id="ytick_49"><use xlink:href="#m34ddb76b8f" id="line2d_237" x="282.064" y="167.116" style="stroke:#000;stroke-width:.5"/><use xlink:href="#ma4b0dfa9bd" id="line2d_238" x="490.32" y="167.116" style="stroke:#000;stroke-width:.5"/></g><g id="ytick_50"><use xlink:href="#m34ddb76b8f" id="line2d_239" x="282.064" y="159.864" style="stroke:#000;stroke-width:.5"/><use xlink:href="#ma4b0dfa9bd" id="line2d_240" x="490.32" y="159.864" style="stroke:#000;stroke-width:.5"/></g><g id="ytick_51"><use xlink:href="#m34ddb76b8f" id="line2d_241" x="282.064" y="156.237" style="stroke:#000;stroke-width:.5"/><use xlink:href="#ma4b0dfa9bd" id="line2d_242" x="490.32" y="156.237" style="stroke:#000;stroke-width:.5"/></g><g id="ytick_52"><use xlink:href="#m34ddb76b8f" id="line2d_243" x="282.064" y="152.611" style="stroke:#000;stroke-width:.5"/><use xlink:href="#ma4b0dfa9bd" id="line2d_244" x="490.32" y="152.611" style="stroke:#000;stroke-width:.5"/></g><g id="ytick_53"><use xlink:href="#m34ddb76b8f" id="line2d_245" x="282.064" y="148.985" style="stroke:#000;stroke-width:.5"/><use xlink:href="#ma4b0dfa9bd" id="line2d_246" x="490.32" y="148.985" style="stroke:#000;stroke-width:.5"/></g><g id="ytick_54"><use xlink:href="#m34ddb76b8f" id="line2d_247" x="282.064" y="141.732" style="stroke:#000;stroke-width:.5"/><use xlink:href="#ma4b0dfa9bd" id="line2d_248" x="490.32" y="141.732" style="stroke:#000;stroke-width:.5"/></g><g id="ytick_55"><use xlink:href="#m34ddb76b8f" id="line2d_249" x="282.064" y="138.106" style="stroke:#000;stroke-width:.5"/><use xlink:href="#ma4b0dfa9bd" id="line2d_250" x="490.32" y="138.106" style="stroke:#000;stroke-width:.5"/></g><g id="ytick_56"><use xlink:href="#m34ddb76b8f" id="line2d_251" x="282.064" y="134.48" style="stroke:#000;stroke-width:.5"/><use xlink:href="#ma4b0dfa9bd" id="line2d_252" x="490.32" y="134.48" style="stroke:#000;stroke-width:.5"/></g><g id="ytick_57"><use xlink:href="#m34ddb76b8f" id="line2d_253" x="282.064" y="130.853" style="stroke:#000;stroke-width:.5"/><use xlink:href="#ma4b0dfa9bd" id="line2d_254" x="490.32" y="130.853" style="stroke:#000;stroke-width:.5"/></g><g id="ytick_58"><use xlink:href="#m34ddb76b8f" id="line2d_255" x="282.064" y="123.601" style="stroke:#000;stroke-width:.5"/><use xlink:href="#ma4b0dfa9bd" id="line2d_256" x="490.32" y="123.601" style="stroke:#000;stroke-width:.5"/></g><g id="ytick_59"><use xlink:href="#m34ddb76b8f" id="line2d_257" x="282.064" y="119.974" style="stroke:#000;stroke-width:.5"/><use xlink:href="#ma4b0dfa9bd" id="line2d_258" x="490.32" y="119.974" style="stroke:#000;stroke-width:.5"/></g><g id="ytick_60"><use xlink:href="#m34ddb76b8f" id="line2d_259" x="282.064" y="116.348" style="stroke:#000;stroke-width:.5"/><use xlink:href="#ma4b0dfa9bd" id="line2d_260" x="490.32" y="116.348" style="stroke:#000;stroke-width:.5"/></g><g id="ytick_61"><use xlink:href="#m34ddb76b8f" id="line2d_261" x="282.064" y="112.722" style="stroke:#000;stroke-width:.5"/><use xlink:href="#ma4b0dfa9bd" id="line2d_262" x="490.32" y="112.722" style="stroke:#000;stroke-width:.5"/></g><g id="ytick_62"><use xlink:href="#m34ddb76b8f" id="line2d_263" x="282.064" y="105.469" style="stroke:#000;stroke-width:.5"/><use xlink:href="#ma4b0dfa9bd" id="line2d_264" x="490.32" y="105.469" style="stroke:#000;stroke-width:.5"/></g><g id="ytick_63"><use xlink:href="#m34ddb76b8f" id="line2d_265" x="282.064" y="101.843" style="stroke:#000;stroke-width:.5"/><use xlink:href="#ma4b0dfa9bd" id="line2d_266" x="490.32" y="101.843" style="stroke:#000;stroke-width:.5"/></g><g id="ytick_64"><use xlink:href="#m34ddb76b8f" id="line2d_267" x="282.064" y="98.217" style="stroke:#000;stroke-width:.5"/><use xlink:href="#ma4b0dfa9bd" id="line2d_268" x="490.32" y="98.217" style="stroke:#000;stroke-width:.5"/></g><g id="ytick_65"><use xlink:href="#m34ddb76b8f" id="line2d_269" x="282.064" y="94.59" style="stroke:#000;stroke-width:.5"/><use xlink:href="#ma4b0dfa9bd" id="line2d_270" x="490.32" y="94.59" style="stroke:#000;stroke-width:.5"/></g><g id="ytick_66"><use xlink:href="#m34ddb76b8f" id="line2d_271" x="282.064" y="87.338" style="stroke:#000;stroke-width:.5"/><use xlink:href="#ma4b0dfa9bd" id="line2d_272" x="490.32" y="87.338" style="stroke:#000;stroke-width:.5"/></g><g id="ytick_67"><use xlink:href="#m34ddb76b8f" id="line2d_273" x="282.064" y="83.711" style="stroke:#000;stroke-width:.5"/><use xlink:href="#ma4b0dfa9bd" id="line2d_274" x="490.32" y="83.711" style="stroke:#000;stroke-width:.5"/></g><g id="ytick_68"><use xlink:href="#m34ddb76b8f" id="line2d_275" x="282.064" y="80.085" style="stroke:#000;stroke-width:.5"/><use xlink:href="#ma4b0dfa9bd" id="line2d_276" x="490.32" y="80.085" style="stroke:#000;stroke-width:.5"/></g><g id="ytick_69"><use xlink:href="#m34ddb76b8f" id="line2d_277" x="282.064" y="76.459" style="stroke:#000;stroke-width:.5"/><use xlink:href="#ma4b0dfa9bd" id="line2d_278" x="490.32" y="76.459" style="stroke:#000;stroke-width:.5"/></g><g id="ytick_70"><use xlink:href="#m34ddb76b8f" id="line2d_279" x="282.064" y="69.206" style="stroke:#000;stroke-width:.5"/><use xlink:href="#ma4b0dfa9bd" id="line2d_280" x="490.32" y="69.206" style="stroke:#000;stroke-width:.5"/></g><g id="ytick_71"><use xlink:href="#m34ddb76b8f" id="line2d_281" x="282.064" y="65.58" style="stroke:#000;stroke-width:.5"/><use xlink:href="#ma4b0dfa9bd" id="line2d_282" x="490.32" y="65.58" style="stroke:#000;stroke-width:.5"/></g><g id="ytick_72"><use xlink:href="#m34ddb76b8f" id="line2d_283" x="282.064" y="61.954" style="stroke:#000;stroke-width:.5"/><use xlink:href="#ma4b0dfa9bd" id="line2d_284" x="490.32" y="61.954" style="stroke:#000;stroke-width:.5"/></g><g id="ytick_73"><use xlink:href="#m34ddb76b8f" id="line2d_285" x="282.064" y="58.327" style="stroke:#000;stroke-width:.5"/><use xlink:href="#ma4b0dfa9bd" id="line2d_286" x="490.32" y="58.327" style="stroke:#000;stroke-width:.5"/></g><g id="ytick_74"><use xlink:href="#m34ddb76b8f" id="line2d_287" x="282.064" y="51.075" style="stroke:#000;stroke-width:.5"/><use xlink:href="#ma4b0dfa9bd" id="line2d_288" x="490.32" y="51.075" style="stroke:#000;stroke-width:.5"/></g><g id="ytick_75"><use xlink:href="#m34ddb76b8f" id="line2d_289" x="282.064" y="47.448" style="stroke:#000;stroke-width:.5"/><use xlink:href="#ma4b0dfa9bd" id="line2d_290" x="490.32" y="47.448" style="stroke:#000;stroke-width:.5"/></g><g id="ytick_76"><use xlink:href="#m34ddb76b8f" id="line2d_291" x="282.064" y="43.822" style="stroke:#000;stroke-width:.5"/><use xlink:href="#ma4b0dfa9bd" id="line2d_292" x="490.32" y="43.822" style="stroke:#000;stroke-width:.5"/></g><g id="ytick_77"><use xlink:href="#m34ddb76b8f" id="line2d_293" x="282.064" y="40.196" style="stroke:#000;stroke-width:.5"/><use xlink:href="#ma4b0dfa9bd" id="line2d_294" x="490.32" y="40.196" style="stroke:#000;stroke-width:.5"/></g><g id="text_39" transform="matrix(0 -.08 -.08 0 254.691 129.72)"><defs><path id="NimbusRomNo9L-Regu-41" d="M4518 128c-288 0-352 64-576 539L2349 4320h-128L890 1168C480 231 403 128 96 128V0h1267v128c-307 0-435 84-435 265 0 77 19 167 51 252l295 756h1676l263-623c77-176 121-344 121-436 0-162-108-214-448-214V0h1632zM1382 1664l736 1752 743-1752z" transform="scale(.01563)"/><path id="NimbusRomNo9L-Regu-6c" d="M122 4000h236c205 0 269-90 269-390V557c0-346-89-429-493-461V0h1511v109c-403 0-480 64-480 419v3843l-26 13c-333-109-576-173-1017-281z" transform="scale(.01563)"/></defs><use xlink:href="#NimbusRomNo9L-Regu-41" transform="scale(.99626)"/><use xlink:href="#NimbusRomNo9L-Regu-6e" transform="translate(71.93)scale(.99626)"/><use xlink:href="#NimbusRomNo9L-Regu-67" transform="translate(121.743)scale(.99626)"/><use xlink:href="#NimbusRomNo9L-Regu-6c" transform="translate(171.556)scale(.99626)"/><use xlink:href="#NimbusRomNo9L-Regu-65" transform="translate(199.252)scale(.99626)"/><use xlink:href="#NimbusRomNo9L-Regu-5b" transform="translate(268.392)scale(.99626)"/><use xlink:href="#NimbusRomNo9L-Regu-72" transform="translate(301.567)scale(.99626)"/><use xlink:href="#NimbusRomNo9L-Regu-61" transform="translate(334.742)scale(.99626)"/><use xlink:href="#NimbusRomNo9L-Regu-64" transform="translate(378.976)scale(.99626)"/><use xlink:href="#NimbusRomNo9L-Regu-5d" transform="translate(428.789)scale(.99626)"/></g></g><path id="line2d_295" d="m291.53 111.336.952.179.951 2.007.952-.593.951-.838 1.903-.493.951-.468 1.903-1.66 1.903-2.97 7.61-14.649 1.903-3.934.952-2.174 1.903 4.17.95 1.694.952 1.359 1.903 2.11 1.903 1.055.951-.278.952-.937.95-1.987.952 1.017.952.012.951-.923.951-.457.952.735.951 1.995.952-1.393.95-.255.952.332.952.534 3.805 3.225.952 1.02.95 1.359.952 1.76.952-2.194.951-1.847.951-.98.952-.443.951.421.951.973.952 1.602.951 2.002 1.903-4.226.951-1.757.952-1.137.951-.287.951.942.952-1.936.951-.218.952.7.951-1.307.951-1.738.952 1.506.951-.1.951-.811.952-1.354.951-1.815.952 2.231.951 1.758.951 1.151.952.406.951-.67.951-1.681.952.748.951 1.833.952-.91.95-1.35.952.151.952.899.951-2.02.951 1.122.952-1.738.951-.79.952.017.95.54.952.987.952 1.266 4.757 7.131.95.966.952.729.952.478.951.225.951-.016.952-.225.951-.458.952-.665.95-.867 1.904-2.242 1.902-2.783 1.903-3.148 2.854-5.195 2.854-5.785 2.854-6.394 1.903-4.51 4.757 11.076 2.854 6.16 2.854 5.612 4.757 8.66 3.806 6.653 2.854 4.59 4.757 7.095 4.757 7.253 4.756 7.11 4.757 6.875 7.611 11.827.952.053 3.805 5.377 8.562 11.565 2.855 3.365 2.854 2.914 2.854 2.925h0" clip-path="url(#pb8133d8e08)" style="fill:none;stroke:#000;stroke-linecap:square"/><path id="line2d_296" d="m291.53 109.071 1.903-1.45 23.785-19.313 5.708-4.028.951-.636.952-1.986 4.757-3.065 3.805-2.192 4.757-2.435 3.805-1.75 2.854-1.114 2.855-.906 2.854-.67 2.854-.404 2.854-.109 1.903.117 1.902.291 1.903.487 1.903.7 1.903.926 1.902 1.209 1.903 1.55 1.903 2.005 1.903 2.57 1.902 3.281 1.903 4.134.952 1.059 1.902-3.646 4.757-8.107.952-2.063.95 2.193.952 1.876.952 1.584.951 1.257.951.981.952.701.951.44.952.175.95-.046.952-.263.952-.418 1.902-1.36 1.903-1.83 1.903-2.21 1.903-2.645 1.902-3.001 3.806-6.81 3.805-7.254 3.806-8.209 1.903-4.393 3.805 8.329 2.854 6.216.952-2.224.951 1.839.951-2.146.952 2.134.951 1.601 1.903 3.84.951 1.735.952 1.493 2.854 5.263.951 1.632 2.854 5.539.952-1.944.95.86.952-2.132.952 2.217.951.693.951-2.183.952 1.662.951 1.15.952-1.99.95 1.575.952-2.091.952 1.89.951.118.951 2.185.952-2.01.951.468.952.812.95-.846.952-2.185.952.484 1.902 1.6.952-1.672.951-.849.951-.154.952 1.14.951-1.128.952-1.951.951 1.917.951 1.607.952-.777.951-1.234.951-.685.952 1.91.951-.24.952.593.951 1.639.951-2.141.952 2.002.951-1.974.951 1.865.952-1.087" clip-path="url(#pb8133d8e08)" style="fill:none;stroke-dasharray:3.7,1.6;stroke-dashoffset:0;stroke:red"/><path id="line2d_297" d="m291.53 109.083 1.903-1.47 23.785-19.325 4.757-3.375 1.902-1.296.952-1.985 5.708-3.644 3.805-2.15 4.757-2.382 3.806-1.693 2.854-1.048 2.854-.832 2.854-.582 2.854-.31 1.903-.04 1.903.121 1.902.29 1.903.483 1.903.697 1.903.932 1.902 1.197 1.903 1.555 1.903 2 1.903 2.575.951 1.535 1.903 3.694.951 2.172.952 1.065 1.902-3.648 4.757-8.098.952-2.068.95 2.188.952 1.885.952 1.58.951 1.262.951.961.952.706.951.442.952.165.95-.029.952-.259.952-.438 1.902-1.346 1.903-1.836 1.903-2.243 1.903-2.617 1.902-3.03 1.903-3.278 5.708-10.787 1.903-3.9 2.854-6.453 4.757 10.798 1.903 4.047.951-2.17.952 1.722.951-2.165 1.903 3.955.951 2.181.951 1.597.952 1.886.951 1.555.952 2.097 1.902 3.215.952 2.07.951 1.464 3.806 7.496.95 1.41.952-2.102.952 1.894.951 1.62.951-2.019.952.946.951 1.223.952-1.894.95.594.952-1.78 1.903 2.917 1.903 2.496 1.903 4.087.95.723.952-1.964.952 1.595.951-1.781.951 1.67.952-1.69.951.369.951-1.863 1.903 4.046.952.127 1.902-1.553.952 1.583.951-2.013.951 1.308.952-2.243.951.851.952 1.918.951.573.951 1.383.952.31.951 2.062.951 1.05.952-1.858" clip-path="url(#pb8133d8e08)" style="fill:none;stroke-dasharray:1,1.65;stroke-dashoffset:0;stroke:#00f"/><path id="line2d_298" d="m291.53 107.805.952-1.878.951-.175.952 1.284.951.524.951.109.952-.547.951-.413 3.806-3.428 1.902-1.162.952-.42 2.854-.858 1.903-.952 2.854-2.3.951-.748.952-.482.95-.104.952.495.952.849.951 1.31 1.903 3.572 1.903 4.295.95-1.98.952-1.029.952.434.951 2.279 1.903-.845.951-.738.952 1.405.95-.382.952-1.165.952-1.504.951-.782.951-.188.952.44.951.708.952-.216.95-1.067.952-2.25.952 1.391.951.483.951.093.952-.255 1.902-.163.952.27.951.43 1.903 1.163.951.222.952-.236.951-.886.951-1.631.952 2.171.951 1.144.952-.263.951-1.89.951.63.952-1.71 1.902 2.255.952-1.538.951 1.487.952-.798.951 1.255.951-1.822.952-.718.951.26.951.593.952 1.144.951 1.64.952 2.222.95.553.952 1.565.952.627.951 1.155.951-1.373 1.903-3.243.952-1.229.95-.903.952-.586 1.903-.605.951-.308.952-.47.951-.736.952-1.066.95-1.425.952-1.797.952-2.146.951 2.075.951 1.787.952 1.49.951 1.215.952.94.95.697.952.424.952.199.951-.007.951-.19 1.903-.778.952-.543.95-1.96 1.904-1.417 1.902-1.75 1.903-2.136 1.903-2.519 4.757-6.897 2.854-4.464 1.903-3.397 1.902-3.862 9.514-20.477.951-2.205 2.855 6.454 3.805 8.365.951 2.23 4.757-11.034 2.854 6.49 4.757 10.312 1.903 4.475 2.854-6.711 3.806 8.823 17.124 38.402 3.806 8.787" clip-path="url(#pb8133d8e08)" style="fill:none;stroke-dasharray:6.4,1.6,1,1.6;stroke-dashoffset:0;stroke:green"/><path id="patch_8" d="M282.064 184.882V37.599" style="fill:none;stroke:#000;stroke-width:.5;stroke-linejoin:miter;stroke-linecap:square"/><path id="patch_9" d="M490.32 184.882V37.599" style="fill:none;stroke:#000;stroke-width:.5;stroke-linejoin:miter;stroke-linecap:square"/><path id="patch_10" d="M282.064 184.882H490.32" style="fill:none;stroke:#000;stroke-width:.5;stroke-linejoin:miter;stroke-linecap:square"/><path id="patch_11" d="M282.064 37.6H490.32" style="fill:none;stroke:#000;stroke-width:.5;stroke-linejoin:miter;stroke-linecap:square"/><g id="text_40" transform="matrix(.096 0 0 -.096 357.108 31.6)"><defs><path id="NimbusRomNo9L-Regu-50" d="M1293 1875c166-19 275-19 441-19 500 0 845 63 1120 216 384 202 615 588 615 1006 0 266-90 506-263 690-256 279-812 456-1414 456H102v-122c474-51 538-115 538-574V766c0-536-51-600-538-644V0h1792v128c-505 0-601 90-601 565zm0 1897c0 171 45 215 217 215 864 0 1261-297 1261-947 0-612-377-928-1113-928-128 0-218 7-365 19z" transform="scale(.01563)"/><path id="NimbusRomNo9L-Regu-68" d="M1005 2222c269 294 461 402 710 402 320 0 480-229 480-676V684c0-434-64-518-435-556V32h1357v96c-346 64-384 115-384 556v1270c0 671-269 1016-787 1016-378 0-647-154-941-538v1958l-32 19c-218-77-378-128-736-230l-173-51v-102c26 6 45 6 77 6 275 0 326-52 326-327V686c0-449-38-507-409-558V32h1382v96c-371 38-435 115-435 556z" transform="scale(.01563)"/></defs><use xlink:href="#NimbusRomNo9L-Regu-50" transform="scale(.99626)"/><use xlink:href="#NimbusRomNo9L-Regu-68" transform="translate(55.392)scale(.99626)"/><use xlink:href="#NimbusRomNo9L-Regu-61" transform="translate(105.205)scale(.99626)"/><use xlink:href="#NimbusRomNo9L-Regu-73" transform="translate(149.438)scale(.99626)"/><use xlink:href="#NimbusRomNo9L-Regu-65" transform="translate(188.192)scale(.99626)"/><use xlink:href="#NimbusRomNo9L-Regu-72" transform="translate(257.332)scale(.99626)"/><use xlink:href="#NimbusRomNo9L-Regu-65" transform="translate(290.508)scale(.99626)"/><use xlink:href="#NimbusRomNo9L-Regu-73" transform="translate(334.741)scale(.99626)"/><use xlink:href="#NimbusRomNo9L-Regu-70" transform="translate(373.495)scale(.99626)"/><use xlink:href="#NimbusRomNo9L-Regu-6f" transform="translate(423.308)scale(.99626)"/><use xlink:href="#NimbusRomNo9L-Regu-6e" transform="translate(473.121)scale(.99626)"/><use xlink:href="#NimbusRomNo9L-Regu-73" transform="translate(522.934)scale(.99626)"/><use xlink:href="#NimbusRomNo9L-Regu-65" transform="translate(561.688)scale(.99626)"/></g><g id="legend_2"><path id="line2d_299" d="M289.264 139.18h16" style="fill:none;stroke:#000;stroke-linecap:square"/><g id="text_41" transform="matrix(.08 0 0 -.08 311.664 141.98)"><use xlink:href="#NimbusRomNo9L-Regu-53" transform="scale(.99626)"/><use xlink:href="#NimbusRomNo9L-Regu-31" transform="translate(55.392)scale(.99626)"/><use xlink:href="#NimbusRomNo9L-Regu-31" transform="translate(105.205)scale(.99626)"/></g><path id="line2d_300" d="M289.264 150.505h16" style="fill:none;stroke-dasharray:3.7,1.6;stroke-dashoffset:0;stroke:red"/><g id="text_42" transform="matrix(.08 0 0 -.08 311.664 153.305)"><use xlink:href="#NimbusRomNo9L-Regu-53" transform="scale(.99626)"/><use xlink:href="#NimbusRomNo9L-Regu-31" transform="translate(55.392)scale(.99626)"/><use xlink:href="#NimbusRomNo9L-Regu-32" transform="translate(105.205)scale(.99626)"/></g><path id="line2d_301" d="M289.264 161.83h16" style="fill:none;stroke-dasharray:1,1.65;stroke-dashoffset:0;stroke:#00f"/><g id="text_43" transform="matrix(.08 0 0 -.08 311.664 164.63)"><use xlink:href="#NimbusRomNo9L-Regu-53" transform="scale(.99626)"/><use xlink:href="#NimbusRomNo9L-Regu-32" transform="translate(55.392)scale(.99626)"/><use xlink:href="#NimbusRomNo9L-Regu-31" transform="translate(105.205)scale(.99626)"/></g><path id="line2d_302" d="M289.264 173.156h16" style="fill:none;stroke-dasharray:6.4,1.6,1,1.6;stroke-dashoffset:0;stroke:green"/><g id="text_44" transform="matrix(.08 0 0 -.08 311.664 175.956)"><use xlink:href="#NimbusRomNo9L-Regu-53" transform="scale(.99626)"/><use xlink:href="#NimbusRomNo9L-Regu-32" transform="translate(55.392)scale(.99626)"/><use xlink:href="#NimbusRomNo9L-Regu-32" transform="translate(105.205)scale(.99626)"/></g></g></g><g id="text_45" transform="matrix(.096 0 0 -.096 197.155 10.084)"><defs><path id="NimbusRomNo9L-Regu-52" d="M4218 121c-244 19-372 84-557 303L2342 2061c429 82 621 158 832 327 205 165 327 430 327 725 0 272-83 505-250 688-243 258-774 423-1376 423H109v-122c480-51 544-121 544-574V765c0-529-64-606-544-644V0h1773v134c-493 0-576 85-576 558v1292h358L3187 0h1031zM1306 3762c0 175 70 225 326 225 800 0 1171-271 1171-864 0-316-134-581-365-700-294-165-518-202-1132-202z" transform="scale(.01563)"/><path id="NimbusRomNo9L-Regu-66" d="M1978 2880h-788v731c0 367 122 562 365 562 135 0 224-63 339-246 103-164 180-227 288-227 148 0 269 114 269 259 0 229-281 393-665 393-397 0-736-171-903-461-166-278-217-506-224-1011H134v-205h525V656c0-471-70-547-531-547V0h1664v109c-525 0-595 71-595 552v2014h781z" transform="scale(.01563)"/><path id="NimbusRomNo9L-Regu-60" d="M1453 4307c-429-211-717-601-717-985 0-327 224-570 512-570 224 0 378 147 378 365 0 198-148 326-378 326-38 0-83-6-122-12-44-13-44-13-51-13-51 0-89 38-89 89 0 212 179 442 524 679z" transform="scale(.01563)"/><path id="NimbusRomNo9L-Regu-43" d="m3968 2906-58 1446h-134c-38-134-141-211-269-211-57 0-153 19-249 58-314 102-634 153-935 153-525 0-1056-198-1453-550-448-397-691-992-691-1696 0-595 192-1146 519-1510 384-416 972-660 1606-660 723 0 1357 295 1747 813l-115 115c-474-454-896-646-1427-646-403 0-762 128-1037 371-352 314-550 890-550 1600 0 1159 595 1907 1523 1907 365 0 697-134 953-390 205-205 301-384 423-800z" transform="scale(.01563)"/><path id="NimbusRomNo9L-Regu-27" d="M678 2758c429 211 717 602 717 986 0 320-224 569-512 569-224 0-377-147-377-364 0-205 147-327 377-327 39 0 83 7 122 13 45 13 45 13 51 13 51 0 90-39 90-90 0-211-180-441-525-678z" transform="scale(.01563)"/></defs><use xlink:href="#NimbusRomNo9L-Regu-52" transform="scale(.99626)"/><use xlink:href="#NimbusRomNo9L-Regu-65" transform="translate(66.45)scale(.99626)"/><use xlink:href="#NimbusRomNo9L-Regu-70" transform="translate(110.684)scale(.99626)"/><use xlink:href="#NimbusRomNo9L-Regu-6f" transform="translate(160.497)scale(.99626)"/><use xlink:href="#NimbusRomNo9L-Regu-6e" transform="translate(210.31)scale(.99626)"/><use xlink:href="#NimbusRomNo9L-Regu-73" transform="translate(260.123)scale(.99626)"/><use xlink:href="#NimbusRomNo9L-Regu-65" transform="translate(298.877)scale(.99626)"/><use xlink:href="#NimbusRomNo9L-Regu-6f" transform="translate(368.017)scale(.99626)"/><use xlink:href="#NimbusRomNo9L-Regu-66" transform="translate(417.83)scale(.99626)"/><use xlink:href="#NimbusRomNo9L-Regu-74" transform="translate(475.912)scale(.99626)"/><use xlink:href="#NimbusRomNo9L-Regu-68" transform="translate(503.607)scale(.99626)"/><use xlink:href="#NimbusRomNo9L-Regu-65" transform="translate(553.42)scale(.99626)"/><use xlink:href="#NimbusRomNo9L-Regu-60" transform="translate(622.56)scale(.99626)"/><use xlink:href="#NimbusRomNo9L-Regu-43" transform="translate(655.736)scale(.99626)"/><use xlink:href="#NimbusRomNo9L-Regu-79" transform="translate(722.186)scale(.99626)"/><use xlink:href="#NimbusRomNo9L-Regu-6c" transform="translate(772)scale(.99626)"/><use xlink:href="#NimbusRomNo9L-Regu-69" transform="translate(799.694)scale(.99626)"/><use xlink:href="#NimbusRomNo9L-Regu-6e" transform="translate(827.39)scale(.99626)"/><use xlink:href="#NimbusRomNo9L-Regu-64" transform="translate(877.203)scale(.99626)"/><use xlink:href="#NimbusRomNo9L-Regu-65" transform="translate(927.016)scale(.99626)"/><use xlink:href="#NimbusRomNo9L-Regu-72" transform="translate(971.25)scale(.99626)"/><use xlink:href="#NimbusRomNo9L-Regu-27" transform="translate(1004.425)scale(.99626)"/></g></g><defs><clipPath id="pa5761dbcd9"><path d="M32.392 37.599h208.256v147.282H32.392z"/></clipPath><clipPath id="pb8133d8e08"><path d="M282.064 37.599H490.32v147.282H282.064z"/></clipPath></defs></svg>