<svg xmlns="http://www.w3.org/2000/svg" xmlns:xlink="http://www.w3.org/1999/xlink" width="370.56" height="274.56" viewBox="0 0 277.92 205.92"><defs><style>*{stroke-linejoin:round;stroke-linecap:butt}</style></defs><g id="figure_1"><path id="patch_1" d="M0 205.92h277.92V0H0z" style="fill:none"/><g id="axes_1"><path id="patch_2" d="M28.407 180.562H274.32V16.084H28.407z" style="fill:none"/><g id="matplotlib.axis_1"><g id="xtick_1"><g id="line2d_1"><defs><path id="m2ad983abfb" d="M0 0v-3" style="stroke:#000;stroke-width:.5"/></defs><use xlink:href="#m2ad983abfb" x="39.574" y="180.562" style="stroke:#000;stroke-width:.5"/></g><g id="line2d_2"><defs><path id="m37cebb4d99" d="M0 0v3" style="stroke:#000;stroke-width:.5"/></defs><use xlink:href="#m37cebb4d99" x="39.574" y="16.084" style="stroke:#000;stroke-width:.5"/></g><g id="text_1" transform="matrix(.08 0 0 -.08 37.581 189.465)"><defs><path id="NimbusRomNo9L-Regu-30" d="M1626 4352c-352 0-621-108-858-332-371-359-614-1095-614-1844 0-697 211-1446 512-1804C902 90 1229-64 1600-64c326 0 602 109 832 333 371 352 614 1095 614 1869 0 1312-582 2214-1420 2214m-20-166c538 0 826-723 826-2061 0-1337-282-2022-832-2022S768 788 768 2119c0 1357 288 2067 838 2067" transform="scale(.01563)"/></defs><use xlink:href="#NimbusRomNo9L-Regu-30" transform="scale(.99626)"/></g></g><g id="xtick_2"><use xlink:href="#m2ad983abfb" id="line2d_3" x="77.022" y="180.562" style="stroke:#000;stroke-width:.5"/><use xlink:href="#m37cebb4d99" id="line2d_4" x="77.022" y="16.084" style="stroke:#000;stroke-width:.5"/><g id="text_2" transform="matrix(.08 0 0 -.08 75.03 189.465)"><defs><path id="NimbusRomNo9L-Regu-31" d="M1862 4339 710 3757v-90c77 32 148 58 173 71 115 45 224 70 288 70 135 0 192-97 192-303V592c0-213-51-360-153-419-96-57-186-77-455-77V0h1767v96c-506 0-608 64-608 374v3857z" transform="scale(.01563)"/></defs><use xlink:href="#NimbusRomNo9L-Regu-31" transform="scale(.99626)"/></g></g><g id="xtick_3"><use xlink:href="#m2ad983abfb" id="line2d_5" x="114.471" y="180.562" style="stroke:#000;stroke-width:.5"/><use xlink:href="#m37cebb4d99" id="line2d_6" x="114.471" y="16.084" style="stroke:#000;stroke-width:.5"/><g id="text_3" transform="matrix(.08 0 0 -.08 112.478 189.465)"><defs><path id="NimbusRomNo9L-Regu-32" d="m3040 875-83 32c-237-363-320-421-608-421H819l1075 1123c570 593 820 1078 820 1576 0 638-519 1128-1184 1128-352 0-685-140-922-395-205-218-301-422-410-875l135-32c256 625 486 829 928 829 537 0 902-364 902-900 0-497-294-1090-832-1658L192 77V0h2496z" transform="scale(.01563)"/></defs><use xlink:href="#NimbusRomNo9L-Regu-32" transform="scale(.99626)"/></g></g><g id="xtick_4"><use xlink:href="#m2ad983abfb" id="line2d_7" x="151.92" y="180.562" style="stroke:#000;stroke-width:.5"/><use xlink:href="#m37cebb4d99" id="line2d_8" x="151.92" y="16.084" style="stroke:#000;stroke-width:.5"/><g id="text_4" transform="matrix(.08 0 0 -.08 149.927 189.465)"><defs><path id="NimbusRomNo9L-Regu-33" d="M979 2138c378 0 525-13 679-70 396-141 646-506 646-948 0-537-365-953-838-953-173 0-301 45-538 198-192 115-301 160-410 160-147 0-243-89-243-224C275 77 550-64 998-64c493 0 999 167 1300 429 300 263 467 634 467 1063 0 326-103 627-288 825-128 141-250 218-531 339 441 301 601 538 601 884 0 518-409 876-998 876-320 0-602-108-832-313-192-173-288-340-429-724l96-25c262 467 550 678 954 678 416 0 704-281 704-684 0-231-96-461-256-621-192-192-372-288-807-442z" transform="scale(.01563)"/></defs><use xlink:href="#NimbusRomNo9L-Regu-33" transform="scale(.99626)"/></g></g><g id="xtick_5"><use xlink:href="#m2ad983abfb" id="line2d_9" x="189.368" y="180.562" style="stroke:#000;stroke-width:.5"/><use xlink:href="#m37cebb4d99" id="line2d_10" x="189.368" y="16.084" style="stroke:#000;stroke-width:.5"/><g id="text_5" transform="matrix(.08 0 0 -.08 187.376 189.465)"><defs><path id="NimbusRomNo9L-Regu-34" d="M3021 1497h-653v2855h-282L77 1497v-409h1798V32h493v1056h653zm-1152 0H333l1536 2201z" transform="scale(.01563)"/></defs><use xlink:href="#NimbusRomNo9L-Regu-34" transform="scale(.99626)"/></g></g><g id="xtick_6"><use xlink:href="#m2ad983abfb" id="line2d_11" x="226.817" y="180.562" style="stroke:#000;stroke-width:.5"/><use xlink:href="#m37cebb4d99" id="line2d_12" x="226.817" y="16.084" style="stroke:#000;stroke-width:.5"/><g id="text_6" transform="matrix(.08 0 0 -.08 224.824 189.465)"><defs><path id="NimbusRomNo9L-Regu-35" d="M1158 3776h1255c102 0 128 13 147 58l243 569-57 45c-96-134-160-166-295-166H1114L416 2759c-6-13-6-19-6-32 0-32 25-51 76-51 205 0 461-45 724-129 736-238 1075-637 1075-1273 0-618-391-1101-890-1101-128 0-237 45-429 187-204 148-352 212-486 212-186 0-275-77-275-238C205 90 506-64 986-64c537 0 998 174 1318 502 294 290 429 656 429 1145 0 463-122 759-442 1080-281 284-646 431-1401 566z" transform="scale(.01563)"/></defs><use xlink:href="#NimbusRomNo9L-Regu-35" transform="scale(.99626)"/></g></g><g id="xtick_7"><use xlink:href="#m2ad983abfb" id="line2d_13" x="264.266" y="180.562" style="stroke:#000;stroke-width:.5"/><use xlink:href="#m37cebb4d99" id="line2d_14" x="264.266" y="16.084" style="stroke:#000;stroke-width:.5"/><g id="text_7" transform="matrix(.08 0 0 -.08 262.273 189.465)"><defs><path id="NimbusRomNo9L-Regu-36" d="M2854 4391c-729-64-1100-186-1568-512C595 3386 218 2656 218 1802c0-554 172-1114 448-1432C909 89 1254-64 1651-64c794 0 1344 605 1344 1485 0 815-467 1331-1203 1331-282 0-416-45-819-288 173 967 889 1658 1894 1824zM1549 2458c550 0 870-458 870-1254 0-700-249-1088-697-1088-564 0-909 598-909 1584 0 325 51 503 179 599 134 101 333 159 557 159" transform="scale(.01563)"/></defs><use xlink:href="#NimbusRomNo9L-Regu-36" transform="scale(.99626)"/></g></g><g id="xtick_8"><g id="line2d_15"><defs><path id="mfbd509f6c5" d="M0 0v-1.5" style="stroke:#000;stroke-width:.5"/></defs><use xlink:href="#mfbd509f6c5" x="32.084" y="180.562" style="stroke:#000;stroke-width:.5"/></g><g id="line2d_16"><defs><path id="mbc9ff3e6d7" d="M0 0v1.5" style="stroke:#000;stroke-width:.5"/></defs><use xlink:href="#mbc9ff3e6d7" x="32.084" y="16.084" style="stroke:#000;stroke-width:.5"/></g></g><g id="xtick_9"><use xlink:href="#mfbd509f6c5" id="line2d_17" x="47.063" y="180.562" style="stroke:#000;stroke-width:.5"/><use xlink:href="#mbc9ff3e6d7" id="line2d_18" x="47.063" y="16.084" style="stroke:#000;stroke-width:.5"/></g><g id="xtick_10"><use xlink:href="#mfbd509f6c5" id="line2d_19" x="54.553" y="180.562" style="stroke:#000;stroke-width:.5"/><use xlink:href="#mbc9ff3e6d7" id="line2d_20" x="54.553" y="16.084" style="stroke:#000;stroke-width:.5"/></g><g id="xtick_11"><use xlink:href="#mfbd509f6c5" id="line2d_21" x="62.043" y="180.562" style="stroke:#000;stroke-width:.5"/><use xlink:href="#mbc9ff3e6d7" id="line2d_22" x="62.043" y="16.084" style="stroke:#000;stroke-width:.5"/></g><g id="xtick_12"><use xlink:href="#mfbd509f6c5" id="line2d_23" x="69.532" y="180.562" style="stroke:#000;stroke-width:.5"/><use xlink:href="#mbc9ff3e6d7" id="line2d_24" x="69.532" y="16.084" style="stroke:#000;stroke-width:.5"/></g><g id="xtick_13"><use xlink:href="#mfbd509f6c5" id="line2d_25" x="84.512" y="180.562" style="stroke:#000;stroke-width:.5"/><use xlink:href="#mbc9ff3e6d7" id="line2d_26" x="84.512" y="16.084" style="stroke:#000;stroke-width:.5"/></g><g id="xtick_14"><use xlink:href="#mfbd509f6c5" id="line2d_27" x="92.002" y="180.562" style="stroke:#000;stroke-width:.5"/><use xlink:href="#mbc9ff3e6d7" id="line2d_28" x="92.002" y="16.084" style="stroke:#000;stroke-width:.5"/></g><g id="xtick_15"><use xlink:href="#mfbd509f6c5" id="line2d_29" x="99.491" y="180.562" style="stroke:#000;stroke-width:.5"/><use xlink:href="#mbc9ff3e6d7" id="line2d_30" x="99.491" y="16.084" style="stroke:#000;stroke-width:.5"/></g><g id="xtick_16"><use xlink:href="#mfbd509f6c5" id="line2d_31" x="106.981" y="180.562" style="stroke:#000;stroke-width:.5"/><use xlink:href="#mbc9ff3e6d7" id="line2d_32" x="106.981" y="16.084" style="stroke:#000;stroke-width:.5"/></g><g id="xtick_17"><use xlink:href="#mfbd509f6c5" id="line2d_33" x="121.961" y="180.562" style="stroke:#000;stroke-width:.5"/><use xlink:href="#mbc9ff3e6d7" id="line2d_34" x="121.961" y="16.084" style="stroke:#000;stroke-width:.5"/></g><g id="xtick_18"><use xlink:href="#mfbd509f6c5" id="line2d_35" x="129.45" y="180.562" style="stroke:#000;stroke-width:.5"/><use xlink:href="#mbc9ff3e6d7" id="line2d_36" x="129.45" y="16.084" style="stroke:#000;stroke-width:.5"/></g><g id="xtick_19"><use xlink:href="#mfbd509f6c5" id="line2d_37" x="136.94" y="180.562" style="stroke:#000;stroke-width:.5"/><use xlink:href="#mbc9ff3e6d7" id="line2d_38" x="136.94" y="16.084" style="stroke:#000;stroke-width:.5"/></g><g id="xtick_20"><use xlink:href="#mfbd509f6c5" id="line2d_39" x="144.43" y="180.562" style="stroke:#000;stroke-width:.5"/><use xlink:href="#mbc9ff3e6d7" id="line2d_40" x="144.43" y="16.084" style="stroke:#000;stroke-width:.5"/></g><g id="xtick_21"><use xlink:href="#mfbd509f6c5" id="line2d_41" x="159.409" y="180.562" style="stroke:#000;stroke-width:.5"/><use xlink:href="#mbc9ff3e6d7" id="line2d_42" x="159.409" y="16.084" style="stroke:#000;stroke-width:.5"/></g><g id="xtick_22"><use xlink:href="#mfbd509f6c5" id="line2d_43" x="166.899" y="180.562" style="stroke:#000;stroke-width:.5"/><use xlink:href="#mbc9ff3e6d7" id="line2d_44" x="166.899" y="16.084" style="stroke:#000;stroke-width:.5"/></g><g id="xtick_23"><use xlink:href="#mfbd509f6c5" id="line2d_45" x="174.389" y="180.562" style="stroke:#000;stroke-width:.5"/><use xlink:href="#mbc9ff3e6d7" id="line2d_46" x="174.389" y="16.084" style="stroke:#000;stroke-width:.5"/></g><g id="xtick_24"><use xlink:href="#mfbd509f6c5" id="line2d_47" x="181.878" y="180.562" style="stroke:#000;stroke-width:.5"/><use xlink:href="#mbc9ff3e6d7" id="line2d_48" x="181.878" y="16.084" style="stroke:#000;stroke-width:.5"/></g><g id="xtick_25"><use xlink:href="#mfbd509f6c5" id="line2d_49" x="196.858" y="180.562" style="stroke:#000;stroke-width:.5"/><use xlink:href="#mbc9ff3e6d7" id="line2d_50" x="196.858" y="16.084" style="stroke:#000;stroke-width:.5"/></g><g id="xtick_26"><use xlink:href="#mfbd509f6c5" id="line2d_51" x="204.348" y="180.562" style="stroke:#000;stroke-width:.5"/><use xlink:href="#mbc9ff3e6d7" id="line2d_52" x="204.348" y="16.084" style="stroke:#000;stroke-width:.5"/></g><g id="xtick_27"><use xlink:href="#mfbd509f6c5" id="line2d_53" x="211.837" y="180.562" style="stroke:#000;stroke-width:.5"/><use xlink:href="#mbc9ff3e6d7" id="line2d_54" x="211.837" y="16.084" style="stroke:#000;stroke-width:.5"/></g><g id="xtick_28"><use xlink:href="#mfbd509f6c5" id="line2d_55" x="219.327" y="180.562" style="stroke:#000;stroke-width:.5"/><use xlink:href="#mbc9ff3e6d7" id="line2d_56" x="219.327" y="16.084" style="stroke:#000;stroke-width:.5"/></g><g id="xtick_29"><use xlink:href="#mfbd509f6c5" id="line2d_57" x="234.307" y="180.562" style="stroke:#000;stroke-width:.5"/><use xlink:href="#mbc9ff3e6d7" id="line2d_58" x="234.307" y="16.084" style="stroke:#000;stroke-width:.5"/></g><g id="xtick_30"><use xlink:href="#mfbd509f6c5" id="line2d_59" x="241.796" y="180.562" style="stroke:#000;stroke-width:.5"/><use xlink:href="#mbc9ff3e6d7" id="line2d_60" x="241.796" y="16.084" style="stroke:#000;stroke-width:.5"/></g><g id="xtick_31"><use xlink:href="#mfbd509f6c5" id="line2d_61" x="249.286" y="180.562" style="stroke:#000;stroke-width:.5"/><use xlink:href="#mbc9ff3e6d7" id="line2d_62" x="249.286" y="16.084" style="stroke:#000;stroke-width:.5"/></g><g id="xtick_32"><use xlink:href="#mfbd509f6c5" id="line2d_63" x="256.776" y="180.562" style="stroke:#000;stroke-width:.5"/><use xlink:href="#mbc9ff3e6d7" id="line2d_64" x="256.776" y="16.084" style="stroke:#000;stroke-width:.5"/></g><g id="xtick_33"><use xlink:href="#mfbd509f6c5" id="line2d_65" x="271.755" y="180.562" style="stroke:#000;stroke-width:.5"/><use xlink:href="#mbc9ff3e6d7" id="line2d_66" x="271.755" y="16.084" style="stroke:#000;stroke-width:.5"/></g><g id="text_8" transform="matrix(.08 0 0 -.08 123.428 200.595)"><defs><path id="NimbusRomNo9L-Regu-46" d="M3066 1472v1485h-148c-76-496-192-589-704-589h-928v1398c0 177 32 215 205 215h871c723 0 864-95 972-667h160l-19 910H77v-122c473-38 557-128 557-577V749c0-532-71-615-557-615V0h1792v134c-493 0-583 91-583 558v1414h928c519 0 628-99 704-634z" transform="scale(.01563)"/><path id="NimbusRomNo9L-Regu-72" d="M45 2496c89 19 147 26 224 26 160 0 217-103 217-384V538c0-320-44-365-454-442V0h1536v102c-435 0-544 97-544 463v1448c0 206 275 528 448 528 38 0 96-32 166-96 103-90 173-128 256-128 154 0 250 109 250 288 0 211-134 339-352 339-269 0-454-147-768-601v588l-32 13c-339-141-570-223-947-345z" transform="scale(.01563)"/><path id="NimbusRomNo9L-Regu-65" d="M2611 1053c-307-489-582-675-992-675-365 0-640 186-825 552-116 244-160 456-173 849h1971c-51 414-115 598-275 802-192 230-487 363-819 363-320 0-621-115-864-333-301-262-474-717-474-1241C160 486 621-64 1357-64c608 0 1088 379 1357 1072zM634 1984c70 495 288 730 678 730s544-179 627-730z" transform="scale(.01563)"/><path id="NimbusRomNo9L-Regu-71" d="M2304 2701c-294 173-486 230-736 230-800 0-1414-713-1414-1631C154 498 576-70 1178-70c371 0 723 166 1004 473V-824c0-364-115-462-569-462v-122h1510v90c-352 77-403 128-403 397v3827h-70zM2182 804c0-153-25-235-89-286-141-121-352-198-551-198-198 0-371 64-499 191-205 185-339 599-339 1019 0 752 339 1222 883 1222 397 0 595-210 595-637z" transform="scale(.01563)"/><path id="NimbusRomNo9L-Regu-75" d="M3066 320h-32c-295 0-365 70-365 365v2195H1658v-122c396 0 473-64 473-383V875c0-178-32-268-121-338-173-140-372-217-564-217-249 0-454 217-454 485v2075H58v-102c307 0 396-96 396-391V770c0-507 308-834 775-834 237 0 486 102 659 275l275 275V-45l26-13c320 128 550 199 877 288z" transform="scale(.01563)"/><path id="NimbusRomNo9L-Regu-6e" d="M102 2579c39 19 103 26 173 26 179 0 237-96 237-410V608c0-365-70-454-397-480V32h1357v96c-326 26-422 102-422 333v1798c307 288 448 365 659 365 313 0 467-198 467-621V666c0-404-83-512-403-538V32h1331v96c-314 32-390 109-390 422v1466c0 602-282 960-756 960-294 0-492-109-928-518v505l-44 13c-314-115-532-186-884-288z" transform="scale(.01563)"/><path id="NimbusRomNo9L-Regu-63" d="M2547 998c-307-448-537-601-902-601-583 0-992 512-992 1248 0 659 352 1113 870 1113 231 0 314-70 378-307l38-141c51-179 167-294 301-294 166 0 307 122 307 269 0 358-448 659-985 659-314 0-640-128-903-358-320-282-499-717-499-1223C160 531 666-64 1376-64c288 0 544 102 774 301 173 153 295 326 487 704z" transform="scale(.01563)"/><path id="NimbusRomNo9L-Regu-79" d="M3040 2880h-864v-96c205 0 307-58 307-161 0-26-6-64-25-109L1837 742l-736 1635c-39 91-64 175-64 245 0 117 96 162 371 162v96H90v-90c166-25 275-96 326-205l730-1580 19-52 96-192c179-321 281-552 281-649 0-96-147-501-256-694-89-167-230-289-320-289-38 0-96 13-160 45-121 45-230 71-339 71-147 0-275-128-275-282 0-211 205-371 474-371 428 0 736 359 1081 1284l986 2619c83 206 153 270 307 289z" transform="scale(.01563)"/><path id="NimbusRomNo9L-Regu-5b" d="M1914-864h-551c-211 0-313 108-313 333v4312c0 200 83 283 288 283h576v160H563v-5248h1351z" transform="scale(.01563)"/><path id="NimbusRomNo9L-Regu-47" d="M4538 2304H2906v-128c275 0 352-19 428-71 96-58 135-207 135-484V574c0-207-391-382-851-382-1044 0-1684 730-1684 1920 0 602 180 1184 461 1498 282 314 679 486 1114 486 358 0 672-121 921-352 192-179 295-352 455-742h147l-51 1350h-141c-38-121-154-211-288-211-64 0-166 19-282 64-288 96-582 147-870 147-1280 0-2195-940-2195-2246 0-627 173-1107 531-1485C1165 180 1779-64 2483-64c551 0 1351 224 1607 449v1309c0 379 76 463 448 495z" transform="scale(.01563)"/><path id="NimbusRomNo9L-Regu-48" d="M1338 2304v1229c0 457 70 526 563 571v120H122v-120c492-45 563-115 563-577V749c0-539-64-615-563-615V0h1779v121c-480 38-563 121-563 578v1323h1939V757c0-546-64-623-563-623V0h1779v121c-480 38-563 121-563 575v2833c0 460 70 530 563 575v120H2714v-120c492-45 563-114 563-571V2304z" transform="scale(.01563)"/><path id="NimbusRomNo9L-Regu-7a" d="m2675 864-115 26c-64-320-102-423-186-532-89-108-307-166-633-166H858l1721 2592v96H358l-19-755h115c58 467 154 563 538 563h883L173 96V0h2413z" transform="scale(.01563)"/><path id="NimbusRomNo9L-Regu-5d" d="M218-864v-160h1350v5248H218v-160h550c211 0 314-109 314-334V-582c0-199-90-282-288-282z" transform="scale(.01563)"/></defs><use xlink:href="#NimbusRomNo9L-Regu-46" transform="scale(.99626)"/><use xlink:href="#NimbusRomNo9L-Regu-72" transform="translate(55.392)scale(.99626)"/><use xlink:href="#NimbusRomNo9L-Regu-65" transform="translate(88.567)scale(.99626)"/><use xlink:href="#NimbusRomNo9L-Regu-71" transform="translate(132.8)scale(.99626)"/><use xlink:href="#NimbusRomNo9L-Regu-75" transform="translate(182.614)scale(.99626)"/><use xlink:href="#NimbusRomNo9L-Regu-65" transform="translate(232.427)scale(.99626)"/><use xlink:href="#NimbusRomNo9L-Regu-6e" transform="translate(276.66)scale(.99626)"/><use xlink:href="#NimbusRomNo9L-Regu-63" transform="translate(326.474)scale(.99626)"/><use xlink:href="#NimbusRomNo9L-Regu-79" transform="translate(369.214)scale(.99626)"/><use xlink:href="#NimbusRomNo9L-Regu-5b" transform="translate(443.934)scale(.99626)"/><use xlink:href="#NimbusRomNo9L-Regu-47" transform="translate(477.109)scale(.99626)"/><use xlink:href="#NimbusRomNo9L-Regu-48" transform="translate(549.039)scale(.99626)"/><use xlink:href="#NimbusRomNo9L-Regu-7a" transform="translate(620.969)scale(.99626)"/><use xlink:href="#NimbusRomNo9L-Regu-5d" transform="translate(665.202)scale(.99626)"/></g></g><g id="matplotlib.axis_2"><g id="ytick_1"><g id="line2d_67"><defs><path id="m0c5b535216" d="M0 0h3" style="stroke:#000;stroke-width:.5"/></defs><use xlink:href="#m0c5b535216" x="28.407" y="180.562" style="stroke:#000;stroke-width:.5"/></g><g id="line2d_68"><defs><path id="md793272f78" d="M0 0h-3" style="stroke:#000;stroke-width:.5"/></defs><use xlink:href="#md793272f78" x="274.32" y="180.562" style="stroke:#000;stroke-width:.5"/></g><g id="text_9" transform="matrix(.08 0 0 -.08 14.73 183.264)"><defs><path id="CMSY10-0" d="M4218 1472c108 0 224 0 224 128s-116 128-224 128H755c-109 0-224 0-224-128s115-128 224-128z" transform="scale(.01563)"/></defs><use xlink:href="#CMSY10-0" transform="scale(.99626)"/><use xlink:href="#NimbusRomNo9L-Regu-36" transform="translate(77.409)scale(.99626)"/></g></g><g id="ytick_2"><use xlink:href="#m0c5b535216" id="line2d_69" x="28.407" y="150.657" style="stroke:#000;stroke-width:.5"/><use xlink:href="#md793272f78" id="line2d_70" x="274.32" y="150.657" style="stroke:#000;stroke-width:.5"/><g id="text_10" transform="matrix(.08 0 0 -.08 14.73 153.359)"><use xlink:href="#CMSY10-0" transform="scale(.99626)"/><use xlink:href="#NimbusRomNo9L-Regu-34" transform="translate(77.409)scale(.99626)"/></g></g><g id="ytick_3"><use xlink:href="#m0c5b535216" id="line2d_71" x="28.407" y="120.752" style="stroke:#000;stroke-width:.5"/><use xlink:href="#md793272f78" id="line2d_72" x="274.32" y="120.752" style="stroke:#000;stroke-width:.5"/><g id="text_11" transform="matrix(.08 0 0 -.08 14.73 123.454)"><use xlink:href="#CMSY10-0" transform="scale(.99626)"/><use xlink:href="#NimbusRomNo9L-Regu-32" transform="translate(77.409)scale(.99626)"/></g></g><g id="ytick_4"><use xlink:href="#m0c5b535216" id="line2d_73" x="28.407" y="90.847" style="stroke:#000;stroke-width:.5"/><use xlink:href="#md793272f78" id="line2d_74" x="274.32" y="90.847" style="stroke:#000;stroke-width:.5"/><use xlink:href="#NimbusRomNo9L-Regu-30" id="text_12" transform="matrix(.0797 0 0 -.0797 20.922 93.549)"/></g><g id="ytick_5"><use xlink:href="#m0c5b535216" id="line2d_75" x="28.407" y="60.942" style="stroke:#000;stroke-width:.5"/><use xlink:href="#md793272f78" id="line2d_76" x="274.32" y="60.942" style="stroke:#000;stroke-width:.5"/><use xlink:href="#NimbusRomNo9L-Regu-32" id="text_13" transform="matrix(.0797 0 0 -.0797 20.922 63.644)"/></g><g id="ytick_6"><use xlink:href="#m0c5b535216" id="line2d_77" x="28.407" y="31.037" style="stroke:#000;stroke-width:.5"/><use xlink:href="#md793272f78" id="line2d_78" x="274.32" y="31.037" style="stroke:#000;stroke-width:.5"/><use xlink:href="#NimbusRomNo9L-Regu-34" id="text_14" transform="matrix(.0797 0 0 -.0797 20.922 33.739)"/></g><g id="ytick_7"><g id="line2d_79"><defs><path id="mb90c97daba" d="M0 0h1.5" style="stroke:#000;stroke-width:.5"/></defs><use xlink:href="#mb90c97daba" x="28.407" y="173.086" style="stroke:#000;stroke-width:.5"/></g><g id="line2d_80"><defs><path id="m2644e22b7b" d="M0 0h-1.5" style="stroke:#000;stroke-width:.5"/></defs><use xlink:href="#m2644e22b7b" x="274.32" y="173.086" style="stroke:#000;stroke-width:.5"/></g></g><g id="ytick_8"><use xlink:href="#mb90c97daba" id="line2d_81" x="28.407" y="165.609" style="stroke:#000;stroke-width:.5"/><use xlink:href="#m2644e22b7b" id="line2d_82" x="274.32" y="165.609" style="stroke:#000;stroke-width:.5"/></g><g id="ytick_9"><use xlink:href="#mb90c97daba" id="line2d_83" x="28.407" y="158.133" style="stroke:#000;stroke-width:.5"/><use xlink:href="#m2644e22b7b" id="line2d_84" x="274.32" y="158.133" style="stroke:#000;stroke-width:.5"/></g><g id="ytick_10"><use xlink:href="#mb90c97daba" id="line2d_85" x="28.407" y="143.181" style="stroke:#000;stroke-width:.5"/><use xlink:href="#m2644e22b7b" id="line2d_86" x="274.32" y="143.181" style="stroke:#000;stroke-width:.5"/></g><g id="ytick_11"><use xlink:href="#mb90c97daba" id="line2d_87" x="28.407" y="135.704" style="stroke:#000;stroke-width:.5"/><use xlink:href="#m2644e22b7b" id="line2d_88" x="274.32" y="135.704" style="stroke:#000;stroke-width:.5"/></g><g id="ytick_12"><use xlink:href="#mb90c97daba" id="line2d_89" x="28.407" y="128.228" style="stroke:#000;stroke-width:.5"/><use xlink:href="#m2644e22b7b" id="line2d_90" x="274.32" y="128.228" style="stroke:#000;stroke-width:.5"/></g><g id="ytick_13"><use xlink:href="#mb90c97daba" id="line2d_91" x="28.407" y="113.276" style="stroke:#000;stroke-width:.5"/><use xlink:href="#m2644e22b7b" id="line2d_92" x="274.32" y="113.276" style="stroke:#000;stroke-width:.5"/></g><g id="ytick_14"><use xlink:href="#mb90c97daba" id="line2d_93" x="28.407" y="105.799" style="stroke:#000;stroke-width:.5"/><use xlink:href="#m2644e22b7b" id="line2d_94" x="274.32" y="105.799" style="stroke:#000;stroke-width:.5"/></g><g id="ytick_15"><use xlink:href="#mb90c97daba" id="line2d_95" x="28.407" y="98.323" style="stroke:#000;stroke-width:.5"/><use xlink:href="#m2644e22b7b" id="line2d_96" x="274.32" y="98.323" style="stroke:#000;stroke-width:.5"/></g><g id="ytick_16"><use xlink:href="#mb90c97daba" id="line2d_97" x="28.407" y="83.371" style="stroke:#000;stroke-width:.5"/><use xlink:href="#m2644e22b7b" id="line2d_98" x="274.32" y="83.371" style="stroke:#000;stroke-width:.5"/></g><g id="ytick_17"><use xlink:href="#mb90c97daba" id="line2d_99" x="28.407" y="75.894" style="stroke:#000;stroke-width:.5"/><use xlink:href="#m2644e22b7b" id="line2d_100" x="274.32" y="75.894" style="stroke:#000;stroke-width:.5"/></g><g id="ytick_18"><use xlink:href="#mb90c97daba" id="line2d_101" x="28.407" y="68.418" style="stroke:#000;stroke-width:.5"/><use xlink:href="#m2644e22b7b" id="line2d_102" x="274.32" y="68.418" style="stroke:#000;stroke-width:.5"/></g><g id="ytick_19"><use xlink:href="#mb90c97daba" id="line2d_103" x="28.407" y="53.466" style="stroke:#000;stroke-width:.5"/><use xlink:href="#m2644e22b7b" id="line2d_104" x="274.32" y="53.466" style="stroke:#000;stroke-width:.5"/></g><g id="ytick_20"><use xlink:href="#mb90c97daba" id="line2d_105" x="28.407" y="45.989" style="stroke:#000;stroke-width:.5"/><use xlink:href="#m2644e22b7b" id="line2d_106" x="274.32" y="45.989" style="stroke:#000;stroke-width:.5"/></g><g id="ytick_21"><use xlink:href="#mb90c97daba" id="line2d_107" x="28.407" y="38.513" style="stroke:#000;stroke-width:.5"/><use xlink:href="#m2644e22b7b" id="line2d_108" x="274.32" y="38.513" style="stroke:#000;stroke-width:.5"/></g><g id="ytick_22"><use xlink:href="#mb90c97daba" id="line2d_109" x="28.407" y="23.561" style="stroke:#000;stroke-width:.5"/><use xlink:href="#m2644e22b7b" id="line2d_110" x="274.32" y="23.561" style="stroke:#000;stroke-width:.5"/></g><g id="ytick_23"><use xlink:href="#mb90c97daba" id="line2d_111" x="28.407" y="16.084" style="stroke:#000;stroke-width:.5"/><use xlink:href="#m2644e22b7b" id="line2d_112" x="274.32" y="16.084" style="stroke:#000;stroke-width:.5"/></g><g id="text_15" transform="matrix(0 -.08 -.08 0 9.004 116.802)"><defs><path id="NimbusRomNo9L-Regu-41" d="M4518 128c-288 0-352 64-576 539L2349 4320h-128L890 1168C480 231 403 128 96 128V0h1267v128c-307 0-435 84-435 265 0 77 19 167 51 252l295 756h1676l263-623c77-176 121-344 121-436 0-162-108-214-448-214V0h1632zM1382 1664l736 1752 743-1752z" transform="scale(.01563)"/><path id="NimbusRomNo9L-Regu-67" d="M3008 2496v250h-493c-128 0-224 17-352 56l-141 45c-172 56-345 84-512 84-595 0-1068-464-1068-1050 0-405 172-651 595-863-122-112-237-219-275-250-212-180-295-305-295-430 0-132 77-207 339-332-454-335-627-549-627-787 0-343 499-627 1107-627 480 0 980 170 1312 446 244 203 352 414 352 663 0 407-300 683-774 683h-826c-339 0-499 59-499 164 0 130 211 360 384 412 58-7 103-13 122-13 121-13 205-19 243-19 237 0 493 98 691 275 211 184 307 414 307 742 0 190-32 341-121 551zM941-13c211-45 723-83 1037-83 582 0 793-84 793-318 0-377-486-629-1209-629-564 0-935 188-935 473 0 150 45 234 314 557m32 2158c0 381 179 607 473 607 199 0 365-110 468-303 115-226 192-522 192-774 0-361-186-587-480-587-384 0-653 419-653 1038z" transform="scale(.01563)"/><path id="NimbusRomNo9L-Regu-6c" d="M122 4000h236c205 0 269-90 269-390V557c0-346-89-429-493-461V0h1511v109c-403 0-480 64-480 419v3843l-26 13c-333-109-576-173-1017-281z" transform="scale(.01563)"/><path id="NimbusRomNo9L-Regu-61" d="M2829 423c-109-90-186-122-282-122-147 0-192 89-192 371v1248c0 333-32 518-128 672-141 230-416 352-793 352-602 0-1076-314-1076-717 0-147 128-275 276-275 153 0 288 128 288 269 0 25-7 57-13 102-13 58-19 109-19 154 0 173 204 313 460 313 314 0 487-185 487-531v-390c-986-397-1095-448-1370-691-141-128-230-346-230-557 0-403 281-685 672-685 281 0 544 134 934 467 32-333 147-467 410-467 217 0 352 77 576 320zm-992 360c0-199-32-257-167-334-153-90-332-148-467-148-224 0-403 219-403 495v26c0 379 262 611 1037 893z" transform="scale(.01563)"/><path id="NimbusRomNo9L-Regu-64" d="m2202-64 940 333v96h-147c-230 0-281 70-281 366v3633l-32 13c-308-109-532-173-941-281v-102c51 6 89 6 141 6 236 0 294-64 294-328V2669c-243 205-416 275-672 275-736 0-1331-723-1331-1632C173 493 653-64 1357-64c358 0 601 128 819 429V-45zm-26 717c0-45-45-122-109-192-115-128-275-192-461-192-531 0-883 512-883 1299 0 723 314 1197 800 1197 339 0 653-301 653-640z" transform="scale(.01563)"/></defs><use xlink:href="#NimbusRomNo9L-Regu-41" transform="scale(.99626)"/><use xlink:href="#NimbusRomNo9L-Regu-6e" transform="translate(71.93)scale(.99626)"/><use xlink:href="#NimbusRomNo9L-Regu-67" transform="translate(121.743)scale(.99626)"/><use xlink:href="#NimbusRomNo9L-Regu-6c" transform="translate(171.556)scale(.99626)"/><use xlink:href="#NimbusRomNo9L-Regu-65" transform="translate(199.252)scale(.99626)"/><use xlink:href="#NimbusRomNo9L-Regu-5b" transform="translate(268.392)scale(.99626)"/><use xlink:href="#NimbusRomNo9L-Regu-72" transform="translate(301.567)scale(.99626)"/><use xlink:href="#NimbusRomNo9L-Regu-61" transform="translate(334.742)scale(.99626)"/><use xlink:href="#NimbusRomNo9L-Regu-64" transform="translate(378.976)scale(.99626)"/><use xlink:href="#NimbusRomNo9L-Regu-5d" transform="translate(428.789)scale(.99626)"/></g></g><path id="line2d_113" d="m39.585 89.758 1.123 1.466 1.124 1.102 4.493 5.351 2.247 3.05 2.247 3.294 6.74 11.511 4.494 6.585 4.493 5.913 2.247 3.353 3.37 5.86 1.124-91.79 3.37 6.399 4.494 7.276 3.37 5.218 4.494 7.793 3.37 6.467 3.37 5.846 6.74 10.418 3.37 6.027 4.494 8.596 2.247 3.963 4.494 7.296 3.37 5.597 3.37 6.133 2.247 4.44 1.123-91.68 1.124 1.976 3.37 6.406 6.74 11.45 1.124 1.565 2.246 3.76 2.247 3.977 2.247 4.336 2.247 4.67 3.37 6.984 2.247 4.224 1.123 1.924 5.617 8.32 2.247 3.712 1.124 1.886 3.37 6.641 1.123 2.463 3.37 6.405 2.247 3.433 2.247 2.987 2.247 3.063 1.123 1.66 1.124-92.012 2.246 3.721 2.247 3.867 1.124 1.78 2.246 3.031 6.74 8.15 3.371 5.321 2.247 3.877 3.37 5.205 2.247 2.622 2.247 2.8 1.123 1.561 1.124 1.228 2.246 3.816 6.74 15.26 4.494 8.339 2.247 4.735 2.247 2.84 1.123 1.794 1.124 2.131 1.123 2.395 3.37 8.003 1.124-91.167 1.123 2.621 1.124 2.108 1.123 1.844 3.37 4.304 2.247 2.41 1.123 1.026 2.247 2.613 2.247 2.374 1.123 1.296 1.124 1.09 2.247 1.773 1.123.23 1.124-2.915 1.123-1.582 1.123-.104 1.124 1.003 1.123.72h0" clip-path="url(#pda7ed0591e)" style="fill:none;stroke:#000;stroke-linecap:square"/><path id="line2d_114" d="m50.819 149.93 2.247 3.757 1.123.974 1.123-.766 1.124-1.254 1.123-1.625 1.124-2.237 2.246-5.256 1.124-1.463 1.123-.75 1.124-.307 1.123.913 3.37 8.487 1.124 3.796 1.123 3.196 1.123 2.011 1.124 1.438 1.123.09 1.124-1.462 1.123-1.898 1.123-2.565 1.124-2.943 1.123-2.05 1.124-.805 1.123.011 1.123.275 1.124 1.76 1.123 2.775 3.37 6.93 1.124.287 1.123-.712 1.124-1.151 1.123-2.957 1.124-2.577 1.123-2.015 1.123-2.306 1.124-1.148 1.123.175 1.124.903 1.123 1.977 3.37 7.654 1.124 1.84 1.123.696 1.123.202 1.124-.982 2.247-4.647 1.123-1.903 1.123-1.586 1.124-.822h1.123l1.124.522 1.123 1.066 2.247 2.57 1.123 2.429 1.124 2.139 1.123 1.546 1.123.714 1.124.257 1.123-.246 1.124-.822 2.246-2.9 1.124-.853 1.123-1.593 1.124-1.96 1.123-.618 1.123-.765 1.124-1.864 1.123-.378 1.124.947 1.123.66 1.123 1.94 1.124 3.213 2.247 4.968 1.123 2.856 1.124 2.307 1.123.804 1.123-.43 1.124-1.491 1.123-2.952 2.247-8.535 2.247-6.75 1.123-1.848 1.124-.01 1.123 1.352 1.123 1.745 1.124 2.86 1.123 3.63 3.37 8.513 1.124.36 1.123-.678 1.124-1.465 1.123-3.959 1.123-4.574 1.124-4.068 1.123-4.66 1.124-3.083 1.123-.594 1.123 1.273 2.247 5.354 1.124 2.863 1.123 2.037 1.123.104 1.124-1.391 1.123-2.297 1.124-3.623 1.123-4.273 1.123-3.392 1.124-1.755 1.123-.679 1.124-.266 1.123 1.59 1.123 2.986 1.124 2.668 1.123 3.181 1.124 3.738 1.123 1.927 1.124.172 1.123-.455 1.123-2.517 1.124-4.183 1.123-3.531 1.124-2.526 1.123-1.507 1.123-.799 1.124 1.752 1.123 4.121 1.124 5.435 3.37 20.531 1.123 4.277 1.124 2.204 1.123-.952 1.123-3.439 1.124-4.048 1.123-2.262 1.124-1.053 1.123-.035 1.123-.527 1.124-3.6 1.123-4.136 1.124-2.838 1.123-.695 1.123 4.381 2.247 14.908 1.124 5.636 1.123 2.922 1.123-1.152 1.124-4.06 1.123-6.681 2.247-17.395 1.123-7.276 1.124-5.142 1.123-3.656 1.124-2.117 1.123-.72 1.123-.33 1.124-.117 1.123 1.01 1.124.16 1.123-2.006" clip-path="url(#pda7ed0591e)" style="fill:none;stroke-dasharray:3.7,1.6;stroke-dashoffset:0;stroke:red"/><path id="LineCollection_1" d="M50.819 153.582H253.03" clip-path="url(#pda7ed0591e)" style="fill:none;stroke-dasharray:1,1.65;stroke-dashoffset:0;stroke:red"/><path id="patch_3" d="M28.407 180.562V16.084" style="fill:none;stroke:#000;stroke-width:.5;stroke-linejoin:miter;stroke-linecap:square"/><path id="patch_4" d="M274.32 180.562V16.084" style="fill:none;stroke:#000;stroke-width:.5;stroke-linejoin:miter;stroke-linecap:square"/><path id="patch_5" d="M28.407 180.562H274.32" style="fill:none;stroke:#000;stroke-width:.5;stroke-linejoin:miter;stroke-linecap:square"/><path id="patch_6" d="M28.407 16.084H274.32" style="fill:none;stroke:#000;stroke-width:.5;stroke-linejoin:miter;stroke-linecap:square"/><g id="text_16" transform="matrix(.096 0 0 -.096 106.939 10.084)"><defs><path id="NimbusRomNo9L-Regu-43" d="m3968 2906-58 1446h-134c-38-134-141-211-269-211-57 0-153 19-249 58-314 102-634 153-935 153-525 0-1056-198-1453-550-448-397-691-992-691-1696 0-595 192-1146 519-1510 384-416 972-660 1606-660 723 0 1357 295 1747 813l-115 115c-474-454-896-646-1427-646-403 0-762 128-1037 371-352 314-550 890-550 1600 0 1159 595 1907 1523 1907 365 0 697-134 953-390 205-205 301-384 423-800z" transform="scale(.01563)"/><path id="NimbusRomNo9L-Regu-69" d="m1120 2929-992-350v-95l51 6c77 12 160 19 218 19 153 0 211-103 211-384V640c0-461-64-531-506-531V0h1517v96c-422 32-473 95-473 554v2260zM819 4352c-173 0-320-147-320-326s141-327 320-327c186 0 333 141 333 327 0 179-147 326-333 326" transform="scale(.01563)"/><path id="NimbusRomNo9L-Regu-62" d="m979 4364-32 13c-269-96-441-147-742-230l-186-51v-102c39 6 64 6 109 6 256 0 314-58 314-327V347c0-200 544-411 1056-411 844 0 1497 704 1497 1619 0 787-486 1389-1126 1389-391 0-762-230-890-544zm0-2303c0 249 301 480 634 480 499 0 819-499 819-1280 0-711-307-1120-832-1120-333 0-621 147-621 307z" transform="scale(.01563)"/><path id="NimbusRomNo9L-Regu-74" d="M1632 2880H986v742c0 64-7 84-45 84-45-58-83-116-128-180-243-352-519-659-621-685-70-47-109-93-109-126 0-20 7-33 26-33h339V751c0-539 192-815 570-815 313 0 556 154 768 487l-84 70c-134-160-243-224-384-224-236 0-332 174-332 578v1835h646z" transform="scale(.01563)"/><path id="NimbusRomNo9L-Regu-6f" d="M1600 2944c-832 0-1414-614-1414-1498C186 582 781-64 1587-64c807 0 1421 678 1421 1562 0 838-589 1446-1408 1446m-83-179c537 0 915-615 915-1491 0-724-288-1159-768-1159-250 0-486 154-621 410-179 333-281 781-281 1235 0 608 300 1005 755 1005" transform="scale(.01563)"/><path id="NimbusRomNo9L-Regu-76" d="M3053 2854h-890v-96c205-19 301-83 301-206 0-64-13-128-38-193L1792 695l-653 1645c-38 91-57 180-57 238 0 116 70 161 294 180v96H122v-102c243 0 288-64 582-728l768-1849c13-38 32-84 51-135 39-116 77-168 115-168 39 0 84 84 180 321l819 2064c185 437 224 482 416 501z" transform="scale(.01563)"/><path id="NimbusRomNo9L-Regu-2" d="M198 2669h436V566c0-418-71-502-429-502V-38h1408v96c-359 26-442 117-442 474v2137h551c614 0 646-19 646-364V591c0-442-45-501-442-533v-96h1408v96c-358 32-428 117-428 532v1699c0 142 0 292 12 635l-25 19c-282-44-467-63-723-63H1165v271c0 278 19 473 51 581 90 271 339 460 627 460 179 0 301-82 455-297 121-169 204-232 313-232 135 0 231 107 231 246 0 266-320 443-813 443-487 0-858-164-1088-474-192-259-263-493-301-998H198z" transform="scale(.01563)"/></defs><use xlink:href="#NimbusRomNo9L-Regu-43" transform="scale(.99626)"/><use xlink:href="#NimbusRomNo9L-Regu-61" transform="translate(66.45)scale(.99626)"/><use xlink:href="#NimbusRomNo9L-Regu-6c" transform="translate(110.684)scale(.99626)"/><use xlink:href="#NimbusRomNo9L-Regu-69" transform="translate(138.379)scale(.99626)"/><use xlink:href="#NimbusRomNo9L-Regu-62" transform="translate(166.074)scale(.99626)"/><use xlink:href="#NimbusRomNo9L-Regu-72" transform="translate(215.887)scale(.99626)"/><use xlink:href="#NimbusRomNo9L-Regu-61" transform="translate(249.062)scale(.99626)"/><use xlink:href="#NimbusRomNo9L-Regu-74" transform="translate(293.296)scale(.99626)"/><use xlink:href="#NimbusRomNo9L-Regu-69" transform="translate(320.991)scale(.99626)"/><use xlink:href="#NimbusRomNo9L-Regu-6f" transform="translate(348.686)scale(.99626)"/><use xlink:href="#NimbusRomNo9L-Regu-6e" transform="translate(398.5)scale(.99626)"/><use xlink:href="#NimbusRomNo9L-Regu-76" transform="translate(473.22)scale(.99626)"/><use xlink:href="#NimbusRomNo9L-Regu-65" transform="translate(521.54)scale(.99626)"/><use xlink:href="#NimbusRomNo9L-Regu-72" transform="translate(565.773)scale(.99626)"/><use xlink:href="#NimbusRomNo9L-Regu-69" transform="translate(598.948)scale(.99626)"/><use xlink:href="#NimbusRomNo9L-Regu-2" transform="translate(626.643)scale(.99626)"/><use xlink:href="#NimbusRomNo9L-Regu-63" transform="translate(682.035)scale(.99626)"/><use xlink:href="#NimbusRomNo9L-Regu-61" transform="translate(726.268)scale(.99626)"/><use xlink:href="#NimbusRomNo9L-Regu-74" transform="translate(770.502)scale(.99626)"/><use xlink:href="#NimbusRomNo9L-Regu-69" transform="translate(798.197)scale(.99626)"/><use xlink:href="#NimbusRomNo9L-Regu-6f" transform="translate(825.892)scale(.99626)"/><use xlink:href="#NimbusRomNo9L-Regu-6e" transform="translate(875.705)scale(.99626)"/></g><g id="legend_1"><path id="line2d_115" d="M219.479 26.084h16" style="fill:none;stroke:#000;stroke-linecap:square"/><g id="text_17" transform="matrix(.08 0 0 -.08 241.879 28.884)"><defs><path id="NimbusRomNo9L-Regu-53" d="M2861 4352h-135c-25-147-96-217-204-217-64 0-173 25-282 77-237 89-474 140-678 140-276 0-557-108-768-294-224-199-340-468-340-802 0-513 282-871 999-1250 461-243 793-507 953-750 58-83 90-218 90-372 0-430-320-724-787-724-570 0-973 353-1293 1136H269L461-64h141c6 121 83 211 179 211 70 0 179-25 301-68 243-93 499-143 755-143 736 0 1305 506 1305 1165 0 525-352 941-1196 1395-672 372-941 653-941 999 0 352 269 595 665 595 288 0 557-122 781-352 199-205 288-371 391-749h160z" transform="scale(.01563)"/></defs><use xlink:href="#NimbusRomNo9L-Regu-53" transform="scale(.99626)"/><use xlink:href="#NimbusRomNo9L-Regu-32" transform="translate(55.392)scale(.99626)"/><use xlink:href="#NimbusRomNo9L-Regu-31" transform="translate(105.205)scale(.99626)"/></g><path id="line2d_116" d="M219.479 37.41h16" style="fill:none;stroke-dasharray:3.7,1.6;stroke-dashoffset:0;stroke:red"/><g id="text_18" transform="matrix(.08 0 0 -.08 241.879 40.21)"><defs><path id="NimbusRomNo9L-Regu-2f" d="M1837 4352h-429L-58-64h436z" transform="scale(.01563)"/><path id="NimbusRomNo9L-Regu-66" d="M1978 2880h-788v731c0 367 122 562 365 562 135 0 224-63 339-246 103-164 180-227 288-227 148 0 269 114 269 259 0 229-281 393-665 393-397 0-736-171-903-461-166-278-217-506-224-1011H134v-205h525V656c0-471-70-547-531-547V0h1664v109c-525 0-595 71-595 552v2014h781z" transform="scale(.01563)"/></defs><use xlink:href="#NimbusRomNo9L-Regu-64" transform="scale(.99626)"/><use xlink:href="#NimbusRomNo9L-Regu-53" transform="translate(49.813)scale(.99626)"/><use xlink:href="#NimbusRomNo9L-Regu-32" transform="translate(105.205)scale(.99626)"/><use xlink:href="#NimbusRomNo9L-Regu-31" transform="translate(155.018)scale(.99626)"/><use xlink:href="#NimbusRomNo9L-Regu-2f" transform="translate(204.831)scale(.99626)"/><use xlink:href="#NimbusRomNo9L-Regu-64" transform="translate(232.526)scale(.99626)"/><use xlink:href="#NimbusRomNo9L-Regu-66" transform="translate(282.34)scale(.99626)"/></g></g></g></g><defs><clipPath id="pda7ed0591e"><path d="M28.407 16.084H274.32v164.477H28.407z"/></clipPath></defs></svg>