<svg xmlns="http://www.w3.org/2000/svg" xmlns:xlink="http://www.w3.org/1999/xlink" width="562.56" height="280.32" viewBox="0 0 421.92 210.24"><defs><style>*{stroke-linejoin:round;stroke-linecap:butt}</style></defs><g id="figure_1"><path id="patch_1" d="M0 210.24h421.92V0H0z" style="fill:none"/><g id="axes_1"><path id="patch_2" d="M36.377 184.882H206.64V37.599H36.377z" style="fill:none"/><g id="matplotlib.axis_1"><g id="xtick_1"><g id="line2d_1"><defs><path id="m926192cae2" d="M0 0v-3" style="stroke:#000;stroke-width:.5"/></defs><use xlink:href="#m926192cae2" x="43.338" y="184.882" style="stroke:#000;stroke-width:.5"/></g><g id="line2d_2"><defs><path id="m6fc4b09222" d="M0 0v3" style="stroke:#000;stroke-width:.5"/></defs><use xlink:href="#m6fc4b09222" x="43.338" y="37.599" style="stroke:#000;stroke-width:.5"/></g><g id="text_1" transform="matrix(.08 0 0 -.08 41.346 193.785)"><defs><path id="NimbusRomNo9L-Regu-30" d="M1626 4352c-352 0-621-108-858-332-371-359-614-1095-614-1844 0-697 211-1446 512-1804C902 90 1229-64 1600-64c326 0 602 109 832 333 371 352 614 1095 614 1869 0 1312-582 2214-1420 2214m-20-166c538 0 826-723 826-2061 0-1337-282-2022-832-2022S768 788 768 2119c0 1357 288 2067 838 2067" transform="scale(.01563)"/></defs><use xlink:href="#NimbusRomNo9L-Regu-30" transform="scale(.99626)"/></g></g><g id="xtick_2"><use xlink:href="#m926192cae2" id="line2d_3" x="82.229" y="184.882" style="stroke:#000;stroke-width:.5"/><use xlink:href="#m6fc4b09222" id="line2d_4" x="82.229" y="37.599" style="stroke:#000;stroke-width:.5"/><g id="text_2" transform="matrix(.08 0 0 -.08 76.251 193.785)"><defs><path id="NimbusRomNo9L-Regu-31" d="M1862 4339 710 3757v-90c77 32 148 58 173 71 115 45 224 70 288 70 135 0 192-97 192-303V592c0-213-51-360-153-419-96-57-186-77-455-77V0h1767v96c-506 0-608 64-608 374v3857z" transform="scale(.01563)"/></defs><use xlink:href="#NimbusRomNo9L-Regu-31" transform="scale(.99626)"/><use xlink:href="#NimbusRomNo9L-Regu-30" transform="translate(49.813)scale(.99626)"/><use xlink:href="#NimbusRomNo9L-Regu-30" transform="translate(99.626)scale(.99626)"/></g></g><g id="xtick_3"><use xlink:href="#m926192cae2" id="line2d_5" x="121.12" y="184.882" style="stroke:#000;stroke-width:.5"/><use xlink:href="#m6fc4b09222" id="line2d_6" x="121.12" y="37.599" style="stroke:#000;stroke-width:.5"/><g id="text_3" transform="matrix(.08 0 0 -.08 115.142 193.785)"><defs><path id="NimbusRomNo9L-Regu-32" d="m3040 875-83 32c-237-363-320-421-608-421H819l1075 1123c570 593 820 1078 820 1576 0 638-519 1128-1184 1128-352 0-685-140-922-395-205-218-301-422-410-875l135-32c256 625 486 829 928 829 537 0 902-364 902-900 0-497-294-1090-832-1658L192 77V0h2496z" transform="scale(.01563)"/></defs><use xlink:href="#NimbusRomNo9L-Regu-32" transform="scale(.99626)"/><use xlink:href="#NimbusRomNo9L-Regu-30" transform="translate(49.813)scale(.99626)"/><use xlink:href="#NimbusRomNo9L-Regu-30" transform="translate(99.626)scale(.99626)"/></g></g><g id="xtick_4"><use xlink:href="#m926192cae2" id="line2d_7" x="160.01" y="184.882" style="stroke:#000;stroke-width:.5"/><use xlink:href="#m6fc4b09222" id="line2d_8" x="160.01" y="37.599" style="stroke:#000;stroke-width:.5"/><g id="text_4" transform="matrix(.08 0 0 -.08 154.033 193.785)"><defs><path id="NimbusRomNo9L-Regu-33" d="M979 2138c378 0 525-13 679-70 396-141 646-506 646-948 0-537-365-953-838-953-173 0-301 45-538 198-192 115-301 160-410 160-147 0-243-89-243-224C275 77 550-64 998-64c493 0 999 167 1300 429 300 263 467 634 467 1063 0 326-103 627-288 825-128 141-250 218-531 339 441 301 601 538 601 884 0 518-409 876-998 876-320 0-602-108-832-313-192-173-288-340-429-724l96-25c262 467 550 678 954 678 416 0 704-281 704-684 0-231-96-461-256-621-192-192-372-288-807-442z" transform="scale(.01563)"/></defs><use xlink:href="#NimbusRomNo9L-Regu-33" transform="scale(.99626)"/><use xlink:href="#NimbusRomNo9L-Regu-30" transform="translate(49.813)scale(.99626)"/><use xlink:href="#NimbusRomNo9L-Regu-30" transform="translate(99.626)scale(.99626)"/></g></g><g id="xtick_5"><use xlink:href="#m926192cae2" id="line2d_9" x="198.901" y="184.882" style="stroke:#000;stroke-width:.5"/><use xlink:href="#m6fc4b09222" id="line2d_10" x="198.901" y="37.599" style="stroke:#000;stroke-width:.5"/><g id="text_5" transform="matrix(.08 0 0 -.08 192.923 193.785)"><defs><path id="NimbusRomNo9L-Regu-34" d="M3021 1497h-653v2855h-282L77 1497v-409h1798V32h493v1056h653zm-1152 0H333l1536 2201z" transform="scale(.01563)"/></defs><use xlink:href="#NimbusRomNo9L-Regu-34" transform="scale(.99626)"/><use xlink:href="#NimbusRomNo9L-Regu-30" transform="translate(49.813)scale(.99626)"/><use xlink:href="#NimbusRomNo9L-Regu-30" transform="translate(99.626)scale(.99626)"/></g></g><g id="xtick_6"><g id="line2d_11"><defs><path id="md806c7cef0" d="M0 0v-1.5" style="stroke:#000;stroke-width:.5"/></defs><use xlink:href="#md806c7cef0" x="51.117" y="184.882" style="stroke:#000;stroke-width:.5"/></g><g id="line2d_12"><defs><path id="m996bc46233" d="M0 0v1.5" style="stroke:#000;stroke-width:.5"/></defs><use xlink:href="#m996bc46233" x="51.117" y="37.599" style="stroke:#000;stroke-width:.5"/></g></g><g id="xtick_7"><use xlink:href="#md806c7cef0" id="line2d_13" x="58.895" y="184.882" style="stroke:#000;stroke-width:.5"/><use xlink:href="#m996bc46233" id="line2d_14" x="58.895" y="37.599" style="stroke:#000;stroke-width:.5"/></g><g id="xtick_8"><use xlink:href="#md806c7cef0" id="line2d_15" x="66.673" y="184.882" style="stroke:#000;stroke-width:.5"/><use xlink:href="#m996bc46233" id="line2d_16" x="66.673" y="37.599" style="stroke:#000;stroke-width:.5"/></g><g id="xtick_9"><use xlink:href="#md806c7cef0" id="line2d_17" x="74.451" y="184.882" style="stroke:#000;stroke-width:.5"/><use xlink:href="#m996bc46233" id="line2d_18" x="74.451" y="37.599" style="stroke:#000;stroke-width:.5"/></g><g id="xtick_10"><use xlink:href="#md806c7cef0" id="line2d_19" x="90.007" y="184.882" style="stroke:#000;stroke-width:.5"/><use xlink:href="#m996bc46233" id="line2d_20" x="90.007" y="37.599" style="stroke:#000;stroke-width:.5"/></g><g id="xtick_11"><use xlink:href="#md806c7cef0" id="line2d_21" x="97.785" y="184.882" style="stroke:#000;stroke-width:.5"/><use xlink:href="#m996bc46233" id="line2d_22" x="97.785" y="37.599" style="stroke:#000;stroke-width:.5"/></g><g id="xtick_12"><use xlink:href="#md806c7cef0" id="line2d_23" x="105.563" y="184.882" style="stroke:#000;stroke-width:.5"/><use xlink:href="#m996bc46233" id="line2d_24" x="105.563" y="37.599" style="stroke:#000;stroke-width:.5"/></g><g id="xtick_13"><use xlink:href="#md806c7cef0" id="line2d_25" x="113.341" y="184.882" style="stroke:#000;stroke-width:.5"/><use xlink:href="#m996bc46233" id="line2d_26" x="113.341" y="37.599" style="stroke:#000;stroke-width:.5"/></g><g id="xtick_14"><use xlink:href="#md806c7cef0" id="line2d_27" x="128.898" y="184.882" style="stroke:#000;stroke-width:.5"/><use xlink:href="#m996bc46233" id="line2d_28" x="128.898" y="37.599" style="stroke:#000;stroke-width:.5"/></g><g id="xtick_15"><use xlink:href="#md806c7cef0" id="line2d_29" x="136.676" y="184.882" style="stroke:#000;stroke-width:.5"/><use xlink:href="#m996bc46233" id="line2d_30" x="136.676" y="37.599" style="stroke:#000;stroke-width:.5"/></g><g id="xtick_16"><use xlink:href="#md806c7cef0" id="line2d_31" x="144.454" y="184.882" style="stroke:#000;stroke-width:.5"/><use xlink:href="#m996bc46233" id="line2d_32" x="144.454" y="37.599" style="stroke:#000;stroke-width:.5"/></g><g id="xtick_17"><use xlink:href="#md806c7cef0" id="line2d_33" x="152.232" y="184.882" style="stroke:#000;stroke-width:.5"/><use xlink:href="#m996bc46233" id="line2d_34" x="152.232" y="37.599" style="stroke:#000;stroke-width:.5"/></g><g id="xtick_18"><use xlink:href="#md806c7cef0" id="line2d_35" x="167.788" y="184.882" style="stroke:#000;stroke-width:.5"/><use xlink:href="#m996bc46233" id="line2d_36" x="167.788" y="37.599" style="stroke:#000;stroke-width:.5"/></g><g id="xtick_19"><use xlink:href="#md806c7cef0" id="line2d_37" x="175.566" y="184.882" style="stroke:#000;stroke-width:.5"/><use xlink:href="#m996bc46233" id="line2d_38" x="175.566" y="37.599" style="stroke:#000;stroke-width:.5"/></g><g id="xtick_20"><use xlink:href="#md806c7cef0" id="line2d_39" x="183.345" y="184.882" style="stroke:#000;stroke-width:.5"/><use xlink:href="#m996bc46233" id="line2d_40" x="183.345" y="37.599" style="stroke:#000;stroke-width:.5"/></g><g id="xtick_21"><use xlink:href="#md806c7cef0" id="line2d_41" x="191.123" y="184.882" style="stroke:#000;stroke-width:.5"/><use xlink:href="#m996bc46233" id="line2d_42" x="191.123" y="37.599" style="stroke:#000;stroke-width:.5"/></g><g id="text_6" transform="matrix(.08 0 0 -.08 104.935 204.915)"><defs><path id="NimbusRomNo9L-Regu-54" d="M1626 3968V751c0-547-71-617-602-617V0h1869v134c-525 0-615 83-615 553v3281h346c730 0 870-115 1018-819h153l-38 1088H147l-38-1088h153c154 697 301 819 1018 819z" transform="scale(.01563)"/><path id="NimbusRomNo9L-Regu-69" d="m1120 2929-992-350v-95l51 6c77 12 160 19 218 19 153 0 211-103 211-384V640c0-461-64-531-506-531V0h1517v96c-422 32-473 95-473 554v2260zM819 4352c-173 0-320-147-320-326s141-327 320-327c186 0 333 141 333 327 0 179-147 326-333 326" transform="scale(.01563)"/><path id="NimbusRomNo9L-Regu-6d" d="M122 2547c83 19 134 26 204 26 167 0 224-103 224-411V539c0-347-89-443-448-443V0h1421v96c-339 0-435 70-435 322v1816c0 12 51 76 96 121 160 147 435 256 659 256 282 0 423-226 423-679V528c0-361-71-432-436-432V0h1434v96c-365 0-461 109-461 507v1618c192 275 403 390 698 390 365 0 480-173 480-704V557c0-365-51-416-423-461V0h1402v96l-166 19c-192 0-276 115-276 365v1322c0 757-249 1142-742 1142-371 0-698-166-1043-537-115 364-333 537-679 537-281 0-460-90-992-493v480l-44 13c-327-122-544-192-896-288z" transform="scale(.01563)"/><path id="NimbusRomNo9L-Regu-65" d="M2611 1053c-307-489-582-675-992-675-365 0-640 186-825 552-116 244-160 456-173 849h1971c-51 414-115 598-275 802-192 230-487 363-819 363-320 0-621-115-864-333-301-262-474-717-474-1241C160 486 621-64 1357-64c608 0 1088 379 1357 1072zM634 1984c70 495 288 730 678 730s544-179 627-730z" transform="scale(.01563)"/><path id="NimbusRomNo9L-Regu-5b" d="M1914-864h-551c-211 0-313 108-313 333v4312c0 200 83 283 288 283h576v160H563v-5248h1351z" transform="scale(.01563)"/><path id="NimbusRomNo9L-Regu-73" d="m2016 2010-26 870h-70l-13-13c-57-45-64-51-89-51-39 0-103 13-173 45-141 54-282 83-448 83-506 0-871-328-871-790 0-358 205-615 749-923l371-211c224-128 333-283 333-481 0-283-205-462-531-462-218 0-416 82-538 221-134 157-192 302-275 662H333V-39h83c45 72 70 87 147 87 58 0 147-13 295-50 179-37 352-62 467-62 493 0 902 372 902 821 0 320-153 532-537 763l-692 410c-179 103-275 264-275 437 0 257 199 436 493 436 365 0 557-220 704-793z" transform="scale(.01563)"/><path id="NimbusRomNo9L-Regu-5d" d="M218-864v-160h1350v5248H218v-160h550c211 0 314-109 314-334V-582c0-199-90-282-288-282z" transform="scale(.01563)"/></defs><use xlink:href="#NimbusRomNo9L-Regu-54" transform="scale(.99626)"/><use xlink:href="#NimbusRomNo9L-Regu-69" transform="translate(57.385)scale(.99626)"/><use xlink:href="#NimbusRomNo9L-Regu-6d" transform="translate(85.08)scale(.99626)"/><use xlink:href="#NimbusRomNo9L-Regu-65" transform="translate(162.588)scale(.99626)"/><use xlink:href="#NimbusRomNo9L-Regu-5b" transform="translate(231.729)scale(.99626)"/><use xlink:href="#NimbusRomNo9L-Regu-6d" transform="translate(264.904)scale(.99626)"/><use xlink:href="#NimbusRomNo9L-Regu-73" transform="translate(342.412)scale(.99626)"/><use xlink:href="#NimbusRomNo9L-Regu-5d" transform="translate(381.166)scale(.99626)"/></g></g><g id="matplotlib.axis_2"><g id="ytick_1"><g id="line2d_43"><defs><path id="m7aa9cac7e3" d="M0 0h3" style="stroke:#000;stroke-width:.5"/></defs><use xlink:href="#m7aa9cac7e3" x="36.377" y="166.471" style="stroke:#000;stroke-width:.5"/></g><g id="line2d_44"><defs><path id="mb852ef2789" d="M0 0h-3" style="stroke:#000;stroke-width:.5"/></defs><use xlink:href="#mb852ef2789" x="206.64" y="166.471" style="stroke:#000;stroke-width:.5"/></g><g id="text_7" transform="matrix(.08 0 0 -.08 14.73 169.173)"><defs><path id="CMSY10-0" d="M4218 1472c108 0 224 0 224 128s-116 128-224 128H755c-109 0-224 0-224-128s115-128 224-128z" transform="scale(.01563)"/></defs><use xlink:href="#CMSY10-0" transform="scale(.99626)"/><use xlink:href="#NimbusRomNo9L-Regu-31" transform="translate(77.409)scale(.99626)"/><use xlink:href="#NimbusRomNo9L-Regu-30" transform="translate(127.222)scale(.99626)"/><use xlink:href="#NimbusRomNo9L-Regu-30" transform="translate(177.035)scale(.99626)"/></g></g><g id="ytick_2"><use xlink:href="#m7aa9cac7e3" id="line2d_45" x="36.377" y="141.924" style="stroke:#000;stroke-width:.5"/><use xlink:href="#mb852ef2789" id="line2d_46" x="206.64" y="141.924" style="stroke:#000;stroke-width:.5"/><g id="text_8" transform="matrix(.08 0 0 -.08 18.714 144.626)"><defs><path id="NimbusRomNo9L-Regu-38" d="M1856 2400c634 340 858 608 858 1044 0 524-461 908-1101 908-698 0-1216-428-1216-1011 0-416 121-601 793-1190-691-525-832-723-832-1159C358 372 864-64 1587-64c768 0 1261 423 1261 1082 0 493-218 806-992 1382m-115-659c467-333 621-563 621-921 0-416-288-704-704-704-487 0-813 371-813 928 0 409 141 678 512 979zm-71 775c-569 371-800 665-800 1024 0 371 288 633 692 633 435 0 710-281 710-723 0-365-179-653-544-896-32-19-32-19-58-38" transform="scale(.01563)"/></defs><use xlink:href="#CMSY10-0" transform="scale(.99626)"/><use xlink:href="#NimbusRomNo9L-Regu-38" transform="translate(77.409)scale(.99626)"/><use xlink:href="#NimbusRomNo9L-Regu-30" transform="translate(127.222)scale(.99626)"/></g></g><g id="ytick_3"><use xlink:href="#m7aa9cac7e3" id="line2d_47" x="36.377" y="117.377" style="stroke:#000;stroke-width:.5"/><use xlink:href="#mb852ef2789" id="line2d_48" x="206.64" y="117.377" style="stroke:#000;stroke-width:.5"/><g id="text_9" transform="matrix(.08 0 0 -.08 18.714 120.08)"><defs><path id="NimbusRomNo9L-Regu-36" d="M2854 4391c-729-64-1100-186-1568-512C595 3386 218 2656 218 1802c0-554 172-1114 448-1432C909 89 1254-64 1651-64c794 0 1344 605 1344 1485 0 815-467 1331-1203 1331-282 0-416-45-819-288 173 967 889 1658 1894 1824zM1549 2458c550 0 870-458 870-1254 0-700-249-1088-697-1088-564 0-909 598-909 1584 0 325 51 503 179 599 134 101 333 159 557 159" transform="scale(.01563)"/></defs><use xlink:href="#CMSY10-0" transform="scale(.99626)"/><use xlink:href="#NimbusRomNo9L-Regu-36" transform="translate(77.409)scale(.99626)"/><use xlink:href="#NimbusRomNo9L-Regu-30" transform="translate(127.222)scale(.99626)"/></g></g><g id="ytick_4"><use xlink:href="#m7aa9cac7e3" id="line2d_49" x="36.377" y="92.83" style="stroke:#000;stroke-width:.5"/><use xlink:href="#mb852ef2789" id="line2d_50" x="206.64" y="92.83" style="stroke:#000;stroke-width:.5"/><g id="text_10" transform="matrix(.08 0 0 -.08 18.714 95.532)"><use xlink:href="#CMSY10-0" transform="scale(.99626)"/><use xlink:href="#NimbusRomNo9L-Regu-34" transform="translate(77.409)scale(.99626)"/><use xlink:href="#NimbusRomNo9L-Regu-30" transform="translate(127.222)scale(.99626)"/></g></g><g id="ytick_5"><use xlink:href="#m7aa9cac7e3" id="line2d_51" x="36.377" y="68.283" style="stroke:#000;stroke-width:.5"/><use xlink:href="#mb852ef2789" id="line2d_52" x="206.64" y="68.283" style="stroke:#000;stroke-width:.5"/><g id="text_11" transform="matrix(.08 0 0 -.08 18.714 70.985)"><use xlink:href="#CMSY10-0" transform="scale(.99626)"/><use xlink:href="#NimbusRomNo9L-Regu-32" transform="translate(77.409)scale(.99626)"/><use xlink:href="#NimbusRomNo9L-Regu-30" transform="translate(127.222)scale(.99626)"/></g></g><g id="ytick_6"><use xlink:href="#m7aa9cac7e3" id="line2d_53" x="36.377" y="43.736" style="stroke:#000;stroke-width:.5"/><use xlink:href="#mb852ef2789" id="line2d_54" x="206.64" y="43.736" style="stroke:#000;stroke-width:.5"/><use xlink:href="#NimbusRomNo9L-Regu-30" id="text_12" transform="matrix(.0797 0 0 -.0797 28.892 46.438)"/></g><g id="ytick_7"><g id="line2d_55"><defs><path id="m8e2cd7fcd7" d="M0 0h1.5" style="stroke:#000;stroke-width:.5"/></defs><use xlink:href="#m8e2cd7fcd7" x="36.377" y="184.882" style="stroke:#000;stroke-width:.5"/></g><g id="line2d_56"><defs><path id="me6aba7fbdf" d="M0 0h-1.5" style="stroke:#000;stroke-width:.5"/></defs><use xlink:href="#me6aba7fbdf" x="206.64" y="184.882" style="stroke:#000;stroke-width:.5"/></g></g><g id="ytick_8"><use xlink:href="#m8e2cd7fcd7" id="line2d_57" x="36.377" y="178.745" style="stroke:#000;stroke-width:.5"/><use xlink:href="#me6aba7fbdf" id="line2d_58" x="206.64" y="178.745" style="stroke:#000;stroke-width:.5"/></g><g id="ytick_9"><use xlink:href="#m8e2cd7fcd7" id="line2d_59" x="36.377" y="172.608" style="stroke:#000;stroke-width:.5"/><use xlink:href="#me6aba7fbdf" id="line2d_60" x="206.64" y="172.608" style="stroke:#000;stroke-width:.5"/></g><g id="ytick_10"><use xlink:href="#m8e2cd7fcd7" id="line2d_61" x="36.377" y="160.335" style="stroke:#000;stroke-width:.5"/><use xlink:href="#me6aba7fbdf" id="line2d_62" x="206.64" y="160.335" style="stroke:#000;stroke-width:.5"/></g><g id="ytick_11"><use xlink:href="#m8e2cd7fcd7" id="line2d_63" x="36.377" y="154.198" style="stroke:#000;stroke-width:.5"/><use xlink:href="#me6aba7fbdf" id="line2d_64" x="206.64" y="154.198" style="stroke:#000;stroke-width:.5"/></g><g id="ytick_12"><use xlink:href="#m8e2cd7fcd7" id="line2d_65" x="36.377" y="148.061" style="stroke:#000;stroke-width:.5"/><use xlink:href="#me6aba7fbdf" id="line2d_66" x="206.64" y="148.061" style="stroke:#000;stroke-width:.5"/></g><g id="ytick_13"><use xlink:href="#m8e2cd7fcd7" id="line2d_67" x="36.377" y="135.788" style="stroke:#000;stroke-width:.5"/><use xlink:href="#me6aba7fbdf" id="line2d_68" x="206.64" y="135.788" style="stroke:#000;stroke-width:.5"/></g><g id="ytick_14"><use xlink:href="#m8e2cd7fcd7" id="line2d_69" x="36.377" y="129.651" style="stroke:#000;stroke-width:.5"/><use xlink:href="#me6aba7fbdf" id="line2d_70" x="206.64" y="129.651" style="stroke:#000;stroke-width:.5"/></g><g id="ytick_15"><use xlink:href="#m8e2cd7fcd7" id="line2d_71" x="36.377" y="123.514" style="stroke:#000;stroke-width:.5"/><use xlink:href="#me6aba7fbdf" id="line2d_72" x="206.64" y="123.514" style="stroke:#000;stroke-width:.5"/></g><g id="ytick_16"><use xlink:href="#m8e2cd7fcd7" id="line2d_73" x="36.377" y="111.241" style="stroke:#000;stroke-width:.5"/><use xlink:href="#me6aba7fbdf" id="line2d_74" x="206.64" y="111.241" style="stroke:#000;stroke-width:.5"/></g><g id="ytick_17"><use xlink:href="#m8e2cd7fcd7" id="line2d_75" x="36.377" y="105.104" style="stroke:#000;stroke-width:.5"/><use xlink:href="#me6aba7fbdf" id="line2d_76" x="206.64" y="105.104" style="stroke:#000;stroke-width:.5"/></g><g id="ytick_18"><use xlink:href="#m8e2cd7fcd7" id="line2d_77" x="36.377" y="98.967" style="stroke:#000;stroke-width:.5"/><use xlink:href="#me6aba7fbdf" id="line2d_78" x="206.64" y="98.967" style="stroke:#000;stroke-width:.5"/></g><g id="ytick_19"><use xlink:href="#m8e2cd7fcd7" id="line2d_79" x="36.377" y="86.693" style="stroke:#000;stroke-width:.5"/><use xlink:href="#me6aba7fbdf" id="line2d_80" x="206.64" y="86.693" style="stroke:#000;stroke-width:.5"/></g><g id="ytick_20"><use xlink:href="#m8e2cd7fcd7" id="line2d_81" x="36.377" y="80.557" style="stroke:#000;stroke-width:.5"/><use xlink:href="#me6aba7fbdf" id="line2d_82" x="206.64" y="80.557" style="stroke:#000;stroke-width:.5"/></g><g id="ytick_21"><use xlink:href="#m8e2cd7fcd7" id="line2d_83" x="36.377" y="74.42" style="stroke:#000;stroke-width:.5"/><use xlink:href="#me6aba7fbdf" id="line2d_84" x="206.64" y="74.42" style="stroke:#000;stroke-width:.5"/></g><g id="ytick_22"><use xlink:href="#m8e2cd7fcd7" id="line2d_85" x="36.377" y="62.146" style="stroke:#000;stroke-width:.5"/><use xlink:href="#me6aba7fbdf" id="line2d_86" x="206.64" y="62.146" style="stroke:#000;stroke-width:.5"/></g><g id="ytick_23"><use xlink:href="#m8e2cd7fcd7" id="line2d_87" x="36.377" y="56.01" style="stroke:#000;stroke-width:.5"/><use xlink:href="#me6aba7fbdf" id="line2d_88" x="206.64" y="56.01" style="stroke:#000;stroke-width:.5"/></g><g id="ytick_24"><use xlink:href="#m8e2cd7fcd7" id="line2d_89" x="36.377" y="49.873" style="stroke:#000;stroke-width:.5"/><use xlink:href="#me6aba7fbdf" id="line2d_90" x="206.64" y="49.873" style="stroke:#000;stroke-width:.5"/></g><g id="ytick_25"><use xlink:href="#m8e2cd7fcd7" id="line2d_91" x="36.377" y="37.599" style="stroke:#000;stroke-width:.5"/><use xlink:href="#me6aba7fbdf" id="line2d_92" x="206.64" y="37.599" style="stroke:#000;stroke-width:.5"/></g><g id="text_13" transform="matrix(0 -.08 -.08 0 9.004 136.808)"><defs><path id="NimbusRomNo9L-Regu-4d" d="M4314 3667V751c0-534-77-617-583-617V0h1792v134c-467 0-557 89-557 547v2855c0 457 84 541 557 579v122H4250L2835 1004 1357 4237H90v-141c524 0 608-77 608-546V943c0-661-90-784-621-822V0h1504v134c-493 0-602 148-602 797v2589L2586 0h89z" transform="scale(.01563)"/><path id="NimbusRomNo9L-Regu-61" d="M2829 423c-109-90-186-122-282-122-147 0-192 89-192 371v1248c0 333-32 518-128 672-141 230-416 352-793 352-602 0-1076-314-1076-717 0-147 128-275 276-275 153 0 288 128 288 269 0 25-7 57-13 102-13 58-19 109-19 154 0 173 204 313 460 313 314 0 487-185 487-531v-390c-986-397-1095-448-1370-691-141-128-230-346-230-557 0-403 281-685 672-685 281 0 544 134 934 467 32-333 147-467 410-467 217 0 352 77 576 320zm-992 360c0-199-32-257-167-334-153-90-332-148-467-148-224 0-403 219-403 495v26c0 379 262 611 1037 893z" transform="scale(.01563)"/><path id="NimbusRomNo9L-Regu-67" d="M3008 2496v250h-493c-128 0-224 17-352 56l-141 45c-172 56-345 84-512 84-595 0-1068-464-1068-1050 0-405 172-651 595-863-122-112-237-219-275-250-212-180-295-305-295-430 0-132 77-207 339-332-454-335-627-549-627-787 0-343 499-627 1107-627 480 0 980 170 1312 446 244 203 352 414 352 663 0 407-300 683-774 683h-826c-339 0-499 59-499 164 0 130 211 360 384 412 58-7 103-13 122-13 121-13 205-19 243-19 237 0 493 98 691 275 211 184 307 414 307 742 0 190-32 341-121 551zM941-13c211-45 723-83 1037-83 582 0 793-84 793-318 0-377-486-629-1209-629-564 0-935 188-935 473 0 150 45 234 314 557m32 2158c0 381 179 607 473 607 199 0 365-110 468-303 115-226 192-522 192-774 0-361-186-587-480-587-384 0-653 419-653 1038z" transform="scale(.01563)"/><path id="NimbusRomNo9L-Regu-6e" d="M102 2579c39 19 103 26 173 26 179 0 237-96 237-410V608c0-365-70-454-397-480V32h1357v96c-326 26-422 102-422 333v1798c307 288 448 365 659 365 313 0 467-198 467-621V666c0-404-83-512-403-538V32h1331v96c-314 32-390 109-390 422v1466c0 602-282 960-756 960-294 0-492-109-928-518v505l-44 13c-314-115-532-186-884-288z" transform="scale(.01563)"/><path id="NimbusRomNo9L-Regu-74" d="M1632 2880H986v742c0 64-7 84-45 84-45-58-83-116-128-180-243-352-519-659-621-685-70-47-109-93-109-126 0-20 7-33 26-33h339V751c0-539 192-815 570-815 313 0 556 154 768 487l-84 70c-134-160-243-224-384-224-236 0-332 174-332 578v1835h646z" transform="scale(.01563)"/><path id="NimbusRomNo9L-Regu-75" d="M3066 320h-32c-295 0-365 70-365 365v2195H1658v-122c396 0 473-64 473-383V875c0-178-32-268-121-338-173-140-372-217-564-217-249 0-454 217-454 485v2075H58v-102c307 0 396-96 396-391V770c0-507 308-834 775-834 237 0 486 102 659 275l275 275V-45l26-13c320 128 550 199 877 288z" transform="scale(.01563)"/><path id="NimbusRomNo9L-Regu-64" d="m2202-64 940 333v96h-147c-230 0-281 70-281 366v3633l-32 13c-308-109-532-173-941-281v-102c51 6 89 6 141 6 236 0 294-64 294-328V2669c-243 205-416 275-672 275-736 0-1331-723-1331-1632C173 493 653-64 1357-64c358 0 601 128 819 429V-45zm-26 717c0-45-45-122-109-192-115-128-275-192-461-192-531 0-883 512-883 1299 0 723 314 1197 800 1197 339 0 653-301 653-640z" transform="scale(.01563)"/><path id="NimbusRomNo9L-Regu-42" d="M109 4237v-141c537 0 614-70 614-548V689c0-477-83-561-614-561V0h2137c500 0 954 136 1191 356 230 208 358 499 358 809 0 286-115 545-313 732-192 175-365 253-781 356 333 82 467 145 621 278 160 140 256 372 256 632 0 708-570 1074-1677 1074zm1267-2125c621 0 915-32 1146-130 364-155 537-414 537-823 0-350-134-604-390-753-205-116-467-168-890-168-313 0-403 58-403 266zm0 256v1444c0 132 45 189 141 189h281c736 0 1127-302 1127-864 0-491-339-769-941-769z" transform="scale(.01563)"/></defs><use xlink:href="#NimbusRomNo9L-Regu-4d" transform="scale(.99626)"/><use xlink:href="#NimbusRomNo9L-Regu-61" transform="translate(88.567)scale(.99626)"/><use xlink:href="#NimbusRomNo9L-Regu-67" transform="translate(132.8)scale(.99626)"/><use xlink:href="#NimbusRomNo9L-Regu-6e" transform="translate(182.614)scale(.99626)"/><use xlink:href="#NimbusRomNo9L-Regu-69" transform="translate(232.427)scale(.99626)"/><use xlink:href="#NimbusRomNo9L-Regu-74" transform="translate(260.122)scale(.99626)"/><use xlink:href="#NimbusRomNo9L-Regu-75" transform="translate(287.817)scale(.99626)"/><use xlink:href="#NimbusRomNo9L-Regu-64" transform="translate(337.63)scale(.99626)"/><use xlink:href="#NimbusRomNo9L-Regu-65" transform="translate(387.444)scale(.99626)"/><use xlink:href="#NimbusRomNo9L-Regu-5b" transform="translate(456.584)scale(.99626)"/><use xlink:href="#NimbusRomNo9L-Regu-64" transform="translate(489.759)scale(.99626)"/><use xlink:href="#NimbusRomNo9L-Regu-42" transform="translate(539.572)scale(.99626)"/><use xlink:href="#NimbusRomNo9L-Regu-5d" transform="translate(606.022)scale(.99626)"/></g></g><path id="line2d_93" d="M44.116 44.287h154.785" clip-path="url(#pf31f0e1775)" style="fill:none;stroke:#000;stroke-linecap:square"/><path id="line2d_94" d="M44.116 44.413h154.785" clip-path="url(#pf31f0e1775)" style="fill:none;stroke-dasharray:3.7,1.6;stroke-dashoffset:0;stroke:red"/><path id="line2d_95" d="m44.116 163.242.778 1.038.778 7.739.778-4.398.777-8.24.778-4.869.778 4.017.778 2.111.778 20.087.778-25.754.777 8.868.778-4.909.778 6.332.778-10.326.778 12.62.777-2.18.778-10.078.778-.36.778 6.116.778 7.098.777 18.42.778-25.2 1.556-8.098.778 23.155 1.555-18.605.778-5.44.778 11.996.778-8.655.778 7.87.777-1.282.778-5.479.778 3.247.778-6.517.778 9.65.777-4.753.778-.716.778 8.454.778-5.19.778-8.584 1.555 9.146.778-5.017.778-1.494.778 1.753.778 3.429 1.555-3.737.778 3.277.778 2.636.778 1.833.777-4.526.778-2.297.778 9.25.778-10.778.778-1.399.777 4.95 2.334-1.497.778-4.464.778 11.433.777-4.24.778-5.052.778.167.778 6.004.778.176.777-3.296.778-4.227.778 7.767.778 13.056.778-19.362.777 1.542.778 3.323.778 1.603.778-4.383.778-.582.778 3.07.777-1.941.778 8.02.778-7.545.778-5.672.778 5.819.777 1.403.778-.925.778 3.853.778 1.698.778 10.51.777-13.077.778.239.778-7.165.778 7.764.778-6.136.778 10.78.777-12.965.778 5.453.778 2.906.778 7.957.778-5.797.777 6.278.778-1.166.778-1.41.778-8.641.778-5.595.777.58.778.044.778 8.743.778-4.099.778-5.758.778 10.727.777-3.835.778-2.949.778 5.184 1.556 5.404.777-9.437.778-5.911.778 5.225.778 4.405.778 5.555.777-15.036.778 1.69.778 3.768.778 11.716.778 4.745.778-18.086.777-4.693.778 5.033.778-4.37.778 15.91.778-11.655.777.036.778 7.694.778-1.997.778-7.412.778 3.756.777 1.087.778-6.464.778 3.327.778-.845.778 8.293.777-6.948.778-2.979.778 4.317.778 3.16.778-6.347.778 5.786.777-.299.778-4.448.778 3.2.778-8.007.778 8.286.777-5.924.778 6.999.778.106.778-2.423.778 1.2.777.098.778-4.512.778-3.274.778 8.565.778-3.87.778 3.486.777-7.458.778 13.032.778-13.53.778-1.178.778 6.033.777 11.351.778-4.158.778-7.796.778 4.8.778-8.437.777.555.778-.97.778 10.592.778-2.551.778-4.237.778 11.302.777-10.276.778-6.532.778 30.413.778-17.257.778-3.142.777-4.542.778 5.596.778-4.368.778 5.409.778-14.274.777 3.856.778 7.977.778-4.117.778 4.45.778-9.402.778 4.589.777-1.994.778 3.673.778 4.535.778-4.087" clip-path="url(#pf31f0e1775)" style="fill:none;stroke-dasharray:1,1.65;stroke-dashoffset:0;stroke:#00f"/><path id="patch_3" d="M36.377 184.882V37.599" style="fill:none;stroke:#000;stroke-width:.5;stroke-linejoin:miter;stroke-linecap:square"/><path id="patch_4" d="M206.64 184.882V37.599" style="fill:none;stroke:#000;stroke-width:.5;stroke-linejoin:miter;stroke-linecap:square"/><path id="patch_5" d="M36.377 184.882H206.64" style="fill:none;stroke:#000;stroke-width:.5;stroke-linejoin:miter;stroke-linecap:square"/><path id="patch_6" d="M36.377 37.6H206.64" style="fill:none;stroke:#000;stroke-width:.5;stroke-linejoin:miter;stroke-linecap:square"/><g id="text_14" transform="matrix(.096 0 0 -.096 96.04 31.6)"><defs><path id="NimbusRomNo9L-Regu-6f" d="M1600 2944c-832 0-1414-614-1414-1498C186 582 781-64 1587-64c807 0 1421 678 1421 1562 0 838-589 1446-1408 1446m-83-179c537 0 915-615 915-1491 0-724-288-1159-768-1159-250 0-486 154-621 410-179 333-281 781-281 1235 0 608 300 1005 755 1005" transform="scale(.01563)"/></defs><use xlink:href="#NimbusRomNo9L-Regu-54" transform="scale(.99626)"/><use xlink:href="#NimbusRomNo9L-Regu-69" transform="translate(57.385)scale(.99626)"/><use xlink:href="#NimbusRomNo9L-Regu-6d" transform="translate(85.08)scale(.99626)"/><use xlink:href="#NimbusRomNo9L-Regu-65" transform="translate(162.588)scale(.99626)"/><use xlink:href="#NimbusRomNo9L-Regu-64" transform="translate(231.729)scale(.99626)"/><use xlink:href="#NimbusRomNo9L-Regu-6f" transform="translate(281.542)scale(.99626)"/><use xlink:href="#NimbusRomNo9L-Regu-6d" transform="translate(331.355)scale(.99626)"/><use xlink:href="#NimbusRomNo9L-Regu-61" transform="translate(408.863)scale(.99626)"/><use xlink:href="#NimbusRomNo9L-Regu-69" transform="translate(453.097)scale(.99626)"/><use xlink:href="#NimbusRomNo9L-Regu-6e" transform="translate(480.792)scale(.99626)"/></g><g id="legend_1"><path id="line2d_96" d="M43.577 99.052h16" style="fill:none;stroke:#000;stroke-linecap:square"/><g id="text_15" transform="matrix(.08 0 0 -.08 65.977 101.852)"><defs><path id="NimbusRomNo9L-Regu-53" d="M2861 4352h-135c-25-147-96-217-204-217-64 0-173 25-282 77-237 89-474 140-678 140-276 0-557-108-768-294-224-199-340-468-340-802 0-513 282-871 999-1250 461-243 793-507 953-750 58-83 90-218 90-372 0-430-320-724-787-724-570 0-973 353-1293 1136H269L461-64h141c6 121 83 211 179 211 70 0 179-25 301-68 243-93 499-143 755-143 736 0 1305 506 1305 1165 0 525-352 941-1196 1395-672 372-941 653-941 999 0 352 269 595 665 595 288 0 557-122 781-352 199-205 288-371 391-749h160z" transform="scale(.01563)"/></defs><use xlink:href="#NimbusRomNo9L-Regu-53" transform="scale(.99626)"/><use xlink:href="#NimbusRomNo9L-Regu-32" transform="translate(55.392)scale(.99626)"/><use xlink:href="#NimbusRomNo9L-Regu-32" transform="translate(105.205)scale(.99626)"/></g><path id="line2d_97" d="M43.577 110.378h16" style="fill:none;stroke-dasharray:3.7,1.6;stroke-dashoffset:0;stroke:red"/><g id="text_16" transform="matrix(.08 0 0 -.08 65.977 113.178)"><defs><path id="NimbusRomNo9L-Regu-2c" d="M531-889c429 211 717 601 717 985 0 320-224 570-512 570-224 0-378-147-378-365C358 96 506-25 736-25c38 0 83 6 122 12 44 13 44 13 51 13 51 0 89-38 89-89 0-205-179-442-524-679z" transform="scale(.01563)"/></defs><use xlink:href="#NimbusRomNo9L-Regu-61" transform="scale(.99626)"/><use xlink:href="#NimbusRomNo9L-Regu-32" transform="translate(44.234)scale(.99626)"/><use xlink:href="#NimbusRomNo9L-Regu-2c" transform="translate(94.047)scale(.99626)"/><use xlink:href="#NimbusRomNo9L-Regu-32" transform="translate(118.953)scale(.99626)"/></g><path id="line2d_98" d="M43.577 121.703h16" style="fill:none;stroke-dasharray:1,1.65;stroke-dashoffset:0;stroke:#00f"/><g id="text_17" transform="matrix(.08 0 0 -.08 65.977 124.503)"><defs><path id="NimbusRomNo9L-Regu-62" d="m979 4364-32 13c-269-96-441-147-742-230l-186-51v-102c39 6 64 6 109 6 256 0 314-58 314-327V347c0-200 544-411 1056-411 844 0 1497 704 1497 1619 0 787-486 1389-1126 1389-391 0-762-230-890-544zm0-2303c0 249 301 480 634 480 499 0 819-499 819-1280 0-711-307-1120-832-1120-333 0-621 147-621 307z" transform="scale(.01563)"/></defs><use xlink:href="#NimbusRomNo9L-Regu-62" transform="scale(.99626)"/><use xlink:href="#NimbusRomNo9L-Regu-31" transform="translate(49.813)scale(.99626)"/><use xlink:href="#NimbusRomNo9L-Regu-2c" transform="translate(99.626)scale(.99626)"/><use xlink:href="#NimbusRomNo9L-Regu-32" transform="translate(124.533)scale(.99626)"/></g></g></g><g id="axes_2"><path id="patch_7" d="M248.057 184.882H418.32V37.599H248.057z" style="fill:none"/><g id="matplotlib.axis_3"><g id="xtick_22"><use xlink:href="#m926192cae2" id="line2d_99" x="271.664" y="184.882" style="stroke:#000;stroke-width:.5"/><use xlink:href="#m6fc4b09222" id="line2d_100" x="271.664" y="37.599" style="stroke:#000;stroke-width:.5"/><g id="text_18" transform="matrix(.08 0 0 -.08 262.59 193.785)"><use xlink:href="#CMSY10-0" transform="scale(.99626)"/><use xlink:href="#NimbusRomNo9L-Regu-32" transform="translate(77.409)scale(.99626)"/><use xlink:href="#NimbusRomNo9L-Regu-30" transform="translate(127.222)scale(.99626)"/><use xlink:href="#NimbusRomNo9L-Regu-30" transform="translate(177.035)scale(.99626)"/></g></g><g id="xtick_23"><use xlink:href="#m926192cae2" id="line2d_101" x="302.62" y="184.882" style="stroke:#000;stroke-width:.5"/><use xlink:href="#m6fc4b09222" id="line2d_102" x="302.62" y="37.599" style="stroke:#000;stroke-width:.5"/><g id="text_19" transform="matrix(.08 0 0 -.08 293.547 193.785)"><use xlink:href="#CMSY10-0" transform="scale(.99626)"/><use xlink:href="#NimbusRomNo9L-Regu-31" transform="translate(77.409)scale(.99626)"/><use xlink:href="#NimbusRomNo9L-Regu-30" transform="translate(127.222)scale(.99626)"/><use xlink:href="#NimbusRomNo9L-Regu-30" transform="translate(177.035)scale(.99626)"/></g></g><g id="xtick_24"><use xlink:href="#m926192cae2" id="line2d_103" x="333.577" y="184.882" style="stroke:#000;stroke-width:.5"/><use xlink:href="#m6fc4b09222" id="line2d_104" x="333.577" y="37.599" style="stroke:#000;stroke-width:.5"/><use xlink:href="#NimbusRomNo9L-Regu-30" id="text_20" transform="matrix(.0797 0 0 -.0797 331.585 193.785)"/></g><g id="xtick_25"><use xlink:href="#m926192cae2" id="line2d_105" x="364.534" y="184.882" style="stroke:#000;stroke-width:.5"/><use xlink:href="#m6fc4b09222" id="line2d_106" x="364.534" y="37.599" style="stroke:#000;stroke-width:.5"/><g id="text_21" transform="matrix(.08 0 0 -.08 358.557 193.785)"><use xlink:href="#NimbusRomNo9L-Regu-31" transform="scale(.99626)"/><use xlink:href="#NimbusRomNo9L-Regu-30" transform="translate(49.813)scale(.99626)"/><use xlink:href="#NimbusRomNo9L-Regu-30" transform="translate(99.626)scale(.99626)"/></g></g><g id="xtick_26"><use xlink:href="#m926192cae2" id="line2d_107" x="395.491" y="184.882" style="stroke:#000;stroke-width:.5"/><use xlink:href="#m6fc4b09222" id="line2d_108" x="395.491" y="37.599" style="stroke:#000;stroke-width:.5"/><g id="text_22" transform="matrix(.08 0 0 -.08 389.514 193.785)"><use xlink:href="#NimbusRomNo9L-Regu-32" transform="scale(.99626)"/><use xlink:href="#NimbusRomNo9L-Regu-30" transform="translate(49.813)scale(.99626)"/><use xlink:href="#NimbusRomNo9L-Regu-30" transform="translate(99.626)scale(.99626)"/></g></g><g id="xtick_27"><use xlink:href="#md806c7cef0" id="line2d_109" x="253.089" y="184.882" style="stroke:#000;stroke-width:.5"/><use xlink:href="#m996bc46233" id="line2d_110" x="253.089" y="37.599" style="stroke:#000;stroke-width:.5"/></g><g id="xtick_28"><use xlink:href="#md806c7cef0" id="line2d_111" x="259.281" y="184.882" style="stroke:#000;stroke-width:.5"/><use xlink:href="#m996bc46233" id="line2d_112" x="259.281" y="37.599" style="stroke:#000;stroke-width:.5"/></g><g id="xtick_29"><use xlink:href="#md806c7cef0" id="line2d_113" x="265.472" y="184.882" style="stroke:#000;stroke-width:.5"/><use xlink:href="#m996bc46233" id="line2d_114" x="265.472" y="37.599" style="stroke:#000;stroke-width:.5"/></g><g id="xtick_30"><use xlink:href="#md806c7cef0" id="line2d_115" x="277.855" y="184.882" style="stroke:#000;stroke-width:.5"/><use xlink:href="#m996bc46233" id="line2d_116" x="277.855" y="37.599" style="stroke:#000;stroke-width:.5"/></g><g id="xtick_31"><use xlink:href="#md806c7cef0" id="line2d_117" x="284.046" y="184.882" style="stroke:#000;stroke-width:.5"/><use xlink:href="#m996bc46233" id="line2d_118" x="284.046" y="37.599" style="stroke:#000;stroke-width:.5"/></g><g id="xtick_32"><use xlink:href="#md806c7cef0" id="line2d_119" x="290.238" y="184.882" style="stroke:#000;stroke-width:.5"/><use xlink:href="#m996bc46233" id="line2d_120" x="290.238" y="37.599" style="stroke:#000;stroke-width:.5"/></g><g id="xtick_33"><use xlink:href="#md806c7cef0" id="line2d_121" x="296.429" y="184.882" style="stroke:#000;stroke-width:.5"/><use xlink:href="#m996bc46233" id="line2d_122" x="296.429" y="37.599" style="stroke:#000;stroke-width:.5"/></g><g id="xtick_34"><use xlink:href="#md806c7cef0" id="line2d_123" x="308.812" y="184.882" style="stroke:#000;stroke-width:.5"/><use xlink:href="#m996bc46233" id="line2d_124" x="308.812" y="37.599" style="stroke:#000;stroke-width:.5"/></g><g id="xtick_35"><use xlink:href="#md806c7cef0" id="line2d_125" x="315.003" y="184.882" style="stroke:#000;stroke-width:.5"/><use xlink:href="#m996bc46233" id="line2d_126" x="315.003" y="37.599" style="stroke:#000;stroke-width:.5"/></g><g id="xtick_36"><use xlink:href="#md806c7cef0" id="line2d_127" x="321.195" y="184.882" style="stroke:#000;stroke-width:.5"/><use xlink:href="#m996bc46233" id="line2d_128" x="321.195" y="37.599" style="stroke:#000;stroke-width:.5"/></g><g id="xtick_37"><use xlink:href="#md806c7cef0" id="line2d_129" x="327.386" y="184.882" style="stroke:#000;stroke-width:.5"/><use xlink:href="#m996bc46233" id="line2d_130" x="327.386" y="37.599" style="stroke:#000;stroke-width:.5"/></g><g id="xtick_38"><use xlink:href="#md806c7cef0" id="line2d_131" x="339.769" y="184.882" style="stroke:#000;stroke-width:.5"/><use xlink:href="#m996bc46233" id="line2d_132" x="339.769" y="37.599" style="stroke:#000;stroke-width:.5"/></g><g id="xtick_39"><use xlink:href="#md806c7cef0" id="line2d_133" x="345.96" y="184.882" style="stroke:#000;stroke-width:.5"/><use xlink:href="#m996bc46233" id="line2d_134" x="345.96" y="37.599" style="stroke:#000;stroke-width:.5"/></g><g id="xtick_40"><use xlink:href="#md806c7cef0" id="line2d_135" x="352.152" y="184.882" style="stroke:#000;stroke-width:.5"/><use xlink:href="#m996bc46233" id="line2d_136" x="352.152" y="37.599" style="stroke:#000;stroke-width:.5"/></g><g id="xtick_41"><use xlink:href="#md806c7cef0" id="line2d_137" x="358.343" y="184.882" style="stroke:#000;stroke-width:.5"/><use xlink:href="#m996bc46233" id="line2d_138" x="358.343" y="37.599" style="stroke:#000;stroke-width:.5"/></g><g id="xtick_42"><use xlink:href="#md806c7cef0" id="line2d_139" x="370.726" y="184.882" style="stroke:#000;stroke-width:.5"/><use xlink:href="#m996bc46233" id="line2d_140" x="370.726" y="37.599" style="stroke:#000;stroke-width:.5"/></g><g id="xtick_43"><use xlink:href="#md806c7cef0" id="line2d_141" x="376.917" y="184.882" style="stroke:#000;stroke-width:.5"/><use xlink:href="#m996bc46233" id="line2d_142" x="376.917" y="37.599" style="stroke:#000;stroke-width:.5"/></g><g id="xtick_44"><use xlink:href="#md806c7cef0" id="line2d_143" x="383.108" y="184.882" style="stroke:#000;stroke-width:.5"/><use xlink:href="#m996bc46233" id="line2d_144" x="383.108" y="37.599" style="stroke:#000;stroke-width:.5"/></g><g id="xtick_45"><use xlink:href="#md806c7cef0" id="line2d_145" x="389.3" y="184.882" style="stroke:#000;stroke-width:.5"/><use xlink:href="#m996bc46233" id="line2d_146" x="389.3" y="37.599" style="stroke:#000;stroke-width:.5"/></g><g id="xtick_46"><use xlink:href="#md806c7cef0" id="line2d_147" x="401.683" y="184.882" style="stroke:#000;stroke-width:.5"/><use xlink:href="#m996bc46233" id="line2d_148" x="401.683" y="37.599" style="stroke:#000;stroke-width:.5"/></g><g id="xtick_47"><use xlink:href="#md806c7cef0" id="line2d_149" x="407.874" y="184.882" style="stroke:#000;stroke-width:.5"/><use xlink:href="#m996bc46233" id="line2d_150" x="407.874" y="37.599" style="stroke:#000;stroke-width:.5"/></g><g id="xtick_48"><use xlink:href="#md806c7cef0" id="line2d_151" x="414.065" y="184.882" style="stroke:#000;stroke-width:.5"/><use xlink:href="#m996bc46233" id="line2d_152" x="414.065" y="37.599" style="stroke:#000;stroke-width:.5"/></g><g id="text_23" transform="matrix(.08 0 0 -.08 308.13 204.915)"><defs><path id="NimbusRomNo9L-Regu-46" d="M3066 1472v1485h-148c-76-496-192-589-704-589h-928v1398c0 177 32 215 205 215h871c723 0 864-95 972-667h160l-19 910H77v-122c473-38 557-128 557-577V749c0-532-71-615-557-615V0h1792v134c-493 0-583 91-583 558v1414h928c519 0 628-99 704-634z" transform="scale(.01563)"/><path id="NimbusRomNo9L-Regu-72" d="M45 2496c89 19 147 26 224 26 160 0 217-103 217-384V538c0-320-44-365-454-442V0h1536v102c-435 0-544 97-544 463v1448c0 206 275 528 448 528 38 0 96-32 166-96 103-90 173-128 256-128 154 0 250 109 250 288 0 211-134 339-352 339-269 0-454-147-768-601v588l-32 13c-339-141-570-223-947-345z" transform="scale(.01563)"/><path id="NimbusRomNo9L-Regu-71" d="M2304 2701c-294 173-486 230-736 230-800 0-1414-713-1414-1631C154 498 576-70 1178-70c371 0 723 166 1004 473V-824c0-364-115-462-569-462v-122h1510v90c-352 77-403 128-403 397v3827h-70zM2182 804c0-153-25-235-89-286-141-121-352-198-551-198-198 0-371 64-499 191-205 185-339 599-339 1019 0 752 339 1222 883 1222 397 0 595-210 595-637z" transform="scale(.01563)"/><path id="NimbusRomNo9L-Regu-63" d="M2547 998c-307-448-537-601-902-601-583 0-992 512-992 1248 0 659 352 1113 870 1113 231 0 314-70 378-307l38-141c51-179 167-294 301-294 166 0 307 122 307 269 0 358-448 659-985 659-314 0-640-128-903-358-320-282-499-717-499-1223C160 531 666-64 1376-64c288 0 544 102 774 301 173 153 295 326 487 704z" transform="scale(.01563)"/><path id="NimbusRomNo9L-Regu-79" d="M3040 2880h-864v-96c205 0 307-58 307-161 0-26-6-64-25-109L1837 742l-736 1635c-39 91-64 175-64 245 0 117 96 162 371 162v96H90v-90c166-25 275-96 326-205l730-1580 19-52 96-192c179-321 281-552 281-649 0-96-147-501-256-694-89-167-230-289-320-289-38 0-96 13-160 45-121 45-230 71-339 71-147 0-275-128-275-282 0-211 205-371 474-371 428 0 736 359 1081 1284l986 2619c83 206 153 270 307 289z" transform="scale(.01563)"/><path id="NimbusRomNo9L-Regu-48" d="M1338 2304v1229c0 457 70 526 563 571v120H122v-120c492-45 563-115 563-577V749c0-539-64-615-563-615V0h1779v121c-480 38-563 121-563 578v1323h1939V757c0-546-64-623-563-623V0h1779v121c-480 38-563 121-563 575v2833c0 460 70 530 563 575v120H2714v-120c492-45 563-114 563-571V2304z" transform="scale(.01563)"/><path id="NimbusRomNo9L-Regu-7a" d="m2675 864-115 26c-64-320-102-423-186-532-89-108-307-166-633-166H858l1721 2592v96H358l-19-755h115c58 467 154 563 538 563h883L173 96V0h2413z" transform="scale(.01563)"/></defs><use xlink:href="#NimbusRomNo9L-Regu-46" transform="scale(.99626)"/><use xlink:href="#NimbusRomNo9L-Regu-72" transform="translate(55.392)scale(.99626)"/><use xlink:href="#NimbusRomNo9L-Regu-65" transform="translate(88.567)scale(.99626)"/><use xlink:href="#NimbusRomNo9L-Regu-71" transform="translate(132.8)scale(.99626)"/><use xlink:href="#NimbusRomNo9L-Regu-75" transform="translate(182.614)scale(.99626)"/><use xlink:href="#NimbusRomNo9L-Regu-65" transform="translate(232.427)scale(.99626)"/><use xlink:href="#NimbusRomNo9L-Regu-6e" transform="translate(276.66)scale(.99626)"/><use xlink:href="#NimbusRomNo9L-Regu-63" transform="translate(326.474)scale(.99626)"/><use xlink:href="#NimbusRomNo9L-Regu-79" transform="translate(369.214)scale(.99626)"/><use xlink:href="#NimbusRomNo9L-Regu-5b" transform="translate(443.934)scale(.99626)"/><use xlink:href="#NimbusRomNo9L-Regu-48" transform="translate(477.109)scale(.99626)"/><use xlink:href="#NimbusRomNo9L-Regu-7a" transform="translate(549.039)scale(.99626)"/><use xlink:href="#NimbusRomNo9L-Regu-5d" transform="translate(593.272)scale(.99626)"/></g></g><g id="matplotlib.axis_4"><g id="ytick_26"><use xlink:href="#m7aa9cac7e3" id="line2d_153" x="248.057" y="184.882" style="stroke:#000;stroke-width:.5"/><use xlink:href="#mb852ef2789" id="line2d_154" x="418.32" y="184.882" style="stroke:#000;stroke-width:.5"/><g id="text_24" transform="matrix(.08 0 0 -.08 226.41 187.584)"><use xlink:href="#CMSY10-0" transform="scale(.99626)"/><use xlink:href="#NimbusRomNo9L-Regu-31" transform="translate(77.409)scale(.99626)"/><use xlink:href="#NimbusRomNo9L-Regu-30" transform="translate(127.222)scale(.99626)"/><use xlink:href="#NimbusRomNo9L-Regu-30" transform="translate(177.035)scale(.99626)"/></g></g><g id="ytick_27"><use xlink:href="#m7aa9cac7e3" id="line2d_155" x="248.057" y="165.244" style="stroke:#000;stroke-width:.5"/><use xlink:href="#mb852ef2789" id="line2d_156" x="418.32" y="165.244" style="stroke:#000;stroke-width:.5"/><g id="text_25" transform="matrix(.08 0 0 -.08 230.394 167.946)"><use xlink:href="#CMSY10-0" transform="scale(.99626)"/><use xlink:href="#NimbusRomNo9L-Regu-38" transform="translate(77.409)scale(.99626)"/><use xlink:href="#NimbusRomNo9L-Regu-30" transform="translate(127.222)scale(.99626)"/></g></g><g id="ytick_28"><use xlink:href="#m7aa9cac7e3" id="line2d_157" x="248.057" y="145.606" style="stroke:#000;stroke-width:.5"/><use xlink:href="#mb852ef2789" id="line2d_158" x="418.32" y="145.606" style="stroke:#000;stroke-width:.5"/><g id="text_26" transform="matrix(.08 0 0 -.08 230.394 148.308)"><use xlink:href="#CMSY10-0" transform="scale(.99626)"/><use xlink:href="#NimbusRomNo9L-Regu-36" transform="translate(77.409)scale(.99626)"/><use xlink:href="#NimbusRomNo9L-Regu-30" transform="translate(127.222)scale(.99626)"/></g></g><g id="ytick_29"><use xlink:href="#m7aa9cac7e3" id="line2d_159" x="248.057" y="125.969" style="stroke:#000;stroke-width:.5"/><use xlink:href="#mb852ef2789" id="line2d_160" x="418.32" y="125.969" style="stroke:#000;stroke-width:.5"/><g id="text_27" transform="matrix(.08 0 0 -.08 230.394 128.67)"><use xlink:href="#CMSY10-0" transform="scale(.99626)"/><use xlink:href="#NimbusRomNo9L-Regu-34" transform="translate(77.409)scale(.99626)"/><use xlink:href="#NimbusRomNo9L-Regu-30" transform="translate(127.222)scale(.99626)"/></g></g><g id="ytick_30"><use xlink:href="#m7aa9cac7e3" id="line2d_161" x="248.057" y="106.331" style="stroke:#000;stroke-width:.5"/><use xlink:href="#mb852ef2789" id="line2d_162" x="418.32" y="106.331" style="stroke:#000;stroke-width:.5"/><g id="text_28" transform="matrix(.08 0 0 -.08 230.394 109.033)"><use xlink:href="#CMSY10-0" transform="scale(.99626)"/><use xlink:href="#NimbusRomNo9L-Regu-32" transform="translate(77.409)scale(.99626)"/><use xlink:href="#NimbusRomNo9L-Regu-30" transform="translate(127.222)scale(.99626)"/></g></g><g id="ytick_31"><use xlink:href="#m7aa9cac7e3" id="line2d_163" x="248.057" y="86.693" style="stroke:#000;stroke-width:.5"/><use xlink:href="#mb852ef2789" id="line2d_164" x="418.32" y="86.693" style="stroke:#000;stroke-width:.5"/><use xlink:href="#NimbusRomNo9L-Regu-30" id="text_29" transform="matrix(.0797 0 0 -.0797 240.572 89.395)"/></g><g id="ytick_32"><use xlink:href="#m7aa9cac7e3" id="line2d_165" x="248.057" y="67.056" style="stroke:#000;stroke-width:.5"/><use xlink:href="#mb852ef2789" id="line2d_166" x="418.32" y="67.056" style="stroke:#000;stroke-width:.5"/><g id="text_30" transform="matrix(.08 0 0 -.08 236.587 69.758)"><use xlink:href="#NimbusRomNo9L-Regu-32" transform="scale(.99626)"/><use xlink:href="#NimbusRomNo9L-Regu-30" transform="translate(49.813)scale(.99626)"/></g></g><g id="ytick_33"><use xlink:href="#m7aa9cac7e3" id="line2d_167" x="248.057" y="47.418" style="stroke:#000;stroke-width:.5"/><use xlink:href="#mb852ef2789" id="line2d_168" x="418.32" y="47.418" style="stroke:#000;stroke-width:.5"/><g id="text_31" transform="matrix(.08 0 0 -.08 236.587 50.12)"><use xlink:href="#NimbusRomNo9L-Regu-34" transform="scale(.99626)"/><use xlink:href="#NimbusRomNo9L-Regu-30" transform="translate(49.813)scale(.99626)"/></g></g><g id="ytick_34"><use xlink:href="#m8e2cd7fcd7" id="line2d_169" x="248.057" y="179.972" style="stroke:#000;stroke-width:.5"/><use xlink:href="#me6aba7fbdf" id="line2d_170" x="418.32" y="179.972" style="stroke:#000;stroke-width:.5"/></g><g id="ytick_35"><use xlink:href="#m8e2cd7fcd7" id="line2d_171" x="248.057" y="175.063" style="stroke:#000;stroke-width:.5"/><use xlink:href="#me6aba7fbdf" id="line2d_172" x="418.32" y="175.063" style="stroke:#000;stroke-width:.5"/></g><g id="ytick_36"><use xlink:href="#m8e2cd7fcd7" id="line2d_173" x="248.057" y="170.154" style="stroke:#000;stroke-width:.5"/><use xlink:href="#me6aba7fbdf" id="line2d_174" x="418.32" y="170.154" style="stroke:#000;stroke-width:.5"/></g><g id="ytick_37"><use xlink:href="#m8e2cd7fcd7" id="line2d_175" x="248.057" y="160.335" style="stroke:#000;stroke-width:.5"/><use xlink:href="#me6aba7fbdf" id="line2d_176" x="418.32" y="160.335" style="stroke:#000;stroke-width:.5"/></g><g id="ytick_38"><use xlink:href="#m8e2cd7fcd7" id="line2d_177" x="248.057" y="155.425" style="stroke:#000;stroke-width:.5"/><use xlink:href="#me6aba7fbdf" id="line2d_178" x="418.32" y="155.425" style="stroke:#000;stroke-width:.5"/></g><g id="ytick_39"><use xlink:href="#m8e2cd7fcd7" id="line2d_179" x="248.057" y="150.516" style="stroke:#000;stroke-width:.5"/><use xlink:href="#me6aba7fbdf" id="line2d_180" x="418.32" y="150.516" style="stroke:#000;stroke-width:.5"/></g><g id="ytick_40"><use xlink:href="#m8e2cd7fcd7" id="line2d_181" x="248.057" y="140.697" style="stroke:#000;stroke-width:.5"/><use xlink:href="#me6aba7fbdf" id="line2d_182" x="418.32" y="140.697" style="stroke:#000;stroke-width:.5"/></g><g id="ytick_41"><use xlink:href="#m8e2cd7fcd7" id="line2d_183" x="248.057" y="135.788" style="stroke:#000;stroke-width:.5"/><use xlink:href="#me6aba7fbdf" id="line2d_184" x="418.32" y="135.788" style="stroke:#000;stroke-width:.5"/></g><g id="ytick_42"><use xlink:href="#m8e2cd7fcd7" id="line2d_185" x="248.057" y="130.878" style="stroke:#000;stroke-width:.5"/><use xlink:href="#me6aba7fbdf" id="line2d_186" x="418.32" y="130.878" style="stroke:#000;stroke-width:.5"/></g><g id="ytick_43"><use xlink:href="#m8e2cd7fcd7" id="line2d_187" x="248.057" y="121.059" style="stroke:#000;stroke-width:.5"/><use xlink:href="#me6aba7fbdf" id="line2d_188" x="418.32" y="121.059" style="stroke:#000;stroke-width:.5"/></g><g id="ytick_44"><use xlink:href="#m8e2cd7fcd7" id="line2d_189" x="248.057" y="116.15" style="stroke:#000;stroke-width:.5"/><use xlink:href="#me6aba7fbdf" id="line2d_190" x="418.32" y="116.15" style="stroke:#000;stroke-width:.5"/></g><g id="ytick_45"><use xlink:href="#m8e2cd7fcd7" id="line2d_191" x="248.057" y="111.241" style="stroke:#000;stroke-width:.5"/><use xlink:href="#me6aba7fbdf" id="line2d_192" x="418.32" y="111.241" style="stroke:#000;stroke-width:.5"/></g><g id="ytick_46"><use xlink:href="#m8e2cd7fcd7" id="line2d_193" x="248.057" y="101.422" style="stroke:#000;stroke-width:.5"/><use xlink:href="#me6aba7fbdf" id="line2d_194" x="418.32" y="101.422" style="stroke:#000;stroke-width:.5"/></g><g id="ytick_47"><use xlink:href="#m8e2cd7fcd7" id="line2d_195" x="248.057" y="96.512" style="stroke:#000;stroke-width:.5"/><use xlink:href="#me6aba7fbdf" id="line2d_196" x="418.32" y="96.512" style="stroke:#000;stroke-width:.5"/></g><g id="ytick_48"><use xlink:href="#m8e2cd7fcd7" id="line2d_197" x="248.057" y="91.603" style="stroke:#000;stroke-width:.5"/><use xlink:href="#me6aba7fbdf" id="line2d_198" x="418.32" y="91.603" style="stroke:#000;stroke-width:.5"/></g><g id="ytick_49"><use xlink:href="#m8e2cd7fcd7" id="line2d_199" x="248.057" y="81.784" style="stroke:#000;stroke-width:.5"/><use xlink:href="#me6aba7fbdf" id="line2d_200" x="418.32" y="81.784" style="stroke:#000;stroke-width:.5"/></g><g id="ytick_50"><use xlink:href="#m8e2cd7fcd7" id="line2d_201" x="248.057" y="76.875" style="stroke:#000;stroke-width:.5"/><use xlink:href="#me6aba7fbdf" id="line2d_202" x="418.32" y="76.875" style="stroke:#000;stroke-width:.5"/></g><g id="ytick_51"><use xlink:href="#m8e2cd7fcd7" id="line2d_203" x="248.057" y="71.965" style="stroke:#000;stroke-width:.5"/><use xlink:href="#me6aba7fbdf" id="line2d_204" x="418.32" y="71.965" style="stroke:#000;stroke-width:.5"/></g><g id="ytick_52"><use xlink:href="#m8e2cd7fcd7" id="line2d_205" x="248.057" y="62.146" style="stroke:#000;stroke-width:.5"/><use xlink:href="#me6aba7fbdf" id="line2d_206" x="418.32" y="62.146" style="stroke:#000;stroke-width:.5"/></g><g id="ytick_53"><use xlink:href="#m8e2cd7fcd7" id="line2d_207" x="248.057" y="57.237" style="stroke:#000;stroke-width:.5"/><use xlink:href="#me6aba7fbdf" id="line2d_208" x="418.32" y="57.237" style="stroke:#000;stroke-width:.5"/></g><g id="ytick_54"><use xlink:href="#m8e2cd7fcd7" id="line2d_209" x="248.057" y="52.328" style="stroke:#000;stroke-width:.5"/><use xlink:href="#me6aba7fbdf" id="line2d_210" x="418.32" y="52.328" style="stroke:#000;stroke-width:.5"/></g><g id="ytick_55"><use xlink:href="#m8e2cd7fcd7" id="line2d_211" x="248.057" y="42.509" style="stroke:#000;stroke-width:.5"/><use xlink:href="#me6aba7fbdf" id="line2d_212" x="418.32" y="42.509" style="stroke:#000;stroke-width:.5"/></g><g id="ytick_56"><use xlink:href="#m8e2cd7fcd7" id="line2d_213" x="248.057" y="37.599" style="stroke:#000;stroke-width:.5"/><use xlink:href="#me6aba7fbdf" id="line2d_214" x="418.32" y="37.599" style="stroke:#000;stroke-width:.5"/></g><g id="text_32" transform="matrix(0 -.08 -.08 0 220.684 136.808)"><use xlink:href="#NimbusRomNo9L-Regu-4d" transform="scale(.99626)"/><use xlink:href="#NimbusRomNo9L-Regu-61" transform="translate(88.567)scale(.99626)"/><use xlink:href="#NimbusRomNo9L-Regu-67" transform="translate(132.8)scale(.99626)"/><use xlink:href="#NimbusRomNo9L-Regu-6e" transform="translate(182.614)scale(.99626)"/><use xlink:href="#NimbusRomNo9L-Regu-69" transform="translate(232.427)scale(.99626)"/><use xlink:href="#NimbusRomNo9L-Regu-74" transform="translate(260.122)scale(.99626)"/><use xlink:href="#NimbusRomNo9L-Regu-75" transform="translate(287.817)scale(.99626)"/><use xlink:href="#NimbusRomNo9L-Regu-64" transform="translate(337.63)scale(.99626)"/><use xlink:href="#NimbusRomNo9L-Regu-65" transform="translate(387.444)scale(.99626)"/><use xlink:href="#NimbusRomNo9L-Regu-5b" transform="translate(456.584)scale(.99626)"/><use xlink:href="#NimbusRomNo9L-Regu-64" transform="translate(489.759)scale(.99626)"/><use xlink:href="#NimbusRomNo9L-Regu-42" transform="translate(539.572)scale(.99626)"/><use xlink:href="#NimbusRomNo9L-Regu-5d" transform="translate(606.022)scale(.99626)"/></g></g><path id="line2d_215" d="m255.796 124.053.778.682.778-10.127.778 12.88.777-4.809.778.99 1.556-5.143.778.84.778 12.846.777 4.585.778-8.687.778-5.462.778-4.539.778 4.637.777 14.993.778-9.13.778-5.213.778 4.225.778-10.71.777 4.961.778-.82.778 3.989.778 13.92.778-13.68.778-7.499.777.364.778 3.006.778-1.299.778-3.159.778 3.539.777 1.937.778 4.338.778-4.286.778 11.964.778-13.143.777 9.376.778-9.379.778 2.09.778-2.935.778 10.276.777-10.52.778-1.412.778-3.778.778 12.27.778-.76.778 19.84.777-24.02.778-5.664.778 6.209.778 5.244.778-7.297.777-1.046.778 8.633.778-3.973.778 5.488.778-7.694.777 4.151.778-10.093.778 1.792 1.556 9.904.778 12.828.777-7.678.778-10.291.778-1.626.778 2.202.778 3.366.777-7.129.778 6.06.778-11 .778 12.495.778 2.05.777-9.96.778 6.829.778 10.194.778-13.233.778-3.21.778 1.093.777 7.272.778-5.743.778 4.957.778 3.933.778-1.175.777-2.853.778-4.259.778.478.778-5.386.778.13.777 6.8.778-.21.778-2.963.778-3.96.778 6.023.778 8.842.777-9.952.778-2.223.778-.315.778-1.504.778.86.777-77.54.778 77.788.778-.742.778 1.476.778.36.777 1.819.778 11.149.778-9.816.778-6.398.778 4.08.778 3.232.777-.162.778-6.896.778.125.778 5.787.778-.752.777 4.425.778 2.877.778 2.2.778-5.813.778-4.251.777 6.56.778-8.145.778-1.517.778 4.084.778 13.99.778-11.64.777-7.087.778 11.068.778-2.946.778-12.415.778 11.331.777-6.013.778 6.455.778-3.235.778-2.05.778 2 .777 11.766.778 8.29.778-15.553 1.556-9.856.777-1.623.778 9.627.778-3.386.778 8.327.778-6.694.778 4.471.777-8.431.778.622.778 7.486 1.556-11.4.777 5.956.778 20.87.778-17.933.778 1.492.778-12.155.777 4.083.778 1.55.778 9.244.778-9.322.778 2.724.778-1.866.777 9.03.778-8.926.778 14.587.778-13.205.778 4.023.777-4.542.778-2.04.778-3.28.778 2.966.778 1.301.777-3.064.778-.198.778 7.624.778 13.276.778-13.415.778-4.246.777.752.778-4.973.778 11.286.778-4.388.778 3.96.777 8.685.778-13.473.778-4.594.778 3.958.778 5.427.777 8.35.778-4.188.778-12.538.778-.665 1.556 4.719.777-.642.778 4.852.778-13.017.778 9.876h0" clip-path="url(#pe49a1bc753)" style="fill:none;stroke:#000;stroke-linecap:square"/><path id="line2d_216" d="m255.796 87.69.778-.647.778 3.242.778-4.943.777.488.778-.847.778-.317.778 2.258.778-2.899.778 4.023.777-.482.778-1.057.778-2.134.778 2.872.778-.062.777-.204.778 1.674.778.871.778-1.142.778-1.839.777-.007.778-.615.778-2.88.778 2.42.778.916.778 1.982.777.702.778-4.86.778 3.964.778.503.778-.497.777 1.897.778.514.778-7.94.778.35.778 5.743.777-2.852.778 2.848.778-6.382.778 3.508.778.826.777-.78.778-2.01.778.808.778 2.447.778-2.555.778 1.041.777-1.51.778.865.778-.74.778.821.778-2.398.777 1.459.778-.12.778 1.362.778-4.473.778 2.769.777-1.625 1.556-.47.778.468.778.766.778 4.527.777-5.602.778.032.778 4.112.778-5.21.778 2.363.777-1.884.778-1.46.778.211.778 1.21.778-.864.777.522 1.556-2.679.778 1.209.778.48.778-1.377.777-.773.778-.128.778.845.778-1.452.778-.112.777-1.097.778.187.778-.123.778-1.567.778-1.063.777-.502.778-.961.778-1.242.778.11.778-.958 1.555-3.85.778-.025 1.556-6.804.778-3.982.777-9.698.778 1.493.778 9.098.778 4.864.778 2.146.777 1.09.778 3.325.778.955.778.343.778 1.214.778 1.807.777.693.778.45.778.97.778.452.778-.319.777.426.778 1.64.778-.448.778 1.057.778-.536.777 1.467.778.79.778-.147.778-1.092.778 1.446.778 2.197 1.555-1.482.778.985.778-.336.778 1.499.777 1.232.778-2.135.778-.186.778 2.627.778-3.603.777 2.342.778 1.22.778-3.576.778 2.722 1.555 2.188.778.423.778.23.778-1.52.778 4.85.778-5.412.777 1.295.778.154.778 1.996.778-2.403.778 1.19.777-.829.778 1.782.778-1.547.778 1.223.778-1.963.777 1.287.778 2.401.778-2.13.778-1.43.778 1.233.778 4.154.777-5.334.778 1.97.778-2.788.778 7.31.778-.326.777-5.88.778-.169.778.817.778-.42.778.115.777 5.042.778-4.779.778.136.778.788.778 2.06.778 5.592.777-5.076 1.556-1.282 1.556-1.658.777.074.778-.11.778 1.621.778-.379.778 3.728.777-2.898.778-1.389.778.322.778 3.671.778-5.116.778 5.896.777.118.778-2.08.778.497.778-3.603" clip-path="url(#pe49a1bc753)" style="fill:none;stroke-dasharray:3.7,1.6;stroke-dashoffset:0;stroke:red"/><path id="line2d_217" d="m255.796 157 .778 16.745.778-9.418.778-7.031.777.657.778 6.224.778-4.418.778-5.82.778-.816.778 6.981 1.555-4.4.778-3.161 1.556 5.673.777-8.127.778 4.556.778.194.778 2.386.778 5.78.777 17.094.778-16.32.778 3.024.778-15.045.778 5.106.778 8.072.777-6.897.778 11.878.778-17.013.778 6.91.778-6.639.777 2.774.778 2.051.778 7.641.778-7.577 1.555-9.07.778 15.136.778-12.91.778 4.548.778-.875.777 4.853.778-9.237.778 4.865.778 10.256.778-11.937.778 7.639.777-2.54.778 2.114.778-6.588.778 6.171.778-6.645.777.724 1.556 3.612.778-.91.778 2.232.777 6.028.778-10.593.778-1.358.778 7.143.778-10.061.778 6.041.777.5.778 2.601.778-5.936 1.556 5.385.777 4.581.778-11.108.778-.497.778.994.778 4.063.777 13.868.778-16.933.778 25.996.778-17.337.778-8.337.778-.35.777 2.638.778-5.64 1.556 5.355.778 3.443.777 1.621.778-2.18.778 2.215.778-6.777.778 3.6.777 4.976.778-9.507.778 4.831.778-1.365.778 13.949.778-19.056.777 6.367.778-4.06.778 3.897.778-4.748.778 3.263.777-.815.778-1.866.778.29.778.46 1.555 14.37.778-11.47.778 6.75.778-7.958.778-1.07.778 1.26.777.198.778-4.026.778 6.726.778.386.778-.112.777-8.324.778-1.36.778 11.192.778-6.726.778.022.777 10.052.778-1.398.778-.676.778-5.423.778-3.343.778 2.213.777-5.445.778.443.778 8.895.778-1.587.778-2.156.777 7.193.778-11.139.778-1.23.778 13.499.778 4.234.777-8.83.778 6.552.778-12.281 1.556 11.119.777-12.099.778-2.132.778 2.018.778 5.527.778 2.871.778-4.592.777-7.809.778 7.232.778 1.325.778-4.683.778 21 .777-20.449.778 9.625.778-7.573.778-4.351.778 9.358.777-1.564.778.91.778-2.007.778 2.024.778-1.149.778-8.112.777 18.559.778-17.399.778.547.778 9.182.778-5.122.777-2.624.778-.953 1.556 7.073.778 6.766.777-6.648.778-4.346.778 3.879.778-3 .778 24.309.778-14.326.777-3.904.778-8.203.778 3.222.778-3.176.778-.339.777 11.362.778-4.373.778 2.897.778 10.7.778-18.462.777 7.758.778-1.95.778 9.352.778-10.224.778-12.66.778 3.206.777-.18.778 4.997.778 3.337.778.864" clip-path="url(#pe49a1bc753)" style="fill:none;stroke-dasharray:1,1.65;stroke-dashoffset:0;stroke:#00f"/><path id="patch_8" d="M248.057 184.882V37.599" style="fill:none;stroke:#000;stroke-width:.5;stroke-linejoin:miter;stroke-linecap:square"/><path id="patch_9" d="M418.32 184.882V37.599" style="fill:none;stroke:#000;stroke-width:.5;stroke-linejoin:miter;stroke-linecap:square"/><path id="patch_10" d="M248.057 184.882H418.32" style="fill:none;stroke:#000;stroke-width:.5;stroke-linejoin:miter;stroke-linecap:square"/><path id="patch_11" d="M248.057 37.6H418.32" style="fill:none;stroke:#000;stroke-width:.5;stroke-linejoin:miter;stroke-linecap:square"/><g id="text_33" transform="matrix(.096 0 0 -.096 297.534 31.6)"><use xlink:href="#NimbusRomNo9L-Regu-46" transform="scale(.99626)"/><use xlink:href="#NimbusRomNo9L-Regu-72" transform="translate(55.392)scale(.99626)"/><use xlink:href="#NimbusRomNo9L-Regu-65" transform="translate(88.567)scale(.99626)"/><use xlink:href="#NimbusRomNo9L-Regu-71" transform="translate(132.8)scale(.99626)"/><use xlink:href="#NimbusRomNo9L-Regu-75" transform="translate(182.614)scale(.99626)"/><use xlink:href="#NimbusRomNo9L-Regu-65" transform="translate(232.427)scale(.99626)"/><use xlink:href="#NimbusRomNo9L-Regu-6e" transform="translate(276.66)scale(.99626)"/><use xlink:href="#NimbusRomNo9L-Regu-63" transform="translate(326.474)scale(.99626)"/><use xlink:href="#NimbusRomNo9L-Regu-79" transform="translate(369.214)scale(.99626)"/><use xlink:href="#NimbusRomNo9L-Regu-64" transform="translate(443.934)scale(.99626)"/><use xlink:href="#NimbusRomNo9L-Regu-6f" transform="translate(493.747)scale(.99626)"/><use xlink:href="#NimbusRomNo9L-Regu-6d" transform="translate(543.56)scale(.99626)"/><use xlink:href="#NimbusRomNo9L-Regu-61" transform="translate(621.068)scale(.99626)"/><use xlink:href="#NimbusRomNo9L-Regu-69" transform="translate(665.302)scale(.99626)"/><use xlink:href="#NimbusRomNo9L-Regu-6e" transform="translate(692.997)scale(.99626)"/></g></g><g id="text_34" transform="matrix(.096 0 0 -.096 190.9 10.084)"><defs><path id="NimbusRomNo9L-Regu-68" d="M1005 2222c269 294 461 402 710 402 320 0 480-229 480-676V684c0-434-64-518-435-556V32h1357v96c-346 64-384 115-384 556v1270c0 671-269 1016-787 1016-378 0-647-154-941-538v1958l-32 19c-218-77-378-128-736-230l-173-51v-102c26 6 45 6 77 6 275 0 326-52 326-327V686c0-449-38-507-409-558V32h1382v96c-371 38-435 115-435 556z" transform="scale(.01563)"/><path id="NimbusRomNo9L-Regu-4e" d="M3917-64v3351c0 382 64 618 185 700 90 64 180 90 423 115v122H3021v-122c243-19 333-45 429-102 128-89 185-319 185-714V1136L1171 4224H77v-122c275 0 365-51 621-351V938c0-657-90-779-621-817V0h1504v134c-493 0-602 147-602 794v2511L3808-64z" transform="scale(.01563)"/><path id="NimbusRomNo9L-Regu-52" d="M4218 121c-244 19-372 84-557 303L2342 2061c429 82 621 158 832 327 205 165 327 430 327 725 0 272-83 505-250 688-243 258-774 423-1376 423H109v-122c480-51 544-121 544-574V765c0-529-64-606-544-644V0h1773v134c-493 0-576 85-576 558v1292h358L3187 0h1031zM1306 3762c0 175 70 225 326 225 800 0 1171-271 1171-864 0-316-134-581-365-700-294-165-518-202-1132-202z" transform="scale(.01563)"/></defs><use xlink:href="#NimbusRomNo9L-Regu-48" transform="scale(.99626)"/><use xlink:href="#NimbusRomNo9L-Regu-69" transform="translate(71.93)scale(.99626)"/><use xlink:href="#NimbusRomNo9L-Regu-67" transform="translate(99.625)scale(.99626)"/><use xlink:href="#NimbusRomNo9L-Regu-68" transform="translate(149.438)scale(.99626)"/><use xlink:href="#NimbusRomNo9L-Regu-53" transform="translate(224.158)scale(.99626)"/><use xlink:href="#NimbusRomNo9L-Regu-4e" transform="translate(279.55)scale(.99626)"/><use xlink:href="#NimbusRomNo9L-Regu-52" transform="translate(351.48)scale(.99626)"/></g></g><defs><clipPath id="pf31f0e1775"><path d="M36.377 37.599H206.64v147.282H36.377z"/></clipPath><clipPath id="pe49a1bc753"><path d="M248.057 37.599H418.32v147.282H248.057z"/></clipPath></defs></svg>