<svg xmlns="http://www.w3.org/2000/svg" xmlns:xlink="http://www.w3.org/1999/xlink" width="562.56" height="280.32" viewBox="0 0 421.92 210.24"><defs><style>*{stroke-linejoin:round;stroke-linecap:butt}</style></defs><g id="figure_1"><path id="patch_1" d="M0 210.24h421.92V0H0z" style="fill:none"/><g id="axes_1"><path id="patch_2" d="M36.377 184.882H206.64V37.599H36.377z" style="fill:none"/><g id="matplotlib.axis_1"><g id="xtick_1"><g id="line2d_1"><defs><path id="m9a5cc066c6" d="M0 0v-3" style="stroke:#000;stroke-width:.5"/></defs><use xlink:href="#m9a5cc066c6" x="43.338" y="184.882" style="stroke:#000;stroke-width:.5"/></g><g id="line2d_2"><defs><path id="md23a6a53b1" d="M0 0v3" style="stroke:#000;stroke-width:.5"/></defs><use xlink:href="#md23a6a53b1" x="43.338" y="37.599" style="stroke:#000;stroke-width:.5"/></g><g id="text_1" transform="matrix(.08 0 0 -.08 41.346 193.785)"><defs><path id="NimbusRomNo9L-Regu-30" d="M1626 4352c-352 0-621-108-858-332-371-359-614-1095-614-1844 0-697 211-1446 512-1804C902 90 1229-64 1600-64c326 0 602 109 832 333 371 352 614 1095 614 1869 0 1312-582 2214-1420 2214m-20-166c538 0 826-723 826-2061 0-1337-282-2022-832-2022S768 788 768 2119c0 1357 288 2067 838 2067" transform="scale(.01563)"/></defs><use xlink:href="#NimbusRomNo9L-Regu-30" transform="scale(.99626)"/></g></g><g id="xtick_2"><use xlink:href="#m9a5cc066c6" id="line2d_3" x="82.229" y="184.882" style="stroke:#000;stroke-width:.5"/><use xlink:href="#md23a6a53b1" id="line2d_4" x="82.229" y="37.599" style="stroke:#000;stroke-width:.5"/><g id="text_2" transform="matrix(.08 0 0 -.08 80.236 193.785)"><defs><path id="NimbusRomNo9L-Regu-35" d="M1158 3776h1255c102 0 128 13 147 58l243 569-57 45c-96-134-160-166-295-166H1114L416 2759c-6-13-6-19-6-32 0-32 25-51 76-51 205 0 461-45 724-129 736-238 1075-637 1075-1273 0-618-391-1101-890-1101-128 0-237 45-429 187-204 148-352 212-486 212-186 0-275-77-275-238C205 90 506-64 986-64c537 0 998 174 1318 502 294 290 429 656 429 1145 0 463-122 759-442 1080-281 284-646 431-1401 566z" transform="scale(.01563)"/></defs><use xlink:href="#NimbusRomNo9L-Regu-35" transform="scale(.99626)"/></g></g><g id="xtick_3"><use xlink:href="#m9a5cc066c6" id="line2d_5" x="121.12" y="184.882" style="stroke:#000;stroke-width:.5"/><use xlink:href="#md23a6a53b1" id="line2d_6" x="121.12" y="37.599" style="stroke:#000;stroke-width:.5"/><g id="text_3" transform="matrix(.08 0 0 -.08 117.135 193.785)"><defs><path id="NimbusRomNo9L-Regu-31" d="M1862 4339 710 3757v-90c77 32 148 58 173 71 115 45 224 70 288 70 135 0 192-97 192-303V592c0-213-51-360-153-419-96-57-186-77-455-77V0h1767v96c-506 0-608 64-608 374v3857z" transform="scale(.01563)"/></defs><use xlink:href="#NimbusRomNo9L-Regu-31" transform="scale(.99626)"/><use xlink:href="#NimbusRomNo9L-Regu-30" transform="translate(49.813)scale(.99626)"/></g></g><g id="xtick_4"><use xlink:href="#m9a5cc066c6" id="line2d_7" x="160.01" y="184.882" style="stroke:#000;stroke-width:.5"/><use xlink:href="#md23a6a53b1" id="line2d_8" x="160.01" y="37.599" style="stroke:#000;stroke-width:.5"/><g id="text_4" transform="matrix(.08 0 0 -.08 156.025 193.785)"><use xlink:href="#NimbusRomNo9L-Regu-31" transform="scale(.99626)"/><use xlink:href="#NimbusRomNo9L-Regu-35" transform="translate(49.813)scale(.99626)"/></g></g><g id="xtick_5"><use xlink:href="#m9a5cc066c6" id="line2d_9" x="198.901" y="184.882" style="stroke:#000;stroke-width:.5"/><use xlink:href="#md23a6a53b1" id="line2d_10" x="198.901" y="37.599" style="stroke:#000;stroke-width:.5"/><g id="text_5" transform="matrix(.08 0 0 -.08 194.916 193.785)"><defs><path id="NimbusRomNo9L-Regu-32" d="m3040 875-83 32c-237-363-320-421-608-421H819l1075 1123c570 593 820 1078 820 1576 0 638-519 1128-1184 1128-352 0-685-140-922-395-205-218-301-422-410-875l135-32c256 625 486 829 928 829 537 0 902-364 902-900 0-497-294-1090-832-1658L192 77V0h2496z" transform="scale(.01563)"/></defs><use xlink:href="#NimbusRomNo9L-Regu-32" transform="scale(.99626)"/><use xlink:href="#NimbusRomNo9L-Regu-30" transform="translate(49.813)scale(.99626)"/></g></g><g id="xtick_6"><g id="line2d_11"><defs><path id="m0ce00805d0" d="M0 0v-1.5" style="stroke:#000;stroke-width:.5"/></defs><use xlink:href="#m0ce00805d0" x="51.117" y="184.882" style="stroke:#000;stroke-width:.5"/></g><g id="line2d_12"><defs><path id="m69809865f2" d="M0 0v1.5" style="stroke:#000;stroke-width:.5"/></defs><use xlink:href="#m69809865f2" x="51.117" y="37.599" style="stroke:#000;stroke-width:.5"/></g></g><g id="xtick_7"><use xlink:href="#m0ce00805d0" id="line2d_13" x="58.895" y="184.882" style="stroke:#000;stroke-width:.5"/><use xlink:href="#m69809865f2" id="line2d_14" x="58.895" y="37.599" style="stroke:#000;stroke-width:.5"/></g><g id="xtick_8"><use xlink:href="#m0ce00805d0" id="line2d_15" x="66.673" y="184.882" style="stroke:#000;stroke-width:.5"/><use xlink:href="#m69809865f2" id="line2d_16" x="66.673" y="37.599" style="stroke:#000;stroke-width:.5"/></g><g id="xtick_9"><use xlink:href="#m0ce00805d0" id="line2d_17" x="74.451" y="184.882" style="stroke:#000;stroke-width:.5"/><use xlink:href="#m69809865f2" id="line2d_18" x="74.451" y="37.599" style="stroke:#000;stroke-width:.5"/></g><g id="xtick_10"><use xlink:href="#m0ce00805d0" id="line2d_19" x="90.007" y="184.882" style="stroke:#000;stroke-width:.5"/><use xlink:href="#m69809865f2" id="line2d_20" x="90.007" y="37.599" style="stroke:#000;stroke-width:.5"/></g><g id="xtick_11"><use xlink:href="#m0ce00805d0" id="line2d_21" x="97.785" y="184.882" style="stroke:#000;stroke-width:.5"/><use xlink:href="#m69809865f2" id="line2d_22" x="97.785" y="37.599" style="stroke:#000;stroke-width:.5"/></g><g id="xtick_12"><use xlink:href="#m0ce00805d0" id="line2d_23" x="105.563" y="184.882" style="stroke:#000;stroke-width:.5"/><use xlink:href="#m69809865f2" id="line2d_24" x="105.563" y="37.599" style="stroke:#000;stroke-width:.5"/></g><g id="xtick_13"><use xlink:href="#m0ce00805d0" id="line2d_25" x="113.341" y="184.882" style="stroke:#000;stroke-width:.5"/><use xlink:href="#m69809865f2" id="line2d_26" x="113.341" y="37.599" style="stroke:#000;stroke-width:.5"/></g><g id="xtick_14"><use xlink:href="#m0ce00805d0" id="line2d_27" x="128.898" y="184.882" style="stroke:#000;stroke-width:.5"/><use xlink:href="#m69809865f2" id="line2d_28" x="128.898" y="37.599" style="stroke:#000;stroke-width:.5"/></g><g id="xtick_15"><use xlink:href="#m0ce00805d0" id="line2d_29" x="136.676" y="184.882" style="stroke:#000;stroke-width:.5"/><use xlink:href="#m69809865f2" id="line2d_30" x="136.676" y="37.599" style="stroke:#000;stroke-width:.5"/></g><g id="xtick_16"><use xlink:href="#m0ce00805d0" id="line2d_31" x="144.454" y="184.882" style="stroke:#000;stroke-width:.5"/><use xlink:href="#m69809865f2" id="line2d_32" x="144.454" y="37.599" style="stroke:#000;stroke-width:.5"/></g><g id="xtick_17"><use xlink:href="#m0ce00805d0" id="line2d_33" x="152.232" y="184.882" style="stroke:#000;stroke-width:.5"/><use xlink:href="#m69809865f2" id="line2d_34" x="152.232" y="37.599" style="stroke:#000;stroke-width:.5"/></g><g id="xtick_18"><use xlink:href="#m0ce00805d0" id="line2d_35" x="167.788" y="184.882" style="stroke:#000;stroke-width:.5"/><use xlink:href="#m69809865f2" id="line2d_36" x="167.788" y="37.599" style="stroke:#000;stroke-width:.5"/></g><g id="xtick_19"><use xlink:href="#m0ce00805d0" id="line2d_37" x="175.566" y="184.882" style="stroke:#000;stroke-width:.5"/><use xlink:href="#m69809865f2" id="line2d_38" x="175.566" y="37.599" style="stroke:#000;stroke-width:.5"/></g><g id="xtick_20"><use xlink:href="#m0ce00805d0" id="line2d_39" x="183.345" y="184.882" style="stroke:#000;stroke-width:.5"/><use xlink:href="#m69809865f2" id="line2d_40" x="183.345" y="37.599" style="stroke:#000;stroke-width:.5"/></g><g id="xtick_21"><use xlink:href="#m0ce00805d0" id="line2d_41" x="191.123" y="184.882" style="stroke:#000;stroke-width:.5"/><use xlink:href="#m69809865f2" id="line2d_42" x="191.123" y="37.599" style="stroke:#000;stroke-width:.5"/></g><g id="text_6" transform="matrix(.08 0 0 -.08 104.935 204.915)"><defs><path id="NimbusRomNo9L-Regu-54" d="M1626 3968V751c0-547-71-617-602-617V0h1869v134c-525 0-615 83-615 553v3281h346c730 0 870-115 1018-819h153l-38 1088H147l-38-1088h153c154 697 301 819 1018 819z" transform="scale(.01563)"/><path id="NimbusRomNo9L-Regu-69" d="m1120 2929-992-350v-95l51 6c77 12 160 19 218 19 153 0 211-103 211-384V640c0-461-64-531-506-531V0h1517v96c-422 32-473 95-473 554v2260zM819 4352c-173 0-320-147-320-326s141-327 320-327c186 0 333 141 333 327 0 179-147 326-333 326" transform="scale(.01563)"/><path id="NimbusRomNo9L-Regu-6d" d="M122 2547c83 19 134 26 204 26 167 0 224-103 224-411V539c0-347-89-443-448-443V0h1421v96c-339 0-435 70-435 322v1816c0 12 51 76 96 121 160 147 435 256 659 256 282 0 423-226 423-679V528c0-361-71-432-436-432V0h1434v96c-365 0-461 109-461 507v1618c192 275 403 390 698 390 365 0 480-173 480-704V557c0-365-51-416-423-461V0h1402v96l-166 19c-192 0-276 115-276 365v1322c0 757-249 1142-742 1142-371 0-698-166-1043-537-115 364-333 537-679 537-281 0-460-90-992-493v480l-44 13c-327-122-544-192-896-288z" transform="scale(.01563)"/><path id="NimbusRomNo9L-Regu-65" d="M2611 1053c-307-489-582-675-992-675-365 0-640 186-825 552-116 244-160 456-173 849h1971c-51 414-115 598-275 802-192 230-487 363-819 363-320 0-621-115-864-333-301-262-474-717-474-1241C160 486 621-64 1357-64c608 0 1088 379 1357 1072zM634 1984c70 495 288 730 678 730s544-179 627-730z" transform="scale(.01563)"/><path id="NimbusRomNo9L-Regu-5b" d="M1914-864h-551c-211 0-313 108-313 333v4312c0 200 83 283 288 283h576v160H563v-5248h1351z" transform="scale(.01563)"/><path id="NimbusRomNo9L-Regu-73" d="m2016 2010-26 870h-70l-13-13c-57-45-64-51-89-51-39 0-103 13-173 45-141 54-282 83-448 83-506 0-871-328-871-790 0-358 205-615 749-923l371-211c224-128 333-283 333-481 0-283-205-462-531-462-218 0-416 82-538 221-134 157-192 302-275 662H333V-39h83c45 72 70 87 147 87 58 0 147-13 295-50 179-37 352-62 467-62 493 0 902 372 902 821 0 320-153 532-537 763l-692 410c-179 103-275 264-275 437 0 257 199 436 493 436 365 0 557-220 704-793z" transform="scale(.01563)"/><path id="NimbusRomNo9L-Regu-5d" d="M218-864v-160h1350v5248H218v-160h550c211 0 314-109 314-334V-582c0-199-90-282-288-282z" transform="scale(.01563)"/></defs><use xlink:href="#NimbusRomNo9L-Regu-54" transform="scale(.99626)"/><use xlink:href="#NimbusRomNo9L-Regu-69" transform="translate(57.385)scale(.99626)"/><use xlink:href="#NimbusRomNo9L-Regu-6d" transform="translate(85.08)scale(.99626)"/><use xlink:href="#NimbusRomNo9L-Regu-65" transform="translate(162.588)scale(.99626)"/><use xlink:href="#NimbusRomNo9L-Regu-5b" transform="translate(231.729)scale(.99626)"/><use xlink:href="#NimbusRomNo9L-Regu-6d" transform="translate(264.904)scale(.99626)"/><use xlink:href="#NimbusRomNo9L-Regu-73" transform="translate(342.412)scale(.99626)"/><use xlink:href="#NimbusRomNo9L-Regu-5d" transform="translate(381.166)scale(.99626)"/></g></g><g id="matplotlib.axis_2"><g id="ytick_1"><g id="line2d_43"><defs><path id="m8cf96bafb1" d="M0 0h3" style="stroke:#000;stroke-width:.5"/></defs><use xlink:href="#m8cf96bafb1" x="36.377" y="166.471" style="stroke:#000;stroke-width:.5"/></g><g id="line2d_44"><defs><path id="mbec151b44e" d="M0 0h-3" style="stroke:#000;stroke-width:.5"/></defs><use xlink:href="#mbec151b44e" x="206.64" y="166.471" style="stroke:#000;stroke-width:.5"/></g><g id="text_7" transform="matrix(.08 0 0 -.08 14.73 169.173)"><defs><path id="CMSY10-0" d="M4218 1472c108 0 224 0 224 128s-116 128-224 128H755c-109 0-224 0-224-128s115-128 224-128z" transform="scale(.01563)"/></defs><use xlink:href="#CMSY10-0" transform="scale(.99626)"/><use xlink:href="#NimbusRomNo9L-Regu-31" transform="translate(77.409)scale(.99626)"/><use xlink:href="#NimbusRomNo9L-Regu-30" transform="translate(127.222)scale(.99626)"/><use xlink:href="#NimbusRomNo9L-Regu-30" transform="translate(177.035)scale(.99626)"/></g></g><g id="ytick_2"><use xlink:href="#m8cf96bafb1" id="line2d_45" x="36.377" y="141.924" style="stroke:#000;stroke-width:.5"/><use xlink:href="#mbec151b44e" id="line2d_46" x="206.64" y="141.924" style="stroke:#000;stroke-width:.5"/><g id="text_8" transform="matrix(.08 0 0 -.08 18.714 144.626)"><defs><path id="NimbusRomNo9L-Regu-38" d="M1856 2400c634 340 858 608 858 1044 0 524-461 908-1101 908-698 0-1216-428-1216-1011 0-416 121-601 793-1190-691-525-832-723-832-1159C358 372 864-64 1587-64c768 0 1261 423 1261 1082 0 493-218 806-992 1382m-115-659c467-333 621-563 621-921 0-416-288-704-704-704-487 0-813 371-813 928 0 409 141 678 512 979zm-71 775c-569 371-800 665-800 1024 0 371 288 633 692 633 435 0 710-281 710-723 0-365-179-653-544-896-32-19-32-19-58-38" transform="scale(.01563)"/></defs><use xlink:href="#CMSY10-0" transform="scale(.99626)"/><use xlink:href="#NimbusRomNo9L-Regu-38" transform="translate(77.409)scale(.99626)"/><use xlink:href="#NimbusRomNo9L-Regu-30" transform="translate(127.222)scale(.99626)"/></g></g><g id="ytick_3"><use xlink:href="#m8cf96bafb1" id="line2d_47" x="36.377" y="117.377" style="stroke:#000;stroke-width:.5"/><use xlink:href="#mbec151b44e" id="line2d_48" x="206.64" y="117.377" style="stroke:#000;stroke-width:.5"/><g id="text_9" transform="matrix(.08 0 0 -.08 18.714 120.08)"><defs><path id="NimbusRomNo9L-Regu-36" d="M2854 4391c-729-64-1100-186-1568-512C595 3386 218 2656 218 1802c0-554 172-1114 448-1432C909 89 1254-64 1651-64c794 0 1344 605 1344 1485 0 815-467 1331-1203 1331-282 0-416-45-819-288 173 967 889 1658 1894 1824zM1549 2458c550 0 870-458 870-1254 0-700-249-1088-697-1088-564 0-909 598-909 1584 0 325 51 503 179 599 134 101 333 159 557 159" transform="scale(.01563)"/></defs><use xlink:href="#CMSY10-0" transform="scale(.99626)"/><use xlink:href="#NimbusRomNo9L-Regu-36" transform="translate(77.409)scale(.99626)"/><use xlink:href="#NimbusRomNo9L-Regu-30" transform="translate(127.222)scale(.99626)"/></g></g><g id="ytick_4"><use xlink:href="#m8cf96bafb1" id="line2d_49" x="36.377" y="92.83" style="stroke:#000;stroke-width:.5"/><use xlink:href="#mbec151b44e" id="line2d_50" x="206.64" y="92.83" style="stroke:#000;stroke-width:.5"/><g id="text_10" transform="matrix(.08 0 0 -.08 18.714 95.532)"><defs><path id="NimbusRomNo9L-Regu-34" d="M3021 1497h-653v2855h-282L77 1497v-409h1798V32h493v1056h653zm-1152 0H333l1536 2201z" transform="scale(.01563)"/></defs><use xlink:href="#CMSY10-0" transform="scale(.99626)"/><use xlink:href="#NimbusRomNo9L-Regu-34" transform="translate(77.409)scale(.99626)"/><use xlink:href="#NimbusRomNo9L-Regu-30" transform="translate(127.222)scale(.99626)"/></g></g><g id="ytick_5"><use xlink:href="#m8cf96bafb1" id="line2d_51" x="36.377" y="68.283" style="stroke:#000;stroke-width:.5"/><use xlink:href="#mbec151b44e" id="line2d_52" x="206.64" y="68.283" style="stroke:#000;stroke-width:.5"/><g id="text_11" transform="matrix(.08 0 0 -.08 18.714 70.985)"><use xlink:href="#CMSY10-0" transform="scale(.99626)"/><use xlink:href="#NimbusRomNo9L-Regu-32" transform="translate(77.409)scale(.99626)"/><use xlink:href="#NimbusRomNo9L-Regu-30" transform="translate(127.222)scale(.99626)"/></g></g><g id="ytick_6"><use xlink:href="#m8cf96bafb1" id="line2d_53" x="36.377" y="43.736" style="stroke:#000;stroke-width:.5"/><use xlink:href="#mbec151b44e" id="line2d_54" x="206.64" y="43.736" style="stroke:#000;stroke-width:.5"/><use xlink:href="#NimbusRomNo9L-Regu-30" id="text_12" transform="matrix(.0797 0 0 -.0797 28.892 46.438)"/></g><g id="ytick_7"><g id="line2d_55"><defs><path id="m65d612ee45" d="M0 0h1.5" style="stroke:#000;stroke-width:.5"/></defs><use xlink:href="#m65d612ee45" x="36.377" y="184.882" style="stroke:#000;stroke-width:.5"/></g><g id="line2d_56"><defs><path id="me836e00145" d="M0 0h-1.5" style="stroke:#000;stroke-width:.5"/></defs><use xlink:href="#me836e00145" x="206.64" y="184.882" style="stroke:#000;stroke-width:.5"/></g></g><g id="ytick_8"><use xlink:href="#m65d612ee45" id="line2d_57" x="36.377" y="178.745" style="stroke:#000;stroke-width:.5"/><use xlink:href="#me836e00145" id="line2d_58" x="206.64" y="178.745" style="stroke:#000;stroke-width:.5"/></g><g id="ytick_9"><use xlink:href="#m65d612ee45" id="line2d_59" x="36.377" y="172.608" style="stroke:#000;stroke-width:.5"/><use xlink:href="#me836e00145" id="line2d_60" x="206.64" y="172.608" style="stroke:#000;stroke-width:.5"/></g><g id="ytick_10"><use xlink:href="#m65d612ee45" id="line2d_61" x="36.377" y="160.335" style="stroke:#000;stroke-width:.5"/><use xlink:href="#me836e00145" id="line2d_62" x="206.64" y="160.335" style="stroke:#000;stroke-width:.5"/></g><g id="ytick_11"><use xlink:href="#m65d612ee45" id="line2d_63" x="36.377" y="154.198" style="stroke:#000;stroke-width:.5"/><use xlink:href="#me836e00145" id="line2d_64" x="206.64" y="154.198" style="stroke:#000;stroke-width:.5"/></g><g id="ytick_12"><use xlink:href="#m65d612ee45" id="line2d_65" x="36.377" y="148.061" style="stroke:#000;stroke-width:.5"/><use xlink:href="#me836e00145" id="line2d_66" x="206.64" y="148.061" style="stroke:#000;stroke-width:.5"/></g><g id="ytick_13"><use xlink:href="#m65d612ee45" id="line2d_67" x="36.377" y="135.788" style="stroke:#000;stroke-width:.5"/><use xlink:href="#me836e00145" id="line2d_68" x="206.64" y="135.788" style="stroke:#000;stroke-width:.5"/></g><g id="ytick_14"><use xlink:href="#m65d612ee45" id="line2d_69" x="36.377" y="129.651" style="stroke:#000;stroke-width:.5"/><use xlink:href="#me836e00145" id="line2d_70" x="206.64" y="129.651" style="stroke:#000;stroke-width:.5"/></g><g id="ytick_15"><use xlink:href="#m65d612ee45" id="line2d_71" x="36.377" y="123.514" style="stroke:#000;stroke-width:.5"/><use xlink:href="#me836e00145" id="line2d_72" x="206.64" y="123.514" style="stroke:#000;stroke-width:.5"/></g><g id="ytick_16"><use xlink:href="#m65d612ee45" id="line2d_73" x="36.377" y="111.241" style="stroke:#000;stroke-width:.5"/><use xlink:href="#me836e00145" id="line2d_74" x="206.64" y="111.241" style="stroke:#000;stroke-width:.5"/></g><g id="ytick_17"><use xlink:href="#m65d612ee45" id="line2d_75" x="36.377" y="105.104" style="stroke:#000;stroke-width:.5"/><use xlink:href="#me836e00145" id="line2d_76" x="206.64" y="105.104" style="stroke:#000;stroke-width:.5"/></g><g id="ytick_18"><use xlink:href="#m65d612ee45" id="line2d_77" x="36.377" y="98.967" style="stroke:#000;stroke-width:.5"/><use xlink:href="#me836e00145" id="line2d_78" x="206.64" y="98.967" style="stroke:#000;stroke-width:.5"/></g><g id="ytick_19"><use xlink:href="#m65d612ee45" id="line2d_79" x="36.377" y="86.693" style="stroke:#000;stroke-width:.5"/><use xlink:href="#me836e00145" id="line2d_80" x="206.64" y="86.693" style="stroke:#000;stroke-width:.5"/></g><g id="ytick_20"><use xlink:href="#m65d612ee45" id="line2d_81" x="36.377" y="80.557" style="stroke:#000;stroke-width:.5"/><use xlink:href="#me836e00145" id="line2d_82" x="206.64" y="80.557" style="stroke:#000;stroke-width:.5"/></g><g id="ytick_21"><use xlink:href="#m65d612ee45" id="line2d_83" x="36.377" y="74.42" style="stroke:#000;stroke-width:.5"/><use xlink:href="#me836e00145" id="line2d_84" x="206.64" y="74.42" style="stroke:#000;stroke-width:.5"/></g><g id="ytick_22"><use xlink:href="#m65d612ee45" id="line2d_85" x="36.377" y="62.146" style="stroke:#000;stroke-width:.5"/><use xlink:href="#me836e00145" id="line2d_86" x="206.64" y="62.146" style="stroke:#000;stroke-width:.5"/></g><g id="ytick_23"><use xlink:href="#m65d612ee45" id="line2d_87" x="36.377" y="56.01" style="stroke:#000;stroke-width:.5"/><use xlink:href="#me836e00145" id="line2d_88" x="206.64" y="56.01" style="stroke:#000;stroke-width:.5"/></g><g id="ytick_24"><use xlink:href="#m65d612ee45" id="line2d_89" x="36.377" y="49.873" style="stroke:#000;stroke-width:.5"/><use xlink:href="#me836e00145" id="line2d_90" x="206.64" y="49.873" style="stroke:#000;stroke-width:.5"/></g><g id="ytick_25"><use xlink:href="#m65d612ee45" id="line2d_91" x="36.377" y="37.599" style="stroke:#000;stroke-width:.5"/><use xlink:href="#me836e00145" id="line2d_92" x="206.64" y="37.599" style="stroke:#000;stroke-width:.5"/></g><g id="text_13" transform="matrix(0 -.08 -.08 0 9.004 136.808)"><defs><path id="NimbusRomNo9L-Regu-4d" d="M4314 3667V751c0-534-77-617-583-617V0h1792v134c-467 0-557 89-557 547v2855c0 457 84 541 557 579v122H4250L2835 1004 1357 4237H90v-141c524 0 608-77 608-546V943c0-661-90-784-621-822V0h1504v134c-493 0-602 148-602 797v2589L2586 0h89z" transform="scale(.01563)"/><path id="NimbusRomNo9L-Regu-61" d="M2829 423c-109-90-186-122-282-122-147 0-192 89-192 371v1248c0 333-32 518-128 672-141 230-416 352-793 352-602 0-1076-314-1076-717 0-147 128-275 276-275 153 0 288 128 288 269 0 25-7 57-13 102-13 58-19 109-19 154 0 173 204 313 460 313 314 0 487-185 487-531v-390c-986-397-1095-448-1370-691-141-128-230-346-230-557 0-403 281-685 672-685 281 0 544 134 934 467 32-333 147-467 410-467 217 0 352 77 576 320zm-992 360c0-199-32-257-167-334-153-90-332-148-467-148-224 0-403 219-403 495v26c0 379 262 611 1037 893z" transform="scale(.01563)"/><path id="NimbusRomNo9L-Regu-67" d="M3008 2496v250h-493c-128 0-224 17-352 56l-141 45c-172 56-345 84-512 84-595 0-1068-464-1068-1050 0-405 172-651 595-863-122-112-237-219-275-250-212-180-295-305-295-430 0-132 77-207 339-332-454-335-627-549-627-787 0-343 499-627 1107-627 480 0 980 170 1312 446 244 203 352 414 352 663 0 407-300 683-774 683h-826c-339 0-499 59-499 164 0 130 211 360 384 412 58-7 103-13 122-13 121-13 205-19 243-19 237 0 493 98 691 275 211 184 307 414 307 742 0 190-32 341-121 551zM941-13c211-45 723-83 1037-83 582 0 793-84 793-318 0-377-486-629-1209-629-564 0-935 188-935 473 0 150 45 234 314 557m32 2158c0 381 179 607 473 607 199 0 365-110 468-303 115-226 192-522 192-774 0-361-186-587-480-587-384 0-653 419-653 1038z" transform="scale(.01563)"/><path id="NimbusRomNo9L-Regu-6e" d="M102 2579c39 19 103 26 173 26 179 0 237-96 237-410V608c0-365-70-454-397-480V32h1357v96c-326 26-422 102-422 333v1798c307 288 448 365 659 365 313 0 467-198 467-621V666c0-404-83-512-403-538V32h1331v96c-314 32-390 109-390 422v1466c0 602-282 960-756 960-294 0-492-109-928-518v505l-44 13c-314-115-532-186-884-288z" transform="scale(.01563)"/><path id="NimbusRomNo9L-Regu-74" d="M1632 2880H986v742c0 64-7 84-45 84-45-58-83-116-128-180-243-352-519-659-621-685-70-47-109-93-109-126 0-20 7-33 26-33h339V751c0-539 192-815 570-815 313 0 556 154 768 487l-84 70c-134-160-243-224-384-224-236 0-332 174-332 578v1835h646z" transform="scale(.01563)"/><path id="NimbusRomNo9L-Regu-75" d="M3066 320h-32c-295 0-365 70-365 365v2195H1658v-122c396 0 473-64 473-383V875c0-178-32-268-121-338-173-140-372-217-564-217-249 0-454 217-454 485v2075H58v-102c307 0 396-96 396-391V770c0-507 308-834 775-834 237 0 486 102 659 275l275 275V-45l26-13c320 128 550 199 877 288z" transform="scale(.01563)"/><path id="NimbusRomNo9L-Regu-64" d="m2202-64 940 333v96h-147c-230 0-281 70-281 366v3633l-32 13c-308-109-532-173-941-281v-102c51 6 89 6 141 6 236 0 294-64 294-328V2669c-243 205-416 275-672 275-736 0-1331-723-1331-1632C173 493 653-64 1357-64c358 0 601 128 819 429V-45zm-26 717c0-45-45-122-109-192-115-128-275-192-461-192-531 0-883 512-883 1299 0 723 314 1197 800 1197 339 0 653-301 653-640z" transform="scale(.01563)"/><path id="NimbusRomNo9L-Regu-42" d="M109 4237v-141c537 0 614-70 614-548V689c0-477-83-561-614-561V0h2137c500 0 954 136 1191 356 230 208 358 499 358 809 0 286-115 545-313 732-192 175-365 253-781 356 333 82 467 145 621 278 160 140 256 372 256 632 0 708-570 1074-1677 1074zm1267-2125c621 0 915-32 1146-130 364-155 537-414 537-823 0-350-134-604-390-753-205-116-467-168-890-168-313 0-403 58-403 266zm0 256v1444c0 132 45 189 141 189h281c736 0 1127-302 1127-864 0-491-339-769-941-769z" transform="scale(.01563)"/></defs><use xlink:href="#NimbusRomNo9L-Regu-4d" transform="scale(.99626)"/><use xlink:href="#NimbusRomNo9L-Regu-61" transform="translate(88.567)scale(.99626)"/><use xlink:href="#NimbusRomNo9L-Regu-67" transform="translate(132.8)scale(.99626)"/><use xlink:href="#NimbusRomNo9L-Regu-6e" transform="translate(182.614)scale(.99626)"/><use xlink:href="#NimbusRomNo9L-Regu-69" transform="translate(232.427)scale(.99626)"/><use xlink:href="#NimbusRomNo9L-Regu-74" transform="translate(260.122)scale(.99626)"/><use xlink:href="#NimbusRomNo9L-Regu-75" transform="translate(287.817)scale(.99626)"/><use xlink:href="#NimbusRomNo9L-Regu-64" transform="translate(337.63)scale(.99626)"/><use xlink:href="#NimbusRomNo9L-Regu-65" transform="translate(387.444)scale(.99626)"/><use xlink:href="#NimbusRomNo9L-Regu-5b" transform="translate(456.584)scale(.99626)"/><use xlink:href="#NimbusRomNo9L-Regu-64" transform="translate(489.759)scale(.99626)"/><use xlink:href="#NimbusRomNo9L-Regu-42" transform="translate(539.572)scale(.99626)"/><use xlink:href="#NimbusRomNo9L-Regu-5d" transform="translate(606.022)scale(.99626)"/></g></g><path id="line2d_93" d="m44.116 44.385 2.334-.133.777.124.778-.124 1.556.128.778-.207.778.196 1.555-.024.778-.23 1.556.236.777.007.778-.15.778.113 1.556-.17.777.213 1.556-.043.778.128.778-.158.778.122.777-.184 3.89.047 1.555.097.778-.142.778.085 1.555-.016 2.334.106.777-.136.778.12 3.112-.181.777.15.778-.113 1.556.07.778-.147 2.333.006.778.22 1.555-.2.778.154 2.334-.017.778.148.777-.256 2.334.16 1.555-.085.778.075.778-.283.778.239.778.055.777-.134 1.556.096 1.556-.135.778.009.777.14.778-.08 2.334.193 2.333-.217.778-.045.778.131.777-.13.778.248 1.556-.05.778-.127 2.333.229 1.556-.264.778-.099.777.114.778-.074.778.128 3.111-.05.778-.173 1.556.19 3.11.018.779-.178.778.279 1.555-.113.778-.195 1.556.368 1.555-.142.778.089.778-.157.778.083.778-.077.777-.222.778.277.778-.029.778.096.778-.323.777.301.778-.108.778.13.778-.15 1.555.097 2.334-.118.778.23.777-.117 1.556.048.778-.118 1.556.1 4.666.044.778-.177 2.334.096.777-.297.778.19 3.89.2.777-.358.778.217 4.667-.01.778.15.777-.137.778.075.778-.05 1.556.114.778-.215 1.555.159.778-.135.778.063.778-.125.777.19 2.334-.078.778.058 1.555-.105.778.138 2.334.023.777-.072 1.556.038.778-.037h0" clip-path="url(#p4654a7fc87)" style="fill:none;stroke:#000;stroke-linecap:square"/><path id="line2d_94" d="m44.116 93.389 2.334.03.777-.202.778.24 1.556-.106.778.08.778-.13 2.333.168.778-.092.778.027.777-.104.778.13.778-.097 1.556.109.777-.157 1.556.143.778-.216.778.185 1.555-.019 3.112.032 2.333-.089.778.157.778-.094.777.092 2.334-.25 1.555.13 1.556-.093.778.187.778-.093.778.094.777-.178 4.667.18.778-.13.778.003.778.12 2.333-.099 1.556-.033.778-.051.777.18 4.667-.152.778.224 1.556-.204.777.093 1.556-.078 1.556.14 1.555-.144.778.066.778-.115.778.091.778-.074 3.11.14 3.89-.215.778.184 2.333-.147 1.556.227 1.555-.072 3.89-.033 4.666.01.778-.122 1.556.175 1.555-.13 1.556.141 1.556-.163 4.667.18.777.115.778-.301 2.334.31.777-.273.778.113.778-.204.778.181 1.555-.083 2.334.141.778-.215.777.18.778-.15.778.005.778.134 2.333-.12.778.13.778-.14.778.109 1.555-.162.778.159 4.667.075.778-.141.778.118 1.555-.1.778.188 3.111-.208 2.334.099.778-.16.777.104 3.89-.042.777.12.778-.117 2.334.185.777-.154.778.054.778-.132.778.163.778-.078 1.555.077 1.556-.111 4.667.071" clip-path="url(#p4654a7fc87)" style="fill:none;stroke-dasharray:3.7,1.6;stroke-dashoffset:0;stroke:red"/><path id="line2d_95" d="m44.116 156.95.778-1.312.778-11.765.778-3.171.777 1.487.778 8.463.778 4.182.778-12.327.778 16.78.778-9.636.777-4.937.778 6.133.778 8.972.778-10.176 1.555 10.44.778-11.486.778-5.461.778 1.492.778-2.7.777 18.956.778 2.047.778-13.014.778 7.189.778-7.48.778-2.364.777 2.037.778-1.45.778 4.225.778-6.574.778 5.763 1.555 2.548.778 4.05.778-16.029.778 11.615.777 1.752.778-11.618.778 1.136.778 6.82.778-7.527.777 7.15.778 16.153.778-12.072.778 1.958.778-13.12.778 11.288.777-10.6.778-1.722.778 1.762.778.235.778 4.943.777 20.413.778-21.784.778-2.804.778 10.647.778-17.73.777 2.835.778 7.994.778 1.253.778 3 .778-.405.778 5.318.777-16.044.778 9.244.778-1.624.778 4.792.778-6.485.777-2.273.778 6.15.778-3.936.778-10.203.778 36.046.777-22.107.778-6.185 1.556 2.333.778 3.584.778-10.465.777 2.868.778 5.813.778.757.778-2.818.778 13.253.777-11.026.778-4.591.778-2.33.778-1.861.778 9.887.777-6.468.778 1.989.778-.031.778-4.89.778 4.178.778 7.682.777 6.33.778-18.82.778-.99.778 8.808.778-10.53.777 5.32.778 9.497.778 21.577.778-20.987.778-8.202.777-4.49.778 35.248.778-16.462.778-12.375.778-6.143.778-2.233.777 4.17.778 9.768.778-3.632.778-1.502.778-6.221.777 21.068.778-14.956.778 1.229.778 2.972.778 19.439.777-28.413.778 14.83.778-1.195.778-10.192.778-3.354.778 3.164.777 8.358.778 3.162.778-12.73.778-1.588.778 5.314.777-3.023.778 6.784.778 8.67.778-10.97.778-.64.777 1.602.778-6.113.778 12.357.778-6.193.778.666.777-9.709.778 15.432.778.592.778-5.217.778 6.716.778-11.92.777 1.365.778-1.762.778-6.271.778 17.552.778-10.273.777 4.586.778-5.754.778 2.496.778-.956.778-5.125.777 21.911.778-17.762.778-4.448 1.556 4.784.778-4.195.777 7.306.778-8.353.778.345.778 16.819.778-15.142.777-2.503.778 5.63.778 23.441.778-29.03.778.728.777 6.526.778 4.029.778-8.995.778.946.778 6.525.778 1.464.777.152.778-11.78 1.556 12.518.778-9.583.777-.424.778 1.933.778 20.044.778-20.024.778-.299.777 10.82.778-13.813.778 11.856.778 1.381.778-6.591 1.555 11.063.778-15.09.778-.823.778 4.023" clip-path="url(#p4654a7fc87)" style="fill:none;stroke-dasharray:1,1.65;stroke-dashoffset:0;stroke:#00f"/><path id="patch_3" d="M36.377 184.882V37.599" style="fill:none;stroke:#000;stroke-width:.5;stroke-linejoin:miter;stroke-linecap:square"/><path id="patch_4" d="M206.64 184.882V37.599" style="fill:none;stroke:#000;stroke-width:.5;stroke-linejoin:miter;stroke-linecap:square"/><path id="patch_5" d="M36.377 184.882H206.64" style="fill:none;stroke:#000;stroke-width:.5;stroke-linejoin:miter;stroke-linecap:square"/><path id="patch_6" d="M36.377 37.6H206.64" style="fill:none;stroke:#000;stroke-width:.5;stroke-linejoin:miter;stroke-linecap:square"/><g id="text_14" transform="matrix(.096 0 0 -.096 96.04 31.6)"><defs><path id="NimbusRomNo9L-Regu-6f" d="M1600 2944c-832 0-1414-614-1414-1498C186 582 781-64 1587-64c807 0 1421 678 1421 1562 0 838-589 1446-1408 1446m-83-179c537 0 915-615 915-1491 0-724-288-1159-768-1159-250 0-486 154-621 410-179 333-281 781-281 1235 0 608 300 1005 755 1005" transform="scale(.01563)"/></defs><use xlink:href="#NimbusRomNo9L-Regu-54" transform="scale(.99626)"/><use xlink:href="#NimbusRomNo9L-Regu-69" transform="translate(57.385)scale(.99626)"/><use xlink:href="#NimbusRomNo9L-Regu-6d" transform="translate(85.08)scale(.99626)"/><use xlink:href="#NimbusRomNo9L-Regu-65" transform="translate(162.588)scale(.99626)"/><use xlink:href="#NimbusRomNo9L-Regu-64" transform="translate(231.729)scale(.99626)"/><use xlink:href="#NimbusRomNo9L-Regu-6f" transform="translate(281.542)scale(.99626)"/><use xlink:href="#NimbusRomNo9L-Regu-6d" transform="translate(331.355)scale(.99626)"/><use xlink:href="#NimbusRomNo9L-Regu-61" transform="translate(408.863)scale(.99626)"/><use xlink:href="#NimbusRomNo9L-Regu-69" transform="translate(453.097)scale(.99626)"/><use xlink:href="#NimbusRomNo9L-Regu-6e" transform="translate(480.792)scale(.99626)"/></g><g id="legend_1"><path id="line2d_96" d="M43.577 99.052h16" style="fill:none;stroke:#000;stroke-linecap:square"/><g id="text_15" transform="matrix(.08 0 0 -.08 65.977 101.852)"><defs><path id="NimbusRomNo9L-Regu-53" d="M2861 4352h-135c-25-147-96-217-204-217-64 0-173 25-282 77-237 89-474 140-678 140-276 0-557-108-768-294-224-199-340-468-340-802 0-513 282-871 999-1250 461-243 793-507 953-750 58-83 90-218 90-372 0-430-320-724-787-724-570 0-973 353-1293 1136H269L461-64h141c6 121 83 211 179 211 70 0 179-25 301-68 243-93 499-143 755-143 736 0 1305 506 1305 1165 0 525-352 941-1196 1395-672 372-941 653-941 999 0 352 269 595 665 595 288 0 557-122 781-352 199-205 288-371 391-749h160z" transform="scale(.01563)"/></defs><use xlink:href="#NimbusRomNo9L-Regu-53" transform="scale(.99626)"/><use xlink:href="#NimbusRomNo9L-Regu-32" transform="translate(55.392)scale(.99626)"/><use xlink:href="#NimbusRomNo9L-Regu-32" transform="translate(105.205)scale(.99626)"/></g><path id="line2d_97" d="M43.577 110.378h16" style="fill:none;stroke-dasharray:3.7,1.6;stroke-dashoffset:0;stroke:red"/><g id="text_16" transform="matrix(.08 0 0 -.08 65.977 113.178)"><defs><path id="NimbusRomNo9L-Regu-2c" d="M531-889c429 211 717 601 717 985 0 320-224 570-512 570-224 0-378-147-378-365C358 96 506-25 736-25c38 0 83 6 122 12 44 13 44 13 51 13 51 0 89-38 89-89 0-205-179-442-524-679z" transform="scale(.01563)"/></defs><use xlink:href="#NimbusRomNo9L-Regu-61" transform="scale(.99626)"/><use xlink:href="#NimbusRomNo9L-Regu-32" transform="translate(44.234)scale(.99626)"/><use xlink:href="#NimbusRomNo9L-Regu-2c" transform="translate(94.047)scale(.99626)"/><use xlink:href="#NimbusRomNo9L-Regu-32" transform="translate(118.953)scale(.99626)"/></g><path id="line2d_98" d="M43.577 121.703h16" style="fill:none;stroke-dasharray:1,1.65;stroke-dashoffset:0;stroke:#00f"/><g id="text_17" transform="matrix(.08 0 0 -.08 65.977 124.503)"><defs><path id="NimbusRomNo9L-Regu-62" d="m979 4364-32 13c-269-96-441-147-742-230l-186-51v-102c39 6 64 6 109 6 256 0 314-58 314-327V347c0-200 544-411 1056-411 844 0 1497 704 1497 1619 0 787-486 1389-1126 1389-391 0-762-230-890-544zm0-2303c0 249 301 480 634 480 499 0 819-499 819-1280 0-711-307-1120-832-1120-333 0-621 147-621 307z" transform="scale(.01563)"/></defs><use xlink:href="#NimbusRomNo9L-Regu-62" transform="scale(.99626)"/><use xlink:href="#NimbusRomNo9L-Regu-31" transform="translate(49.813)scale(.99626)"/><use xlink:href="#NimbusRomNo9L-Regu-2c" transform="translate(99.626)scale(.99626)"/><use xlink:href="#NimbusRomNo9L-Regu-32" transform="translate(124.533)scale(.99626)"/></g></g></g><g id="axes_2"><path id="patch_7" d="M248.057 184.882H418.32V37.599H248.057z" style="fill:none"/><g id="matplotlib.axis_3"><g id="xtick_22"><use xlink:href="#m9a5cc066c6" id="line2d_99" x="271.664" y="184.882" style="stroke:#000;stroke-width:.5"/><use xlink:href="#md23a6a53b1" id="line2d_100" x="271.664" y="37.599" style="stroke:#000;stroke-width:.5"/><g id="text_18" transform="matrix(.08 0 0 -.08 260.597 193.785)"><use xlink:href="#CMSY10-0" transform="scale(.99626)"/><use xlink:href="#NimbusRomNo9L-Regu-34" transform="translate(77.409)scale(.99626)"/><use xlink:href="#NimbusRomNo9L-Regu-30" transform="translate(127.222)scale(.99626)"/><use xlink:href="#NimbusRomNo9L-Regu-30" transform="translate(177.035)scale(.99626)"/><use xlink:href="#NimbusRomNo9L-Regu-30" transform="translate(226.848)scale(.99626)"/></g></g><g id="xtick_23"><use xlink:href="#m9a5cc066c6" id="line2d_101" x="302.62" y="184.882" style="stroke:#000;stroke-width:.5"/><use xlink:href="#md23a6a53b1" id="line2d_102" x="302.62" y="37.599" style="stroke:#000;stroke-width:.5"/><g id="text_19" transform="matrix(.08 0 0 -.08 291.554 193.785)"><use xlink:href="#CMSY10-0" transform="scale(.99626)"/><use xlink:href="#NimbusRomNo9L-Regu-32" transform="translate(77.409)scale(.99626)"/><use xlink:href="#NimbusRomNo9L-Regu-30" transform="translate(127.222)scale(.99626)"/><use xlink:href="#NimbusRomNo9L-Regu-30" transform="translate(177.035)scale(.99626)"/><use xlink:href="#NimbusRomNo9L-Regu-30" transform="translate(226.848)scale(.99626)"/></g></g><g id="xtick_24"><use xlink:href="#m9a5cc066c6" id="line2d_103" x="333.577" y="184.882" style="stroke:#000;stroke-width:.5"/><use xlink:href="#md23a6a53b1" id="line2d_104" x="333.577" y="37.599" style="stroke:#000;stroke-width:.5"/><use xlink:href="#NimbusRomNo9L-Regu-30" id="text_20" transform="matrix(.0797 0 0 -.0797 331.585 193.785)"/></g><g id="xtick_25"><use xlink:href="#m9a5cc066c6" id="line2d_105" x="364.534" y="184.882" style="stroke:#000;stroke-width:.5"/><use xlink:href="#md23a6a53b1" id="line2d_106" x="364.534" y="37.599" style="stroke:#000;stroke-width:.5"/><g id="text_21" transform="matrix(.08 0 0 -.08 356.564 193.785)"><use xlink:href="#NimbusRomNo9L-Regu-32" transform="scale(.99626)"/><use xlink:href="#NimbusRomNo9L-Regu-30" transform="translate(49.813)scale(.99626)"/><use xlink:href="#NimbusRomNo9L-Regu-30" transform="translate(99.626)scale(.99626)"/><use xlink:href="#NimbusRomNo9L-Regu-30" transform="translate(149.44)scale(.99626)"/></g></g><g id="xtick_26"><use xlink:href="#m9a5cc066c6" id="line2d_107" x="395.491" y="184.882" style="stroke:#000;stroke-width:.5"/><use xlink:href="#md23a6a53b1" id="line2d_108" x="395.491" y="37.599" style="stroke:#000;stroke-width:.5"/><g id="text_22" transform="matrix(.08 0 0 -.08 387.521 193.785)"><use xlink:href="#NimbusRomNo9L-Regu-34" transform="scale(.99626)"/><use xlink:href="#NimbusRomNo9L-Regu-30" transform="translate(49.813)scale(.99626)"/><use xlink:href="#NimbusRomNo9L-Regu-30" transform="translate(99.626)scale(.99626)"/><use xlink:href="#NimbusRomNo9L-Regu-30" transform="translate(149.44)scale(.99626)"/></g></g><g id="xtick_27"><use xlink:href="#m0ce00805d0" id="line2d_109" x="248.446" y="184.882" style="stroke:#000;stroke-width:.5"/><use xlink:href="#m69809865f2" id="line2d_110" x="248.446" y="37.599" style="stroke:#000;stroke-width:.5"/></g><g id="xtick_28"><use xlink:href="#m0ce00805d0" id="line2d_111" x="256.185" y="184.882" style="stroke:#000;stroke-width:.5"/><use xlink:href="#m69809865f2" id="line2d_112" x="256.185" y="37.599" style="stroke:#000;stroke-width:.5"/></g><g id="xtick_29"><use xlink:href="#m0ce00805d0" id="line2d_113" x="263.924" y="184.882" style="stroke:#000;stroke-width:.5"/><use xlink:href="#m69809865f2" id="line2d_114" x="263.924" y="37.599" style="stroke:#000;stroke-width:.5"/></g><g id="xtick_30"><use xlink:href="#m0ce00805d0" id="line2d_115" x="279.403" y="184.882" style="stroke:#000;stroke-width:.5"/><use xlink:href="#m69809865f2" id="line2d_116" x="279.403" y="37.599" style="stroke:#000;stroke-width:.5"/></g><g id="xtick_31"><use xlink:href="#m0ce00805d0" id="line2d_117" x="287.142" y="184.882" style="stroke:#000;stroke-width:.5"/><use xlink:href="#m69809865f2" id="line2d_118" x="287.142" y="37.599" style="stroke:#000;stroke-width:.5"/></g><g id="xtick_32"><use xlink:href="#m0ce00805d0" id="line2d_119" x="294.881" y="184.882" style="stroke:#000;stroke-width:.5"/><use xlink:href="#m69809865f2" id="line2d_120" x="294.881" y="37.599" style="stroke:#000;stroke-width:.5"/></g><g id="xtick_33"><use xlink:href="#m0ce00805d0" id="line2d_121" x="310.36" y="184.882" style="stroke:#000;stroke-width:.5"/><use xlink:href="#m69809865f2" id="line2d_122" x="310.36" y="37.599" style="stroke:#000;stroke-width:.5"/></g><g id="xtick_34"><use xlink:href="#m0ce00805d0" id="line2d_123" x="318.099" y="184.882" style="stroke:#000;stroke-width:.5"/><use xlink:href="#m69809865f2" id="line2d_124" x="318.099" y="37.599" style="stroke:#000;stroke-width:.5"/></g><g id="xtick_35"><use xlink:href="#m0ce00805d0" id="line2d_125" x="325.838" y="184.882" style="stroke:#000;stroke-width:.5"/><use xlink:href="#m69809865f2" id="line2d_126" x="325.838" y="37.599" style="stroke:#000;stroke-width:.5"/></g><g id="xtick_36"><use xlink:href="#m0ce00805d0" id="line2d_127" x="341.317" y="184.882" style="stroke:#000;stroke-width:.5"/><use xlink:href="#m69809865f2" id="line2d_128" x="341.317" y="37.599" style="stroke:#000;stroke-width:.5"/></g><g id="xtick_37"><use xlink:href="#m0ce00805d0" id="line2d_129" x="349.056" y="184.882" style="stroke:#000;stroke-width:.5"/><use xlink:href="#m69809865f2" id="line2d_130" x="349.056" y="37.599" style="stroke:#000;stroke-width:.5"/></g><g id="xtick_38"><use xlink:href="#m0ce00805d0" id="line2d_131" x="356.795" y="184.882" style="stroke:#000;stroke-width:.5"/><use xlink:href="#m69809865f2" id="line2d_132" x="356.795" y="37.599" style="stroke:#000;stroke-width:.5"/></g><g id="xtick_39"><use xlink:href="#m0ce00805d0" id="line2d_133" x="372.274" y="184.882" style="stroke:#000;stroke-width:.5"/><use xlink:href="#m69809865f2" id="line2d_134" x="372.274" y="37.599" style="stroke:#000;stroke-width:.5"/></g><g id="xtick_40"><use xlink:href="#m0ce00805d0" id="line2d_135" x="380.013" y="184.882" style="stroke:#000;stroke-width:.5"/><use xlink:href="#m69809865f2" id="line2d_136" x="380.013" y="37.599" style="stroke:#000;stroke-width:.5"/></g><g id="xtick_41"><use xlink:href="#m0ce00805d0" id="line2d_137" x="387.752" y="184.882" style="stroke:#000;stroke-width:.5"/><use xlink:href="#m69809865f2" id="line2d_138" x="387.752" y="37.599" style="stroke:#000;stroke-width:.5"/></g><g id="xtick_42"><use xlink:href="#m0ce00805d0" id="line2d_139" x="403.23" y="184.882" style="stroke:#000;stroke-width:.5"/><use xlink:href="#m69809865f2" id="line2d_140" x="403.23" y="37.599" style="stroke:#000;stroke-width:.5"/></g><g id="xtick_43"><use xlink:href="#m0ce00805d0" id="line2d_141" x="410.97" y="184.882" style="stroke:#000;stroke-width:.5"/><use xlink:href="#m69809865f2" id="line2d_142" x="410.97" y="37.599" style="stroke:#000;stroke-width:.5"/></g><g id="text_23" transform="matrix(.08 0 0 -.08 308.13 204.915)"><defs><path id="NimbusRomNo9L-Regu-46" d="M3066 1472v1485h-148c-76-496-192-589-704-589h-928v1398c0 177 32 215 205 215h871c723 0 864-95 972-667h160l-19 910H77v-122c473-38 557-128 557-577V749c0-532-71-615-557-615V0h1792v134c-493 0-583 91-583 558v1414h928c519 0 628-99 704-634z" transform="scale(.01563)"/><path id="NimbusRomNo9L-Regu-72" d="M45 2496c89 19 147 26 224 26 160 0 217-103 217-384V538c0-320-44-365-454-442V0h1536v102c-435 0-544 97-544 463v1448c0 206 275 528 448 528 38 0 96-32 166-96 103-90 173-128 256-128 154 0 250 109 250 288 0 211-134 339-352 339-269 0-454-147-768-601v588l-32 13c-339-141-570-223-947-345z" transform="scale(.01563)"/><path id="NimbusRomNo9L-Regu-71" d="M2304 2701c-294 173-486 230-736 230-800 0-1414-713-1414-1631C154 498 576-70 1178-70c371 0 723 166 1004 473V-824c0-364-115-462-569-462v-122h1510v90c-352 77-403 128-403 397v3827h-70zM2182 804c0-153-25-235-89-286-141-121-352-198-551-198-198 0-371 64-499 191-205 185-339 599-339 1019 0 752 339 1222 883 1222 397 0 595-210 595-637z" transform="scale(.01563)"/><path id="NimbusRomNo9L-Regu-63" d="M2547 998c-307-448-537-601-902-601-583 0-992 512-992 1248 0 659 352 1113 870 1113 231 0 314-70 378-307l38-141c51-179 167-294 301-294 166 0 307 122 307 269 0 358-448 659-985 659-314 0-640-128-903-358-320-282-499-717-499-1223C160 531 666-64 1376-64c288 0 544 102 774 301 173 153 295 326 487 704z" transform="scale(.01563)"/><path id="NimbusRomNo9L-Regu-79" d="M3040 2880h-864v-96c205 0 307-58 307-161 0-26-6-64-25-109L1837 742l-736 1635c-39 91-64 175-64 245 0 117 96 162 371 162v96H90v-90c166-25 275-96 326-205l730-1580 19-52 96-192c179-321 281-552 281-649 0-96-147-501-256-694-89-167-230-289-320-289-38 0-96 13-160 45-121 45-230 71-339 71-147 0-275-128-275-282 0-211 205-371 474-371 428 0 736 359 1081 1284l986 2619c83 206 153 270 307 289z" transform="scale(.01563)"/><path id="NimbusRomNo9L-Regu-48" d="M1338 2304v1229c0 457 70 526 563 571v120H122v-120c492-45 563-115 563-577V749c0-539-64-615-563-615V0h1779v121c-480 38-563 121-563 578v1323h1939V757c0-546-64-623-563-623V0h1779v121c-480 38-563 121-563 575v2833c0 460 70 530 563 575v120H2714v-120c492-45 563-114 563-571V2304z" transform="scale(.01563)"/><path id="NimbusRomNo9L-Regu-7a" d="m2675 864-115 26c-64-320-102-423-186-532-89-108-307-166-633-166H858l1721 2592v96H358l-19-755h115c58 467 154 563 538 563h883L173 96V0h2413z" transform="scale(.01563)"/></defs><use xlink:href="#NimbusRomNo9L-Regu-46" transform="scale(.99626)"/><use xlink:href="#NimbusRomNo9L-Regu-72" transform="translate(55.392)scale(.99626)"/><use xlink:href="#NimbusRomNo9L-Regu-65" transform="translate(88.567)scale(.99626)"/><use xlink:href="#NimbusRomNo9L-Regu-71" transform="translate(132.8)scale(.99626)"/><use xlink:href="#NimbusRomNo9L-Regu-75" transform="translate(182.614)scale(.99626)"/><use xlink:href="#NimbusRomNo9L-Regu-65" transform="translate(232.427)scale(.99626)"/><use xlink:href="#NimbusRomNo9L-Regu-6e" transform="translate(276.66)scale(.99626)"/><use xlink:href="#NimbusRomNo9L-Regu-63" transform="translate(326.474)scale(.99626)"/><use xlink:href="#NimbusRomNo9L-Regu-79" transform="translate(369.214)scale(.99626)"/><use xlink:href="#NimbusRomNo9L-Regu-5b" transform="translate(443.934)scale(.99626)"/><use xlink:href="#NimbusRomNo9L-Regu-48" transform="translate(477.109)scale(.99626)"/><use xlink:href="#NimbusRomNo9L-Regu-7a" transform="translate(549.039)scale(.99626)"/><use xlink:href="#NimbusRomNo9L-Regu-5d" transform="translate(593.272)scale(.99626)"/></g></g><g id="matplotlib.axis_4"><g id="ytick_26"><use xlink:href="#m8cf96bafb1" id="line2d_143" x="248.057" y="184.882" style="stroke:#000;stroke-width:.5"/><use xlink:href="#mbec151b44e" id="line2d_144" x="418.32" y="184.882" style="stroke:#000;stroke-width:.5"/><g id="text_24" transform="matrix(.08 0 0 -.08 226.41 187.584)"><use xlink:href="#CMSY10-0" transform="scale(.99626)"/><use xlink:href="#NimbusRomNo9L-Regu-31" transform="translate(77.409)scale(.99626)"/><use xlink:href="#NimbusRomNo9L-Regu-30" transform="translate(127.222)scale(.99626)"/><use xlink:href="#NimbusRomNo9L-Regu-30" transform="translate(177.035)scale(.99626)"/></g></g><g id="ytick_27"><use xlink:href="#m8cf96bafb1" id="line2d_145" x="248.057" y="165.244" style="stroke:#000;stroke-width:.5"/><use xlink:href="#mbec151b44e" id="line2d_146" x="418.32" y="165.244" style="stroke:#000;stroke-width:.5"/><g id="text_25" transform="matrix(.08 0 0 -.08 230.394 167.946)"><use xlink:href="#CMSY10-0" transform="scale(.99626)"/><use xlink:href="#NimbusRomNo9L-Regu-38" transform="translate(77.409)scale(.99626)"/><use xlink:href="#NimbusRomNo9L-Regu-30" transform="translate(127.222)scale(.99626)"/></g></g><g id="ytick_28"><use xlink:href="#m8cf96bafb1" id="line2d_147" x="248.057" y="145.606" style="stroke:#000;stroke-width:.5"/><use xlink:href="#mbec151b44e" id="line2d_148" x="418.32" y="145.606" style="stroke:#000;stroke-width:.5"/><g id="text_26" transform="matrix(.08 0 0 -.08 230.394 148.308)"><use xlink:href="#CMSY10-0" transform="scale(.99626)"/><use xlink:href="#NimbusRomNo9L-Regu-36" transform="translate(77.409)scale(.99626)"/><use xlink:href="#NimbusRomNo9L-Regu-30" transform="translate(127.222)scale(.99626)"/></g></g><g id="ytick_29"><use xlink:href="#m8cf96bafb1" id="line2d_149" x="248.057" y="125.969" style="stroke:#000;stroke-width:.5"/><use xlink:href="#mbec151b44e" id="line2d_150" x="418.32" y="125.969" style="stroke:#000;stroke-width:.5"/><g id="text_27" transform="matrix(.08 0 0 -.08 230.394 128.67)"><use xlink:href="#CMSY10-0" transform="scale(.99626)"/><use xlink:href="#NimbusRomNo9L-Regu-34" transform="translate(77.409)scale(.99626)"/><use xlink:href="#NimbusRomNo9L-Regu-30" transform="translate(127.222)scale(.99626)"/></g></g><g id="ytick_30"><use xlink:href="#m8cf96bafb1" id="line2d_151" x="248.057" y="106.331" style="stroke:#000;stroke-width:.5"/><use xlink:href="#mbec151b44e" id="line2d_152" x="418.32" y="106.331" style="stroke:#000;stroke-width:.5"/><g id="text_28" transform="matrix(.08 0 0 -.08 230.394 109.033)"><use xlink:href="#CMSY10-0" transform="scale(.99626)"/><use xlink:href="#NimbusRomNo9L-Regu-32" transform="translate(77.409)scale(.99626)"/><use xlink:href="#NimbusRomNo9L-Regu-30" transform="translate(127.222)scale(.99626)"/></g></g><g id="ytick_31"><use xlink:href="#m8cf96bafb1" id="line2d_153" x="248.057" y="86.693" style="stroke:#000;stroke-width:.5"/><use xlink:href="#mbec151b44e" id="line2d_154" x="418.32" y="86.693" style="stroke:#000;stroke-width:.5"/><use xlink:href="#NimbusRomNo9L-Regu-30" id="text_29" transform="matrix(.0797 0 0 -.0797 240.572 89.395)"/></g><g id="ytick_32"><use xlink:href="#m8cf96bafb1" id="line2d_155" x="248.057" y="67.056" style="stroke:#000;stroke-width:.5"/><use xlink:href="#mbec151b44e" id="line2d_156" x="418.32" y="67.056" style="stroke:#000;stroke-width:.5"/><g id="text_30" transform="matrix(.08 0 0 -.08 236.587 69.758)"><use xlink:href="#NimbusRomNo9L-Regu-32" transform="scale(.99626)"/><use xlink:href="#NimbusRomNo9L-Regu-30" transform="translate(49.813)scale(.99626)"/></g></g><g id="ytick_33"><use xlink:href="#m8cf96bafb1" id="line2d_157" x="248.057" y="47.418" style="stroke:#000;stroke-width:.5"/><use xlink:href="#mbec151b44e" id="line2d_158" x="418.32" y="47.418" style="stroke:#000;stroke-width:.5"/><g id="text_31" transform="matrix(.08 0 0 -.08 236.587 50.12)"><use xlink:href="#NimbusRomNo9L-Regu-34" transform="scale(.99626)"/><use xlink:href="#NimbusRomNo9L-Regu-30" transform="translate(49.813)scale(.99626)"/></g></g><g id="ytick_34"><use xlink:href="#m65d612ee45" id="line2d_159" x="248.057" y="179.972" style="stroke:#000;stroke-width:.5"/><use xlink:href="#me836e00145" id="line2d_160" x="418.32" y="179.972" style="stroke:#000;stroke-width:.5"/></g><g id="ytick_35"><use xlink:href="#m65d612ee45" id="line2d_161" x="248.057" y="175.063" style="stroke:#000;stroke-width:.5"/><use xlink:href="#me836e00145" id="line2d_162" x="418.32" y="175.063" style="stroke:#000;stroke-width:.5"/></g><g id="ytick_36"><use xlink:href="#m65d612ee45" id="line2d_163" x="248.057" y="170.154" style="stroke:#000;stroke-width:.5"/><use xlink:href="#me836e00145" id="line2d_164" x="418.32" y="170.154" style="stroke:#000;stroke-width:.5"/></g><g id="ytick_37"><use xlink:href="#m65d612ee45" id="line2d_165" x="248.057" y="160.335" style="stroke:#000;stroke-width:.5"/><use xlink:href="#me836e00145" id="line2d_166" x="418.32" y="160.335" style="stroke:#000;stroke-width:.5"/></g><g id="ytick_38"><use xlink:href="#m65d612ee45" id="line2d_167" x="248.057" y="155.425" style="stroke:#000;stroke-width:.5"/><use xlink:href="#me836e00145" id="line2d_168" x="418.32" y="155.425" style="stroke:#000;stroke-width:.5"/></g><g id="ytick_39"><use xlink:href="#m65d612ee45" id="line2d_169" x="248.057" y="150.516" style="stroke:#000;stroke-width:.5"/><use xlink:href="#me836e00145" id="line2d_170" x="418.32" y="150.516" style="stroke:#000;stroke-width:.5"/></g><g id="ytick_40"><use xlink:href="#m65d612ee45" id="line2d_171" x="248.057" y="140.697" style="stroke:#000;stroke-width:.5"/><use xlink:href="#me836e00145" id="line2d_172" x="418.32" y="140.697" style="stroke:#000;stroke-width:.5"/></g><g id="ytick_41"><use xlink:href="#m65d612ee45" id="line2d_173" x="248.057" y="135.788" style="stroke:#000;stroke-width:.5"/><use xlink:href="#me836e00145" id="line2d_174" x="418.32" y="135.788" style="stroke:#000;stroke-width:.5"/></g><g id="ytick_42"><use xlink:href="#m65d612ee45" id="line2d_175" x="248.057" y="130.878" style="stroke:#000;stroke-width:.5"/><use xlink:href="#me836e00145" id="line2d_176" x="418.32" y="130.878" style="stroke:#000;stroke-width:.5"/></g><g id="ytick_43"><use xlink:href="#m65d612ee45" id="line2d_177" x="248.057" y="121.059" style="stroke:#000;stroke-width:.5"/><use xlink:href="#me836e00145" id="line2d_178" x="418.32" y="121.059" style="stroke:#000;stroke-width:.5"/></g><g id="ytick_44"><use xlink:href="#m65d612ee45" id="line2d_179" x="248.057" y="116.15" style="stroke:#000;stroke-width:.5"/><use xlink:href="#me836e00145" id="line2d_180" x="418.32" y="116.15" style="stroke:#000;stroke-width:.5"/></g><g id="ytick_45"><use xlink:href="#m65d612ee45" id="line2d_181" x="248.057" y="111.241" style="stroke:#000;stroke-width:.5"/><use xlink:href="#me836e00145" id="line2d_182" x="418.32" y="111.241" style="stroke:#000;stroke-width:.5"/></g><g id="ytick_46"><use xlink:href="#m65d612ee45" id="line2d_183" x="248.057" y="101.422" style="stroke:#000;stroke-width:.5"/><use xlink:href="#me836e00145" id="line2d_184" x="418.32" y="101.422" style="stroke:#000;stroke-width:.5"/></g><g id="ytick_47"><use xlink:href="#m65d612ee45" id="line2d_185" x="248.057" y="96.512" style="stroke:#000;stroke-width:.5"/><use xlink:href="#me836e00145" id="line2d_186" x="418.32" y="96.512" style="stroke:#000;stroke-width:.5"/></g><g id="ytick_48"><use xlink:href="#m65d612ee45" id="line2d_187" x="248.057" y="91.603" style="stroke:#000;stroke-width:.5"/><use xlink:href="#me836e00145" id="line2d_188" x="418.32" y="91.603" style="stroke:#000;stroke-width:.5"/></g><g id="ytick_49"><use xlink:href="#m65d612ee45" id="line2d_189" x="248.057" y="81.784" style="stroke:#000;stroke-width:.5"/><use xlink:href="#me836e00145" id="line2d_190" x="418.32" y="81.784" style="stroke:#000;stroke-width:.5"/></g><g id="ytick_50"><use xlink:href="#m65d612ee45" id="line2d_191" x="248.057" y="76.875" style="stroke:#000;stroke-width:.5"/><use xlink:href="#me836e00145" id="line2d_192" x="418.32" y="76.875" style="stroke:#000;stroke-width:.5"/></g><g id="ytick_51"><use xlink:href="#m65d612ee45" id="line2d_193" x="248.057" y="71.965" style="stroke:#000;stroke-width:.5"/><use xlink:href="#me836e00145" id="line2d_194" x="418.32" y="71.965" style="stroke:#000;stroke-width:.5"/></g><g id="ytick_52"><use xlink:href="#m65d612ee45" id="line2d_195" x="248.057" y="62.146" style="stroke:#000;stroke-width:.5"/><use xlink:href="#me836e00145" id="line2d_196" x="418.32" y="62.146" style="stroke:#000;stroke-width:.5"/></g><g id="ytick_53"><use xlink:href="#m65d612ee45" id="line2d_197" x="248.057" y="57.237" style="stroke:#000;stroke-width:.5"/><use xlink:href="#me836e00145" id="line2d_198" x="418.32" y="57.237" style="stroke:#000;stroke-width:.5"/></g><g id="ytick_54"><use xlink:href="#m65d612ee45" id="line2d_199" x="248.057" y="52.328" style="stroke:#000;stroke-width:.5"/><use xlink:href="#me836e00145" id="line2d_200" x="418.32" y="52.328" style="stroke:#000;stroke-width:.5"/></g><g id="ytick_55"><use xlink:href="#m65d612ee45" id="line2d_201" x="248.057" y="42.509" style="stroke:#000;stroke-width:.5"/><use xlink:href="#me836e00145" id="line2d_202" x="418.32" y="42.509" style="stroke:#000;stroke-width:.5"/></g><g id="ytick_56"><use xlink:href="#m65d612ee45" id="line2d_203" x="248.057" y="37.599" style="stroke:#000;stroke-width:.5"/><use xlink:href="#me836e00145" id="line2d_204" x="418.32" y="37.599" style="stroke:#000;stroke-width:.5"/></g><g id="text_32" transform="matrix(0 -.08 -.08 0 220.684 136.808)"><use xlink:href="#NimbusRomNo9L-Regu-4d" transform="scale(.99626)"/><use xlink:href="#NimbusRomNo9L-Regu-61" transform="translate(88.567)scale(.99626)"/><use xlink:href="#NimbusRomNo9L-Regu-67" transform="translate(132.8)scale(.99626)"/><use xlink:href="#NimbusRomNo9L-Regu-6e" transform="translate(182.614)scale(.99626)"/><use xlink:href="#NimbusRomNo9L-Regu-69" transform="translate(232.427)scale(.99626)"/><use xlink:href="#NimbusRomNo9L-Regu-74" transform="translate(260.122)scale(.99626)"/><use xlink:href="#NimbusRomNo9L-Regu-75" transform="translate(287.817)scale(.99626)"/><use xlink:href="#NimbusRomNo9L-Regu-64" transform="translate(337.63)scale(.99626)"/><use xlink:href="#NimbusRomNo9L-Regu-65" transform="translate(387.444)scale(.99626)"/><use xlink:href="#NimbusRomNo9L-Regu-5b" transform="translate(456.584)scale(.99626)"/><use xlink:href="#NimbusRomNo9L-Regu-64" transform="translate(489.759)scale(.99626)"/><use xlink:href="#NimbusRomNo9L-Regu-42" transform="translate(539.572)scale(.99626)"/><use xlink:href="#NimbusRomNo9L-Regu-5d" transform="translate(606.022)scale(.99626)"/></g></g><path id="line2d_205" d="m255.796 69.978.778 7.728.778.328.778-2.07.777-10.874.778 13.482.778 5.019.778-14.656.778 26.104.778-24.686.777-.89.778 5.447.778-7.798.778 2.766.778.917.777-3.706.778 23.927.778-19.856.778 5.046.778-2.43.777-5.695.778 24.398.778-7.13.778-2.159.778-4.942.778-1.735.777-6.884.778 25.991.778-29.159.778 4.002.778 1.67.777-3.281.778.534.778 10.26.778-12.957.778 8.606.777 1.255.778-7.873.778 4.33.778 6.464.778 14.608.777-17.793.778-1.83.778-6.67.778 5.942.778 1.709.778-4.269.777-5.38.778 4.683.778-4.146.778 8.075.778-3.614.777-1.953.778 10.499.778 3.935.778-11.786.778-3.542.777 10.593.778-5.178.778-.892.778-2.965.778-1.745.778 1.444.777 6.928.778-6.043.778 3.119.778 5.719.778-13.09.777 4.573.778 12.023.778-9.006.778 13.91.778-11.694.777-4.052.778 1.44.778 18.574.778-13.985.778-1.741.778-6.111.777 9.401.778-8.086 1.556 12.868.778-13.748.777 3.863.778 1.83.778-3.762.778 12.15.778-15.283.777 2.272.778 5.455.778-3.37.778-1.97.778-4.93.778 2.147.777 9.61.778.735.778-1.676.778-5.238.778 2.78.777-31.93.778 36.895.778-9.016.778 36.094.778-30.697.777-1.96.778 3.735.778-7.31.778-2.067.778 4.217.778-1.647.777 2.988.778-5.458.778 11.072.778-6.512.778-2.892.777 3.754.778-6.098.778 9.924.778-8.249.778.663.777 5.923.778-1.734.778 2.631.778-4.817.778 1.476.778-2.167.777 5.52.778-4.992.778 6.527.778-9.568.778 11.631.777-8.257.778-2.288.778 2.01.778 14.71.778-17.472.777 2.775.778 1.018.778-5.455.778 4.565.778 2.264.777-.294.778 19.666.778-20.941.778-1.939.778 3.786.778 5.77.777-4.657.778-5.72.778 3.327.778-4.503.778 15.528.777-16.928.778 8.598.778-9.433.778 2.374.778-2.093.777 6.244.778-2.254.778 10.702.778-12.197.778 7.888.778-7.707.777 8.231.778-7.305.778 1.55.778-2.965.778-.321.777 4.008.778-5.449.778 5.465.778-3.07 1.555 3.424.778-.405.778 2.395.778-2.582.778.514.778-.165.777-4.058.778-.005.778 11.19.778-12.715.778 18.47.777-16.125.778 1.311.778-1.275.778.299.778 3.164.777-5.32.778-2.003.778 12.45.778-9.108.778 2.714.778 17.55.777-24.703.778 16.334.778-5.935.778 7.301h0" clip-path="url(#p1252bf263d)" style="fill:none;stroke:#000;stroke-linecap:square"/><path id="line2d_206" d="m255.796 111.11 1.556 5.634.778 1.409.777-11.2.778 5.744.778 2.742.778.455.778-.519.778-7.8.777 3.136.778 10.08.778-11.672.778 6.134.778 1.757.777-5.095.778 1.25.778-4.353.778 7.077.778-3.953.777.361.778 3.952.778-4.353.778 4.044.778.635.778-3.42.777 1.991.778-2.471.778-2.887.778 4.317.778-5.962.777 1.514.778 6.843.778.79.778 2.718.778-4.534.777-5.546.778 4.616.778-.745.778 14.232.778-16.272.777 4.348.778-7.808.778 6.316.778-3.19.778-.953.778 4.897.777-.414.778-3.32.778-1.802.778.224.778.506.777 1.955.778 4.1.778-.63.778-1.07.778 6.047.777-5.885.778 9.455.778 14.483.778-28.986.778-2.193.778 4.821.777-4.356.778 9.425.778 2.912.778 6.393.778-17.71.777 1.486.778 5.861.778-7.134.778 1.44.778-.397.777 2.325.778.389.778-.923.778 8.983.778 5.713.778-12.526.777 4.743.778-7.645.778.487.778 13.474.778-12.579.777 2.164.778-3.92 1.556 3.435.778-2.7.777 8.77.778-5.821.778 4.454 1.556-10.34.778 5.713.777 8.605.778-.901.778.517 1.556-16.57.777-24.635.778 23.37.778 11.973.778-2.27.778 11.063.777 2.358.778-14.418.778-7.515.778 8.43.778.08.778.62.777 1.882.778-.752.778-4.938.778.267.778-2.812.777 6.43.778.869.778 1.329.778 5.286.778-12.453.777 9.395.778-10.019.778 14.542.778-5.264.778-3.594.778-2.527 1.555-3.801.778.894.778 1.541.778 15.003.777-16.997.778-2.087.778 12.384.778 4.857.778-5.974.777-8.024.778.077.778-1.17.778-.406.778 10.3.777-3.71.778 4.327.778-8.219.778 11.854.778-11.715.778 3.12.777-3.665.778-.265.778-3.096.778-.21.778 1.816.777 1.206.778 12.381.778-5.204.778-6.815.778 2.3.777-3.21.778 8.322.778-4.024.778 6.887.778-7.16.778-1.33.777-3.216.778 9.639.778-2.935.778 5.38.778-11.642.777-2.4.778.556.778 3.725.778-2.697.778 6.232.777 1.56.778-6.95.778 7.042.778-1.399.778-7.65.778 8.938.777-1.792.778-4.333.778 4.75.778-5.952.778 3.241.777-1.453.778 2.065.778.623.778-6.814.778 15.325.777-7.583.778-2.446.778 4.561.778-5.48.778 9.939.778-4.294.777-7.233.778 7.252.778.564.778 2.607" clip-path="url(#p1252bf263d)" style="fill:none;stroke-dasharray:3.7,1.6;stroke-dashoffset:0;stroke:red"/><path id="line2d_207" d="m255.796 149.697.778-6.615.778 9.701.778-4.718.777 17.072.778-21.22.778 18.953.778-12.613.778 5.998.778-11.55.777-1.339.778.319 1.556 6.263.778 2.618.777-8.568.778 3.597.778 1.542.778.067.778-4.26.777 3.236.778 2.27.778-1.374.778 1.087.778-5.203.778 4.213.777-3.816.778 6.716.778-4.173.778.991.778 5.62.777-1.675.778-7.35.778 6.508.778-5.824.778-.184.777 11.928.778-4.038.778.416.778-3.351.778 2.023.777 4.616.778-11.966.778 5.106.778-11.228.778 4.383.778 3.42.777 6.979.778-8.43.778-1.327.778-2.675.778 6.531.777 1.452.778-2.914.778 3.124.778-5.516.778 6.907 1.555-7.361.778 3.223.778-6.11.778 3.386.778-3.704.777 5.96.778 1.138.778-3.767.778 16.033.778-12.817.777 10.537.778-12.184.778 1.003.778.323.778 4.01 1.555-4.925.778-4.248.778 7.744.778 4.493.778.266.777-.632.778-9.247.778 5.783.778-10.197.778 9.677.777-1.022.778-2.946.778-1.337.778-4.293.778-.544.777 21.456.778-11.4.778 7.294.778-9.099.778 7.68.778 12.627.777-24.42.778 15.158.778-12.368.778-1.538.778 1.636.777 2.092.778 3.85.778 1.918.778-.727.778 10.3.777-15.765.778 3.943.778-1.86.778 10.382.778-17.745.778 4.304.777 2.925.778-1.925.778-7.415.778 8.016.778 5.392.777-3.623.778-2.862.778-.416.778 8.976.778-13.041.777 6.633.778-9.02.778 4.64.778-.341.778 2.103 1.555 8.538.778-9.407.778-5.632.778 6.805.778 2.428.777.386.778-7.56.778 4.16.778-2.765.778 6.491.777 13.288.778-17.908.778-1.044.778 12.257.778-15.188.777 4.728.778-5.855.778 14.901.778-9.265.778-3.61.778 6.94.777-3.448.778 4.285.778-6.589.778 3.438.778 1.57.777.584.778.077.778-1.077.778-7.87.778 15.428.777-8.222.778-.878.778 3.368.778 1.965.778-4.03.778 3.548.777-3.795.778 2.49.778-7.147.778 8.689.778 7.04.777-9 .778-2.352.778-5.353.778 13.499.778-10.487.777 3.484.778 8.748.778-1.017.778-4.908.778-7.464.778 4.782.777-.79.778-.188.778 2.466.778-4.82.778 4.54.777-5.788.778 6.966.778 5.962.778-15.314.778 3.739.777 5.547.778.342.778-1.998.778 2.064.778-3.102.778 1.427.777 4.439.778-11.555.778 14.46.778-9.504" clip-path="url(#p1252bf263d)" style="fill:none;stroke-dasharray:1,1.65;stroke-dashoffset:0;stroke:#00f"/><path id="patch_8" d="M248.057 184.882V37.599" style="fill:none;stroke:#000;stroke-width:.5;stroke-linejoin:miter;stroke-linecap:square"/><path id="patch_9" d="M418.32 184.882V37.599" style="fill:none;stroke:#000;stroke-width:.5;stroke-linejoin:miter;stroke-linecap:square"/><path id="patch_10" d="M248.057 184.882H418.32" style="fill:none;stroke:#000;stroke-width:.5;stroke-linejoin:miter;stroke-linecap:square"/><path id="patch_11" d="M248.057 37.6H418.32" style="fill:none;stroke:#000;stroke-width:.5;stroke-linejoin:miter;stroke-linecap:square"/><g id="text_33" transform="matrix(.096 0 0 -.096 297.534 31.6)"><use xlink:href="#NimbusRomNo9L-Regu-46" transform="scale(.99626)"/><use xlink:href="#NimbusRomNo9L-Regu-72" transform="translate(55.392)scale(.99626)"/><use xlink:href="#NimbusRomNo9L-Regu-65" transform="translate(88.567)scale(.99626)"/><use xlink:href="#NimbusRomNo9L-Regu-71" transform="translate(132.8)scale(.99626)"/><use xlink:href="#NimbusRomNo9L-Regu-75" transform="translate(182.614)scale(.99626)"/><use xlink:href="#NimbusRomNo9L-Regu-65" transform="translate(232.427)scale(.99626)"/><use xlink:href="#NimbusRomNo9L-Regu-6e" transform="translate(276.66)scale(.99626)"/><use xlink:href="#NimbusRomNo9L-Regu-63" transform="translate(326.474)scale(.99626)"/><use xlink:href="#NimbusRomNo9L-Regu-79" transform="translate(369.214)scale(.99626)"/><use xlink:href="#NimbusRomNo9L-Regu-64" transform="translate(443.934)scale(.99626)"/><use xlink:href="#NimbusRomNo9L-Regu-6f" transform="translate(493.747)scale(.99626)"/><use xlink:href="#NimbusRomNo9L-Regu-6d" transform="translate(543.56)scale(.99626)"/><use xlink:href="#NimbusRomNo9L-Regu-61" transform="translate(621.068)scale(.99626)"/><use xlink:href="#NimbusRomNo9L-Regu-69" transform="translate(665.302)scale(.99626)"/><use xlink:href="#NimbusRomNo9L-Regu-6e" transform="translate(692.997)scale(.99626)"/></g></g><g id="text_34" transform="matrix(.096 0 0 -.096 191.817 10.084)"><defs><path id="NimbusRomNo9L-Regu-4c" d="M3667 1114c-109-244-198-391-294-500-224-249-576-364-1107-364h-429c-467 0-551 38-551 263v3037c0 457 90 546 596 546v141H77v-122c473-38 557-129 557-579V681c0-451-90-547-557-547V0h3443l307 1114z" transform="scale(.01563)"/><path id="NimbusRomNo9L-Regu-77" d="M3654 2912v-96c218-45 282-90 282-198 0-97-38-251-109-424L3251 770l-537 1437c-109 294-109 294-109 379 0 140 70 185 371 230v96H1677v-96c237-26 313-96 441-443 45-121 90-244 128-359L1664 738l-634 1674c-25 64-38 128-38 193 0 134 77 185 294 211v96H134v-96c148-13 199-77 340-404l864-2193c76-193 128-283 166-283 32 0 83 84 160 250l717 1539 582-1513c90-237 115-276 154-276 45 0 77 58 179 315l883 2218c115 270 135 302 263 347v96z" transform="scale(.01563)"/><path id="NimbusRomNo9L-Regu-4e" d="M3917-64v3351c0 382 64 618 185 700 90 64 180 90 423 115v122H3021v-122c243-19 333-45 429-102 128-89 185-319 185-714V1136L1171 4224H77v-122c275 0 365-51 621-351V938c0-657-90-779-621-817V0h1504v134c-493 0-602 147-602 794v2511L3808-64z" transform="scale(.01563)"/><path id="NimbusRomNo9L-Regu-52" d="M4218 121c-244 19-372 84-557 303L2342 2061c429 82 621 158 832 327 205 165 327 430 327 725 0 272-83 505-250 688-243 258-774 423-1376 423H109v-122c480-51 544-121 544-574V765c0-529-64-606-544-644V0h1773v134c-493 0-576 85-576 558v1292h358L3187 0h1031zM1306 3762c0 175 70 225 326 225 800 0 1171-271 1171-864 0-316-134-581-365-700-294-165-518-202-1132-202z" transform="scale(.01563)"/></defs><use xlink:href="#NimbusRomNo9L-Regu-4c" transform="scale(.99626)"/><use xlink:href="#NimbusRomNo9L-Regu-6f" transform="translate(60.872)scale(.99626)"/><use xlink:href="#NimbusRomNo9L-Regu-77" transform="translate(108.194)scale(.99626)"/><use xlink:href="#NimbusRomNo9L-Regu-53" transform="translate(205.03)scale(.99626)"/><use xlink:href="#NimbusRomNo9L-Regu-4e" transform="translate(260.422)scale(.99626)"/><use xlink:href="#NimbusRomNo9L-Regu-52" transform="translate(332.352)scale(.99626)"/></g></g><defs><clipPath id="p4654a7fc87"><path d="M36.377 37.599H206.64v147.282H36.377z"/></clipPath><clipPath id="p1252bf263d"><path d="M248.057 37.599H418.32v147.282H248.057z"/></clipPath></defs></svg>