<svg xmlns="http://www.w3.org/2000/svg" xmlns:xlink="http://www.w3.org/1999/xlink" width="562.56" height="280.32" viewBox="0 0 421.92 210.24"><defs><style>*{stroke-linejoin:round;stroke-linecap:butt}</style></defs><g id="figure_1"><path id="patch_1" d="M0 210.24h421.92V0H0z" style="fill:none"/><g id="axes_1"><path id="patch_2" d="M36.377 184.882H206.64V37.599H36.377z" style="fill:none"/><g id="matplotlib.axis_1"><g id="xtick_1"><g id="line2d_1"><defs><path id="mc5a7ff1390" d="M0 0v-3" style="stroke:#000;stroke-width:.5"/></defs><use xlink:href="#mc5a7ff1390" x="43.338" y="184.882" style="stroke:#000;stroke-width:.5"/></g><g id="line2d_2"><defs><path id="m9da18f9bcc" d="M0 0v3" style="stroke:#000;stroke-width:.5"/></defs><use xlink:href="#m9da18f9bcc" x="43.338" y="37.599" style="stroke:#000;stroke-width:.5"/></g><g id="text_1" transform="matrix(.08 0 0 -.08 41.346 193.785)"><defs><path id="NimbusRomNo9L-Regu-30" d="M1626 4352c-352 0-621-108-858-332-371-359-614-1095-614-1844 0-697 211-1446 512-1804C902 90 1229-64 1600-64c326 0 602 109 832 333 371 352 614 1095 614 1869 0 1312-582 2214-1420 2214m-20-166c538 0 826-723 826-2061 0-1337-282-2022-832-2022S768 788 768 2119c0 1357 288 2067 838 2067" transform="scale(.01563)"/></defs><use xlink:href="#NimbusRomNo9L-Regu-30" transform="scale(.99626)"/></g></g><g id="xtick_2"><use xlink:href="#mc5a7ff1390" id="line2d_3" x="82.229" y="184.882" style="stroke:#000;stroke-width:.5"/><use xlink:href="#m9da18f9bcc" id="line2d_4" x="82.229" y="37.599" style="stroke:#000;stroke-width:.5"/><g id="text_2" transform="matrix(.08 0 0 -.08 80.236 193.785)"><defs><path id="NimbusRomNo9L-Regu-35" d="M1158 3776h1255c102 0 128 13 147 58l243 569-57 45c-96-134-160-166-295-166H1114L416 2759c-6-13-6-19-6-32 0-32 25-51 76-51 205 0 461-45 724-129 736-238 1075-637 1075-1273 0-618-391-1101-890-1101-128 0-237 45-429 187-204 148-352 212-486 212-186 0-275-77-275-238C205 90 506-64 986-64c537 0 998 174 1318 502 294 290 429 656 429 1145 0 463-122 759-442 1080-281 284-646 431-1401 566z" transform="scale(.01563)"/></defs><use xlink:href="#NimbusRomNo9L-Regu-35" transform="scale(.99626)"/></g></g><g id="xtick_3"><use xlink:href="#mc5a7ff1390" id="line2d_5" x="121.12" y="184.882" style="stroke:#000;stroke-width:.5"/><use xlink:href="#m9da18f9bcc" id="line2d_6" x="121.12" y="37.599" style="stroke:#000;stroke-width:.5"/><g id="text_3" transform="matrix(.08 0 0 -.08 117.135 193.785)"><defs><path id="NimbusRomNo9L-Regu-31" d="M1862 4339 710 3757v-90c77 32 148 58 173 71 115 45 224 70 288 70 135 0 192-97 192-303V592c0-213-51-360-153-419-96-57-186-77-455-77V0h1767v96c-506 0-608 64-608 374v3857z" transform="scale(.01563)"/></defs><use xlink:href="#NimbusRomNo9L-Regu-31" transform="scale(.99626)"/><use xlink:href="#NimbusRomNo9L-Regu-30" transform="translate(49.813)scale(.99626)"/></g></g><g id="xtick_4"><use xlink:href="#mc5a7ff1390" id="line2d_7" x="160.01" y="184.882" style="stroke:#000;stroke-width:.5"/><use xlink:href="#m9da18f9bcc" id="line2d_8" x="160.01" y="37.599" style="stroke:#000;stroke-width:.5"/><g id="text_4" transform="matrix(.08 0 0 -.08 156.025 193.785)"><use xlink:href="#NimbusRomNo9L-Regu-31" transform="scale(.99626)"/><use xlink:href="#NimbusRomNo9L-Regu-35" transform="translate(49.813)scale(.99626)"/></g></g><g id="xtick_5"><use xlink:href="#mc5a7ff1390" id="line2d_9" x="198.901" y="184.882" style="stroke:#000;stroke-width:.5"/><use xlink:href="#m9da18f9bcc" id="line2d_10" x="198.901" y="37.599" style="stroke:#000;stroke-width:.5"/><g id="text_5" transform="matrix(.08 0 0 -.08 194.916 193.785)"><defs><path id="NimbusRomNo9L-Regu-32" d="m3040 875-83 32c-237-363-320-421-608-421H819l1075 1123c570 593 820 1078 820 1576 0 638-519 1128-1184 1128-352 0-685-140-922-395-205-218-301-422-410-875l135-32c256 625 486 829 928 829 537 0 902-364 902-900 0-497-294-1090-832-1658L192 77V0h2496z" transform="scale(.01563)"/></defs><use xlink:href="#NimbusRomNo9L-Regu-32" transform="scale(.99626)"/><use xlink:href="#NimbusRomNo9L-Regu-30" transform="translate(49.813)scale(.99626)"/></g></g><g id="xtick_6"><g id="line2d_11"><defs><path id="m502d80c3f9" d="M0 0v-1.5" style="stroke:#000;stroke-width:.5"/></defs><use xlink:href="#m502d80c3f9" x="51.117" y="184.882" style="stroke:#000;stroke-width:.5"/></g><g id="line2d_12"><defs><path id="m705ed7b131" d="M0 0v1.5" style="stroke:#000;stroke-width:.5"/></defs><use xlink:href="#m705ed7b131" x="51.117" y="37.599" style="stroke:#000;stroke-width:.5"/></g></g><g id="xtick_7"><use xlink:href="#m502d80c3f9" id="line2d_13" x="58.895" y="184.882" style="stroke:#000;stroke-width:.5"/><use xlink:href="#m705ed7b131" id="line2d_14" x="58.895" y="37.599" style="stroke:#000;stroke-width:.5"/></g><g id="xtick_8"><use xlink:href="#m502d80c3f9" id="line2d_15" x="66.673" y="184.882" style="stroke:#000;stroke-width:.5"/><use xlink:href="#m705ed7b131" id="line2d_16" x="66.673" y="37.599" style="stroke:#000;stroke-width:.5"/></g><g id="xtick_9"><use xlink:href="#m502d80c3f9" id="line2d_17" x="74.451" y="184.882" style="stroke:#000;stroke-width:.5"/><use xlink:href="#m705ed7b131" id="line2d_18" x="74.451" y="37.599" style="stroke:#000;stroke-width:.5"/></g><g id="xtick_10"><use xlink:href="#m502d80c3f9" id="line2d_19" x="90.007" y="184.882" style="stroke:#000;stroke-width:.5"/><use xlink:href="#m705ed7b131" id="line2d_20" x="90.007" y="37.599" style="stroke:#000;stroke-width:.5"/></g><g id="xtick_11"><use xlink:href="#m502d80c3f9" id="line2d_21" x="97.785" y="184.882" style="stroke:#000;stroke-width:.5"/><use xlink:href="#m705ed7b131" id="line2d_22" x="97.785" y="37.599" style="stroke:#000;stroke-width:.5"/></g><g id="xtick_12"><use xlink:href="#m502d80c3f9" id="line2d_23" x="105.563" y="184.882" style="stroke:#000;stroke-width:.5"/><use xlink:href="#m705ed7b131" id="line2d_24" x="105.563" y="37.599" style="stroke:#000;stroke-width:.5"/></g><g id="xtick_13"><use xlink:href="#m502d80c3f9" id="line2d_25" x="113.341" y="184.882" style="stroke:#000;stroke-width:.5"/><use xlink:href="#m705ed7b131" id="line2d_26" x="113.341" y="37.599" style="stroke:#000;stroke-width:.5"/></g><g id="xtick_14"><use xlink:href="#m502d80c3f9" id="line2d_27" x="128.898" y="184.882" style="stroke:#000;stroke-width:.5"/><use xlink:href="#m705ed7b131" id="line2d_28" x="128.898" y="37.599" style="stroke:#000;stroke-width:.5"/></g><g id="xtick_15"><use xlink:href="#m502d80c3f9" id="line2d_29" x="136.676" y="184.882" style="stroke:#000;stroke-width:.5"/><use xlink:href="#m705ed7b131" id="line2d_30" x="136.676" y="37.599" style="stroke:#000;stroke-width:.5"/></g><g id="xtick_16"><use xlink:href="#m502d80c3f9" id="line2d_31" x="144.454" y="184.882" style="stroke:#000;stroke-width:.5"/><use xlink:href="#m705ed7b131" id="line2d_32" x="144.454" y="37.599" style="stroke:#000;stroke-width:.5"/></g><g id="xtick_17"><use xlink:href="#m502d80c3f9" id="line2d_33" x="152.232" y="184.882" style="stroke:#000;stroke-width:.5"/><use xlink:href="#m705ed7b131" id="line2d_34" x="152.232" y="37.599" style="stroke:#000;stroke-width:.5"/></g><g id="xtick_18"><use xlink:href="#m502d80c3f9" id="line2d_35" x="167.788" y="184.882" style="stroke:#000;stroke-width:.5"/><use xlink:href="#m705ed7b131" id="line2d_36" x="167.788" y="37.599" style="stroke:#000;stroke-width:.5"/></g><g id="xtick_19"><use xlink:href="#m502d80c3f9" id="line2d_37" x="175.566" y="184.882" style="stroke:#000;stroke-width:.5"/><use xlink:href="#m705ed7b131" id="line2d_38" x="175.566" y="37.599" style="stroke:#000;stroke-width:.5"/></g><g id="xtick_20"><use xlink:href="#m502d80c3f9" id="line2d_39" x="183.345" y="184.882" style="stroke:#000;stroke-width:.5"/><use xlink:href="#m705ed7b131" id="line2d_40" x="183.345" y="37.599" style="stroke:#000;stroke-width:.5"/></g><g id="xtick_21"><use xlink:href="#m502d80c3f9" id="line2d_41" x="191.123" y="184.882" style="stroke:#000;stroke-width:.5"/><use xlink:href="#m705ed7b131" id="line2d_42" x="191.123" y="37.599" style="stroke:#000;stroke-width:.5"/></g><g id="text_6" transform="matrix(.08 0 0 -.08 104.935 204.915)"><defs><path id="NimbusRomNo9L-Regu-54" d="M1626 3968V751c0-547-71-617-602-617V0h1869v134c-525 0-615 83-615 553v3281h346c730 0 870-115 1018-819h153l-38 1088H147l-38-1088h153c154 697 301 819 1018 819z" transform="scale(.01563)"/><path id="NimbusRomNo9L-Regu-69" d="m1120 2929-992-350v-95l51 6c77 12 160 19 218 19 153 0 211-103 211-384V640c0-461-64-531-506-531V0h1517v96c-422 32-473 95-473 554v2260zM819 4352c-173 0-320-147-320-326s141-327 320-327c186 0 333 141 333 327 0 179-147 326-333 326" transform="scale(.01563)"/><path id="NimbusRomNo9L-Regu-6d" d="M122 2547c83 19 134 26 204 26 167 0 224-103 224-411V539c0-347-89-443-448-443V0h1421v96c-339 0-435 70-435 322v1816c0 12 51 76 96 121 160 147 435 256 659 256 282 0 423-226 423-679V528c0-361-71-432-436-432V0h1434v96c-365 0-461 109-461 507v1618c192 275 403 390 698 390 365 0 480-173 480-704V557c0-365-51-416-423-461V0h1402v96l-166 19c-192 0-276 115-276 365v1322c0 757-249 1142-742 1142-371 0-698-166-1043-537-115 364-333 537-679 537-281 0-460-90-992-493v480l-44 13c-327-122-544-192-896-288z" transform="scale(.01563)"/><path id="NimbusRomNo9L-Regu-65" d="M2611 1053c-307-489-582-675-992-675-365 0-640 186-825 552-116 244-160 456-173 849h1971c-51 414-115 598-275 802-192 230-487 363-819 363-320 0-621-115-864-333-301-262-474-717-474-1241C160 486 621-64 1357-64c608 0 1088 379 1357 1072zM634 1984c70 495 288 730 678 730s544-179 627-730z" transform="scale(.01563)"/><path id="NimbusRomNo9L-Regu-5b" d="M1914-864h-551c-211 0-313 108-313 333v4312c0 200 83 283 288 283h576v160H563v-5248h1351z" transform="scale(.01563)"/><path id="NimbusRomNo9L-Regu-73" d="m2016 2010-26 870h-70l-13-13c-57-45-64-51-89-51-39 0-103 13-173 45-141 54-282 83-448 83-506 0-871-328-871-790 0-358 205-615 749-923l371-211c224-128 333-283 333-481 0-283-205-462-531-462-218 0-416 82-538 221-134 157-192 302-275 662H333V-39h83c45 72 70 87 147 87 58 0 147-13 295-50 179-37 352-62 467-62 493 0 902 372 902 821 0 320-153 532-537 763l-692 410c-179 103-275 264-275 437 0 257 199 436 493 436 365 0 557-220 704-793z" transform="scale(.01563)"/><path id="NimbusRomNo9L-Regu-5d" d="M218-864v-160h1350v5248H218v-160h550c211 0 314-109 314-334V-582c0-199-90-282-288-282z" transform="scale(.01563)"/></defs><use xlink:href="#NimbusRomNo9L-Regu-54" transform="scale(.99626)"/><use xlink:href="#NimbusRomNo9L-Regu-69" transform="translate(57.385)scale(.99626)"/><use xlink:href="#NimbusRomNo9L-Regu-6d" transform="translate(85.08)scale(.99626)"/><use xlink:href="#NimbusRomNo9L-Regu-65" transform="translate(162.588)scale(.99626)"/><use xlink:href="#NimbusRomNo9L-Regu-5b" transform="translate(231.729)scale(.99626)"/><use xlink:href="#NimbusRomNo9L-Regu-6d" transform="translate(264.904)scale(.99626)"/><use xlink:href="#NimbusRomNo9L-Regu-73" transform="translate(342.412)scale(.99626)"/><use xlink:href="#NimbusRomNo9L-Regu-5d" transform="translate(381.166)scale(.99626)"/></g></g><g id="matplotlib.axis_2"><g id="ytick_1"><g id="line2d_43"><defs><path id="m9aefc286cd" d="M0 0h3" style="stroke:#000;stroke-width:.5"/></defs><use xlink:href="#m9aefc286cd" x="36.377" y="166.471" style="stroke:#000;stroke-width:.5"/></g><g id="line2d_44"><defs><path id="m107611c63c" d="M0 0h-3" style="stroke:#000;stroke-width:.5"/></defs><use xlink:href="#m107611c63c" x="206.64" y="166.471" style="stroke:#000;stroke-width:.5"/></g><g id="text_7" transform="matrix(.08 0 0 -.08 14.73 169.173)"><defs><path id="CMSY10-0" d="M4218 1472c108 0 224 0 224 128s-116 128-224 128H755c-109 0-224 0-224-128s115-128 224-128z" transform="scale(.01563)"/></defs><use xlink:href="#CMSY10-0" transform="scale(.99626)"/><use xlink:href="#NimbusRomNo9L-Regu-31" transform="translate(77.409)scale(.99626)"/><use xlink:href="#NimbusRomNo9L-Regu-30" transform="translate(127.222)scale(.99626)"/><use xlink:href="#NimbusRomNo9L-Regu-30" transform="translate(177.035)scale(.99626)"/></g></g><g id="ytick_2"><use xlink:href="#m9aefc286cd" id="line2d_45" x="36.377" y="141.924" style="stroke:#000;stroke-width:.5"/><use xlink:href="#m107611c63c" id="line2d_46" x="206.64" y="141.924" style="stroke:#000;stroke-width:.5"/><g id="text_8" transform="matrix(.08 0 0 -.08 18.714 144.626)"><defs><path id="NimbusRomNo9L-Regu-38" d="M1856 2400c634 340 858 608 858 1044 0 524-461 908-1101 908-698 0-1216-428-1216-1011 0-416 121-601 793-1190-691-525-832-723-832-1159C358 372 864-64 1587-64c768 0 1261 423 1261 1082 0 493-218 806-992 1382m-115-659c467-333 621-563 621-921 0-416-288-704-704-704-487 0-813 371-813 928 0 409 141 678 512 979zm-71 775c-569 371-800 665-800 1024 0 371 288 633 692 633 435 0 710-281 710-723 0-365-179-653-544-896-32-19-32-19-58-38" transform="scale(.01563)"/></defs><use xlink:href="#CMSY10-0" transform="scale(.99626)"/><use xlink:href="#NimbusRomNo9L-Regu-38" transform="translate(77.409)scale(.99626)"/><use xlink:href="#NimbusRomNo9L-Regu-30" transform="translate(127.222)scale(.99626)"/></g></g><g id="ytick_3"><use xlink:href="#m9aefc286cd" id="line2d_47" x="36.377" y="117.377" style="stroke:#000;stroke-width:.5"/><use xlink:href="#m107611c63c" id="line2d_48" x="206.64" y="117.377" style="stroke:#000;stroke-width:.5"/><g id="text_9" transform="matrix(.08 0 0 -.08 18.714 120.08)"><defs><path id="NimbusRomNo9L-Regu-36" d="M2854 4391c-729-64-1100-186-1568-512C595 3386 218 2656 218 1802c0-554 172-1114 448-1432C909 89 1254-64 1651-64c794 0 1344 605 1344 1485 0 815-467 1331-1203 1331-282 0-416-45-819-288 173 967 889 1658 1894 1824zM1549 2458c550 0 870-458 870-1254 0-700-249-1088-697-1088-564 0-909 598-909 1584 0 325 51 503 179 599 134 101 333 159 557 159" transform="scale(.01563)"/></defs><use xlink:href="#CMSY10-0" transform="scale(.99626)"/><use xlink:href="#NimbusRomNo9L-Regu-36" transform="translate(77.409)scale(.99626)"/><use xlink:href="#NimbusRomNo9L-Regu-30" transform="translate(127.222)scale(.99626)"/></g></g><g id="ytick_4"><use xlink:href="#m9aefc286cd" id="line2d_49" x="36.377" y="92.83" style="stroke:#000;stroke-width:.5"/><use xlink:href="#m107611c63c" id="line2d_50" x="206.64" y="92.83" style="stroke:#000;stroke-width:.5"/><g id="text_10" transform="matrix(.08 0 0 -.08 18.714 95.532)"><defs><path id="NimbusRomNo9L-Regu-34" d="M3021 1497h-653v2855h-282L77 1497v-409h1798V32h493v1056h653zm-1152 0H333l1536 2201z" transform="scale(.01563)"/></defs><use xlink:href="#CMSY10-0" transform="scale(.99626)"/><use xlink:href="#NimbusRomNo9L-Regu-34" transform="translate(77.409)scale(.99626)"/><use xlink:href="#NimbusRomNo9L-Regu-30" transform="translate(127.222)scale(.99626)"/></g></g><g id="ytick_5"><use xlink:href="#m9aefc286cd" id="line2d_51" x="36.377" y="68.283" style="stroke:#000;stroke-width:.5"/><use xlink:href="#m107611c63c" id="line2d_52" x="206.64" y="68.283" style="stroke:#000;stroke-width:.5"/><g id="text_11" transform="matrix(.08 0 0 -.08 18.714 70.985)"><use xlink:href="#CMSY10-0" transform="scale(.99626)"/><use xlink:href="#NimbusRomNo9L-Regu-32" transform="translate(77.409)scale(.99626)"/><use xlink:href="#NimbusRomNo9L-Regu-30" transform="translate(127.222)scale(.99626)"/></g></g><g id="ytick_6"><use xlink:href="#m9aefc286cd" id="line2d_53" x="36.377" y="43.736" style="stroke:#000;stroke-width:.5"/><use xlink:href="#m107611c63c" id="line2d_54" x="206.64" y="43.736" style="stroke:#000;stroke-width:.5"/><use xlink:href="#NimbusRomNo9L-Regu-30" id="text_12" transform="matrix(.0797 0 0 -.0797 28.892 46.438)"/></g><g id="ytick_7"><g id="line2d_55"><defs><path id="m5cba13aa74" d="M0 0h1.5" style="stroke:#000;stroke-width:.5"/></defs><use xlink:href="#m5cba13aa74" x="36.377" y="184.882" style="stroke:#000;stroke-width:.5"/></g><g id="line2d_56"><defs><path id="m7b65a497fc" d="M0 0h-1.5" style="stroke:#000;stroke-width:.5"/></defs><use xlink:href="#m7b65a497fc" x="206.64" y="184.882" style="stroke:#000;stroke-width:.5"/></g></g><g id="ytick_8"><use xlink:href="#m5cba13aa74" id="line2d_57" x="36.377" y="178.745" style="stroke:#000;stroke-width:.5"/><use xlink:href="#m7b65a497fc" id="line2d_58" x="206.64" y="178.745" style="stroke:#000;stroke-width:.5"/></g><g id="ytick_9"><use xlink:href="#m5cba13aa74" id="line2d_59" x="36.377" y="172.608" style="stroke:#000;stroke-width:.5"/><use xlink:href="#m7b65a497fc" id="line2d_60" x="206.64" y="172.608" style="stroke:#000;stroke-width:.5"/></g><g id="ytick_10"><use xlink:href="#m5cba13aa74" id="line2d_61" x="36.377" y="160.335" style="stroke:#000;stroke-width:.5"/><use xlink:href="#m7b65a497fc" id="line2d_62" x="206.64" y="160.335" style="stroke:#000;stroke-width:.5"/></g><g id="ytick_11"><use xlink:href="#m5cba13aa74" id="line2d_63" x="36.377" y="154.198" style="stroke:#000;stroke-width:.5"/><use xlink:href="#m7b65a497fc" id="line2d_64" x="206.64" y="154.198" style="stroke:#000;stroke-width:.5"/></g><g id="ytick_12"><use xlink:href="#m5cba13aa74" id="line2d_65" x="36.377" y="148.061" style="stroke:#000;stroke-width:.5"/><use xlink:href="#m7b65a497fc" id="line2d_66" x="206.64" y="148.061" style="stroke:#000;stroke-width:.5"/></g><g id="ytick_13"><use xlink:href="#m5cba13aa74" id="line2d_67" x="36.377" y="135.788" style="stroke:#000;stroke-width:.5"/><use xlink:href="#m7b65a497fc" id="line2d_68" x="206.64" y="135.788" style="stroke:#000;stroke-width:.5"/></g><g id="ytick_14"><use xlink:href="#m5cba13aa74" id="line2d_69" x="36.377" y="129.651" style="stroke:#000;stroke-width:.5"/><use xlink:href="#m7b65a497fc" id="line2d_70" x="206.64" y="129.651" style="stroke:#000;stroke-width:.5"/></g><g id="ytick_15"><use xlink:href="#m5cba13aa74" id="line2d_71" x="36.377" y="123.514" style="stroke:#000;stroke-width:.5"/><use xlink:href="#m7b65a497fc" id="line2d_72" x="206.64" y="123.514" style="stroke:#000;stroke-width:.5"/></g><g id="ytick_16"><use xlink:href="#m5cba13aa74" id="line2d_73" x="36.377" y="111.241" style="stroke:#000;stroke-width:.5"/><use xlink:href="#m7b65a497fc" id="line2d_74" x="206.64" y="111.241" style="stroke:#000;stroke-width:.5"/></g><g id="ytick_17"><use xlink:href="#m5cba13aa74" id="line2d_75" x="36.377" y="105.104" style="stroke:#000;stroke-width:.5"/><use xlink:href="#m7b65a497fc" id="line2d_76" x="206.64" y="105.104" style="stroke:#000;stroke-width:.5"/></g><g id="ytick_18"><use xlink:href="#m5cba13aa74" id="line2d_77" x="36.377" y="98.967" style="stroke:#000;stroke-width:.5"/><use xlink:href="#m7b65a497fc" id="line2d_78" x="206.64" y="98.967" style="stroke:#000;stroke-width:.5"/></g><g id="ytick_19"><use xlink:href="#m5cba13aa74" id="line2d_79" x="36.377" y="86.693" style="stroke:#000;stroke-width:.5"/><use xlink:href="#m7b65a497fc" id="line2d_80" x="206.64" y="86.693" style="stroke:#000;stroke-width:.5"/></g><g id="ytick_20"><use xlink:href="#m5cba13aa74" id="line2d_81" x="36.377" y="80.557" style="stroke:#000;stroke-width:.5"/><use xlink:href="#m7b65a497fc" id="line2d_82" x="206.64" y="80.557" style="stroke:#000;stroke-width:.5"/></g><g id="ytick_21"><use xlink:href="#m5cba13aa74" id="line2d_83" x="36.377" y="74.42" style="stroke:#000;stroke-width:.5"/><use xlink:href="#m7b65a497fc" id="line2d_84" x="206.64" y="74.42" style="stroke:#000;stroke-width:.5"/></g><g id="ytick_22"><use xlink:href="#m5cba13aa74" id="line2d_85" x="36.377" y="62.146" style="stroke:#000;stroke-width:.5"/><use xlink:href="#m7b65a497fc" id="line2d_86" x="206.64" y="62.146" style="stroke:#000;stroke-width:.5"/></g><g id="ytick_23"><use xlink:href="#m5cba13aa74" id="line2d_87" x="36.377" y="56.01" style="stroke:#000;stroke-width:.5"/><use xlink:href="#m7b65a497fc" id="line2d_88" x="206.64" y="56.01" style="stroke:#000;stroke-width:.5"/></g><g id="ytick_24"><use xlink:href="#m5cba13aa74" id="line2d_89" x="36.377" y="49.873" style="stroke:#000;stroke-width:.5"/><use xlink:href="#m7b65a497fc" id="line2d_90" x="206.64" y="49.873" style="stroke:#000;stroke-width:.5"/></g><g id="ytick_25"><use xlink:href="#m5cba13aa74" id="line2d_91" x="36.377" y="37.599" style="stroke:#000;stroke-width:.5"/><use xlink:href="#m7b65a497fc" id="line2d_92" x="206.64" y="37.599" style="stroke:#000;stroke-width:.5"/></g><g id="text_13" transform="matrix(0 -.08 -.08 0 9.004 136.808)"><defs><path id="NimbusRomNo9L-Regu-4d" d="M4314 3667V751c0-534-77-617-583-617V0h1792v134c-467 0-557 89-557 547v2855c0 457 84 541 557 579v122H4250L2835 1004 1357 4237H90v-141c524 0 608-77 608-546V943c0-661-90-784-621-822V0h1504v134c-493 0-602 148-602 797v2589L2586 0h89z" transform="scale(.01563)"/><path id="NimbusRomNo9L-Regu-61" d="M2829 423c-109-90-186-122-282-122-147 0-192 89-192 371v1248c0 333-32 518-128 672-141 230-416 352-793 352-602 0-1076-314-1076-717 0-147 128-275 276-275 153 0 288 128 288 269 0 25-7 57-13 102-13 58-19 109-19 154 0 173 204 313 460 313 314 0 487-185 487-531v-390c-986-397-1095-448-1370-691-141-128-230-346-230-557 0-403 281-685 672-685 281 0 544 134 934 467 32-333 147-467 410-467 217 0 352 77 576 320zm-992 360c0-199-32-257-167-334-153-90-332-148-467-148-224 0-403 219-403 495v26c0 379 262 611 1037 893z" transform="scale(.01563)"/><path id="NimbusRomNo9L-Regu-67" d="M3008 2496v250h-493c-128 0-224 17-352 56l-141 45c-172 56-345 84-512 84-595 0-1068-464-1068-1050 0-405 172-651 595-863-122-112-237-219-275-250-212-180-295-305-295-430 0-132 77-207 339-332-454-335-627-549-627-787 0-343 499-627 1107-627 480 0 980 170 1312 446 244 203 352 414 352 663 0 407-300 683-774 683h-826c-339 0-499 59-499 164 0 130 211 360 384 412 58-7 103-13 122-13 121-13 205-19 243-19 237 0 493 98 691 275 211 184 307 414 307 742 0 190-32 341-121 551zM941-13c211-45 723-83 1037-83 582 0 793-84 793-318 0-377-486-629-1209-629-564 0-935 188-935 473 0 150 45 234 314 557m32 2158c0 381 179 607 473 607 199 0 365-110 468-303 115-226 192-522 192-774 0-361-186-587-480-587-384 0-653 419-653 1038z" transform="scale(.01563)"/><path id="NimbusRomNo9L-Regu-6e" d="M102 2579c39 19 103 26 173 26 179 0 237-96 237-410V608c0-365-70-454-397-480V32h1357v96c-326 26-422 102-422 333v1798c307 288 448 365 659 365 313 0 467-198 467-621V666c0-404-83-512-403-538V32h1331v96c-314 32-390 109-390 422v1466c0 602-282 960-756 960-294 0-492-109-928-518v505l-44 13c-314-115-532-186-884-288z" transform="scale(.01563)"/><path id="NimbusRomNo9L-Regu-74" d="M1632 2880H986v742c0 64-7 84-45 84-45-58-83-116-128-180-243-352-519-659-621-685-70-47-109-93-109-126 0-20 7-33 26-33h339V751c0-539 192-815 570-815 313 0 556 154 768 487l-84 70c-134-160-243-224-384-224-236 0-332 174-332 578v1835h646z" transform="scale(.01563)"/><path id="NimbusRomNo9L-Regu-75" d="M3066 320h-32c-295 0-365 70-365 365v2195H1658v-122c396 0 473-64 473-383V875c0-178-32-268-121-338-173-140-372-217-564-217-249 0-454 217-454 485v2075H58v-102c307 0 396-96 396-391V770c0-507 308-834 775-834 237 0 486 102 659 275l275 275V-45l26-13c320 128 550 199 877 288z" transform="scale(.01563)"/><path id="NimbusRomNo9L-Regu-64" d="m2202-64 940 333v96h-147c-230 0-281 70-281 366v3633l-32 13c-308-109-532-173-941-281v-102c51 6 89 6 141 6 236 0 294-64 294-328V2669c-243 205-416 275-672 275-736 0-1331-723-1331-1632C173 493 653-64 1357-64c358 0 601 128 819 429V-45zm-26 717c0-45-45-122-109-192-115-128-275-192-461-192-531 0-883 512-883 1299 0 723 314 1197 800 1197 339 0 653-301 653-640z" transform="scale(.01563)"/><path id="NimbusRomNo9L-Regu-42" d="M109 4237v-141c537 0 614-70 614-548V689c0-477-83-561-614-561V0h2137c500 0 954 136 1191 356 230 208 358 499 358 809 0 286-115 545-313 732-192 175-365 253-781 356 333 82 467 145 621 278 160 140 256 372 256 632 0 708-570 1074-1677 1074zm1267-2125c621 0 915-32 1146-130 364-155 537-414 537-823 0-350-134-604-390-753-205-116-467-168-890-168-313 0-403 58-403 266zm0 256v1444c0 132 45 189 141 189h281c736 0 1127-302 1127-864 0-491-339-769-941-769z" transform="scale(.01563)"/></defs><use xlink:href="#NimbusRomNo9L-Regu-4d" transform="scale(.99626)"/><use xlink:href="#NimbusRomNo9L-Regu-61" transform="translate(88.567)scale(.99626)"/><use xlink:href="#NimbusRomNo9L-Regu-67" transform="translate(132.8)scale(.99626)"/><use xlink:href="#NimbusRomNo9L-Regu-6e" transform="translate(182.614)scale(.99626)"/><use xlink:href="#NimbusRomNo9L-Regu-69" transform="translate(232.427)scale(.99626)"/><use xlink:href="#NimbusRomNo9L-Regu-74" transform="translate(260.122)scale(.99626)"/><use xlink:href="#NimbusRomNo9L-Regu-75" transform="translate(287.817)scale(.99626)"/><use xlink:href="#NimbusRomNo9L-Regu-64" transform="translate(337.63)scale(.99626)"/><use xlink:href="#NimbusRomNo9L-Regu-65" transform="translate(387.444)scale(.99626)"/><use xlink:href="#NimbusRomNo9L-Regu-5b" transform="translate(456.584)scale(.99626)"/><use xlink:href="#NimbusRomNo9L-Regu-64" transform="translate(489.759)scale(.99626)"/><use xlink:href="#NimbusRomNo9L-Regu-42" transform="translate(539.572)scale(.99626)"/><use xlink:href="#NimbusRomNo9L-Regu-5d" transform="translate(606.022)scale(.99626)"/></g></g><path id="line2d_93" d="m44.116 44.287 77.781.002h71.56l5.444-.002h0" clip-path="url(#p6579111d66)" style="fill:none;stroke:#000;stroke-linecap:square"/><path id="line2d_94" d="m44.116 44.413 154.785.002" clip-path="url(#p6579111d66)" style="fill:none;stroke-dasharray:3.7,1.6;stroke-dashoffset:0;stroke:red"/><path id="line2d_95" d="m44.116 144.924.778 16.456.778-15.788.778 7.755.777-7.427.778 1.271.778 26.25.778-21.935.778-8.339.778-4.76.777 19.502.778-8.195.778-1.858.778 7.6.778-3.786.777 2.087.778.72.778-3.806.778.317.778.777.777 1.492.778-2.879.778-7.723.778 9.393.778-3.128.778 7.763.777 12.359.778-19.003 1.556-5.03.778 5.881.777-1.621.778-1.071.778-3.415.778 7.128.778 5.3.777-11.113.778 6.628.778 1.677.778 7.554.778-9.851.777-3.773.778-3.071.778-4.068 1.556 23.386.778-7.454.777-12.258.778 3.081.778-4.175.778 6.537.778.353.777-5.71.778 6.071.778-1.411.778 1.53.778-1.744.777-1.202.778 1.566.778-1.614.778 21.623.778-17.733.778-4.42.777 12.617.778-6.394.778-8.783.778-.255.778 5.51.777 2.148.778 3.402.778-.116.778-4.86.778-.373.777 4.715.778-9.415.778 10.86.778-10.262.778-3.967.778 3.306.777 1.759.778.613.778 3.447.778-3.118.778.875.777 45.159.778-50.996.778 7.528.778-9.168.778 23.594.777-13.84.778-7.03.778 5.04.778 13.705.778-20.317.778 9.64.777-11.383.778 9.644.778 4.84.778-10.392.778-3.934.777 5.277.778 3.107.778-9.307.778-.2.778 15.255.777-8.927.778-.067.778-2.521.778 15.72.778-9.945.778 8.22.777-14.958.778 5.293.778 3.427.778-1.246.778-2.213.777-4.581.778-5.452.778 3.008.778-1.746.778 12.295.777-9.428.778.449 1.556 9.446.778 7.63.778-12.042.777-5.9.778 13.65.778 16.238.778-21.524.778 12.987.777-11.906.778-5.316.778 5.142.778-7.925.778 2.834.777-3.88.778 4.899.778-4.566.778 3.36.778 10.52.777 5.37.778-10.703.778 15.721.778-6.573.778 1.17.778-13.836.777-2.365.778.868.778-.388.778 3.251.778-5.17.777.91.778 3.938.778 10.037.778-15.066.778 7.533.777 2.534.778-8.737.778.079.778 6.308.778-5.633.778 9.096.777-5.354.778-8.142.778 13.793.778-13.674.778 1.271.777 16.615.778-13.678.778 2.62.778-1.228.778 1.419.777 2.67.778-8.088.778-1.812 1.556 17.335.778-14.916.777 8.885.778-10.981.778 6.942.778-6.367.778 7.887.777-6.279.778 9.484.778 2.978.778-11.953.778 6.555.777-8.495.778 23.767.778-7.954.778-4.048.778-8.695.778 20.253.777-17.073.778-1.185.778-1.827.778 9.049" clip-path="url(#p6579111d66)" style="fill:none;stroke-dasharray:1,1.65;stroke-dashoffset:0;stroke:#00f"/><path id="patch_3" d="M36.377 184.882V37.599" style="fill:none;stroke:#000;stroke-width:.5;stroke-linejoin:miter;stroke-linecap:square"/><path id="patch_4" d="M206.64 184.882V37.599" style="fill:none;stroke:#000;stroke-width:.5;stroke-linejoin:miter;stroke-linecap:square"/><path id="patch_5" d="M36.377 184.882H206.64" style="fill:none;stroke:#000;stroke-width:.5;stroke-linejoin:miter;stroke-linecap:square"/><path id="patch_6" d="M36.377 37.6H206.64" style="fill:none;stroke:#000;stroke-width:.5;stroke-linejoin:miter;stroke-linecap:square"/><g id="text_14" transform="matrix(.096 0 0 -.096 96.04 31.6)"><defs><path id="NimbusRomNo9L-Regu-6f" d="M1600 2944c-832 0-1414-614-1414-1498C186 582 781-64 1587-64c807 0 1421 678 1421 1562 0 838-589 1446-1408 1446m-83-179c537 0 915-615 915-1491 0-724-288-1159-768-1159-250 0-486 154-621 410-179 333-281 781-281 1235 0 608 300 1005 755 1005" transform="scale(.01563)"/></defs><use xlink:href="#NimbusRomNo9L-Regu-54" transform="scale(.99626)"/><use xlink:href="#NimbusRomNo9L-Regu-69" transform="translate(57.385)scale(.99626)"/><use xlink:href="#NimbusRomNo9L-Regu-6d" transform="translate(85.08)scale(.99626)"/><use xlink:href="#NimbusRomNo9L-Regu-65" transform="translate(162.588)scale(.99626)"/><use xlink:href="#NimbusRomNo9L-Regu-64" transform="translate(231.729)scale(.99626)"/><use xlink:href="#NimbusRomNo9L-Regu-6f" transform="translate(281.542)scale(.99626)"/><use xlink:href="#NimbusRomNo9L-Regu-6d" transform="translate(331.355)scale(.99626)"/><use xlink:href="#NimbusRomNo9L-Regu-61" transform="translate(408.863)scale(.99626)"/><use xlink:href="#NimbusRomNo9L-Regu-69" transform="translate(453.097)scale(.99626)"/><use xlink:href="#NimbusRomNo9L-Regu-6e" transform="translate(480.792)scale(.99626)"/></g><g id="legend_1"><path id="line2d_96" d="M43.577 99.052h16" style="fill:none;stroke:#000;stroke-linecap:square"/><g id="text_15" transform="matrix(.08 0 0 -.08 65.977 101.852)"><defs><path id="NimbusRomNo9L-Regu-53" d="M2861 4352h-135c-25-147-96-217-204-217-64 0-173 25-282 77-237 89-474 140-678 140-276 0-557-108-768-294-224-199-340-468-340-802 0-513 282-871 999-1250 461-243 793-507 953-750 58-83 90-218 90-372 0-430-320-724-787-724-570 0-973 353-1293 1136H269L461-64h141c6 121 83 211 179 211 70 0 179-25 301-68 243-93 499-143 755-143 736 0 1305 506 1305 1165 0 525-352 941-1196 1395-672 372-941 653-941 999 0 352 269 595 665 595 288 0 557-122 781-352 199-205 288-371 391-749h160z" transform="scale(.01563)"/></defs><use xlink:href="#NimbusRomNo9L-Regu-53" transform="scale(.99626)"/><use xlink:href="#NimbusRomNo9L-Regu-32" transform="translate(55.392)scale(.99626)"/><use xlink:href="#NimbusRomNo9L-Regu-32" transform="translate(105.205)scale(.99626)"/></g><path id="line2d_97" d="M43.577 110.378h16" style="fill:none;stroke-dasharray:3.7,1.6;stroke-dashoffset:0;stroke:red"/><g id="text_16" transform="matrix(.08 0 0 -.08 65.977 113.178)"><defs><path id="NimbusRomNo9L-Regu-2c" d="M531-889c429 211 717 601 717 985 0 320-224 570-512 570-224 0-378-147-378-365C358 96 506-25 736-25c38 0 83 6 122 12 44 13 44 13 51 13 51 0 89-38 89-89 0-205-179-442-524-679z" transform="scale(.01563)"/></defs><use xlink:href="#NimbusRomNo9L-Regu-61" transform="scale(.99626)"/><use xlink:href="#NimbusRomNo9L-Regu-32" transform="translate(44.234)scale(.99626)"/><use xlink:href="#NimbusRomNo9L-Regu-2c" transform="translate(94.047)scale(.99626)"/><use xlink:href="#NimbusRomNo9L-Regu-32" transform="translate(118.953)scale(.99626)"/></g><path id="line2d_98" d="M43.577 121.703h16" style="fill:none;stroke-dasharray:1,1.65;stroke-dashoffset:0;stroke:#00f"/><g id="text_17" transform="matrix(.08 0 0 -.08 65.977 124.503)"><defs><path id="NimbusRomNo9L-Regu-62" d="m979 4364-32 13c-269-96-441-147-742-230l-186-51v-102c39 6 64 6 109 6 256 0 314-58 314-327V347c0-200 544-411 1056-411 844 0 1497 704 1497 1619 0 787-486 1389-1126 1389-391 0-762-230-890-544zm0-2303c0 249 301 480 634 480 499 0 819-499 819-1280 0-711-307-1120-832-1120-333 0-621 147-621 307z" transform="scale(.01563)"/></defs><use xlink:href="#NimbusRomNo9L-Regu-62" transform="scale(.99626)"/><use xlink:href="#NimbusRomNo9L-Regu-31" transform="translate(49.813)scale(.99626)"/><use xlink:href="#NimbusRomNo9L-Regu-2c" transform="translate(99.626)scale(.99626)"/><use xlink:href="#NimbusRomNo9L-Regu-32" transform="translate(124.533)scale(.99626)"/></g></g></g><g id="axes_2"><path id="patch_7" d="M248.057 184.882H418.32V37.599H248.057z" style="fill:none"/><g id="matplotlib.axis_3"><g id="xtick_22"><use xlink:href="#mc5a7ff1390" id="line2d_99" x="271.664" y="184.882" style="stroke:#000;stroke-width:.5"/><use xlink:href="#m9da18f9bcc" id="line2d_100" x="271.664" y="37.599" style="stroke:#000;stroke-width:.5"/><g id="text_18" transform="matrix(.08 0 0 -.08 260.597 193.785)"><use xlink:href="#CMSY10-0" transform="scale(.99626)"/><use xlink:href="#NimbusRomNo9L-Regu-34" transform="translate(77.409)scale(.99626)"/><use xlink:href="#NimbusRomNo9L-Regu-30" transform="translate(127.222)scale(.99626)"/><use xlink:href="#NimbusRomNo9L-Regu-30" transform="translate(177.035)scale(.99626)"/><use xlink:href="#NimbusRomNo9L-Regu-30" transform="translate(226.848)scale(.99626)"/></g></g><g id="xtick_23"><use xlink:href="#mc5a7ff1390" id="line2d_101" x="302.62" y="184.882" style="stroke:#000;stroke-width:.5"/><use xlink:href="#m9da18f9bcc" id="line2d_102" x="302.62" y="37.599" style="stroke:#000;stroke-width:.5"/><g id="text_19" transform="matrix(.08 0 0 -.08 291.554 193.785)"><use xlink:href="#CMSY10-0" transform="scale(.99626)"/><use xlink:href="#NimbusRomNo9L-Regu-32" transform="translate(77.409)scale(.99626)"/><use xlink:href="#NimbusRomNo9L-Regu-30" transform="translate(127.222)scale(.99626)"/><use xlink:href="#NimbusRomNo9L-Regu-30" transform="translate(177.035)scale(.99626)"/><use xlink:href="#NimbusRomNo9L-Regu-30" transform="translate(226.848)scale(.99626)"/></g></g><g id="xtick_24"><use xlink:href="#mc5a7ff1390" id="line2d_103" x="333.577" y="184.882" style="stroke:#000;stroke-width:.5"/><use xlink:href="#m9da18f9bcc" id="line2d_104" x="333.577" y="37.599" style="stroke:#000;stroke-width:.5"/><use xlink:href="#NimbusRomNo9L-Regu-30" id="text_20" transform="matrix(.0797 0 0 -.0797 331.585 193.785)"/></g><g id="xtick_25"><use xlink:href="#mc5a7ff1390" id="line2d_105" x="364.534" y="184.882" style="stroke:#000;stroke-width:.5"/><use xlink:href="#m9da18f9bcc" id="line2d_106" x="364.534" y="37.599" style="stroke:#000;stroke-width:.5"/><g id="text_21" transform="matrix(.08 0 0 -.08 356.564 193.785)"><use xlink:href="#NimbusRomNo9L-Regu-32" transform="scale(.99626)"/><use xlink:href="#NimbusRomNo9L-Regu-30" transform="translate(49.813)scale(.99626)"/><use xlink:href="#NimbusRomNo9L-Regu-30" transform="translate(99.626)scale(.99626)"/><use xlink:href="#NimbusRomNo9L-Regu-30" transform="translate(149.44)scale(.99626)"/></g></g><g id="xtick_26"><use xlink:href="#mc5a7ff1390" id="line2d_107" x="395.491" y="184.882" style="stroke:#000;stroke-width:.5"/><use xlink:href="#m9da18f9bcc" id="line2d_108" x="395.491" y="37.599" style="stroke:#000;stroke-width:.5"/><g id="text_22" transform="matrix(.08 0 0 -.08 387.521 193.785)"><use xlink:href="#NimbusRomNo9L-Regu-34" transform="scale(.99626)"/><use xlink:href="#NimbusRomNo9L-Regu-30" transform="translate(49.813)scale(.99626)"/><use xlink:href="#NimbusRomNo9L-Regu-30" transform="translate(99.626)scale(.99626)"/><use xlink:href="#NimbusRomNo9L-Regu-30" transform="translate(149.44)scale(.99626)"/></g></g><g id="xtick_27"><use xlink:href="#m502d80c3f9" id="line2d_109" x="248.446" y="184.882" style="stroke:#000;stroke-width:.5"/><use xlink:href="#m705ed7b131" id="line2d_110" x="248.446" y="37.599" style="stroke:#000;stroke-width:.5"/></g><g id="xtick_28"><use xlink:href="#m502d80c3f9" id="line2d_111" x="256.185" y="184.882" style="stroke:#000;stroke-width:.5"/><use xlink:href="#m705ed7b131" id="line2d_112" x="256.185" y="37.599" style="stroke:#000;stroke-width:.5"/></g><g id="xtick_29"><use xlink:href="#m502d80c3f9" id="line2d_113" x="263.924" y="184.882" style="stroke:#000;stroke-width:.5"/><use xlink:href="#m705ed7b131" id="line2d_114" x="263.924" y="37.599" style="stroke:#000;stroke-width:.5"/></g><g id="xtick_30"><use xlink:href="#m502d80c3f9" id="line2d_115" x="279.403" y="184.882" style="stroke:#000;stroke-width:.5"/><use xlink:href="#m705ed7b131" id="line2d_116" x="279.403" y="37.599" style="stroke:#000;stroke-width:.5"/></g><g id="xtick_31"><use xlink:href="#m502d80c3f9" id="line2d_117" x="287.142" y="184.882" style="stroke:#000;stroke-width:.5"/><use xlink:href="#m705ed7b131" id="line2d_118" x="287.142" y="37.599" style="stroke:#000;stroke-width:.5"/></g><g id="xtick_32"><use xlink:href="#m502d80c3f9" id="line2d_119" x="294.881" y="184.882" style="stroke:#000;stroke-width:.5"/><use xlink:href="#m705ed7b131" id="line2d_120" x="294.881" y="37.599" style="stroke:#000;stroke-width:.5"/></g><g id="xtick_33"><use xlink:href="#m502d80c3f9" id="line2d_121" x="310.36" y="184.882" style="stroke:#000;stroke-width:.5"/><use xlink:href="#m705ed7b131" id="line2d_122" x="310.36" y="37.599" style="stroke:#000;stroke-width:.5"/></g><g id="xtick_34"><use xlink:href="#m502d80c3f9" id="line2d_123" x="318.099" y="184.882" style="stroke:#000;stroke-width:.5"/><use xlink:href="#m705ed7b131" id="line2d_124" x="318.099" y="37.599" style="stroke:#000;stroke-width:.5"/></g><g id="xtick_35"><use xlink:href="#m502d80c3f9" id="line2d_125" x="325.838" y="184.882" style="stroke:#000;stroke-width:.5"/><use xlink:href="#m705ed7b131" id="line2d_126" x="325.838" y="37.599" style="stroke:#000;stroke-width:.5"/></g><g id="xtick_36"><use xlink:href="#m502d80c3f9" id="line2d_127" x="341.317" y="184.882" style="stroke:#000;stroke-width:.5"/><use xlink:href="#m705ed7b131" id="line2d_128" x="341.317" y="37.599" style="stroke:#000;stroke-width:.5"/></g><g id="xtick_37"><use xlink:href="#m502d80c3f9" id="line2d_129" x="349.056" y="184.882" style="stroke:#000;stroke-width:.5"/><use xlink:href="#m705ed7b131" id="line2d_130" x="349.056" y="37.599" style="stroke:#000;stroke-width:.5"/></g><g id="xtick_38"><use xlink:href="#m502d80c3f9" id="line2d_131" x="356.795" y="184.882" style="stroke:#000;stroke-width:.5"/><use xlink:href="#m705ed7b131" id="line2d_132" x="356.795" y="37.599" style="stroke:#000;stroke-width:.5"/></g><g id="xtick_39"><use xlink:href="#m502d80c3f9" id="line2d_133" x="372.274" y="184.882" style="stroke:#000;stroke-width:.5"/><use xlink:href="#m705ed7b131" id="line2d_134" x="372.274" y="37.599" style="stroke:#000;stroke-width:.5"/></g><g id="xtick_40"><use xlink:href="#m502d80c3f9" id="line2d_135" x="380.013" y="184.882" style="stroke:#000;stroke-width:.5"/><use xlink:href="#m705ed7b131" id="line2d_136" x="380.013" y="37.599" style="stroke:#000;stroke-width:.5"/></g><g id="xtick_41"><use xlink:href="#m502d80c3f9" id="line2d_137" x="387.752" y="184.882" style="stroke:#000;stroke-width:.5"/><use xlink:href="#m705ed7b131" id="line2d_138" x="387.752" y="37.599" style="stroke:#000;stroke-width:.5"/></g><g id="xtick_42"><use xlink:href="#m502d80c3f9" id="line2d_139" x="403.23" y="184.882" style="stroke:#000;stroke-width:.5"/><use xlink:href="#m705ed7b131" id="line2d_140" x="403.23" y="37.599" style="stroke:#000;stroke-width:.5"/></g><g id="xtick_43"><use xlink:href="#m502d80c3f9" id="line2d_141" x="410.97" y="184.882" style="stroke:#000;stroke-width:.5"/><use xlink:href="#m705ed7b131" id="line2d_142" x="410.97" y="37.599" style="stroke:#000;stroke-width:.5"/></g><g id="text_23" transform="matrix(.08 0 0 -.08 308.13 204.915)"><defs><path id="NimbusRomNo9L-Regu-46" d="M3066 1472v1485h-148c-76-496-192-589-704-589h-928v1398c0 177 32 215 205 215h871c723 0 864-95 972-667h160l-19 910H77v-122c473-38 557-128 557-577V749c0-532-71-615-557-615V0h1792v134c-493 0-583 91-583 558v1414h928c519 0 628-99 704-634z" transform="scale(.01563)"/><path id="NimbusRomNo9L-Regu-72" d="M45 2496c89 19 147 26 224 26 160 0 217-103 217-384V538c0-320-44-365-454-442V0h1536v102c-435 0-544 97-544 463v1448c0 206 275 528 448 528 38 0 96-32 166-96 103-90 173-128 256-128 154 0 250 109 250 288 0 211-134 339-352 339-269 0-454-147-768-601v588l-32 13c-339-141-570-223-947-345z" transform="scale(.01563)"/><path id="NimbusRomNo9L-Regu-71" d="M2304 2701c-294 173-486 230-736 230-800 0-1414-713-1414-1631C154 498 576-70 1178-70c371 0 723 166 1004 473V-824c0-364-115-462-569-462v-122h1510v90c-352 77-403 128-403 397v3827h-70zM2182 804c0-153-25-235-89-286-141-121-352-198-551-198-198 0-371 64-499 191-205 185-339 599-339 1019 0 752 339 1222 883 1222 397 0 595-210 595-637z" transform="scale(.01563)"/><path id="NimbusRomNo9L-Regu-63" d="M2547 998c-307-448-537-601-902-601-583 0-992 512-992 1248 0 659 352 1113 870 1113 231 0 314-70 378-307l38-141c51-179 167-294 301-294 166 0 307 122 307 269 0 358-448 659-985 659-314 0-640-128-903-358-320-282-499-717-499-1223C160 531 666-64 1376-64c288 0 544 102 774 301 173 153 295 326 487 704z" transform="scale(.01563)"/><path id="NimbusRomNo9L-Regu-79" d="M3040 2880h-864v-96c205 0 307-58 307-161 0-26-6-64-25-109L1837 742l-736 1635c-39 91-64 175-64 245 0 117 96 162 371 162v96H90v-90c166-25 275-96 326-205l730-1580 19-52 96-192c179-321 281-552 281-649 0-96-147-501-256-694-89-167-230-289-320-289-38 0-96 13-160 45-121 45-230 71-339 71-147 0-275-128-275-282 0-211 205-371 474-371 428 0 736 359 1081 1284l986 2619c83 206 153 270 307 289z" transform="scale(.01563)"/><path id="NimbusRomNo9L-Regu-48" d="M1338 2304v1229c0 457 70 526 563 571v120H122v-120c492-45 563-115 563-577V749c0-539-64-615-563-615V0h1779v121c-480 38-563 121-563 578v1323h1939V757c0-546-64-623-563-623V0h1779v121c-480 38-563 121-563 575v2833c0 460 70 530 563 575v120H2714v-120c492-45 563-114 563-571V2304z" transform="scale(.01563)"/><path id="NimbusRomNo9L-Regu-7a" d="m2675 864-115 26c-64-320-102-423-186-532-89-108-307-166-633-166H858l1721 2592v96H358l-19-755h115c58 467 154 563 538 563h883L173 96V0h2413z" transform="scale(.01563)"/></defs><use xlink:href="#NimbusRomNo9L-Regu-46" transform="scale(.99626)"/><use xlink:href="#NimbusRomNo9L-Regu-72" transform="translate(55.392)scale(.99626)"/><use xlink:href="#NimbusRomNo9L-Regu-65" transform="translate(88.567)scale(.99626)"/><use xlink:href="#NimbusRomNo9L-Regu-71" transform="translate(132.8)scale(.99626)"/><use xlink:href="#NimbusRomNo9L-Regu-75" transform="translate(182.614)scale(.99626)"/><use xlink:href="#NimbusRomNo9L-Regu-65" transform="translate(232.427)scale(.99626)"/><use xlink:href="#NimbusRomNo9L-Regu-6e" transform="translate(276.66)scale(.99626)"/><use xlink:href="#NimbusRomNo9L-Regu-63" transform="translate(326.474)scale(.99626)"/><use xlink:href="#NimbusRomNo9L-Regu-79" transform="translate(369.214)scale(.99626)"/><use xlink:href="#NimbusRomNo9L-Regu-5b" transform="translate(443.934)scale(.99626)"/><use xlink:href="#NimbusRomNo9L-Regu-48" transform="translate(477.109)scale(.99626)"/><use xlink:href="#NimbusRomNo9L-Regu-7a" transform="translate(549.039)scale(.99626)"/><use xlink:href="#NimbusRomNo9L-Regu-5d" transform="translate(593.272)scale(.99626)"/></g></g><g id="matplotlib.axis_4"><g id="ytick_26"><use xlink:href="#m9aefc286cd" id="line2d_143" x="248.057" y="184.882" style="stroke:#000;stroke-width:.5"/><use xlink:href="#m107611c63c" id="line2d_144" x="418.32" y="184.882" style="stroke:#000;stroke-width:.5"/><g id="text_24" transform="matrix(.08 0 0 -.08 226.41 187.584)"><use xlink:href="#CMSY10-0" transform="scale(.99626)"/><use xlink:href="#NimbusRomNo9L-Regu-31" transform="translate(77.409)scale(.99626)"/><use xlink:href="#NimbusRomNo9L-Regu-30" transform="translate(127.222)scale(.99626)"/><use xlink:href="#NimbusRomNo9L-Regu-30" transform="translate(177.035)scale(.99626)"/></g></g><g id="ytick_27"><use xlink:href="#m9aefc286cd" id="line2d_145" x="248.057" y="165.244" style="stroke:#000;stroke-width:.5"/><use xlink:href="#m107611c63c" id="line2d_146" x="418.32" y="165.244" style="stroke:#000;stroke-width:.5"/><g id="text_25" transform="matrix(.08 0 0 -.08 230.394 167.946)"><use xlink:href="#CMSY10-0" transform="scale(.99626)"/><use xlink:href="#NimbusRomNo9L-Regu-38" transform="translate(77.409)scale(.99626)"/><use xlink:href="#NimbusRomNo9L-Regu-30" transform="translate(127.222)scale(.99626)"/></g></g><g id="ytick_28"><use xlink:href="#m9aefc286cd" id="line2d_147" x="248.057" y="145.606" style="stroke:#000;stroke-width:.5"/><use xlink:href="#m107611c63c" id="line2d_148" x="418.32" y="145.606" style="stroke:#000;stroke-width:.5"/><g id="text_26" transform="matrix(.08 0 0 -.08 230.394 148.308)"><use xlink:href="#CMSY10-0" transform="scale(.99626)"/><use xlink:href="#NimbusRomNo9L-Regu-36" transform="translate(77.409)scale(.99626)"/><use xlink:href="#NimbusRomNo9L-Regu-30" transform="translate(127.222)scale(.99626)"/></g></g><g id="ytick_29"><use xlink:href="#m9aefc286cd" id="line2d_149" x="248.057" y="125.969" style="stroke:#000;stroke-width:.5"/><use xlink:href="#m107611c63c" id="line2d_150" x="418.32" y="125.969" style="stroke:#000;stroke-width:.5"/><g id="text_27" transform="matrix(.08 0 0 -.08 230.394 128.67)"><use xlink:href="#CMSY10-0" transform="scale(.99626)"/><use xlink:href="#NimbusRomNo9L-Regu-34" transform="translate(77.409)scale(.99626)"/><use xlink:href="#NimbusRomNo9L-Regu-30" transform="translate(127.222)scale(.99626)"/></g></g><g id="ytick_30"><use xlink:href="#m9aefc286cd" id="line2d_151" x="248.057" y="106.331" style="stroke:#000;stroke-width:.5"/><use xlink:href="#m107611c63c" id="line2d_152" x="418.32" y="106.331" style="stroke:#000;stroke-width:.5"/><g id="text_28" transform="matrix(.08 0 0 -.08 230.394 109.033)"><use xlink:href="#CMSY10-0" transform="scale(.99626)"/><use xlink:href="#NimbusRomNo9L-Regu-32" transform="translate(77.409)scale(.99626)"/><use xlink:href="#NimbusRomNo9L-Regu-30" transform="translate(127.222)scale(.99626)"/></g></g><g id="ytick_31"><use xlink:href="#m9aefc286cd" id="line2d_153" x="248.057" y="86.693" style="stroke:#000;stroke-width:.5"/><use xlink:href="#m107611c63c" id="line2d_154" x="418.32" y="86.693" style="stroke:#000;stroke-width:.5"/><use xlink:href="#NimbusRomNo9L-Regu-30" id="text_29" transform="matrix(.0797 0 0 -.0797 240.572 89.395)"/></g><g id="ytick_32"><use xlink:href="#m9aefc286cd" id="line2d_155" x="248.057" y="67.056" style="stroke:#000;stroke-width:.5"/><use xlink:href="#m107611c63c" id="line2d_156" x="418.32" y="67.056" style="stroke:#000;stroke-width:.5"/><g id="text_30" transform="matrix(.08 0 0 -.08 236.587 69.758)"><use xlink:href="#NimbusRomNo9L-Regu-32" transform="scale(.99626)"/><use xlink:href="#NimbusRomNo9L-Regu-30" transform="translate(49.813)scale(.99626)"/></g></g><g id="ytick_33"><use xlink:href="#m9aefc286cd" id="line2d_157" x="248.057" y="47.418" style="stroke:#000;stroke-width:.5"/><use xlink:href="#m107611c63c" id="line2d_158" x="418.32" y="47.418" style="stroke:#000;stroke-width:.5"/><g id="text_31" transform="matrix(.08 0 0 -.08 236.587 50.12)"><use xlink:href="#NimbusRomNo9L-Regu-34" transform="scale(.99626)"/><use xlink:href="#NimbusRomNo9L-Regu-30" transform="translate(49.813)scale(.99626)"/></g></g><g id="ytick_34"><use xlink:href="#m5cba13aa74" id="line2d_159" x="248.057" y="179.972" style="stroke:#000;stroke-width:.5"/><use xlink:href="#m7b65a497fc" id="line2d_160" x="418.32" y="179.972" style="stroke:#000;stroke-width:.5"/></g><g id="ytick_35"><use xlink:href="#m5cba13aa74" id="line2d_161" x="248.057" y="175.063" style="stroke:#000;stroke-width:.5"/><use xlink:href="#m7b65a497fc" id="line2d_162" x="418.32" y="175.063" style="stroke:#000;stroke-width:.5"/></g><g id="ytick_36"><use xlink:href="#m5cba13aa74" id="line2d_163" x="248.057" y="170.154" style="stroke:#000;stroke-width:.5"/><use xlink:href="#m7b65a497fc" id="line2d_164" x="418.32" y="170.154" style="stroke:#000;stroke-width:.5"/></g><g id="ytick_37"><use xlink:href="#m5cba13aa74" id="line2d_165" x="248.057" y="160.335" style="stroke:#000;stroke-width:.5"/><use xlink:href="#m7b65a497fc" id="line2d_166" x="418.32" y="160.335" style="stroke:#000;stroke-width:.5"/></g><g id="ytick_38"><use xlink:href="#m5cba13aa74" id="line2d_167" x="248.057" y="155.425" style="stroke:#000;stroke-width:.5"/><use xlink:href="#m7b65a497fc" id="line2d_168" x="418.32" y="155.425" style="stroke:#000;stroke-width:.5"/></g><g id="ytick_39"><use xlink:href="#m5cba13aa74" id="line2d_169" x="248.057" y="150.516" style="stroke:#000;stroke-width:.5"/><use xlink:href="#m7b65a497fc" id="line2d_170" x="418.32" y="150.516" style="stroke:#000;stroke-width:.5"/></g><g id="ytick_40"><use xlink:href="#m5cba13aa74" id="line2d_171" x="248.057" y="140.697" style="stroke:#000;stroke-width:.5"/><use xlink:href="#m7b65a497fc" id="line2d_172" x="418.32" y="140.697" style="stroke:#000;stroke-width:.5"/></g><g id="ytick_41"><use xlink:href="#m5cba13aa74" id="line2d_173" x="248.057" y="135.788" style="stroke:#000;stroke-width:.5"/><use xlink:href="#m7b65a497fc" id="line2d_174" x="418.32" y="135.788" style="stroke:#000;stroke-width:.5"/></g><g id="ytick_42"><use xlink:href="#m5cba13aa74" id="line2d_175" x="248.057" y="130.878" style="stroke:#000;stroke-width:.5"/><use xlink:href="#m7b65a497fc" id="line2d_176" x="418.32" y="130.878" style="stroke:#000;stroke-width:.5"/></g><g id="ytick_43"><use xlink:href="#m5cba13aa74" id="line2d_177" x="248.057" y="121.059" style="stroke:#000;stroke-width:.5"/><use xlink:href="#m7b65a497fc" id="line2d_178" x="418.32" y="121.059" style="stroke:#000;stroke-width:.5"/></g><g id="ytick_44"><use xlink:href="#m5cba13aa74" id="line2d_179" x="248.057" y="116.15" style="stroke:#000;stroke-width:.5"/><use xlink:href="#m7b65a497fc" id="line2d_180" x="418.32" y="116.15" style="stroke:#000;stroke-width:.5"/></g><g id="ytick_45"><use xlink:href="#m5cba13aa74" id="line2d_181" x="248.057" y="111.241" style="stroke:#000;stroke-width:.5"/><use xlink:href="#m7b65a497fc" id="line2d_182" x="418.32" y="111.241" style="stroke:#000;stroke-width:.5"/></g><g id="ytick_46"><use xlink:href="#m5cba13aa74" id="line2d_183" x="248.057" y="101.422" style="stroke:#000;stroke-width:.5"/><use xlink:href="#m7b65a497fc" id="line2d_184" x="418.32" y="101.422" style="stroke:#000;stroke-width:.5"/></g><g id="ytick_47"><use xlink:href="#m5cba13aa74" id="line2d_185" x="248.057" y="96.512" style="stroke:#000;stroke-width:.5"/><use xlink:href="#m7b65a497fc" id="line2d_186" x="418.32" y="96.512" style="stroke:#000;stroke-width:.5"/></g><g id="ytick_48"><use xlink:href="#m5cba13aa74" id="line2d_187" x="248.057" y="91.603" style="stroke:#000;stroke-width:.5"/><use xlink:href="#m7b65a497fc" id="line2d_188" x="418.32" y="91.603" style="stroke:#000;stroke-width:.5"/></g><g id="ytick_49"><use xlink:href="#m5cba13aa74" id="line2d_189" x="248.057" y="81.784" style="stroke:#000;stroke-width:.5"/><use xlink:href="#m7b65a497fc" id="line2d_190" x="418.32" y="81.784" style="stroke:#000;stroke-width:.5"/></g><g id="ytick_50"><use xlink:href="#m5cba13aa74" id="line2d_191" x="248.057" y="76.875" style="stroke:#000;stroke-width:.5"/><use xlink:href="#m7b65a497fc" id="line2d_192" x="418.32" y="76.875" style="stroke:#000;stroke-width:.5"/></g><g id="ytick_51"><use xlink:href="#m5cba13aa74" id="line2d_193" x="248.057" y="71.965" style="stroke:#000;stroke-width:.5"/><use xlink:href="#m7b65a497fc" id="line2d_194" x="418.32" y="71.965" style="stroke:#000;stroke-width:.5"/></g><g id="ytick_52"><use xlink:href="#m5cba13aa74" id="line2d_195" x="248.057" y="62.146" style="stroke:#000;stroke-width:.5"/><use xlink:href="#m7b65a497fc" id="line2d_196" x="418.32" y="62.146" style="stroke:#000;stroke-width:.5"/></g><g id="ytick_53"><use xlink:href="#m5cba13aa74" id="line2d_197" x="248.057" y="57.237" style="stroke:#000;stroke-width:.5"/><use xlink:href="#m7b65a497fc" id="line2d_198" x="418.32" y="57.237" style="stroke:#000;stroke-width:.5"/></g><g id="ytick_54"><use xlink:href="#m5cba13aa74" id="line2d_199" x="248.057" y="52.328" style="stroke:#000;stroke-width:.5"/><use xlink:href="#m7b65a497fc" id="line2d_200" x="418.32" y="52.328" style="stroke:#000;stroke-width:.5"/></g><g id="ytick_55"><use xlink:href="#m5cba13aa74" id="line2d_201" x="248.057" y="42.509" style="stroke:#000;stroke-width:.5"/><use xlink:href="#m7b65a497fc" id="line2d_202" x="418.32" y="42.509" style="stroke:#000;stroke-width:.5"/></g><g id="ytick_56"><use xlink:href="#m5cba13aa74" id="line2d_203" x="248.057" y="37.599" style="stroke:#000;stroke-width:.5"/><use xlink:href="#m7b65a497fc" id="line2d_204" x="418.32" y="37.599" style="stroke:#000;stroke-width:.5"/></g><g id="text_32" transform="matrix(0 -.08 -.08 0 220.684 136.808)"><use xlink:href="#NimbusRomNo9L-Regu-4d" transform="scale(.99626)"/><use xlink:href="#NimbusRomNo9L-Regu-61" transform="translate(88.567)scale(.99626)"/><use xlink:href="#NimbusRomNo9L-Regu-67" transform="translate(132.8)scale(.99626)"/><use xlink:href="#NimbusRomNo9L-Regu-6e" transform="translate(182.614)scale(.99626)"/><use xlink:href="#NimbusRomNo9L-Regu-69" transform="translate(232.427)scale(.99626)"/><use xlink:href="#NimbusRomNo9L-Regu-74" transform="translate(260.122)scale(.99626)"/><use xlink:href="#NimbusRomNo9L-Regu-75" transform="translate(287.817)scale(.99626)"/><use xlink:href="#NimbusRomNo9L-Regu-64" transform="translate(337.63)scale(.99626)"/><use xlink:href="#NimbusRomNo9L-Regu-65" transform="translate(387.444)scale(.99626)"/><use xlink:href="#NimbusRomNo9L-Regu-5b" transform="translate(456.584)scale(.99626)"/><use xlink:href="#NimbusRomNo9L-Regu-64" transform="translate(489.759)scale(.99626)"/><use xlink:href="#NimbusRomNo9L-Regu-42" transform="translate(539.572)scale(.99626)"/><use xlink:href="#NimbusRomNo9L-Regu-5d" transform="translate(606.022)scale(.99626)"/></g></g><path id="line2d_205" d="m255.796 109.214.778 3.407.778-2.287.778-.632.777 1.3.778 14.193.778-17.521.778 11.58.778-10.55.778 7.248.777-2.332.778 1.68.778-3.152.778-.13.778 3.006.777-3.947.778.121.778 1.494.778 2.575.778-10.857 1.555 13.75.778-10.609.778-2.836.778 1.338.778 7.687.777-2.75.778-1.38.778 2.608.778 1.207.778-3.192.777 12.225.778-12.626.778-3.021.778-2.039.778 3.747.777-1.915.778 4.278.778-8.358.778 6.242.778-2.111.777 6.255.778-.261.778-3.377.778-.336.778 21.08.778 1.137.777-7.617.778-19.028.778 9.274 2.333-9.52.778 4.574.778 11.789.778-16.316.778 5.844.777 4.409.778-5.655.778 1.34.778 6.037.778-6.311.778 3.927.777 9.195.778-.79.778-11.212.778 2.649.778-2.498.777 5.803.778-1.357.778-10.654.778 8.95.778-5.69.777 7.621.778-.858.778 4.194.778-11.97.778-1.629.778 8.347.777.54.778 9.427.778-18.636.778 4.156.778-1.164.777-.811.778 7.232.778-6.756.778.315.778-2.267.777.484.778 4.216.778-6.136.778 1.859.778 2.211.778 3.494.777-8.049.778 3.706.778 8.46.778-4.169.778 3.299.777-73.463.778 73.433.778-3.074.778 4.761.778-9.455.777-3.363.778 7.992 1.556-5.973.778-1.806.778 5.937.777-3.895.778-.455.778 2.554.778-.74.778 6.5.777-7.379.778 1.562.778 1.105.778-4.333.778 19.064.777-9.982.778-.57.778-8.224.778 1.761.778 12.049.778-4.957.777 1.248.778-7.131.778 5.946.778-9.496.778 10.45.777 1.08.778-5.351.778 2.33.778-2.539.778 11.524.777.516.778-9.566.778-3.772.778 7.6.778-6.956.777-1.285.778 5.42.778-3.897.778-6.385.778 16.544.778-11.957.777-4.484.778 3.02 1.556 6.966.778-10.014.777 18.602.778 6.34.778 1.483.778-22.172.778.587.777 3.44.778.882.778-6.785.778 1.934.778-6.096.778 8.293.777-4.323.778 1.747.778-3.42.778 2.283.778 2.76.777 10.378.778-9.902.778 2.686.778.24.778-3.639.777 1.376.778 2.675.778-7.191.778-1.87.778 3.029.778 11.302 1.555-14.573.778 10.706.778-2.28.778-1.622.777-.05.778 4.042.778-3.026.778-.388.778 4.056.777-1.762.778 2.421.778-7.46.778 9.845.778-11.114.778 16.34.777-12.694.778-1.798.778 1.333.778 1.969h0" clip-path="url(#pe9a68cd11d)" style="fill:none;stroke:#000;stroke-linecap:square"/><path id="line2d_206" d="m255.796 82.643.778 7.962.778 4.108.778-13.538.777 12.504.778-3.228.778-4.233.778 16.698.778-13.045.778 4.754.777-8.927.778.492.778 6.587.778-5.22.778 1.754.777-6.073.778 2.341.778-1.078.778 9.373.778-5.101.777 3.868.778-7.27.778-2.23 1.556 8.78.778.076.777-1.769.778 2.394.778 14.211.778-24.839.778 13.048.777-5.41.778 4.82.778-.637.778-10.848.778 6.105.777 2.847.778 5.115.778-14.867.778 1.452.778 25.532.777-26.006.778-.719.778 6.224.778-2.74.778 3.632.778-5.324 1.555 12.322.778-2.84.778-4.883.778 7.332.777-9.553.778 2.385.778-6.63.778 13.247.778 4.842.777-16.841 1.556 8.278.778.088.778 2.636.778-11.425.777-.642.778 7.334.778 1.42.778-7.441.778 7.198.777-8.833.778 2.717.778-1.214.778 6.516.778 2.369.777-.982.778 2.122.778-15.362.778 18.871.778-5.148.778 18.127.777-27.293.778 11.02.778-10.974.778 12.298.778-8.94.777 10.87.778-15.127.778 2.84.778 5.03.778 5.988.777-11.736.778.185.778 2.384.778-6.754.778 5.754.778-4.745.777 6.761.778 2.504.778-4.003.778 2.961.778-12.642.777-34.532.778 34.57.778 12.697.778-2.455.778 5.261.777-4.587.778-6.417.778 3.822.778-4.524.778 5.582.778-1.03.777-.819.778 14.58.778-7.586.778-5.711.778-3.274.777 13.335.778-9.493.778 13.153.778-17.06.778 10.856.777-11.085.778 21.399.778-9.627.778 3.599.778-18.687.778 15.437.777-2.608.778 4.736.778-7.518.778-4.877.778 1.347.777-1.946.778 6.765.778-5.242.778 7.896.778-2.693.777-7.883.778 1.6.778 12.017.778-4.306.778-.795.777-2.634.778-4.378.778 16.301.778-8.184.778-9.437.778 6.903.777-2.893.778 8.9.778-5.828.778 1.904.778 8.17.777-6.202.778-8.618.778 5.654.778-4.683.778 3.49.777-6.494.778-.198.778 19.022.778-16.869.778-2.579.778 16.417.777-7.523.778-1.574.778-5.658.778 9.641.778 2.719.777-5.818.778 5.663.778-13.103.778 20.564.778-9.724.777-3.584.778 1.232.778-.114.778-4.316.778-3.359.778 2.068.777 7.217.778-3.572.778 3.398.778-7.82.778 1.936.777-1.978.778 5.717.778-3.151.778 6.366.778-7.937.777.967.778 13.433.778-11.825.778 10.927.778-14.039.778 8.358.777 5.376.778-17.271.778 12.866.778-3.526" clip-path="url(#pe9a68cd11d)" style="fill:none;stroke-dasharray:3.7,1.6;stroke-dashoffset:0;stroke:red"/><path id="line2d_207" d="m255.796 144.043.778 9.123.778.424.778-6.104.777 3.372.778-6.386.778 1.58.778 11.097.778-2.057.778-11.941.777 12.094.778-12.123.778 17.067.778-13.728.778 5.405.777-9.127.778-.718.778 1.914.778 9.26.778-4.435.777-7.75.778 5.565.778-.825.778-1.027.778 6.408.778-3.054.777-1.408.778-1.679.778-3.403.778 4.099.778 15.765.777-12.376.778-2.344.778 3.005.778-7.968.778 13.186.777-3.352.778 5.127.778-12.07.778 17.587 1.555-16.837.778 11.439.778-8.294.778 3.828.778 26.452.778-27.09.777-6.791.778 3.558.778-2.29.778 9.225.778-6.639.777-.839.778-4.725.778 1.433.778-1.922.778 5.937.777-5.53.778 12.702.778-9.685.778 3.981.778-3.118.778-5.521.777 10.49.778-.29.778-5.269.778 8.625.778-5.304.777-2.155.778 12.954.778-13.821.778 3.502.778 4.113.777-5.412.778 1.17 1.556-4.63.778-.02.778.656.777-1.634.778 3.985.778-1.55.778 11.571.778-7.497.777-1.801.778-.073.778-3.492.778 7.77.778-8.272.777 5.554.778-9.995.778 13.824.778-6.393.778 1.327.778 8.77.777-13.183.778-.971.778 2.35.778 18.2.778-23.402.777 8.906.778-1.35.778 2.3.778-1.157.778 7.14.777-3.432.778-7.774.778 9.284.778-8.241.778.832.778-5.324.777 1.2.778 9.523 1.556 5.304.778 8.956.777-19.418.778 5.313.778 2.335.778-6.856.778-.59.777 5.585.778-5.027 1.556-5.987.778 3.397.778 6.844.777-11.328.778-.294.778 7.351.778 6.216.778-6.077.777-2.56.778-.923.778.526.778.372.778-1.91.777-.704.778-2.725.778 12.887.778-1.435.778-8.065.777 9.74.778-8.174.778 3.338.778-6.3.778 7.324.778-3.926.777 3.693.778-7.675.778 4.69.778 1.222.778 2.591.777-2.596.778-5.811.778 3.815.778 8.976.778 3.063.777-13.09.778 4.801.778-2.784.778 2.896.778-3.168.778 6.545.777-2.762.778 10.216.778-14.615.778 2.865.778 5.133.777-10.343.778 1.868.778-3.189.778 5.492.778-.813.777-2.45.778 5.703.778-5.685.778 2.374.778.689.778-1.754.777 11.24.778-1.54.778-11.199.778 7.33.778-4.77.777 15.614.778-11.416.778.545.778-4.537.778-1.393.777 1.36.778-2.745.778 4.657.778 2.295.778-4.116.778 6.978.777-7.93.778-1.453.778.117.778-2.295" clip-path="url(#pe9a68cd11d)" style="fill:none;stroke-dasharray:1,1.65;stroke-dashoffset:0;stroke:#00f"/><path id="patch_8" d="M248.057 184.882V37.599" style="fill:none;stroke:#000;stroke-width:.5;stroke-linejoin:miter;stroke-linecap:square"/><path id="patch_9" d="M418.32 184.882V37.599" style="fill:none;stroke:#000;stroke-width:.5;stroke-linejoin:miter;stroke-linecap:square"/><path id="patch_10" d="M248.057 184.882H418.32" style="fill:none;stroke:#000;stroke-width:.5;stroke-linejoin:miter;stroke-linecap:square"/><path id="patch_11" d="M248.057 37.6H418.32" style="fill:none;stroke:#000;stroke-width:.5;stroke-linejoin:miter;stroke-linecap:square"/><g id="text_33" transform="matrix(.096 0 0 -.096 297.534 31.6)"><use xlink:href="#NimbusRomNo9L-Regu-46" transform="scale(.99626)"/><use xlink:href="#NimbusRomNo9L-Regu-72" transform="translate(55.392)scale(.99626)"/><use xlink:href="#NimbusRomNo9L-Regu-65" transform="translate(88.567)scale(.99626)"/><use xlink:href="#NimbusRomNo9L-Regu-71" transform="translate(132.8)scale(.99626)"/><use xlink:href="#NimbusRomNo9L-Regu-75" transform="translate(182.614)scale(.99626)"/><use xlink:href="#NimbusRomNo9L-Regu-65" transform="translate(232.427)scale(.99626)"/><use xlink:href="#NimbusRomNo9L-Regu-6e" transform="translate(276.66)scale(.99626)"/><use xlink:href="#NimbusRomNo9L-Regu-63" transform="translate(326.474)scale(.99626)"/><use xlink:href="#NimbusRomNo9L-Regu-79" transform="translate(369.214)scale(.99626)"/><use xlink:href="#NimbusRomNo9L-Regu-64" transform="translate(443.934)scale(.99626)"/><use xlink:href="#NimbusRomNo9L-Regu-6f" transform="translate(493.747)scale(.99626)"/><use xlink:href="#NimbusRomNo9L-Regu-6d" transform="translate(543.56)scale(.99626)"/><use xlink:href="#NimbusRomNo9L-Regu-61" transform="translate(621.068)scale(.99626)"/><use xlink:href="#NimbusRomNo9L-Regu-69" transform="translate(665.302)scale(.99626)"/><use xlink:href="#NimbusRomNo9L-Regu-6e" transform="translate(692.997)scale(.99626)"/></g></g><g id="text_34" transform="matrix(.096 0 0 -.096 184.257 10.084)"><defs><path id="NimbusRomNo9L-Regu-4e" d="M3917-64v3351c0 382 64 618 185 700 90 64 180 90 423 115v122H3021v-122c243-19 333-45 429-102 128-89 185-319 185-714V1136L1171 4224H77v-122c275 0 365-51 621-351V938c0-657-90-779-621-817V0h1504v134c-493 0-602 147-602 794v2511L3808-64z" transform="scale(.01563)"/><path id="NimbusRomNo9L-Regu-52" d="M4218 121c-244 19-372 84-557 303L2342 2061c429 82 621 158 832 327 205 165 327 430 327 725 0 272-83 505-250 688-243 258-774 423-1376 423H109v-122c480-51 544-121 544-574V765c0-529-64-606-544-644V0h1773v134c-493 0-576 85-576 558v1292h358L3187 0h1031zM1306 3762c0 175 70 225 326 225 800 0 1171-271 1171-864 0-316-134-581-365-700-294-165-518-202-1132-202z" transform="scale(.01563)"/></defs><use xlink:href="#NimbusRomNo9L-Regu-4d" transform="scale(.99626)"/><use xlink:href="#NimbusRomNo9L-Regu-65" transform="translate(88.567)scale(.99626)"/><use xlink:href="#NimbusRomNo9L-Regu-64" transform="translate(132.8)scale(.99626)"/><use xlink:href="#NimbusRomNo9L-Regu-69" transform="translate(182.614)scale(.99626)"/><use xlink:href="#NimbusRomNo9L-Regu-75" transform="translate(210.309)scale(.99626)"/><use xlink:href="#NimbusRomNo9L-Regu-6d" transform="translate(260.122)scale(.99626)"/><use xlink:href="#NimbusRomNo9L-Regu-53" transform="translate(362.537)scale(.99626)"/><use xlink:href="#NimbusRomNo9L-Regu-4e" transform="translate(417.929)scale(.99626)"/><use xlink:href="#NimbusRomNo9L-Regu-52" transform="translate(489.859)scale(.99626)"/></g></g><defs><clipPath id="p6579111d66"><path d="M36.377 37.599H206.64v147.282H36.377z"/></clipPath><clipPath id="pe9a68cd11d"><path d="M248.057 37.599H418.32v147.282H248.057z"/></clipPath></defs></svg>